<svg width="325" height="216" viewBox="0 0 325 216" fill="none" xmlns="http://www.w3.org/2000/svg">
<path d="M41.4068 112.518C41.6958 105.149 42.831 98.5457 45.7171 92.324C48.1592 87.0595 51.4851 82.4601 56.6416 79.3168C60.4116 77.0171 64.4957 76.1613 68.9359 76.5588C75.0516 77.1104 81.1798 77.5281 87.2997 78.027C93.5579 78.534 99.8244 78.9761 106.07 79.6413C108.512 79.9008 110.556 79.4628 112.676 78.2785C115.65 76.6196 119.005 76.2627 122.411 76.5304C128.602 77.0171 134.793 77.4998 140.984 78.0108C149.295 78.6962 157.601 79.4182 165.908 80.1036C174.461 80.8094 183.019 81.4745 191.573 82.1802C201.341 82.9833 211.109 83.8107 220.878 84.6259C223.207 84.8206 225.531 85.0843 227.869 85.1694C229.193 85.2181 230.16 85.7413 230.876 86.7066C231.706 87.822 232.782 88.1789 234.165 88.2843C244.147 89.059 254.125 89.9026 264.102 90.7219C268.97 91.1235 273.841 91.5007 278.701 91.963C279.396 92.0279 280.183 92.3848 280.694 92.8513C282.596 94.5872 283.966 96.7084 284.963 99.0405C285.26 99.7341 285.679 100.034 286.437 100.079C287.866 100.16 289.29 100.383 290.714 100.395C291.753 100.403 292.411 100.878 293.01 101.575C294.731 103.575 295.69 105.915 296.185 108.438C297.06 112.92 296.796 117.316 294.928 121.555C294.71 122.05 294.438 122.524 294.157 122.991C293.089 124.771 291.77 126.081 289.357 125.895C288.159 125.801 286.701 125.724 285.775 126.284C284.879 126.827 284.586 128.239 283.899 129.184C282.839 130.64 281.729 132.072 280.514 133.41C280.108 133.856 279.337 134.152 278.701 134.205C272.237 134.773 265.765 135.272 259.298 135.795C250.744 136.484 242.191 137.178 233.633 137.859C232.732 137.932 231.978 138.135 231.388 138.91C230.303 140.333 228.874 140.958 226.947 141.1C213.656 142.082 200.373 143.197 187.091 144.276C177.909 145.022 168.731 145.776 159.553 146.539C147.313 147.553 135.078 148.559 122.842 149.613C118.289 150.007 114.125 149.009 110.267 146.665C109.836 146.401 109.228 146.251 108.726 146.292C98.6054 147.095 88.4852 147.93 78.3691 148.766C75.483 149.005 72.5927 149.196 69.7192 149.536C62.3845 150.408 56.4657 147.833 51.5773 142.686C47.5183 138.407 45.0762 133.276 43.4677 127.76C41.9639 122.597 41.3523 117.296 41.3984 112.522L41.4068 112.518ZM128.145 77.7228L128.103 77.95C128.241 78.0473 128.367 78.1649 128.518 78.2339C133.423 80.5741 136.921 84.3096 139.593 88.8197C142.814 94.2627 144.532 100.176 145.277 106.382C146.379 115.58 145.399 124.532 141.721 133.114C139.409 138.508 136.096 143.213 130.964 146.511C129.992 147.135 128.949 147.658 127.94 148.226C129.758 148.267 131.551 148.149 133.339 147.999C141.926 147.293 150.509 146.571 159.096 145.87C167.512 145.18 175.927 144.515 184.338 143.83C194.35 143.014 204.361 142.187 214.377 141.364C218.792 141.003 223.207 140.63 227.622 140.293C228.61 140.216 229.398 139.895 230.11 139.198C232.079 137.283 233.612 135.081 234.848 132.68C237.285 127.959 238.437 122.918 238.877 117.681C239.476 110.624 238.877 103.713 236.427 97.0126C234.977 93.05 232.904 89.4362 229.67 86.5565C229.268 86.1996 228.661 85.9198 228.12 85.8751C222.247 85.356 216.37 84.8855 210.498 84.411C201.944 83.7215 193.386 83.0563 184.837 82.3546C174.583 81.5151 164.328 80.6431 154.074 79.7873C146.773 79.1789 139.476 78.5746 132.175 77.9743C130.834 77.8648 129.49 77.7999 128.149 77.7107L128.145 77.7228ZM232.883 88.8887C238.161 96.3515 239.803 104.504 239.811 113.066C239.815 121.62 238.144 129.756 232.971 137.146C233.662 137.146 234.098 137.178 234.525 137.141C241.86 136.541 249.19 135.929 256.521 135.324C263.751 134.728 270.976 134.136 278.21 133.564C279.132 133.491 279.852 133.191 280.493 132.526C283.086 129.845 284.695 126.649 285.687 123.161C287.417 117.085 287.468 110.928 286.161 104.792C285.26 100.578 283.551 96.676 280.397 93.4962C279.811 92.904 279.182 92.5592 278.311 92.5227C276.849 92.4578 275.391 92.2997 273.929 92.182C261.87 91.2005 249.806 90.219 237.746 89.2375C236.226 89.1158 234.705 89.0185 232.883 88.8846V88.8887ZM96.0754 112.23C96.1131 119.429 97.1309 125.696 99.5479 131.723C101.6 136.841 104.47 141.429 108.977 144.872C113.601 148.409 118.783 149.901 124.652 148.514C129.59 147.35 133.327 144.47 136.406 140.703C140.23 136.022 142.458 130.616 143.715 124.844C146.061 114.072 145.449 103.49 141.08 93.2325C138.885 88.0856 135.71 83.6404 130.943 80.3632C124.886 76.2019 117.091 76.0194 110.875 79.9171C106.527 82.6386 103.46 86.4308 101.173 90.8477C97.5708 97.8076 96.1675 105.262 96.0754 112.23ZM42.1608 113.025C42.1524 118.29 42.8142 123.461 44.4269 128.507C46.4543 134.846 49.5415 140.544 54.9451 144.848C60.9017 149.593 68.7055 150.339 75.2736 146.778C78.8885 144.819 81.6741 142.017 83.9319 138.707C87.6558 133.244 89.612 127.14 90.5126 120.723C91.7441 111.987 91.0027 103.405 87.8694 95.082C85.9049 89.8621 83.0481 85.1978 78.6037 81.5678C72.3037 76.4249 64.5753 75.6381 57.5003 79.5845C52.658 82.2857 49.4158 86.447 47.0031 91.2451C43.5431 98.1199 42.1608 105.433 42.1566 113.029L42.1608 113.025ZM74.1803 77.6944L74.1049 77.95C74.3939 78.1203 74.6704 78.315 74.9678 78.4569C77.9879 79.913 80.4468 82.0302 82.5747 84.5327C86.8055 89.5052 89.2182 95.3172 90.4958 101.535C92.7662 112.591 92.1085 123.449 87.3919 133.897C85.0838 139.003 81.8249 143.404 76.9617 146.539C76.0276 147.143 75.0306 147.65 74.0588 148.202L74.1216 148.433C85.5195 147.496 96.9173 146.555 108.579 145.598C107.289 144.333 106.158 143.335 105.157 142.232C100.838 137.47 98.3289 131.8 96.9173 125.716C94.559 115.56 94.8648 105.453 98.3876 95.5484C100.356 90.0121 103.305 85.0477 107.972 81.1744C108.135 81.0365 108.244 80.8377 108.516 80.4971C96.9466 79.552 85.5614 78.6273 74.1803 77.6985V77.6944ZM285.78 125.412C286.852 125.335 287.719 125.173 288.569 125.229C291.33 125.42 293.031 124.126 294.027 121.762C294.107 121.575 294.224 121.405 294.304 121.218C296.114 117.134 296.273 112.904 295.489 108.592C295.02 106.013 293.994 103.68 292.142 101.73C291.933 101.511 291.686 101.202 291.426 101.174C289.612 100.975 287.79 100.841 285.784 100.675C288.385 109.002 288.41 117.118 285.784 125.412H285.78Z" fill="black"/>
<path d="M13.7423 155.4C16.5237 152.727 19.2716 150.091 22.0111 147.446C24.4825 145.062 26.933 142.656 29.417 140.288C29.8694 139.858 29.7562 139.566 29.6432 139.01C29.2662 137.193 28.0263 137.218 26.5476 137.23C20.1261 137.278 13.7046 137.25 7.28312 137.25C6.96896 137.25 6.63804 137.291 6.34901 137.209C6.16889 137.161 5.91337 136.893 5.93432 136.755C5.96364 136.548 6.1647 136.268 6.36157 136.2C6.63804 136.098 6.98153 136.155 7.29569 136.155C14.0649 136.155 20.8382 136.139 27.6074 136.175C28.5289 136.179 28.9143 135.912 29.3709 135.08C30.0369 133.863 29.5803 133.251 28.7426 132.452C24.0259 127.946 19.3512 123.399 14.6639 118.865C14.3707 118.581 14.0942 118.281 13.5915 117.766C13.9057 117.542 14.1989 117.336 14.7351 116.962C15.6566 117.924 16.5237 118.885 17.4494 119.789C21.6508 123.886 25.8816 127.954 30.0746 132.063C30.6527 132.63 31.0841 132.59 31.8716 132.395C33.3712 132.022 33.4383 131.154 33.4299 129.949C33.3838 123.63 33.4089 117.311 33.4089 110.992C33.4089 110.688 33.3335 110.351 33.4424 110.088C33.543 109.844 33.8446 109.678 34.0582 109.479C34.2593 109.682 34.6237 109.881 34.6321 110.092C34.6823 111.613 34.6614 113.134 34.6614 114.655C34.6614 119.992 34.6781 125.334 34.6446 130.671C34.6404 131.483 34.8834 131.815 35.6835 132.221C36.9904 132.882 37.6397 132.375 38.4942 131.535C43.1982 126.92 47.9484 122.353 52.6902 117.77C53.042 117.429 53.3646 116.894 53.9594 117.478C54.6338 118.139 53.8337 118.37 53.5447 118.65C48.6563 123.419 43.7512 128.173 38.8251 132.902C38.2512 133.454 37.9496 133.908 38.5235 134.606C38.6701 134.78 38.7497 135.031 38.7916 135.263C38.934 136.013 39.4032 136.175 40.1404 136.171C46.9473 136.147 53.7541 136.143 60.5568 136.179C61.093 136.179 62.1318 135.709 62.0941 136.751C62.0606 137.635 61.0888 137.226 60.5568 137.23C53.7877 137.262 47.0143 137.266 40.2451 137.23C39.4199 137.23 38.9173 137.408 38.7581 138.232C38.7078 138.491 38.5947 138.763 38.4314 138.97C37.9873 139.525 38.1884 139.894 38.6534 140.341C43.5543 145.054 48.4385 149.779 53.2976 154.536C53.641 154.873 54.6757 155.169 53.9301 155.915C53.1426 156.702 52.7739 155.704 52.3927 155.339C47.5588 150.707 42.75 146.051 37.9664 141.375C37.3925 140.811 36.982 140.779 36.1861 141.01C34.8373 141.403 34.6153 142.121 34.6279 143.354C34.6949 149.807 34.6572 156.264 34.6572 162.717C34.6572 162.952 34.7158 163.22 34.6279 163.419C34.5357 163.621 34.276 163.901 34.1169 163.885C33.8739 163.861 33.5555 163.654 33.455 163.443C33.3335 163.187 33.4047 162.847 33.4047 162.542C33.4047 155.952 33.4047 149.361 33.4006 142.774C33.4006 142.235 33.6184 141.541 32.7555 141.387C31.8507 141.225 31.1302 140.255 29.9992 141.387C25.1485 146.238 20.1554 150.955 15.2419 155.749C14.5801 156.394 14.2198 156.244 13.7507 155.392L13.7423 155.4Z" fill="black"/>
<path d="M237.954 64.3583C229.753 64.3583 221.551 64.3583 213.349 64.3583C209.571 64.3583 207.761 62.6426 207.745 58.9599C207.715 52.1338 207.724 45.3078 207.745 38.4818C207.745 37.6625 207.648 37.0541 206.827 36.539C205.763 35.8738 205.755 34.4827 206.634 33.6188C207.51 32.763 208.88 32.7995 209.701 33.6999C210.505 34.5841 210.392 36.0117 209.34 36.6282C208.666 37.0257 208.494 37.4637 208.494 38.1735C208.515 45.1334 208.524 52.0973 208.494 59.0572C208.486 60.5985 208.779 62.0383 210.182 62.8698C210.995 63.3524 212.063 63.6485 213.014 63.6525C229.455 63.7012 245.892 63.685 262.334 63.6972C263.201 63.6972 264.101 63.6972 264.926 63.9162C267.088 64.4962 268.357 66.3092 268.365 68.694C268.382 75.2159 268.374 81.7377 268.378 88.2596C268.378 90.7945 268.37 93.3294 268.378 95.8644C268.391 98.5656 269.995 100.143 272.806 100.147C288.267 100.16 303.728 100.151 319.193 100.164C319.804 100.164 320.219 100.026 320.558 99.47C321.099 98.5859 322.087 98.2492 322.992 98.5656C323.901 98.886 324.429 99.5349 324.416 100.488C324.404 101.417 323.96 102.106 323.005 102.406C322.045 102.711 321.09 102.443 320.571 101.534C320.152 100.804 319.561 100.833 318.891 100.833C303.673 100.833 288.455 100.833 273.237 100.837C271.888 100.837 270.577 100.727 269.48 99.8635C268.139 98.8089 267.603 97.4299 267.607 95.763C267.632 87.2821 267.62 78.7972 267.62 70.3164C267.62 69.639 267.632 68.9617 267.595 68.2884C267.456 65.9482 265.835 64.3988 263.397 64.3704C260.151 64.3299 256.905 64.3583 253.658 64.3583C248.422 64.3583 243.186 64.3583 237.95 64.3583H237.954Z" fill="black"/>
<path d="M16.4436 192C16.9756 193.302 17.4573 194.628 18.0605 195.902C18.2657 196.336 18.7014 196.782 19.1454 196.981C20.49 197.585 21.8933 198.072 23.3007 198.854C22.0608 199.325 20.8377 199.84 19.5768 200.254C18.7223 200.534 18.1736 200.963 17.8929 201.844C17.495 203.081 16.9253 204.269 16.1671 205.482C15.698 204.354 15.1408 203.255 14.7848 202.095C14.4581 201.037 13.8172 200.493 12.7574 200.173C11.5761 199.816 10.4452 199.292 9 198.729C10.6295 198.096 11.995 197.63 13.2977 197.025C13.8004 196.79 14.2905 196.311 14.5335 195.825C15.1492 194.592 15.6184 193.29 16.1462 192.016L16.4478 192H16.4436Z" fill="black"/>
<path d="M295.915 163.964C294.655 164.43 293.398 164.913 292.129 165.359C291.358 165.631 290.855 166.069 290.596 166.86C290.185 168.101 289.661 169.306 289.062 170.835C288.736 170.161 288.509 169.772 288.354 169.362C287.45 166.95 285.749 165.296 283.252 164.398C282.842 164.252 282.436 164.098 282.029 163.948C282.021 163.85 282.008 163.753 282 163.66C282.976 163.279 283.927 162.792 284.936 162.54C286.39 162.183 287.311 161.47 287.684 160.005C287.944 158.979 288.447 158.01 288.845 157.016L289.146 157C289.611 158.172 290.135 159.328 290.524 160.525C290.838 161.49 291.404 162.033 292.413 162.325C293.628 162.674 294.789 163.197 295.97 163.644L295.915 163.968V163.964Z" fill="black"/>
<path d="M175.948 66.326C174.67 66.8249 173.41 67.3765 172.107 67.8023C171.319 68.0619 170.942 68.5446 170.678 69.2584C170.234 70.4589 169.715 71.6351 169.154 73.0101C168.919 72.6734 168.756 72.4869 168.647 72.2719C168.521 72.0326 168.442 71.769 168.345 71.5175C167.482 69.2733 165.891 67.7253 163.57 66.8735C163.092 66.6991 162.623 66.5045 162.112 66.0461C163.118 65.6487 164.089 65.1376 165.128 64.8862C166.594 64.5374 167.344 63.7018 167.734 62.3391C168.023 61.3291 168.534 60.3801 169.066 59.1309C169.665 60.5788 170.218 61.6982 170.591 62.8704C170.9 63.8438 171.462 64.3873 172.463 64.6915C173.648 65.0524 174.788 65.5594 175.948 66.0015L175.956 66.326H175.948Z" fill="black"/>
<path d="M128.145 77.7229C129.485 77.8081 130.83 77.877 132.17 77.9865C139.472 78.5827 146.773 79.1911 154.07 79.7995C164.324 80.6553 174.578 81.5233 184.833 82.3669C193.386 83.0686 201.94 83.7337 210.493 84.4232C216.37 84.8977 222.247 85.3682 228.116 85.8874C228.652 85.9361 229.264 86.2119 229.666 86.5688C232.904 89.4485 234.977 93.0622 236.422 97.0248C238.873 103.725 239.472 110.636 238.873 117.694C238.429 122.934 237.277 127.971 234.843 132.692C233.607 135.089 232.074 137.292 230.106 139.21C229.393 139.904 228.606 140.228 227.617 140.305C223.202 140.642 218.787 141.015 214.372 141.376C204.361 142.199 194.35 143.027 184.334 143.842C175.919 144.527 167.503 145.192 159.092 145.882C150.505 146.584 141.918 147.306 133.335 148.011C131.546 148.157 129.758 148.279 127.936 148.238C128.945 147.671 129.988 147.147 130.96 146.523C136.091 143.225 139.405 138.521 141.717 133.126C145.395 124.54 146.375 115.593 145.273 106.394C144.528 100.188 142.81 94.275 139.589 88.832C136.916 84.3178 133.419 80.5823 128.514 78.2461C128.363 78.1731 128.237 78.0555 128.099 77.9622L128.141 77.7351L128.145 77.7229Z" fill="white"/>
<path d="M232.887 88.8928C234.705 89.0226 236.23 89.1199 237.75 89.2457C249.81 90.2231 261.874 91.2087 273.934 92.1903C275.391 92.3079 276.853 92.4661 278.315 92.5309C279.186 92.5675 279.815 92.9122 280.401 93.5044C283.555 96.6842 285.264 100.582 286.165 104.8C287.476 110.937 287.422 117.093 285.692 123.169C284.699 126.657 283.09 129.853 280.498 132.534C279.857 133.199 279.136 133.499 278.215 133.572C270.985 134.144 263.755 134.736 256.525 135.333C249.19 135.937 241.86 136.549 234.529 137.15C234.098 137.186 233.662 137.154 232.975 137.154C238.153 129.76 239.824 121.624 239.816 113.074C239.811 104.512 238.165 96.3597 232.887 88.8969V88.8928Z" fill="white"/>
<path d="M96.0752 112.234C96.1673 105.262 97.5706 97.8116 101.173 90.8517C103.456 86.4348 106.526 82.6467 110.874 79.9211C117.091 76.0275 124.886 76.2059 130.943 80.3672C135.71 83.6403 138.885 88.0856 141.08 93.2366C145.449 103.494 146.061 114.076 143.715 124.848C142.458 130.62 140.23 136.026 136.405 140.707C133.327 144.479 129.59 147.354 124.651 148.518C118.779 149.901 113.601 148.413 108.977 144.876C104.47 141.429 101.604 136.841 99.5477 131.727C97.1308 125.7 96.1129 119.433 96.0752 112.234ZM102.036 113.252C102.036 118.05 102.639 122.342 104.239 127.351C105.571 131.52 107.527 135.389 110.644 138.614C113.124 141.177 116.035 143.002 119.767 143.262C123.826 143.542 127.073 141.85 129.879 139.206C133.452 135.84 135.618 131.63 136.988 127.091C139.995 117.126 139.907 107.156 136.363 97.3046C134.805 92.977 132.539 89.0306 128.853 86.0293C124.71 82.6507 120.086 81.7828 115.139 84.1514C111.762 85.7697 109.387 88.4912 107.507 91.602C103.531 98.1726 102.157 105.376 102.036 113.252Z" fill="white"/>
<path d="M42.1602 113.029C42.1602 105.433 43.5467 98.1199 47.0066 91.2452C49.4194 86.4471 52.6616 82.2857 57.5039 79.5845C64.5746 75.6382 72.3072 76.425 78.6073 81.5679C83.0516 85.1979 85.9084 89.8621 87.873 95.082C91.0062 103.409 91.7477 111.991 90.5161 120.723C89.6114 127.14 87.6594 133.244 83.9355 138.707C81.6777 142.021 78.8879 144.823 75.2771 146.778C68.709 150.335 60.9052 149.593 54.9487 144.848C49.5451 140.544 46.4579 134.846 44.4305 128.507C42.8178 123.465 42.156 118.29 42.1643 113.025L42.1602 113.029ZM85.1167 112.968C85.0748 109.132 84.7104 104.97 83.5627 100.898C82.0547 95.5485 79.7927 90.6125 75.6206 86.6377C71.6161 82.8252 66.1957 81.7747 61.2906 84.0906C58.3333 85.4858 56.1341 87.7531 54.3329 90.3813C51.0866 95.1226 49.4487 100.411 48.5942 105.992C47.3543 114.08 48.1334 121.96 51.095 129.614C52.6951 133.751 55.0199 137.434 58.5469 140.338C62.5431 143.627 67.6953 144.199 72.2947 141.818C75.6793 140.066 78.0208 137.316 79.8639 134.165C83.6381 127.712 85.033 120.675 85.1125 112.968H85.1167Z" fill="white"/>
<path d="M74.1801 77.6984C85.5612 78.6272 96.9464 79.556 108.516 80.497C108.244 80.8376 108.135 81.0404 107.971 81.1743C103.305 85.0476 100.356 90.012 98.3874 95.5483C94.8688 105.453 94.563 115.56 96.9171 125.716C98.3287 131.8 100.838 137.47 105.157 142.232C106.158 143.335 107.289 144.332 108.579 145.598C96.9171 146.559 85.5193 147.496 74.1214 148.433L74.0586 148.202C75.0262 147.65 76.0273 147.139 76.9615 146.539C81.8247 143.404 85.0878 139.003 87.3917 133.897C92.1125 123.449 92.7701 112.591 90.4956 101.535C89.218 95.3171 86.8052 89.5051 82.5745 84.5326C80.4466 82.0301 77.9877 79.9129 74.9676 78.4568C74.666 78.3108 74.3895 78.1202 74.1047 77.9499L74.1801 77.6943V77.6984Z" fill="white"/>
<path d="M285.78 125.416C288.406 117.117 288.381 109.006 285.78 100.679C287.786 100.849 289.608 100.983 291.422 101.178C291.682 101.206 291.929 101.514 292.138 101.733C293.99 103.68 295.012 106.016 295.485 108.596C296.273 112.907 296.109 117.138 294.3 121.222C294.216 121.409 294.103 121.579 294.023 121.765C293.022 124.134 291.326 125.424 288.565 125.233C287.715 125.176 286.848 125.339 285.775 125.416H285.78Z" fill="white"/>
<path d="M102.037 113.252C102.158 105.376 103.528 98.1726 107.507 91.602C109.392 88.4912 111.763 85.7656 115.139 84.1514C120.086 81.7828 124.711 82.6507 128.854 86.0293C132.536 89.0306 134.806 92.977 136.364 97.3046C139.908 107.156 139.996 117.126 136.988 127.091C135.619 131.63 133.453 135.84 129.88 139.206C127.078 141.85 123.827 143.542 119.768 143.262C116.036 143.002 113.124 141.177 110.645 138.614C107.524 135.393 105.568 131.524 104.24 127.351C102.644 122.342 102.037 118.05 102.037 113.252Z" fill="black"/>
<path d="M85.1173 112.968C85.0377 120.671 83.6428 127.712 79.8686 134.165C78.0255 137.316 75.684 140.062 72.2994 141.818C67.7001 144.203 62.5478 143.627 58.5516 140.338C55.0246 137.434 52.6956 133.751 51.0997 129.614C48.1423 121.96 47.3632 114.084 48.5989 105.992C49.4535 100.411 51.0913 95.1226 54.3376 90.3813C56.1388 87.7531 58.3338 85.4858 61.2953 84.0906C66.2004 81.7747 71.6208 82.8252 75.6253 86.6377C79.7974 90.6125 82.0594 95.5485 83.5674 100.898C84.7151 104.97 85.0796 109.132 85.1214 112.968H85.1173Z" fill="black"/>
</svg>
