<svg width="46" height="46" viewBox="0 0 46 46" fill="none" xmlns="http://www.w3.org/2000/svg">
<g filter="url(#filter0_dd_4403_37750)">
<g clip-path="url(#clip0_4403_37750)">
<rect x="10" y="6" width="26" height="26" fill="#7B44DA"/>
<g clip-path="url(#clip1_4403_37750)">
<path d="M27.8748 19.3237C27.8859 19.3258 27.8857 19.3459 27.9016 19.3402V19.3553C26.3587 20.2734 24.8158 21.1916 23.2726 22.1095C23.2541 22.1205 23.2379 22.1387 23.2131 22.136C23.2131 20.5286 23.2131 18.9214 23.213 17.3141C23.213 17.2816 23.21 17.2493 23.2085 17.2168H23.2097C23.2354 17.2254 23.2621 17.2317 23.2868 17.2428C23.4067 17.2969 23.5259 17.3527 23.6455 17.4073C24.1263 17.627 24.6074 17.8464 25.0881 18.0664C25.3747 18.1975 25.6609 18.3299 25.9475 18.461C26.4801 18.7046 27.0123 18.9494 27.5465 19.1897C27.6541 19.2381 27.7543 19.307 27.8748 19.3237Z" fill="#D5B5F7"/>
<path d="M23.2084 17.2168C23.21 17.2493 23.2129 17.2816 23.2129 17.3141C23.213 18.9214 23.213 20.5286 23.213 22.136C23.0569 22.0651 22.9159 21.9677 22.7691 21.8805C21.3539 21.0396 19.9393 20.1973 18.5244 19.3554C18.5244 19.3504 18.5244 19.3453 18.5244 19.3404L18.5388 19.3399C18.5552 19.3348 18.5722 19.3313 18.5877 19.3243C19.0309 19.1217 19.4741 18.9187 19.9171 18.716C20.8326 18.2971 21.7481 17.8778 22.6641 17.4601C22.8448 17.3777 23.0221 17.2873 23.2082 17.2171L23.2084 17.2168Z" fill="#DFC8F9"/>
<path d="M18.5542 20.2727C18.7537 20.3739 18.9412 20.4961 19.1333 20.6101C20.4787 21.4092 21.8233 22.2096 23.1681 23.0096C23.1831 23.0185 23.1977 23.0281 23.2123 23.0375C23.2123 24.1898 23.2125 25.3419 23.2128 26.4942C23.2128 26.6245 23.214 26.7547 23.2146 26.8849C23.1497 26.8329 23.1133 26.7583 23.0669 26.6924C21.8891 25.0234 20.7126 23.3535 19.536 21.6838C19.2209 21.2367 18.9059 20.7897 18.5917 20.3422C18.5768 20.3208 18.5512 20.3034 18.5552 20.2715L18.5542 20.2727Z" fill="white"/>
<path d="M23.2142 26.8854C23.2136 26.7551 23.2124 26.6249 23.2124 26.4947C23.2121 25.3424 23.2121 24.1902 23.2119 23.0379C24.3901 22.337 25.5681 21.636 26.7462 20.9352C27.1055 20.7216 27.465 20.5083 27.8243 20.2951C27.8391 20.2864 27.855 20.2792 27.8703 20.2713L27.8693 20.2695C27.8821 20.3002 27.8542 20.314 27.8414 20.3322C26.3135 22.5002 24.7851 24.6678 23.2566 26.8351C23.244 26.853 23.2283 26.8687 23.2142 26.8854Z" fill="#EADAFB"/>
<path d="M18.5552 20.2709L18.5469 20.2657C18.5484 20.2657 18.5507 20.2654 18.5513 20.2661C18.5526 20.2678 18.5533 20.27 18.5542 20.2721L18.5552 20.2709Z" fill="#8B8B8B"/>
<path d="M27.8706 20.2725L27.8818 20.2656L27.8814 20.2727C27.8775 20.272 27.8735 20.2715 27.8696 20.2707L27.8708 20.2725H27.8706Z" fill="#3C3C3B"/>
<path d="M23.2081 17.2169C23.022 17.2872 22.8447 17.3775 22.6639 17.4599C21.7479 17.8776 20.8325 18.297 19.9169 18.7158C19.4737 18.9185 19.0307 19.1215 18.5876 19.324C18.572 19.3311 18.5549 19.3346 18.5386 19.3397C18.6717 19.114 18.8035 18.8875 18.938 18.6626C20.0153 16.8617 21.0932 15.0607 22.171 13.2598C22.5059 12.7002 22.8411 12.1407 23.1765 11.5815C23.1859 11.5657 23.1885 11.5415 23.2148 11.541C23.2139 11.5785 23.2122 11.6161 23.2122 11.6535C23.2122 13.473 23.2122 15.2925 23.2119 17.1119C23.2119 17.1469 23.2101 17.1818 23.2093 17.2169H23.2081Z" fill="white"/>
<path d="M23.2095 17.2169C23.2104 17.1818 23.2122 17.1469 23.2122 17.1119C23.2122 15.2924 23.2122 13.4729 23.2125 11.6535C23.2125 11.6161 23.2141 11.5785 23.215 11.541C23.3042 11.661 23.3733 11.7935 23.4498 11.9213C24.9129 14.3643 26.3752 16.8078 27.8374 19.2513C27.8513 19.2746 27.8624 19.2995 27.8748 19.3237C27.7541 19.3071 27.654 19.2382 27.5465 19.1898C27.0124 18.9495 26.4802 18.7048 25.9474 18.4611C25.6608 18.3299 25.3746 18.1976 25.088 18.0665C24.6072 17.8465 24.1263 17.6271 23.6455 17.4074C23.5258 17.3527 23.4066 17.297 23.2867 17.2429C23.262 17.2318 23.2355 17.2254 23.2096 17.217L23.2095 17.2169Z" fill="#EADAFB"/>
</g>
</g>
<rect x="10.5" y="6.5" width="25" height="25" rx="5.5" stroke="black" style="mix-blend-mode:soft-light" shape-rendering="crispEdges"/>
</g>
<defs>
<filter id="filter0_dd_4403_37750" x="0" y="0" width="46" height="46" filterUnits="userSpaceOnUse" color-interpolation-filters="sRGB">
<feFlood flood-opacity="0" result="BackgroundImageFix"/>
<feColorMatrix in="SourceAlpha" type="matrix" values="0 0 0 0 0 0 0 0 0 0 0 0 0 0 0 0 0 0 127 0" result="hardAlpha"/>
<feOffset dy="1"/>
<feGaussianBlur stdDeviation="0.5"/>
<feComposite in2="hardAlpha" operator="out"/>
<feColorMatrix type="matrix" values="0 0 0 0 0 0 0 0 0 0 0 0 0 0 0 0 0 0 0.04 0"/>
<feBlend mode="normal" in2="BackgroundImageFix" result="effect1_dropShadow_4403_37750"/>
<feColorMatrix in="SourceAlpha" type="matrix" values="0 0 0 0 0 0 0 0 0 0 0 0 0 0 0 0 0 0 127 0" result="hardAlpha"/>
<feOffset dy="4"/>
<feGaussianBlur stdDeviation="5"/>
<feComposite in2="hardAlpha" operator="out"/>
<feColorMatrix type="matrix" values="0 0 0 0 0 0 0 0 0 0 0 0 0 0 0 0 0 0 0.04 0"/>
<feBlend mode="normal" in2="effect1_dropShadow_4403_37750" result="effect2_dropShadow_4403_37750"/>
<feBlend mode="normal" in="SourceGraphic" in2="effect2_dropShadow_4403_37750" result="shape"/>
</filter>
<clipPath id="clip0_4403_37750">
<rect x="10" y="6" width="26" height="26" rx="6" fill="white"/>
</clipPath>
<clipPath id="clip1_4403_37750">
<rect width="9.37705" height="15.3443" fill="white" transform="translate(18.5244 11.541)"/>
</clipPath>
</defs>
</svg>
