<svg width="61" height="61" viewBox="0 0 61 61" fill="none" xmlns="http://www.w3.org/2000/svg">
<rect width="61" height="61" fill="#E84042"/>
<g clip-path="url(#clip0_2402_53758)">
<path d="M49.9949 30.5161C49.9753 40.746 41.6883 49.0464 31.4128 48.9993C21.0619 48.9521 12.9187 40.4766 12.9996 30.3488C13.0813 20.2949 21.2638 11.978 31.5432 12C41.7433 12.022 50.0043 20.3145 49.9949 30.5161ZM24.2446 38.723V38.7175C25.0569 38.7175 25.8701 38.734 26.6816 38.7136C27.9732 38.6814 28.9781 38.1212 29.6718 37.0221C29.7684 36.8697 29.8635 36.7157 29.9531 36.5593C31.3987 34.0319 32.8435 31.5037 34.2867 28.9747C34.5837 28.4546 34.8893 27.94 35.1556 27.4034C35.4015 26.9092 35.5178 26.386 35.5147 25.8353C35.5115 25.2311 35.3512 24.6686 35.0606 24.1422C34.2671 22.706 33.4476 21.2848 32.6196 19.8691C32.541 19.7347 32.4467 19.6098 32.3595 19.481C31.9274 18.8462 30.9398 18.8729 30.5258 19.4794C30.3404 19.7504 30.1668 20.0286 30.0041 20.3137C28.5201 22.9142 27.0368 25.5147 25.5542 28.116C23.9617 30.9098 22.3708 33.7035 20.7799 36.4981C20.6502 36.7259 20.5355 36.9616 20.4397 37.2067C20.2079 37.7983 20.644 38.6004 21.3416 38.6782C21.5459 38.701 21.7486 38.7246 21.9544 38.7238C22.7173 38.723 23.4809 38.7238 24.2438 38.7238L24.2446 38.723ZM38.706 38.723V38.7246C39.6252 38.7246 40.5444 38.7246 41.4636 38.7246C41.7511 38.7246 42.0363 38.7112 42.3231 38.679C43.0341 38.5989 43.4764 37.759 43.2171 37.1863C43.1527 37.0449 43.0969 36.8979 43.0215 36.762C42.807 36.3747 42.587 35.9897 42.3639 35.6071C41.5909 34.2817 40.817 32.9571 40.0408 31.6341C39.8876 31.3725 39.7336 31.1093 39.5262 30.8846C39.0886 30.4117 38.3147 30.4203 37.8842 30.8995C37.7294 31.0716 37.6037 31.2641 37.4882 31.4629C36.492 33.1701 35.4966 34.8788 34.5035 36.5884C34.3841 36.7942 34.2733 37.0056 34.2003 37.2334C33.9952 37.8714 34.4273 38.569 35.0896 38.6727C35.3088 38.7073 35.5296 38.7238 35.7519 38.723C36.7371 38.7214 37.7215 38.723 38.7067 38.723H38.706Z" fill="white"/>
</g>
<defs>
<clipPath id="clip0_2402_53758">
<rect width="36.9953" height="37" fill="white" transform="translate(13 12)"/>
</clipPath>
</defs>
</svg>
