<svg width="46" height="46" viewBox="0 0 46 46" fill="none" xmlns="http://www.w3.org/2000/svg">
<g filter="url(#filter0_dd_4403_37772)">
<g clip-path="url(#clip0_4403_37772)">
<rect x="10" y="6" width="26" height="26" rx="6" fill="#5ADDA6"/>
<g clip-path="url(#clip1_4403_37772)">
<path d="M18.6102 21.8057C18.6936 21.7226 18.8067 21.6758 18.9247 21.6758H29.8101C30.0083 21.6758 30.1078 21.9148 29.9675 22.0546L27.8165 24.1973C27.7332 24.2804 27.62 24.3272 27.502 24.3272H16.6166C16.4184 24.3272 16.3189 24.0882 16.4592 23.9484L18.6102 21.8057Z" fill="white"/>
<path d="M18.6102 13.8018C18.6936 13.7187 18.8067 13.6719 18.9247 13.6719H29.8101C30.0083 13.6719 30.1078 13.9109 29.9675 14.0507L27.8165 16.1934C27.7332 16.2765 27.62 16.3233 27.502 16.3233H16.6166C16.4184 16.3233 16.3189 16.0843 16.4592 15.9445L18.6102 13.8018Z" fill="white"/>
<path d="M27.8165 17.7784C27.7332 17.6953 27.62 17.6484 27.502 17.6484H16.6166C16.4184 17.6484 16.3189 17.8874 16.4592 18.0273L18.6102 20.17C18.6936 20.2531 18.8067 20.2999 18.9247 20.2999H29.8101C30.0083 20.2999 30.1078 20.0609 29.9675 19.9211L27.8165 17.7784Z" fill="white"/>
</g>
</g>
<rect x="10.5" y="6.5" width="25" height="25" rx="5.5" stroke="black" style="mix-blend-mode:soft-light" shape-rendering="crispEdges"/>
</g>
<defs>
<filter id="filter0_dd_4403_37772" x="0" y="0" width="46" height="46" filterUnits="userSpaceOnUse" color-interpolation-filters="sRGB">
<feFlood flood-opacity="0" result="BackgroundImageFix"/>
<feColorMatrix in="SourceAlpha" type="matrix" values="0 0 0 0 0 0 0 0 0 0 0 0 0 0 0 0 0 0 127 0" result="hardAlpha"/>
<feOffset dy="1"/>
<feGaussianBlur stdDeviation="0.5"/>
<feComposite in2="hardAlpha" operator="out"/>
<feColorMatrix type="matrix" values="0 0 0 0 0 0 0 0 0 0 0 0 0 0 0 0 0 0 0.04 0"/>
<feBlend mode="normal" in2="BackgroundImageFix" result="effect1_dropShadow_4403_37772"/>
<feColorMatrix in="SourceAlpha" type="matrix" values="0 0 0 0 0 0 0 0 0 0 0 0 0 0 0 0 0 0 127 0" result="hardAlpha"/>
<feOffset dy="4"/>
<feGaussianBlur stdDeviation="5"/>
<feComposite in2="hardAlpha" operator="out"/>
<feColorMatrix type="matrix" values="0 0 0 0 0 0 0 0 0 0 0 0 0 0 0 0 0 0 0.04 0"/>
<feBlend mode="normal" in2="effect1_dropShadow_4403_37772" result="effect2_dropShadow_4403_37772"/>
<feBlend mode="normal" in="SourceGraphic" in2="effect2_dropShadow_4403_37772" result="shape"/>
</filter>
<clipPath id="clip0_4403_37772">
<rect x="10" y="6" width="26" height="26" rx="6" fill="white"/>
</clipPath>
<clipPath id="clip1_4403_37772">
<rect width="13.6393" height="10.6557" fill="white" transform="translate(16.3936 13.6719)"/>
</clipPath>
</defs>
</svg>
