<svg width="14" height="15" viewBox="0 0 14 15" fill="none" xmlns="http://www.w3.org/2000/svg">
<g clip-path="url(#clip0_1139_17072)">
<path d="M11.6667 5.625H6.41667C5.77233 5.625 5.25 6.18464 5.25 6.875V12.5C5.25 13.1904 5.77233 13.75 6.41667 13.75H11.6667C12.311 13.75 12.8333 13.1904 12.8333 12.5V6.875C12.8333 6.18464 12.311 5.625 11.6667 5.625Z" stroke="#B0B1B3" stroke-width="1.5" stroke-linecap="round" stroke-linejoin="round"/>
<path d="M2.91669 9.375H2.33335C2.02393 9.375 1.72719 9.2433 1.5084 9.00888C1.2896 8.77446 1.16669 8.45652 1.16669 8.125V2.5C1.16669 2.16848 1.2896 1.85054 1.5084 1.61612C1.72719 1.3817 2.02393 1.25 2.33335 1.25H7.58335C7.89277 1.25 8.18952 1.3817 8.40831 1.61612C8.6271 1.85054 8.75002 2.16848 8.75002 2.5V3.125" stroke="#B0B1B3" stroke-width="1.5" stroke-linecap="round" stroke-linejoin="round"/>
</g>
<defs>
<clipPath id="clip0_1139_17072">
<rect width="14" height="15" fill="white"/>
</clipPath>
</defs>
</svg>
