<svg width="192" height="173" viewBox="0 0 192 173" fill="none" xmlns="http://www.w3.org/2000/svg">
<g filter="url(#filter0_d_6184_50357)">
<rect x="1" width="189.7" height="171.5" rx="8.4" fill="white"/>
<rect x="1" width="189.7" height="171.5" rx="8.4" fill="url(#paint0_linear_6184_50357)" fill-opacity="0.2"/>
<path d="M18.1122 70L15.2884 59.8182H16.9041L18.8878 67.7031H18.9822L21.0455 59.8182H22.6463L24.7095 67.7081H24.804L26.7827 59.8182H28.4034L25.5746 70H24.0284L21.8857 62.3736H21.8061L19.6634 70H18.1122ZM32.2241 70.1541C31.4717 70.1541 30.8237 69.9934 30.2802 69.6719C29.7399 69.3471 29.3223 68.8913 29.0273 68.3047C28.7357 67.7147 28.5898 67.0237 28.5898 66.2315C28.5898 65.4493 28.7357 64.7599 29.0273 64.1634C29.3223 63.5668 29.7333 63.1011 30.2603 62.7663C30.7906 62.4316 31.4104 62.2642 32.1197 62.2642C32.5505 62.2642 32.9682 62.3355 33.3725 62.478C33.7769 62.6205 34.1398 62.8442 34.4613 63.1491C34.7828 63.4541 35.0363 63.8501 35.2219 64.3374C35.4076 64.8213 35.5004 65.4096 35.5004 66.1023V66.6293H29.43V65.5156H34.0437C34.0437 65.1245 33.9641 64.7782 33.805 64.4766C33.646 64.1716 33.4222 63.9313 33.1339 63.7557C32.8488 63.58 32.5141 63.4922 32.1296 63.4922C31.712 63.4922 31.3474 63.5949 31.0359 63.8004C30.7276 64.0026 30.489 64.2678 30.32 64.5959C30.1542 64.9207 30.0714 65.2737 30.0714 65.6548V66.5249C30.0714 67.0353 30.1609 67.4695 30.3398 67.8274C30.5221 68.1854 30.7757 68.4588 31.1005 68.6477C31.4253 68.8333 31.8048 68.9261 32.239 68.9261C32.5207 68.9261 32.7776 68.8864 33.0096 68.8068C33.2416 68.724 33.4421 68.6013 33.6112 68.4389C33.7802 68.2765 33.9094 68.076 33.9989 67.8374L35.4059 68.0909C35.2932 68.5052 35.091 68.8681 34.7994 69.1797C34.511 69.4879 34.1481 69.7282 33.7106 69.9006C33.2764 70.0696 32.7809 70.1541 32.2241 70.1541ZM38.4274 59.8182V60.7727C38.4274 61.0545 38.3743 61.3511 38.2683 61.6626C38.1655 61.9709 38.0197 62.2675 37.8308 62.5526C37.6419 62.8376 37.4198 63.0829 37.1646 63.2884L36.4288 62.7614C36.6243 62.4763 36.7934 62.1731 36.9359 61.8516C37.0817 61.5301 37.1547 61.1754 37.1547 60.7876V59.8182H38.4274ZM41.4252 59.8182V70H39.9387V59.8182H41.4252ZM44.9116 59.8182V70H43.4251V59.8182H44.9116ZM50.7358 70V59.8182H52.2223V63.6016H52.3118C52.398 63.4425 52.5223 63.2585 52.6847 63.0497C52.8471 62.8409 53.0724 62.6586 53.3608 62.5028C53.6491 62.3438 54.0303 62.2642 54.5043 62.2642C55.1207 62.2642 55.6709 62.42 56.1548 62.7315C56.6387 63.0431 57.0182 63.4922 57.2933 64.0788C57.5717 64.6655 57.7109 65.3714 57.7109 66.1967C57.7109 67.022 57.5734 67.7296 57.2983 68.3196C57.0232 68.9062 56.6454 69.3587 56.1648 69.6768C55.6842 69.9917 55.1357 70.1491 54.5192 70.1491C54.0552 70.1491 53.6757 70.0713 53.3807 69.9155C53.089 69.7597 52.8603 69.5774 52.6946 69.3686C52.5289 69.1598 52.4013 68.9742 52.3118 68.8118H52.1875V70H50.7358ZM52.1925 66.1818C52.1925 66.7187 52.2704 67.1894 52.4261 67.5938C52.5819 67.9981 52.8073 68.3146 53.1023 68.5433C53.3973 68.7687 53.7585 68.8814 54.1861 68.8814C54.6302 68.8814 55.0014 68.7637 55.2997 68.5284C55.598 68.2898 55.8234 67.9666 55.9759 67.5589C56.1316 67.1513 56.2095 66.6922 56.2095 66.1818C56.2095 65.678 56.1333 65.2256 55.9808 64.8246C55.8317 64.4235 55.6063 64.107 55.3047 63.875C55.0064 63.643 54.6335 63.527 54.1861 63.527C53.7552 63.527 53.3906 63.638 53.0923 63.8601C52.7973 64.0821 52.5736 64.392 52.4212 64.7898C52.2687 65.1875 52.1925 65.6515 52.1925 66.1818ZM62.6713 70.1541C61.919 70.1541 61.271 69.9934 60.7275 69.6719C60.1872 69.3471 59.7696 68.8913 59.4746 68.3047C59.1829 67.7147 59.0371 67.0237 59.0371 66.2315C59.0371 65.4493 59.1829 64.7599 59.4746 64.1634C59.7696 63.5668 60.1806 63.1011 60.7076 62.7663C61.2379 62.4316 61.8577 62.2642 62.5669 62.2642C62.9978 62.2642 63.4154 62.3355 63.8198 62.478C64.2241 62.6205 64.5871 62.8442 64.9086 63.1491C65.2301 63.4541 65.4836 63.8501 65.6692 64.3374C65.8548 64.8213 65.9476 65.4096 65.9476 66.1023V66.6293H59.8773V65.5156H64.4909C64.4909 65.1245 64.4114 64.7782 64.2523 64.4766C64.0932 64.1716 63.8695 63.9313 63.5811 63.7557C63.2961 63.58 62.9614 63.4922 62.5769 63.4922C62.1593 63.4922 61.7947 63.5949 61.4831 63.8004C61.1749 64.0026 60.9363 64.2678 60.7672 64.5959C60.6015 64.9207 60.5186 65.2737 60.5186 65.6548V66.5249C60.5186 67.0353 60.6081 67.4695 60.7871 67.8274C60.9694 68.1854 61.223 68.4588 61.5478 68.6477C61.8726 68.8333 62.2521 68.9261 62.6863 68.9261C62.968 68.9261 63.2248 68.8864 63.4569 68.8068C63.6889 68.724 63.8894 68.6013 64.0584 68.4389C64.2275 68.2765 64.3567 68.076 64.4462 67.8374L65.8532 68.0909C65.7405 68.5052 65.5383 68.8681 65.2466 69.1797C64.9583 69.4879 64.5953 69.7282 64.1578 69.9006C63.7237 70.0696 63.2282 70.1541 62.6713 70.1541ZM77.0243 64.228L75.677 64.4666C75.6207 64.2943 75.5312 64.1302 75.4086 63.9744C75.2892 63.8187 75.1268 63.6911 74.9213 63.5916C74.7159 63.4922 74.459 63.4425 74.1507 63.4425C73.7298 63.4425 73.3785 63.5369 73.0968 63.7259C72.815 63.9115 72.6742 64.1518 72.6742 64.4467C72.6742 64.7019 72.7686 64.9074 72.9576 65.0632C73.1465 65.219 73.4514 65.3466 73.8723 65.446L75.0854 65.7244C75.7881 65.8868 76.3117 66.1371 76.6564 66.4751C77.0011 66.8132 77.1735 67.2524 77.1735 67.7926C77.1735 68.25 77.0409 68.6577 76.7757 69.0156C76.5139 69.3703 76.1477 69.6487 75.677 69.8509C75.2097 70.053 74.6678 70.1541 74.0513 70.1541C73.1962 70.1541 72.4985 69.9718 71.9583 69.6072C71.418 69.2393 71.0866 68.7173 70.964 68.0412L72.4007 67.8224C72.4902 68.197 72.6742 68.4804 72.9526 68.6726C73.231 68.8615 73.5939 68.956 74.0414 68.956C74.5286 68.956 74.918 68.8549 75.2097 68.6527C75.5014 68.4472 75.6472 68.197 75.6472 67.902C75.6472 67.6634 75.5577 67.4628 75.3787 67.3004C75.2031 67.138 74.9329 67.0154 74.5684 66.9325L73.2757 66.6491C72.5632 66.4867 72.0362 66.2282 71.6948 65.8736C71.3567 65.5189 71.1877 65.0698 71.1877 64.5263C71.1877 64.0755 71.3136 63.6811 71.5655 63.343C71.8174 63.005 72.1654 62.7415 72.6096 62.5526C73.0537 62.3603 73.5624 62.2642 74.1358 62.2642C74.9611 62.2642 75.6107 62.4432 76.0847 62.8011C76.5587 63.1558 76.8719 63.6314 77.0243 64.228ZM82.0991 70.1541C81.3467 70.1541 80.6987 69.9934 80.1552 69.6719C79.6149 69.3471 79.1973 68.8913 78.9023 68.3047C78.6107 67.7147 78.4648 67.0237 78.4648 66.2315C78.4648 65.4493 78.6107 64.7599 78.9023 64.1634C79.1973 63.5668 79.6083 63.1011 80.1353 62.7663C80.6656 62.4316 81.2854 62.2642 81.9947 62.2642C82.4255 62.2642 82.8432 62.3355 83.2475 62.478C83.6519 62.6205 84.0148 62.8442 84.3363 63.1491C84.6578 63.4541 84.9113 63.8501 85.0969 64.3374C85.2826 64.8213 85.3754 65.4096 85.3754 66.1023V66.6293H79.305V65.5156H83.9187C83.9187 65.1245 83.8391 64.7782 83.68 64.4766C83.521 64.1716 83.2972 63.9313 83.0089 63.7557C82.7238 63.58 82.3891 63.4922 82.0046 63.4922C81.587 63.4922 81.2224 63.5949 80.9109 63.8004C80.6026 64.0026 80.364 64.2678 80.195 64.5959C80.0292 64.9207 79.9464 65.2737 79.9464 65.6548V66.5249C79.9464 67.0353 80.0359 67.4695 80.2148 67.8274C80.3971 68.1854 80.6507 68.4588 80.9755 68.6477C81.3003 68.8333 81.6798 68.9261 82.114 68.9261C82.3957 68.9261 82.6526 68.8864 82.8846 68.8068C83.1166 68.724 83.3171 68.6013 83.4862 68.4389C83.6552 68.2765 83.7844 68.076 83.8739 67.8374L85.2809 68.0909C85.1682 68.5052 84.966 68.8681 84.6744 69.1797C84.386 69.4879 84.0231 69.7282 83.5856 69.9006C83.1514 70.0696 82.6559 70.1541 82.0991 70.1541ZM88.5112 65.4659V70H87.0247V62.3636H88.4515V63.6065H88.546C88.7217 63.2022 88.9967 62.8774 89.3713 62.6321C89.7491 62.3868 90.2247 62.2642 90.7981 62.2642C91.3185 62.2642 91.7742 62.3736 92.1653 62.5923C92.5564 62.8078 92.8597 63.1293 93.0751 63.5568C93.2905 63.9844 93.3983 64.513 93.3983 65.1428V70H91.9118V65.3217C91.9118 64.7682 91.7676 64.3357 91.4792 64.0241C91.1909 63.7093 90.7948 63.5518 90.291 63.5518C89.9463 63.5518 89.6397 63.6264 89.3713 63.7756C89.1061 63.9247 88.8957 64.1435 88.7399 64.4318C88.5874 64.7169 88.5112 65.0616 88.5112 65.4659ZM98.2505 70.1491C97.6341 70.1491 97.0839 69.9917 96.6 69.6768C96.1194 69.3587 95.7415 68.9062 95.4664 68.3196C95.1947 67.7296 95.0588 67.022 95.0588 66.1967C95.0588 65.3714 95.1963 64.6655 95.4714 64.0788C95.7498 63.4922 96.131 63.0431 96.6149 62.7315C97.0988 62.42 97.6473 62.2642 98.2605 62.2642C98.7344 62.2642 99.1156 62.3438 99.4039 62.5028C99.6956 62.6586 99.921 62.8409 100.08 63.0497C100.242 63.2585 100.368 63.4425 100.458 63.6016H100.547V59.8182H102.034V70H100.582V68.8118H100.458C100.368 68.9742 100.239 69.1598 100.07 69.3686C99.9044 69.5774 99.6757 69.7597 99.3841 69.9155C99.0924 70.0713 98.7145 70.1491 98.2505 70.1491ZM98.5787 68.8814C99.0062 68.8814 99.3675 68.7687 99.6625 68.5433C99.9608 68.3146 100.186 67.9981 100.339 67.5938C100.494 67.1894 100.572 66.7187 100.572 66.1818C100.572 65.6515 100.496 65.1875 100.344 64.7898C100.191 64.392 99.9674 64.0821 99.6724 63.8601C99.3774 63.638 99.0128 63.527 98.5787 63.527C98.1312 63.527 97.7583 63.643 97.46 63.875C97.1618 64.107 96.9364 64.4235 96.7839 64.8246C96.6348 65.2256 96.5602 65.678 96.5602 66.1818C96.5602 66.6922 96.6364 67.1513 96.7889 67.5589C96.9413 67.9666 97.1667 68.2898 97.465 68.5284C97.7666 68.7637 98.1378 68.8814 98.5787 68.8814ZM104.156 70V62.3636H105.642V70H104.156ZM104.906 61.1854C104.648 61.1854 104.426 61.0992 104.24 60.9268C104.058 60.7512 103.967 60.5424 103.967 60.3004C103.967 60.0552 104.058 59.8464 104.24 59.674C104.426 59.4983 104.648 59.4105 104.906 59.4105C105.165 59.4105 105.385 59.4983 105.567 59.674C105.753 59.8464 105.846 60.0552 105.846 60.3004C105.846 60.5424 105.753 60.7512 105.567 60.9268C105.385 61.0992 105.165 61.1854 104.906 61.1854ZM109.128 65.4659V70H107.642V62.3636H109.069V63.6065H109.163C109.339 63.2022 109.614 62.8774 109.988 62.6321C110.366 62.3868 110.842 62.2642 111.415 62.2642C111.936 62.2642 112.391 62.3736 112.782 62.5923C113.174 62.8078 113.477 63.1293 113.692 63.5568C113.908 63.9844 114.015 64.513 114.015 65.1428V70H112.529V65.3217C112.529 64.7682 112.385 64.3357 112.096 64.0241C111.808 63.7093 111.412 63.5518 110.908 63.5518C110.564 63.5518 110.257 63.6264 109.988 63.7756C109.723 63.9247 109.513 64.1435 109.357 64.4318C109.205 64.7169 109.128 65.0616 109.128 65.4659ZM119.211 73.0227C118.604 73.0227 118.082 72.9432 117.645 72.7841C117.211 72.625 116.856 72.4145 116.581 72.1527C116.306 71.8909 116.1 71.6042 115.964 71.2926L117.242 70.7656C117.331 70.9115 117.451 71.0656 117.6 71.228C117.752 71.3937 117.958 71.5346 118.216 71.6506C118.478 71.7666 118.815 71.8246 119.226 71.8246C119.789 71.8246 120.255 71.687 120.623 71.4119C120.991 71.1402 121.175 70.706 121.175 70.1094V68.608H121.08C120.991 68.7704 120.861 68.951 120.692 69.1499C120.527 69.3487 120.298 69.5211 120.006 69.6669C119.715 69.8127 119.335 69.8857 118.868 69.8857C118.265 69.8857 117.721 69.7448 117.237 69.4631C116.756 69.178 116.375 68.7588 116.094 68.2053C115.815 67.6484 115.676 66.964 115.676 66.152C115.676 65.34 115.814 64.6439 116.089 64.0639C116.367 63.4839 116.748 63.0398 117.232 62.7315C117.716 62.42 118.265 62.2642 118.878 62.2642C119.352 62.2642 119.734 62.3438 120.026 62.5028C120.318 62.6586 120.545 62.8409 120.707 63.0497C120.873 63.2585 121.001 63.4425 121.09 63.6016H121.199V62.3636H122.656V70.169C122.656 70.8253 122.504 71.3639 122.199 71.7848C121.894 72.2057 121.481 72.5173 120.961 72.7195C120.444 72.9216 119.86 73.0227 119.211 73.0227ZM119.196 68.6527C119.623 68.6527 119.985 68.5533 120.28 68.3544C120.578 68.1522 120.803 67.8639 120.956 67.4893C121.112 67.1115 121.189 66.6591 121.189 66.1321C121.189 65.6184 121.113 65.166 120.961 64.7749C120.808 64.3838 120.585 64.0788 120.29 63.8601C119.995 63.638 119.63 63.527 119.196 63.527C118.748 63.527 118.376 63.643 118.077 63.875C117.779 64.1037 117.554 64.4152 117.401 64.8097C117.252 65.2041 117.177 65.6449 117.177 66.1321C117.177 66.6326 117.254 67.0717 117.406 67.4496C117.559 67.8274 117.784 68.1224 118.082 68.3345C118.384 68.5466 118.755 68.6527 119.196 68.6527ZM17.4858 82.4659V87H15.9993V79.3636H17.4261V80.6065H17.5206C17.6963 80.2022 17.9714 79.8774 18.3459 79.6321C18.7237 79.3868 19.1993 79.2642 19.7727 79.2642C20.2931 79.2642 20.7488 79.3736 21.1399 79.5923C21.531 79.8078 21.8343 80.1293 22.0497 80.5568C22.2652 80.9844 22.3729 81.513 22.3729 82.1428V87H20.8864V82.3217C20.8864 81.7682 20.7422 81.3357 20.4538 81.0241C20.1655 80.7093 19.7694 80.5518 19.2656 80.5518C18.9209 80.5518 18.6143 80.6264 18.3459 80.7756C18.0807 80.9247 17.8703 81.1435 17.7145 81.4318C17.562 81.7169 17.4858 82.0616 17.4858 82.4659ZM27.5831 87.1541C26.8672 87.1541 26.2424 86.9901 25.7088 86.6619C25.1752 86.3338 24.7609 85.8748 24.4659 85.2848C24.1709 84.6948 24.0234 84.0054 24.0234 83.2166C24.0234 82.4245 24.1709 81.7318 24.4659 81.1385C24.7609 80.5452 25.1752 80.0845 25.7088 79.7564C26.2424 79.4283 26.8672 79.2642 27.5831 79.2642C28.299 79.2642 28.9238 79.4283 29.4574 79.7564C29.991 80.0845 30.4053 80.5452 30.7003 81.1385C30.9953 81.7318 31.1428 82.4245 31.1428 83.2166C31.1428 84.0054 30.9953 84.6948 30.7003 85.2848C30.4053 85.8748 29.991 86.3338 29.4574 86.6619C28.9238 86.9901 28.299 87.1541 27.5831 87.1541ZM27.5881 85.9062C28.0521 85.9062 28.4366 85.7836 28.7415 85.5384C29.0464 85.2931 29.2718 84.9666 29.4176 84.5589C29.5668 84.1513 29.6413 83.7022 29.6413 83.2116C29.6413 82.7244 29.5668 82.277 29.4176 81.8693C29.2718 81.4583 29.0464 81.1286 28.7415 80.88C28.4366 80.6314 28.0521 80.5071 27.5881 80.5071C27.1207 80.5071 26.733 80.6314 26.4247 80.88C26.1198 81.1286 25.8928 81.4583 25.7436 81.8693C25.5978 82.277 25.5249 82.7244 25.5249 83.2116C25.5249 83.7022 25.5978 84.1513 25.7436 84.5589C25.8928 84.9666 26.1198 85.2931 26.4247 85.5384C26.733 85.7836 27.1207 85.9062 27.5881 85.9062ZM36.3667 79.3636V80.5568H32.1955V79.3636H36.3667ZM33.3141 77.5341H34.8006V84.7578C34.8006 85.0462 34.8437 85.2633 34.9299 85.4091C35.016 85.5516 35.1271 85.6494 35.263 85.7024C35.4022 85.7521 35.553 85.777 35.7154 85.777C35.8347 85.777 35.9391 85.7687 36.0286 85.7521C36.1181 85.7356 36.1877 85.7223 36.2374 85.7124L36.5059 86.9403C36.4197 86.9735 36.2971 87.0066 36.138 87.0398C35.9789 87.0762 35.78 87.0961 35.5414 87.0994C35.1503 87.1061 34.7857 87.0365 34.4476 86.8906C34.1096 86.7448 33.8361 86.5194 33.6273 86.2145C33.4185 85.9096 33.3141 85.5268 33.3141 85.0661V77.5341ZM38.011 87V79.3636H39.4975V87H38.011ZM38.7617 78.1854C38.5032 78.1854 38.2811 78.0992 38.0955 77.9268C37.9132 77.7512 37.8221 77.5424 37.8221 77.3004C37.8221 77.0552 37.9132 76.8464 38.0955 76.674C38.2811 76.4983 38.5032 76.4105 38.7617 76.4105C39.0202 76.4105 39.2406 76.4983 39.4229 76.674C39.6085 76.8464 39.7013 77.0552 39.7013 77.3004C39.7013 77.5424 39.6085 77.7512 39.4229 77.9268C39.2406 78.0992 39.0202 78.1854 38.7617 78.1854ZM45.1316 79.3636V80.5568H40.8162V79.3636H45.1316ZM41.9995 87V78.4787C41.9995 78.0014 42.1039 77.6053 42.3127 77.2905C42.5215 76.9723 42.7982 76.7353 43.1429 76.5795C43.4876 76.4205 43.8622 76.3409 44.2665 76.3409C44.5648 76.3409 44.82 76.3658 45.0321 76.4155C45.2443 76.4619 45.4017 76.505 45.5044 76.5447L45.1564 77.7479C45.0868 77.728 44.9973 77.7048 44.888 77.6783C44.7786 77.6484 44.646 77.6335 44.4902 77.6335C44.129 77.6335 43.8704 77.723 43.7147 77.902C43.5622 78.081 43.486 78.3395 43.486 78.6776V87H41.9995ZM46.6653 87V79.3636H48.1518V87H46.6653ZM47.416 78.1854C47.1575 78.1854 46.9354 78.0992 46.7498 77.9268C46.5675 77.7512 46.4764 77.5424 46.4764 77.3004C46.4764 77.0552 46.5675 76.8464 46.7498 76.674C46.9354 76.4983 47.1575 76.4105 47.416 76.4105C47.6745 76.4105 47.8949 76.4983 48.0772 76.674C48.2628 76.8464 48.3556 77.0552 48.3556 77.3004C48.3556 77.5424 48.2628 77.7512 48.0772 77.9268C47.8949 78.0992 47.6745 78.1854 47.416 78.1854ZM53.3683 87.1541C52.6291 87.1541 51.9928 86.9867 51.4592 86.652C50.9289 86.3139 50.5212 85.8482 50.2362 85.255C49.9511 84.6617 49.8086 83.9822 49.8086 83.2166C49.8086 82.4411 49.9544 81.7566 50.2461 81.1634C50.5378 80.5668 50.9487 80.1011 51.479 79.7663C52.0094 79.4316 52.6341 79.2642 53.3533 79.2642C53.9334 79.2642 54.4504 79.3719 54.9045 79.5874C55.3585 79.7995 55.7248 80.0978 56.0032 80.4822C56.2849 80.8667 56.4523 81.3158 56.5053 81.8295H55.0586C54.979 81.4716 54.7968 81.1634 54.5117 80.9048C54.23 80.6463 53.8522 80.517 53.3782 80.517C52.9639 80.517 52.601 80.6264 52.2894 80.8452C51.9812 81.0606 51.7409 81.3688 51.5685 81.7699C51.3962 82.1676 51.31 82.6383 51.31 83.1818C51.31 83.7386 51.3945 84.2192 51.5636 84.6236C51.7326 85.0279 51.9712 85.3411 52.2795 85.5632C52.591 85.7853 52.9573 85.8963 53.3782 85.8963C53.6599 85.8963 53.9151 85.8449 54.1438 85.7422C54.3758 85.6361 54.5697 85.4853 54.7255 85.2898C54.8846 85.0942 54.9956 84.8589 55.0586 84.5838H56.5053C56.4523 85.0777 56.2915 85.5185 56.0231 85.9062C55.7546 86.294 55.395 86.599 54.9442 86.821C54.4968 87.0431 53.9715 87.1541 53.3683 87.1541ZM60.3173 87.169C59.8334 87.169 59.3959 87.0795 59.0048 86.9006C58.6137 86.7183 58.3038 86.4548 58.0751 86.1101C57.8497 85.7654 57.737 85.3428 57.737 84.8423C57.737 84.4115 57.8199 84.0568 57.9856 83.7784C58.1513 83.5 58.3751 83.2796 58.6568 83.1172C58.9385 82.9548 59.2534 82.8321 59.6014 82.7493C59.9494 82.6664 60.304 82.6035 60.6653 82.5604C61.1227 82.5073 61.4939 82.4643 61.7789 82.4311C62.064 82.3946 62.2711 82.3366 62.4004 82.2571C62.5297 82.1776 62.5943 82.0483 62.5943 81.8693V81.8345C62.5943 81.4003 62.4717 81.0639 62.2264 80.8253C61.9844 80.5866 61.6232 80.4673 61.1426 80.4673C60.6421 80.4673 60.2477 80.5784 59.9593 80.8004C59.6743 81.0192 59.4771 81.2628 59.3677 81.5312L57.9707 81.2131C58.1364 80.7491 58.3784 80.3745 58.6966 80.0895C59.0181 79.8011 59.3876 79.5923 59.8052 79.4631C60.2228 79.3305 60.662 79.2642 61.1227 79.2642C61.4276 79.2642 61.7508 79.3007 62.0922 79.3736C62.4368 79.4432 62.7583 79.5724 63.0566 79.7614C63.3583 79.9503 63.6052 80.2204 63.7974 80.5717C63.9896 80.9197 64.0858 81.3722 64.0858 81.929V87H62.6341V85.956H62.5744C62.4783 86.1482 62.3341 86.3371 62.1419 86.5227C61.9496 86.7083 61.7027 86.8625 61.4011 86.9851C61.0995 87.1077 60.7382 87.169 60.3173 87.169ZM60.6404 85.9759C61.0514 85.9759 61.4028 85.8946 61.6944 85.7322C61.9894 85.5698 62.2131 85.3577 62.3656 85.0959C62.5214 84.8307 62.5993 84.5473 62.5993 84.2457V83.2614C62.5462 83.3144 62.4435 83.3641 62.291 83.4105C62.1419 83.4536 61.9712 83.4917 61.7789 83.5249C61.5867 83.5547 61.3994 83.5829 61.2172 83.6094C61.0349 83.6326 60.8824 83.6525 60.7598 83.669C60.4714 83.7055 60.2079 83.7668 59.9693 83.853C59.734 83.9392 59.545 84.0634 59.4025 84.2259C59.2633 84.3849 59.1937 84.5971 59.1937 84.8622C59.1937 85.2301 59.3296 85.5085 59.6014 85.6974C59.8732 85.883 60.2195 85.9759 60.6404 85.9759ZM69.6303 79.3636V80.5568H65.4592V79.3636H69.6303ZM66.5778 77.5341H68.0643V84.7578C68.0643 85.0462 68.1074 85.2633 68.1935 85.4091C68.2797 85.5516 68.3907 85.6494 68.5266 85.7024C68.6658 85.7521 68.8166 85.777 68.979 85.777C69.0984 85.777 69.2028 85.7687 69.2923 85.7521C69.3817 85.7356 69.4513 85.7223 69.5011 85.7124L69.7695 86.9403C69.6834 86.9735 69.5607 87.0066 69.4016 87.0398C69.2425 87.0762 69.0437 87.0961 68.805 87.0994C68.4139 87.1061 68.0494 87.0365 67.7113 86.8906C67.3732 86.7448 67.0998 86.5194 66.891 86.2145C66.6822 85.9096 66.5778 85.5268 66.5778 85.0661V77.5341ZM71.2747 87V79.3636H72.7612V87H71.2747ZM72.0254 78.1854C71.7669 78.1854 71.5448 78.0992 71.3592 77.9268C71.1769 77.7512 71.0858 77.5424 71.0858 77.3004C71.0858 77.0552 71.1769 76.8464 71.3592 76.674C71.5448 76.4983 71.7669 76.4105 72.0254 76.4105C72.2839 76.4105 72.5043 76.4983 72.6866 76.674C72.8722 76.8464 72.965 77.0552 72.965 77.3004C72.965 77.5424 72.8722 77.7512 72.6866 77.9268C72.5043 78.0992 72.2839 78.1854 72.0254 78.1854ZM77.9776 87.1541C77.2617 87.1541 76.637 86.9901 76.1033 86.6619C75.5697 86.3338 75.1554 85.8748 74.8604 85.2848C74.5655 84.6948 74.418 84.0054 74.418 83.2166C74.418 82.4245 74.5655 81.7318 74.8604 81.1385C75.1554 80.5452 75.5697 80.0845 76.1033 79.7564C76.637 79.4283 77.2617 79.2642 77.9776 79.2642C78.6935 79.2642 79.3183 79.4283 79.8519 79.7564C80.3855 80.0845 80.7998 80.5452 81.0948 81.1385C81.3898 81.7318 81.5373 82.4245 81.5373 83.2166C81.5373 84.0054 81.3898 84.6948 81.0948 85.2848C80.7998 85.8748 80.3855 86.3338 79.8519 86.6619C79.3183 86.9901 78.6935 87.1541 77.9776 87.1541ZM77.9826 85.9062C78.4466 85.9062 78.8311 85.7836 79.136 85.5384C79.4409 85.2931 79.6663 84.9666 79.8121 84.5589C79.9613 84.1513 80.0359 83.7022 80.0359 83.2116C80.0359 82.7244 79.9613 82.277 79.8121 81.8693C79.6663 81.4583 79.4409 81.1286 79.136 80.88C78.8311 80.6314 78.4466 80.5071 77.9826 80.5071C77.5153 80.5071 77.1275 80.6314 76.8192 80.88C76.5143 81.1286 76.2873 81.4583 76.1381 81.8693C75.9923 82.277 75.9194 82.7244 75.9194 83.2116C75.9194 83.7022 75.9923 84.1513 76.1381 84.5589C76.2873 84.9666 76.5143 85.2931 76.8192 85.5384C77.1275 85.7836 77.5153 85.9062 77.9826 85.9062ZM84.6831 82.4659V87H83.1966V79.3636H84.6234V80.6065H84.7179C84.8935 80.2022 85.1686 79.8774 85.5431 79.6321C85.921 79.3868 86.3966 79.2642 86.97 79.2642C87.4904 79.2642 87.9461 79.3736 88.3372 79.5923C88.7283 79.8078 89.0315 80.1293 89.247 80.5568C89.4624 80.9844 89.5701 81.513 89.5701 82.1428V87H88.0836V82.3217C88.0836 81.7682 87.9395 81.3357 87.6511 81.0241C87.3627 80.7093 86.9667 80.5518 86.4629 80.5518C86.1182 80.5518 85.8116 80.6264 85.5431 80.7756C85.278 80.9247 85.0675 81.1435 84.9118 81.4318C84.7593 81.7169 84.6831 82.0616 84.6831 82.4659ZM97.286 81.228L95.9387 81.4666C95.8824 81.2943 95.7929 81.1302 95.6703 80.9744C95.551 80.8187 95.3886 80.6911 95.1831 80.5916C94.9776 80.4922 94.7207 80.4425 94.4125 80.4425C93.9915 80.4425 93.6402 80.5369 93.3585 80.7259C93.0768 80.9115 92.9359 81.1518 92.9359 81.4467C92.9359 81.7019 93.0304 81.9074 93.2193 82.0632C93.4082 82.219 93.7131 82.3466 94.1341 82.446L95.3471 82.7244C96.0498 82.8868 96.5734 83.1371 96.9181 83.4751C97.2628 83.8132 97.4352 84.2524 97.4352 84.7926C97.4352 85.25 97.3026 85.6577 97.0375 86.0156C96.7756 86.3703 96.4094 86.6487 95.9387 86.8509C95.4714 87.053 94.9295 87.1541 94.313 87.1541C93.4579 87.1541 92.7602 86.9718 92.22 86.6072C91.6797 86.2393 91.3483 85.7173 91.2257 85.0412L92.6625 84.8224C92.752 85.197 92.9359 85.4804 93.2143 85.6726C93.4927 85.8615 93.8556 85.956 94.3031 85.956C94.7903 85.956 95.1797 85.8549 95.4714 85.6527C95.7631 85.4472 95.9089 85.197 95.9089 84.902C95.9089 84.6634 95.8194 84.4628 95.6404 84.3004C95.4648 84.138 95.1947 84.0154 94.8301 83.9325L93.5375 83.6491C92.8249 83.4867 92.2979 83.2282 91.9565 82.8736C91.6184 82.5189 91.4494 82.0698 91.4494 81.5263C91.4494 81.0755 91.5753 80.6811 91.8272 80.343C92.0791 80.005 92.4271 79.7415 92.8713 79.5526C93.3154 79.3603 93.8242 79.2642 94.3975 79.2642C95.2228 79.2642 95.8725 79.4432 96.3464 79.8011C96.8204 80.1558 97.1336 80.6314 97.286 81.228ZM106.339 79.3636V80.5568H102.168V79.3636H106.339ZM103.287 77.5341H104.773V84.7578C104.773 85.0462 104.816 85.2633 104.903 85.4091C104.989 85.5516 105.1 85.6494 105.236 85.7024C105.375 85.7521 105.526 85.777 105.688 85.777C105.807 85.777 105.912 85.7687 106.001 85.7521C106.091 85.7356 106.16 85.7223 106.21 85.7124L106.479 86.9403C106.392 86.9735 106.27 87.0066 106.111 87.0398C105.952 87.0762 105.753 87.0961 105.514 87.0994C105.123 87.1061 104.758 87.0365 104.42 86.8906C104.082 86.7448 103.809 86.5194 103.6 86.2145C103.391 85.9096 103.287 85.5268 103.287 85.0661V77.5341ZM111.118 87.1541C110.402 87.1541 109.778 86.9901 109.244 86.6619C108.71 86.3338 108.296 85.8748 108.001 85.2848C107.706 84.6948 107.559 84.0054 107.559 83.2166C107.559 82.4245 107.706 81.7318 108.001 81.1385C108.296 80.5452 108.71 80.0845 109.244 79.7564C109.778 79.4283 110.402 79.2642 111.118 79.2642C111.834 79.2642 112.459 79.4283 112.993 79.7564C113.526 80.0845 113.94 80.5452 114.235 81.1385C114.53 81.7318 114.678 82.4245 114.678 83.2166C114.678 84.0054 114.53 84.6948 114.235 85.2848C113.94 85.8748 113.526 86.3338 112.993 86.6619C112.459 86.9901 111.834 87.1541 111.118 87.1541ZM111.123 85.9062C111.587 85.9062 111.972 85.7836 112.277 85.5384C112.582 85.2931 112.807 84.9666 112.953 84.5589C113.102 84.1513 113.176 83.7022 113.176 83.2116C113.176 82.7244 113.102 82.277 112.953 81.8693C112.807 81.4583 112.582 81.1286 112.277 80.88C111.972 80.6314 111.587 80.5071 111.123 80.5071C110.656 80.5071 110.268 80.6314 109.96 80.88C109.655 81.1286 109.428 81.4583 109.279 81.8693C109.133 82.277 109.06 82.7244 109.06 83.2116C109.06 83.7022 109.133 84.1513 109.279 84.5589C109.428 84.9666 109.655 85.2931 109.96 85.5384C110.268 85.7836 110.656 85.9062 111.123 85.9062ZM120.982 89.8636C120.76 89.8636 120.558 89.8454 120.375 89.8089C120.193 89.7758 120.057 89.7393 119.968 89.6996L120.326 88.4815C120.597 88.5545 120.839 88.5859 121.051 88.576C121.264 88.5661 121.451 88.4865 121.613 88.3374C121.779 88.1882 121.925 87.9446 122.051 87.6065L122.235 87.0994L119.441 79.3636H121.032L122.966 85.2898H123.045L124.979 79.3636H126.575L123.428 88.0192C123.282 88.4169 123.096 88.7533 122.871 89.0284C122.646 89.3068 122.377 89.5156 122.066 89.6548C121.754 89.794 121.393 89.8636 120.982 89.8636ZM130.929 87.1541C130.213 87.1541 129.588 86.9901 129.055 86.6619C128.521 86.3338 128.107 85.8748 127.812 85.2848C127.517 84.6948 127.369 84.0054 127.369 83.2166C127.369 82.4245 127.517 81.7318 127.812 81.1385C128.107 80.5452 128.521 80.0845 129.055 79.7564C129.588 79.4283 130.213 79.2642 130.929 79.2642C131.645 79.2642 132.269 79.4283 132.803 79.7564C133.337 80.0845 133.751 80.5452 134.046 81.1385C134.341 81.7318 134.488 82.4245 134.488 83.2166C134.488 84.0054 134.341 84.6948 134.046 85.2848C133.751 85.8748 133.337 86.3338 132.803 86.6619C132.269 86.9901 131.645 87.1541 130.929 87.1541ZM130.934 85.9062C131.398 85.9062 131.782 85.7836 132.087 85.5384C132.392 85.2931 132.617 84.9666 132.763 84.5589C132.912 84.1513 132.987 83.7022 132.987 83.2116C132.987 82.7244 132.912 82.277 132.763 81.8693C132.617 81.4583 132.392 81.1286 132.087 80.88C131.782 80.6314 131.398 80.5071 130.934 80.5071C130.466 80.5071 130.079 80.6314 129.77 80.88C129.465 81.1286 129.238 81.4583 129.089 81.8693C128.943 82.277 128.871 82.7244 128.871 83.2116C128.871 83.7022 128.943 84.1513 129.089 84.5589C129.238 84.9666 129.465 85.2931 129.77 85.5384C130.079 85.7836 130.466 85.9062 130.934 85.9062ZM140.985 83.8331V79.3636H142.477V87H141.015V85.6776H140.935C140.76 86.0852 140.478 86.425 140.09 86.6967C139.706 86.9652 139.227 87.0994 138.653 87.0994C138.163 87.0994 137.729 86.9917 137.351 86.7763C136.976 86.5575 136.681 86.2344 136.466 85.8068C136.254 85.3793 136.148 84.8506 136.148 84.2209V79.3636H137.634V84.0419C137.634 84.5623 137.778 84.9766 138.067 85.2848C138.355 85.593 138.73 85.7472 139.19 85.7472C139.469 85.7472 139.746 85.6776 140.021 85.5384C140.299 85.3991 140.529 85.1887 140.712 84.907C140.897 84.6252 140.988 84.2673 140.985 83.8331ZM17.4858 99.4659V104H15.9993V93.8182H17.4659V97.6065H17.5604C17.7393 97.1955 18.0128 96.8691 18.3807 96.6271C18.7486 96.3852 19.2292 96.2642 19.8224 96.2642C20.3461 96.2642 20.8035 96.3719 21.1946 96.5874C21.589 96.8028 21.8939 97.1243 22.1094 97.5518C22.3281 97.9761 22.4375 98.5064 22.4375 99.1428V104H20.951V99.3217C20.951 98.7616 20.8068 98.3274 20.5185 98.0192C20.2301 97.7076 19.8291 97.5518 19.3153 97.5518C18.964 97.5518 18.6491 97.6264 18.3707 97.7756C18.0956 97.9247 17.8786 98.1435 17.7195 98.4318C17.5637 98.7169 17.4858 99.0616 17.4858 99.4659ZM27.7124 104.154C26.96 104.154 26.312 103.993 25.7685 103.672C25.2282 103.347 24.8106 102.891 24.5156 102.305C24.224 101.715 24.0781 101.024 24.0781 100.232C24.0781 99.4493 24.224 98.7599 24.5156 98.1634C24.8106 97.5668 25.2216 97.1011 25.7486 96.7663C26.2789 96.4316 26.8987 96.2642 27.608 96.2642C28.0388 96.2642 28.4564 96.3355 28.8608 96.478C29.2652 96.6205 29.6281 96.8442 29.9496 97.1491C30.2711 97.4541 30.5246 97.8501 30.7102 98.3374C30.8958 98.8213 30.9886 99.4096 30.9886 100.102V100.629H24.9183V99.5156H29.532C29.532 99.1245 29.4524 98.7782 29.2933 98.4766C29.1342 98.1716 28.9105 97.9313 28.6222 97.7557C28.3371 97.58 28.0024 97.4922 27.6179 97.4922C27.2003 97.4922 26.8357 97.5949 26.5241 97.8004C26.2159 98.0026 25.9773 98.2678 25.8082 98.5959C25.6425 98.9207 25.5597 99.2737 25.5597 99.6548V100.525C25.5597 101.035 25.6491 101.469 25.8281 101.827C26.0104 102.185 26.264 102.459 26.5888 102.648C26.9136 102.833 27.2931 102.926 27.7273 102.926C28.009 102.926 28.2659 102.886 28.4979 102.807C28.7299 102.724 28.9304 102.601 29.0994 102.439C29.2685 102.277 29.3977 102.076 29.4872 101.837L30.8942 102.091C30.7815 102.505 30.5793 102.868 30.2876 103.18C29.9993 103.488 29.6364 103.728 29.1989 103.901C28.7647 104.07 28.2692 104.154 27.7124 104.154ZM32.638 104V96.3636H34.0748V97.5767H34.1543C34.2935 97.1657 34.5388 96.8426 34.8901 96.6072C35.2447 96.3686 35.6458 96.2493 36.0932 96.2493C36.186 96.2493 36.2954 96.2526 36.4213 96.2592C36.5506 96.2659 36.6517 96.2741 36.7246 96.2841V97.706C36.665 97.6894 36.5589 97.6712 36.4064 97.6513C36.254 97.6281 36.1015 97.6165 35.949 97.6165C35.5977 97.6165 35.2845 97.6911 35.0094 97.8402C34.7376 97.986 34.5222 98.1899 34.3631 98.4517C34.204 98.7102 34.1245 99.0052 34.1245 99.3366V104H32.638ZM41.0288 104.154C40.2764 104.154 39.6284 103.993 39.0849 103.672C38.5446 103.347 38.127 102.891 37.832 102.305C37.5404 101.715 37.3945 101.024 37.3945 100.232C37.3945 99.4493 37.5404 98.7599 37.832 98.1634C38.127 97.5668 38.538 97.1011 39.065 96.7663C39.5953 96.4316 40.2151 96.2642 40.9244 96.2642C41.3552 96.2642 41.7728 96.3355 42.1772 96.478C42.5816 96.6205 42.9445 96.8442 43.266 97.1491C43.5875 97.4541 43.841 97.8501 44.0266 98.3374C44.2122 98.8213 44.305 99.4096 44.305 100.102V100.629H38.2347V99.5156H42.8484C42.8484 99.1245 42.7688 98.7782 42.6097 98.4766C42.4506 98.1716 42.2269 97.9313 41.9386 97.7557C41.6535 97.58 41.3188 97.4922 40.9343 97.4922C40.5167 97.4922 40.1521 97.5949 39.8406 97.8004C39.5323 98.0026 39.2937 98.2678 39.1246 98.5959C38.9589 98.9207 38.8761 99.2737 38.8761 99.6548V100.525C38.8761 101.035 38.9656 101.469 39.1445 101.827C39.3268 102.185 39.5804 102.459 39.9052 102.648C40.23 102.833 40.6095 102.926 41.0437 102.926C41.3254 102.926 41.5823 102.886 41.8143 102.807C42.0463 102.724 42.2468 102.601 42.4158 102.439C42.5849 102.277 42.7141 102.076 42.8036 101.837L44.2106 102.091C44.0979 102.505 43.8957 102.868 43.604 103.18C43.3157 103.488 42.9528 103.728 42.5153 103.901C42.0811 104.07 41.5856 104.154 41.0288 104.154Z" fill="#19191A"/>
<path d="M36 23.333C36 21.4765 35.2625 19.696 33.9497 18.3833C32.637 17.0705 30.8565 16.333 29 16.333C27.1435 16.333 25.363 17.0705 24.0503 18.3833C22.7375 19.696 22 21.4765 22 23.333C22 31.4997 18.5 33.833 18.5 33.833H39.5C39.5 33.833 36 31.4997 36 23.333Z" fill="#165DFF" fill-opacity="0.1" stroke="black" stroke-width="1.4" stroke-linecap="round" stroke-linejoin="round"/>
<path d="M31.0181 38.5C30.813 38.8536 30.5186 39.1471 30.1644 39.3511C29.8102 39.5551 29.4086 39.6625 28.9998 39.6625C28.591 39.6625 28.1894 39.5551 27.8352 39.3511C27.481 39.1471 27.1866 38.8536 26.9814 38.5" stroke="black" stroke-width="1.4" stroke-linecap="round" stroke-linejoin="round"/>
<rect x="15.35" y="122.85" width="161" height="34.3" rx="5.25" fill="white"/>
<path d="M27.8157 140.553V143.5H26.8495V136.882H27.8028V139.344H27.8642C27.9805 139.077 28.1583 138.865 28.3974 138.708C28.6365 138.55 28.9489 138.472 29.3345 138.472C29.6749 138.472 29.9722 138.542 30.2264 138.682C30.4828 138.822 30.681 139.031 30.821 139.309C30.9632 139.584 31.0343 139.929 31.0343 140.343V143.5H30.0681V140.459C30.0681 140.095 29.9744 139.813 29.787 139.612C29.5995 139.41 29.3388 139.309 29.0049 139.309C28.7766 139.309 28.5719 139.357 28.3909 139.454C28.2121 139.551 28.071 139.693 27.9676 139.881C27.8663 140.066 27.8157 140.29 27.8157 140.553ZM34.463 143.6C33.9739 143.6 33.5528 143.496 33.1995 143.287C32.8483 143.076 32.5768 142.779 32.3851 142.398C32.1955 142.015 32.1007 141.565 32.1007 141.05C32.1007 140.542 32.1955 140.094 32.3851 139.706C32.5768 139.318 32.844 139.016 33.1865 138.798C33.5312 138.581 33.9341 138.472 34.3951 138.472C34.6752 138.472 34.9466 138.518 35.2095 138.611C35.4723 138.703 35.7082 138.849 35.9172 139.047C36.1261 139.245 36.291 139.503 36.4116 139.819C36.5322 140.134 36.5926 140.516 36.5926 140.966V141.309H32.6469V140.585H35.6457C35.6457 140.331 35.594 140.106 35.4906 139.91C35.3872 139.712 35.2418 139.555 35.0544 139.441C34.8691 139.327 34.6515 139.27 34.4016 139.27C34.1301 139.27 33.8932 139.337 33.6906 139.47C33.4903 139.602 33.3352 139.774 33.2253 139.987C33.1176 140.198 33.0637 140.428 33.0637 140.676V141.241C33.0637 141.573 33.1219 141.855 33.2382 142.088C33.3567 142.32 33.5215 142.498 33.7327 142.621C33.9438 142.742 34.1905 142.802 34.4727 142.802C34.6558 142.802 34.8228 142.776 34.9736 142.724C35.1244 142.671 35.2547 142.591 35.3646 142.485C35.4745 142.38 35.5585 142.249 35.6166 142.094L36.5312 142.259C36.4579 142.528 36.3265 142.764 36.1369 142.967C35.9495 143.167 35.7136 143.323 35.4292 143.435C35.147 143.545 34.8249 143.6 34.463 143.6ZM38.6309 136.882V143.5H37.6646V136.882H38.6309ZM40.897 136.882V143.5H39.9307V136.882H40.897ZM44.2877 143.6C43.8223 143.6 43.4162 143.494 43.0694 143.28C42.7225 143.067 42.4532 142.769 42.2615 142.385C42.0697 142.002 41.9739 141.554 41.9739 141.041C41.9739 140.526 42.0697 140.076 42.2615 139.69C42.4532 139.304 42.7225 139.005 43.0694 138.792C43.4162 138.578 43.8223 138.472 44.2877 138.472C44.753 138.472 45.1591 138.578 45.5059 138.792C45.8528 139.005 46.1221 139.304 46.3138 139.69C46.5056 140.076 46.6014 140.526 46.6014 141.041C46.6014 141.554 46.5056 142.002 46.3138 142.385C46.1221 142.769 45.8528 143.067 45.5059 143.28C45.1591 143.494 44.753 143.6 44.2877 143.6ZM44.2909 142.789C44.5925 142.789 44.8424 142.709 45.0406 142.55C45.2388 142.391 45.3853 142.178 45.4801 141.913C45.577 141.648 45.6255 141.356 45.6255 141.038C45.6255 140.721 45.577 140.43 45.4801 140.165C45.3853 139.898 45.2388 139.684 45.0406 139.522C44.8424 139.36 44.5925 139.28 44.2909 139.28C43.9871 139.28 43.7351 139.36 43.5347 139.522C43.3365 139.684 43.1889 139.898 43.092 140.165C42.9972 140.43 42.9498 140.721 42.9498 141.038C42.9498 141.356 42.9972 141.648 43.092 141.913C43.1889 142.178 43.3365 142.391 43.5347 142.55C43.7351 142.709 43.9871 142.789 44.2909 142.789ZM51.6644 145.3C50.9966 145.3 50.4041 145.208 49.8871 145.025C49.3722 144.844 48.9381 144.577 48.5848 144.224C48.2315 143.873 47.9633 143.442 47.7801 142.931C47.597 142.421 47.5055 141.838 47.5055 141.183C47.5055 140.545 47.5981 139.972 47.7834 139.464C47.9686 138.955 48.2379 138.522 48.5912 138.165C48.9467 137.805 49.3787 137.53 49.8871 137.341C50.3955 137.151 50.9729 137.056 51.6192 137.056C52.2375 137.056 52.7825 137.153 53.2544 137.347C53.7262 137.541 54.1226 137.807 54.4436 138.145C54.7667 138.484 55.0102 138.871 55.1739 139.309C55.3376 139.746 55.4195 140.208 55.4195 140.695C55.4195 141.035 55.3979 141.368 55.3548 141.694C55.3118 142.017 55.2321 142.31 55.1157 142.573C55.0015 142.833 54.8357 143.042 54.6181 143.199C54.4026 143.355 54.1226 143.435 53.7779 143.442C53.5947 143.448 53.417 143.427 53.2447 143.377C53.0723 143.328 52.9258 143.248 52.8052 143.138C52.6845 143.026 52.6113 142.884 52.5854 142.712H52.5466C52.4949 142.839 52.4088 142.957 52.2881 143.067C52.1675 143.175 52.0134 143.261 51.826 143.325C51.6407 143.388 51.4253 143.414 51.1797 143.403C50.9083 143.392 50.6637 143.331 50.4461 143.219C50.2286 143.107 50.0422 142.952 49.8871 142.754C49.7341 142.555 49.6167 142.32 49.5349 142.049C49.453 141.778 49.4121 141.476 49.4121 141.144C49.4121 140.825 49.4584 140.54 49.551 140.288C49.6437 140.034 49.7697 139.815 49.9291 139.632C50.0907 139.447 50.276 139.3 50.4849 139.192C50.6939 139.085 50.9147 139.017 51.1474 138.989C51.3736 138.963 51.5815 138.969 51.7711 139.008C51.9607 139.047 52.1179 139.106 52.2429 139.186C52.37 139.266 52.4497 139.353 52.482 139.448H52.524V139.086H53.319V142.085C53.319 142.255 53.3631 142.399 53.4515 142.518C53.542 142.636 53.6701 142.695 53.836 142.695C54.0321 142.695 54.185 142.623 54.2949 142.479C54.4069 142.334 54.4856 142.113 54.5308 141.813C54.5782 141.514 54.6019 141.13 54.6019 140.663C54.6019 140.335 54.5577 140.027 54.4694 139.738C54.3832 139.448 54.2551 139.185 54.0849 138.95C53.9168 138.713 53.71 138.509 53.4644 138.339C53.2188 138.169 52.9387 138.038 52.6242 137.945C52.3118 137.852 51.966 137.806 51.5869 137.806C51.072 137.806 50.6142 137.886 50.2135 138.045C49.8128 138.202 49.4745 138.43 49.1988 138.727C48.9252 139.024 48.7173 139.381 48.5751 139.797C48.4351 140.21 48.365 140.675 48.365 141.189C48.365 141.726 48.4372 142.202 48.5816 142.618C48.7259 143.031 48.9392 143.38 49.2214 143.665C49.5036 143.949 49.8526 144.165 50.2684 144.311C50.6842 144.46 51.1636 144.534 51.7064 144.534C51.9477 144.534 52.1847 144.513 52.4174 144.469C52.6501 144.429 52.8569 144.381 53.0378 144.327C53.221 144.276 53.3578 144.234 53.4482 144.201L53.6745 144.909C53.5409 144.971 53.3631 145.033 53.1412 145.093C52.9215 145.153 52.6824 145.203 52.4238 145.242C52.1675 145.281 51.9143 145.3 51.6644 145.3ZM51.3671 142.611C51.6472 142.611 51.8723 142.555 52.0425 142.443C52.2149 142.331 52.3388 142.164 52.4142 141.942C52.4917 141.718 52.5305 141.438 52.5305 141.102C52.5283 140.775 52.4863 140.514 52.4045 140.32C52.3247 140.124 52.1998 139.984 52.0296 139.9C51.8616 139.814 51.645 139.771 51.3801 139.771C51.1366 139.771 50.9287 139.83 50.7564 139.949C50.5862 140.067 50.4558 140.228 50.3654 140.43C50.277 140.633 50.2318 140.858 50.2296 141.105C50.2318 141.366 50.2684 141.612 50.3395 141.842C50.4128 142.071 50.5312 142.256 50.695 142.398C50.8609 142.54 51.0849 142.611 51.3671 142.611ZM57.4529 136.882V143.5H56.4867V136.882H57.4529ZM60.8436 143.6C60.3783 143.6 59.9722 143.494 59.6253 143.28C59.2785 143.067 59.0092 142.769 58.8174 142.385C58.6257 142.002 58.5298 141.554 58.5298 141.041C58.5298 140.526 58.6257 140.076 58.8174 139.69C59.0092 139.304 59.2785 139.005 59.6253 138.792C59.9722 138.578 60.3783 138.472 60.8436 138.472C61.309 138.472 61.715 138.578 62.0619 138.792C62.4087 139.005 62.678 139.304 62.8698 139.69C63.0615 140.076 63.1574 140.526 63.1574 141.041C63.1574 141.554 63.0615 142.002 62.8698 142.385C62.678 142.769 62.4087 143.067 62.0619 143.28C61.715 143.494 61.309 143.6 60.8436 143.6ZM60.8468 142.789C61.1485 142.789 61.3984 142.709 61.5966 142.55C61.7948 142.391 61.9413 142.178 62.036 141.913C62.133 141.648 62.1815 141.356 62.1815 141.038C62.1815 140.721 62.133 140.43 62.036 140.165C61.9413 139.898 61.7948 139.684 61.5966 139.522C61.3984 139.36 61.1485 139.28 60.8468 139.28C60.5431 139.28 60.291 139.36 60.0907 139.522C59.8925 139.684 59.7449 139.898 59.6479 140.165C59.5532 140.43 59.5058 140.721 59.5058 141.038C59.5058 141.356 59.5532 141.648 59.6479 141.913C59.7449 142.178 59.8925 142.391 60.0907 142.55C60.291 142.709 60.5431 142.789 60.8468 142.789ZM66.3267 143.6C65.8463 143.6 65.4327 143.491 65.0858 143.274C64.7411 143.054 64.4761 142.751 64.2909 142.366C64.1056 141.98 64.0129 141.538 64.0129 141.041C64.0129 140.537 64.1077 140.092 64.2973 139.706C64.4869 139.318 64.754 139.016 65.0987 138.798C65.4434 138.581 65.8495 138.472 66.317 138.472C66.694 138.472 67.0301 138.542 67.3253 138.682C67.6204 138.82 67.8585 139.014 68.0394 139.263C68.2226 139.513 68.3313 139.805 68.3658 140.139H67.4254C67.3737 139.907 67.2552 139.706 67.07 139.538C66.8868 139.37 66.6413 139.286 66.3332 139.286C66.0639 139.286 65.828 139.357 65.6255 139.499C65.4251 139.639 65.2689 139.84 65.1569 140.1C65.0449 140.359 64.9889 140.665 64.9889 141.018C64.9889 141.38 65.0438 141.692 65.1537 141.955C65.2635 142.218 65.4187 142.422 65.619 142.566C65.8215 142.71 66.0596 142.783 66.3332 142.783C66.5163 142.783 66.6822 142.749 66.8308 142.682C66.9816 142.613 67.1077 142.515 67.2089 142.388C67.3123 142.261 67.3845 142.108 67.4254 141.929H68.3658C68.3313 142.25 68.2269 142.537 68.0524 142.789C67.8779 143.041 67.6441 143.239 67.3511 143.384C67.0603 143.528 66.7188 143.6 66.3267 143.6ZM70.3653 140.553V143.5H69.3991V136.882H70.3524V139.344H70.4138C70.5301 139.077 70.7079 138.865 70.947 138.708C71.1861 138.55 71.4985 138.472 71.8841 138.472C72.2245 138.472 72.5218 138.542 72.776 138.682C73.0324 138.822 73.2306 139.031 73.3707 139.309C73.5128 139.584 73.5839 139.929 73.5839 140.343V143.5H72.6177V140.459C72.6177 140.095 72.524 139.813 72.3366 139.612C72.1491 139.41 71.8885 139.309 71.5545 139.309C71.3262 139.309 71.1215 139.357 70.9405 139.454C70.7617 139.551 70.6206 139.693 70.5172 139.881C70.416 140.066 70.3653 140.29 70.3653 140.553ZM75.5099 143.561C75.3333 143.561 75.1814 143.499 75.0543 143.374C74.9272 143.247 74.8636 143.094 74.8636 142.915C74.8636 142.738 74.9272 142.588 75.0543 142.463C75.1814 142.336 75.3333 142.272 75.5099 142.272C75.6866 142.272 75.8385 142.336 75.9656 142.463C76.0927 142.588 76.1562 142.738 76.1562 142.915C76.1562 143.034 76.1261 143.142 76.0658 143.241C76.0076 143.338 75.93 143.416 75.8331 143.474C75.7361 143.532 75.6284 143.561 75.5099 143.561ZM79.5413 143.6C79.0759 143.6 78.6698 143.494 78.323 143.28C77.9761 143.067 77.7068 142.769 77.5151 142.385C77.3234 142.002 77.2275 141.554 77.2275 141.041C77.2275 140.526 77.3234 140.076 77.5151 139.69C77.7068 139.304 77.9761 139.005 78.323 138.792C78.6698 138.578 79.0759 138.472 79.5413 138.472C80.0066 138.472 80.4127 138.578 80.7596 138.792C81.1064 139.005 81.3757 139.304 81.5674 139.69C81.7592 140.076 81.855 140.526 81.855 141.041C81.855 141.554 81.7592 142.002 81.5674 142.385C81.3757 142.769 81.1064 143.067 80.7596 143.28C80.4127 143.494 80.0066 143.6 79.5413 143.6ZM79.5445 142.789C79.8461 142.789 80.096 142.709 80.2942 142.55C80.4924 142.391 80.6389 142.178 80.7337 141.913C80.8306 141.648 80.8791 141.356 80.8791 141.038C80.8791 140.721 80.8306 140.43 80.7337 140.165C80.6389 139.898 80.4924 139.684 80.2942 139.522C80.096 139.36 79.8461 139.28 79.5445 139.28C79.2407 139.28 78.9887 139.36 78.7883 139.522C78.5901 139.684 78.4425 139.898 78.3456 140.165C78.2508 140.43 78.2034 140.721 78.2034 141.038C78.2034 141.356 78.2508 141.648 78.3456 141.913C78.4425 142.178 78.5901 142.391 78.7883 142.55C78.9887 142.709 79.2407 142.789 79.5445 142.789ZM83.8998 140.553V143.5H82.9336V138.536H83.861V139.344H83.9224C84.0366 139.081 84.2154 138.87 84.4589 138.711C84.7044 138.551 85.0136 138.472 85.3863 138.472C85.7245 138.472 86.0208 138.543 86.275 138.685C86.5292 138.825 86.7263 139.034 86.8663 139.312C87.0064 139.59 87.0764 139.933 87.0764 140.343V143.5H86.1102V140.459C86.1102 140.099 86.0165 139.818 85.829 139.616C85.6416 139.411 85.3841 139.309 85.0567 139.309C84.8326 139.309 84.6334 139.357 84.4589 139.454C84.2865 139.551 84.1497 139.693 84.0484 139.881C83.9493 140.066 83.8998 140.29 83.8998 140.553ZM90.5115 143.6C90.0225 143.6 89.6013 143.496 89.248 143.287C88.8968 143.076 88.6254 142.779 88.4336 142.398C88.2441 142.015 88.1493 141.565 88.1493 141.05C88.1493 140.542 88.2441 140.094 88.4336 139.706C88.6254 139.318 88.8925 139.016 89.2351 138.798C89.5798 138.581 89.9826 138.472 90.4437 138.472C90.7237 138.472 90.9952 138.518 91.258 138.611C91.5208 138.703 91.7567 138.849 91.9657 139.047C92.1747 139.245 92.3395 139.503 92.4601 139.819C92.5808 140.134 92.6411 140.516 92.6411 140.966V141.309H88.6954V140.585H91.6943C91.6943 140.331 91.6426 140.106 91.5391 139.91C91.4357 139.712 91.2903 139.555 91.1029 139.441C90.9176 139.327 90.7 139.27 90.4501 139.27C90.1787 139.27 89.9417 139.337 89.7392 139.47C89.5388 139.602 89.3837 139.774 89.2738 139.987C89.1661 140.198 89.1123 140.428 89.1123 140.676V141.241C89.1123 141.573 89.1704 141.855 89.2868 142.088C89.4053 142.32 89.5701 142.498 89.7812 142.621C89.9923 142.742 90.239 142.802 90.5212 142.802C90.7043 142.802 90.8713 142.776 91.0221 142.724C91.1729 142.671 91.3032 142.591 91.4131 142.485C91.523 142.38 91.607 142.249 91.6652 142.094L92.5797 142.259C92.5064 142.528 92.375 142.764 92.1855 142.967C91.998 143.167 91.7621 143.323 91.4777 143.435C91.1955 143.545 90.8734 143.6 90.5115 143.6Z" fill="#19191A"/>
<rect x="15.35" y="122.85" width="161" height="34.3" rx="5.25" stroke="#D4D4D4" stroke-width="0.7"/>
<path d="M159.824 18.2012C159.793 17.919 159.666 17.6992 159.442 17.5419C159.22 17.3847 158.932 17.306 158.576 17.306C158.326 17.306 158.112 17.3437 157.933 17.4191C157.754 17.4945 157.618 17.5969 157.523 17.7261C157.428 17.8554 157.379 18.003 157.377 18.1689C157.377 18.3067 157.409 18.4263 157.471 18.5276C157.536 18.6288 157.623 18.715 157.733 18.7861C157.843 18.855 157.964 18.9132 158.098 18.9606C158.232 19.008 158.366 19.0478 158.502 19.0801L159.122 19.2353C159.372 19.2934 159.612 19.3721 159.843 19.4712C160.076 19.5703 160.284 19.6952 160.467 19.846C160.652 19.9968 160.798 20.1789 160.906 20.3922C161.014 20.6054 161.068 20.8553 161.068 21.1419C161.068 21.5297 160.969 21.8711 160.77 22.1663C160.572 22.4593 160.286 22.6887 159.911 22.8546C159.538 23.0183 159.087 23.1002 158.557 23.1002C158.042 23.1002 157.595 23.0205 157.216 22.861C156.839 22.7016 156.544 22.469 156.33 22.163C156.119 21.8571 156.005 21.4844 155.988 21.0449H157.167C157.185 21.2754 157.256 21.4672 157.381 21.6201C157.506 21.7731 157.668 21.8873 157.869 21.9627C158.071 22.0381 158.297 22.0758 158.547 22.0758C158.808 22.0758 159.036 22.037 159.232 21.9594C159.43 21.8797 159.586 21.7699 159.698 21.6298C159.81 21.4876 159.867 21.3218 159.869 21.1322C159.867 20.9598 159.816 20.8176 159.717 20.7056C159.618 20.5914 159.479 20.4966 159.3 20.4212C159.123 20.3437 158.917 20.2747 158.68 20.2144L157.927 20.0205C157.382 19.8805 156.951 19.6683 156.634 19.3839C156.32 19.0974 156.162 18.7171 156.162 18.2432C156.162 17.8532 156.268 17.5118 156.479 17.2188C156.692 16.9258 156.982 16.6985 157.348 16.5369C157.714 16.3732 158.129 16.2913 158.592 16.2913C159.062 16.2913 159.474 16.3732 159.827 16.5369C160.182 16.6985 160.461 16.9236 160.664 17.2123C160.866 17.4989 160.971 17.8285 160.977 18.2012H159.824ZM163.513 23.1002C163.199 23.1002 162.915 23.0442 162.663 22.9321C162.413 22.818 162.215 22.6499 162.069 22.428C161.924 22.2061 161.852 21.9325 161.852 21.6072C161.852 21.3271 161.904 21.0955 162.007 20.9124C162.111 20.7293 162.252 20.5828 162.431 20.4729C162.609 20.3631 162.811 20.2801 163.035 20.2241C163.261 20.1659 163.495 20.1239 163.736 20.0981C164.027 20.0679 164.263 20.041 164.444 20.0173C164.625 19.9914 164.756 19.9527 164.838 19.901C164.922 19.8471 164.964 19.7642 164.964 19.6521V19.6327C164.964 19.3893 164.892 19.2008 164.748 19.0672C164.603 18.9337 164.395 18.8669 164.124 18.8669C163.837 18.8669 163.61 18.9293 163.442 19.0543C163.276 19.1792 163.164 19.3268 163.106 19.497L162.014 19.3419C162.1 19.0403 162.242 18.7882 162.44 18.5857C162.639 18.3811 162.881 18.2281 163.167 18.1268C163.454 18.0234 163.771 17.9717 164.117 17.9717C164.357 17.9717 164.595 17.9997 164.832 18.0558C165.069 18.1118 165.285 18.2044 165.481 18.3337C165.677 18.4608 165.835 18.6342 165.953 18.8539C166.074 19.0737 166.134 19.3484 166.134 19.678V23H165.009V22.3181H164.971C164.9 22.456 164.799 22.5853 164.67 22.7059C164.543 22.8244 164.382 22.9203 164.189 22.9935C163.997 23.0646 163.772 23.1002 163.513 23.1002ZM163.817 22.2406C164.052 22.2406 164.255 22.1943 164.428 22.1016C164.6 22.0068 164.733 21.8819 164.825 21.7268C164.92 21.5717 164.967 21.4025 164.967 21.2194V20.6345C164.931 20.6647 164.868 20.6927 164.78 20.7185C164.694 20.7444 164.597 20.767 164.489 20.7864C164.381 20.8058 164.275 20.823 164.169 20.8381C164.064 20.8532 163.972 20.8661 163.895 20.8769C163.72 20.9006 163.564 20.9394 163.426 20.9932C163.288 21.0471 163.179 21.1225 163.1 21.2194C163.02 21.3142 162.98 21.437 162.98 21.5878C162.98 21.8033 163.059 21.9659 163.216 22.0758C163.373 22.1857 163.574 22.2406 163.817 22.2406ZM171.566 18.0364L169.799 23H168.506L166.738 18.0364H167.986L169.126 21.7235H169.178L170.322 18.0364H171.566ZM174.404 23.0969C173.907 23.0969 173.477 22.9935 173.115 22.7867C172.755 22.5777 172.478 22.2826 172.284 21.9013C172.09 21.5178 171.994 21.0665 171.994 20.5473C171.994 20.0367 172.09 19.5886 172.284 19.2029C172.48 18.8152 172.754 18.5136 173.105 18.2981C173.456 18.0805 173.869 17.9717 174.343 17.9717C174.649 17.9717 174.937 18.0213 175.209 18.1204C175.483 18.2173 175.724 18.3681 175.933 18.5728C176.144 18.7775 176.31 19.0381 176.43 19.3548C176.551 19.6694 176.611 20.0442 176.611 20.4794V20.8381H172.543V20.0496H175.49C175.488 19.8256 175.439 19.6263 175.345 19.4518C175.25 19.2751 175.117 19.1362 174.947 19.0349C174.779 18.9337 174.583 18.883 174.359 18.883C174.12 18.883 173.91 18.9412 173.729 19.0575C173.548 19.1717 173.407 19.3225 173.306 19.5099C173.206 19.6952 173.156 19.8988 173.154 20.1207V20.809C173.154 21.0977 173.206 21.3455 173.312 21.5523C173.418 21.7569 173.565 21.9142 173.755 22.0241C173.944 22.1318 174.166 22.1857 174.42 22.1857C174.591 22.1857 174.745 22.162 174.883 22.1146C175.02 22.065 175.14 21.9928 175.241 21.898C175.342 21.8033 175.419 21.6858 175.471 21.5458L176.563 21.6686C176.494 21.9573 176.363 22.2094 176.169 22.4248C175.977 22.6381 175.731 22.804 175.432 22.9224C175.132 23.0388 174.79 23.0969 174.404 23.0969Z" fill="#19191A"/>
</g>
<defs>
<filter id="filter0_d_6184_50357" x="0.3" y="0" width="191.1" height="172.9" filterUnits="userSpaceOnUse" color-interpolation-filters="sRGB">
<feFlood flood-opacity="0" result="BackgroundImageFix"/>
<feColorMatrix in="SourceAlpha" type="matrix" values="0 0 0 0 0 0 0 0 0 0 0 0 0 0 0 0 0 0 127 0" result="hardAlpha"/>
<feOffset dy="0.7"/>
<feGaussianBlur stdDeviation="0.35"/>
<feComposite in2="hardAlpha" operator="out"/>
<feColorMatrix type="matrix" values="0 0 0 0 0 0 0 0 0 0 0 0 0 0 0 0 0 0 0.04 0"/>
<feBlend mode="normal" in2="BackgroundImageFix" result="effect1_dropShadow_6184_50357"/>
<feBlend mode="normal" in="SourceGraphic" in2="effect1_dropShadow_6184_50357" result="shape"/>
</filter>
<linearGradient id="paint0_linear_6184_50357" x1="95.85" y1="47.1625" x2="95.85" y2="270.47" gradientUnits="userSpaceOnUse">
<stop stop-color="white"/>
<stop offset="1" stop-color="#165DFF" stop-opacity="0.81"/>
</linearGradient>
</defs>
</svg>
