<svg width="26" height="26" viewBox="0 0 26 26" fill="none" xmlns="http://www.w3.org/2000/svg">
<g clip-path="url(#clip0_1139_17277)">
<rect width="26" height="26" fill="#EADAFB"/>
<g clip-path="url(#clip1_1139_17277)">
<path d="M19.0866 13.6559C19.1015 13.6587 19.1013 13.6857 19.1226 13.678V13.6981C17.0457 14.9258 14.9688 16.1534 12.8914 17.3807C12.8665 17.3954 12.8448 17.4197 12.8114 17.4161C12.8114 15.267 12.8114 13.1181 12.8112 10.969C12.8112 10.9255 12.8072 10.8823 12.8052 10.8389H12.8068C12.8414 10.8503 12.8774 10.8588 12.9105 10.8736C13.072 10.946 13.2324 11.0206 13.3935 11.0936C14.0407 11.3874 14.6883 11.6807 15.3353 11.9748C15.7211 12.1502 16.1064 12.3271 16.4922 12.5024C17.2092 12.8281 17.9255 13.1555 18.6447 13.4768C18.7895 13.5415 18.9244 13.6336 19.0866 13.6559V13.6559Z" fill="#282131"/>
<path d="M12.8052 10.8389C12.8074 10.8823 12.8112 10.9255 12.8112 10.969C12.8114 13.1181 12.8114 15.267 12.8114 17.4161C12.6013 17.3214 12.4115 17.1911 12.2139 17.0745C10.3088 15.9502 8.40463 14.824 6.5 13.6983C6.5 13.6917 6.5 13.6848 6.5 13.6782L6.5193 13.6776C6.54142 13.6708 6.56434 13.6661 6.58525 13.6567C7.18179 13.3859 7.77833 13.1144 8.37467 12.8434C9.60716 12.2833 10.8394 11.7227 12.0725 11.1642C12.3158 11.054 12.5545 10.9332 12.805 10.8393L12.8052 10.8389Z" fill="#796293"/>
<path d="M6.53967 14.9252C6.80829 15.0605 7.06062 15.224 7.31918 15.3764C9.13031 16.4448 10.9402 17.515 12.7506 18.5847C12.7707 18.5965 12.7904 18.6094 12.8101 18.6219C12.8101 20.1626 12.8103 21.7031 12.8107 23.2438C12.8107 23.4179 12.8123 23.592 12.8131 23.7661C12.7258 23.6966 12.6768 23.5968 12.6142 23.5088C11.0289 21.2772 9.44517 19.0445 7.86123 16.8119C7.4372 16.2142 7.01317 15.6164 6.59014 15.0181C6.57003 14.9895 6.53565 14.9662 6.54108 14.9236L6.53967 14.9252V14.9252Z" fill="#CAA3F5"/>
<path d="M12.8132 23.7662C12.8124 23.5921 12.8108 23.4179 12.8108 23.2438C12.8104 21.7031 12.8104 20.1626 12.8102 18.6219C14.3961 17.6848 15.9819 16.7474 17.5678 15.8105C18.0514 15.5248 18.5353 15.2397 19.0191 14.9546C19.039 14.9429 19.0603 14.9333 19.081 14.9228L19.0796 14.9204C19.0969 14.9614 19.0593 14.9799 19.042 15.0043C16.9854 17.9029 14.9279 20.8012 12.8703 23.699C12.8534 23.7229 12.8323 23.7439 12.8132 23.7662V23.7662Z" fill="#514162"/>
<path d="M6.54078 14.9234L6.53003 14.9166C6.53198 14.9166 6.53492 14.9162 6.5357 14.9172C6.53746 14.9193 6.53824 14.9222 6.53941 14.925L6.54078 14.9234V14.9234Z" fill="#8B8B8B"/>
<path d="M19.0808 14.9238L19.0959 14.9146L19.0953 14.924C19.09 14.9231 19.0847 14.9224 19.0795 14.9214L19.081 14.9238H19.0808Z" fill="#3C3C3B"/>
<path d="M12.8049 10.8389C12.5543 10.933 12.3157 11.0537 12.0724 11.1639C10.8393 11.7224 9.60702 12.2831 8.37453 12.8431C7.77799 13.1141 7.18165 13.3856 6.58511 13.6564C6.5642 13.6658 6.54108 13.6705 6.51917 13.6773C6.69831 13.3755 6.87584 13.0727 7.0568 12.7719C8.50703 10.364 9.95807 7.95597 11.4089 5.5481C11.8597 4.79996 12.3109 4.05182 12.7624 3.30408C12.7751 3.28297 12.7785 3.2506 12.8139 3.25C12.8127 3.30006 12.8105 3.35033 12.8105 3.40039C12.8105 5.8332 12.8105 8.266 12.8101 10.6986C12.8101 10.7455 12.8077 10.7921 12.8065 10.8389H12.8049V10.8389Z" fill="#A282C4"/>
<path d="M12.807 10.8392C12.8082 10.7923 12.8106 10.7457 12.8106 10.6989C12.8106 8.26605 12.8106 5.83324 12.811 3.40064C12.811 3.35057 12.8132 3.30031 12.8144 3.25024C12.9345 3.41069 13.0276 3.58782 13.1305 3.75872C15.1001 7.02511 17.0684 10.2923 19.0368 13.5593C19.0555 13.5905 19.0704 13.6238 19.0871 13.6562C18.9246 13.6339 18.7899 13.5418 18.6451 13.4771C17.9262 13.1558 17.2098 12.8287 16.4926 12.5027C16.1068 12.3274 15.7215 12.1505 15.3357 11.9752C14.6885 11.681 14.0411 11.3877 13.3939 11.0939C13.2328 11.0207 13.0724 10.9464 12.911 10.874C12.8778 10.8591 12.842 10.8507 12.8072 10.8394L12.807 10.8392Z" fill="#514162"/>
</g>
</g>
<path d="M0.5 6C0.5 2.96243 2.96243 0.5 6 0.5H25.5V25.5H6C2.96243 25.5 0.5 23.0376 0.5 20V6Z" stroke="black" style="mix-blend-mode:soft-light"/>
<defs>
<clipPath id="clip0_1139_17277">
<path d="M0 6C0 2.68629 2.68629 0 6 0H26V26H6C2.68629 26 0 23.3137 0 20V6Z" fill="white"/>
</clipPath>
<clipPath id="clip1_1139_17277">
<rect width="12.6226" height="20.5162" fill="white" transform="translate(6.5 3.25)"/>
</clipPath>
</defs>
</svg>
