<svg width="104" height="39" viewBox="0 0 104 39" fill="none" xmlns="http://www.w3.org/2000/svg">
<g clip-path="url(#clip0_6566_58345)">
<path d="M39 19.4636L34.2846 14.7481L34.2878 14.7449L19.5435 0L14.8481 4.69543L14.8417 4.68898L0 19.5313L6.07909 25.611L6.08232 25.6078L19.4745 38.9994L25.5543 32.9196L25.5491 32.9145L39 19.4636ZM16.5066 23.8726L23.8816 16.4975L26.8444 19.4603L19.4694 26.8354L16.5066 23.8726ZM15.1229 22.4889L12.1621 19.5281L19.5377 12.153L22.4986 15.1139L15.1229 22.4889ZM24.2132 31.4831L20.9014 28.1713L32.9209 16.1518L36.2327 19.4636L24.2132 31.4831ZM19.5435 2.76797L31.5205 14.7443L28.2087 18.056L16.2318 6.07974L19.5435 2.76797ZM14.8417 7.45695L18.1534 10.7687L10.7784 18.1444L10.7668 18.1328L6.06748 22.8321L2.76733 19.5313L14.8417 7.45695ZM19.4745 36.232L7.46663 24.2235L10.7784 20.9117L22.7863 32.9196L19.4745 36.232Z" fill="#E5E5E6"/>
</g>
<path d="M48.9176 27.9995V10.545H51.5511V25.7325H59.4602V27.9995H48.9176ZM67.7741 28.2637C66.5469 28.2637 65.4759 27.9825 64.5611 27.42C63.6463 26.8575 62.9361 26.0705 62.4304 25.0592C61.9247 24.0478 61.6719 22.866 61.6719 21.5137C61.6719 20.1558 61.9247 18.9683 62.4304 17.9512C62.9361 16.9342 63.6463 16.1444 64.5611 15.5819C65.4759 15.0194 66.5469 14.7381 67.7741 14.7381C69.0014 14.7381 70.0724 15.0194 70.9872 15.5819C71.902 16.1444 72.6122 16.9342 73.1179 17.9512C73.6236 18.9683 73.8764 20.1558 73.8764 21.5137C73.8764 22.866 73.6236 24.0478 73.1179 25.0592C72.6122 26.0705 71.902 26.8575 70.9872 27.42C70.0724 27.9825 69.0014 28.2637 67.7741 28.2637ZM67.7827 26.1245C68.5781 26.1245 69.2372 25.9143 69.7599 25.4938C70.2827 25.0734 70.669 24.5137 70.919 23.8149C71.1747 23.116 71.3026 22.3461 71.3026 21.5052C71.3026 20.67 71.1747 19.9029 70.919 19.2041C70.669 18.4995 70.2827 17.9342 69.7599 17.508C69.2372 17.0819 68.5781 16.8688 67.7827 16.8688C66.9815 16.8688 66.3168 17.0819 65.7884 17.508C65.2656 17.9342 64.8764 18.4995 64.6207 19.2041C64.3707 19.9029 64.2457 20.67 64.2457 21.5052C64.2457 22.3461 64.3707 23.116 64.6207 23.8149C64.8764 24.5137 65.2656 25.0734 65.7884 25.4938C66.3168 25.9143 66.9815 26.1245 67.7827 26.1245ZM82.2351 28.2637C80.968 28.2637 79.8771 27.9768 78.9624 27.4029C78.0533 26.8234 77.3544 26.0251 76.8658 25.008C76.3771 23.991 76.1328 22.8262 76.1328 21.5137C76.1328 20.1842 76.3828 19.0109 76.8828 17.9938C77.3828 16.9711 78.0874 16.1728 78.9964 15.5989C79.9055 15.0251 80.9766 14.7381 82.2095 14.7381C83.2038 14.7381 84.0902 14.9228 84.8686 15.2921C85.647 15.6558 86.2749 16.1671 86.7521 16.8262C87.2351 17.4853 87.522 18.2552 87.6129 19.1359H85.1328C84.9964 18.5222 84.6839 17.9938 84.1953 17.5506C83.7124 17.1075 83.0646 16.8859 82.2521 16.8859C81.5419 16.8859 80.9197 17.0734 80.3857 17.4484C79.8572 17.8177 79.4453 18.3461 79.1499 19.0336C78.8544 19.7154 78.7067 20.5222 78.7067 21.4541C78.7067 22.4086 78.8516 23.2325 79.1413 23.9256C79.4311 24.6188 79.8402 25.1558 80.3686 25.5364C80.9027 25.9171 81.5305 26.1075 82.2521 26.1075C82.7351 26.1075 83.1726 26.0194 83.5646 25.8433C83.9624 25.6614 84.2947 25.4029 84.5618 25.0677C84.8345 24.7325 85.0249 24.3291 85.1328 23.8575H87.6129C87.522 24.7041 87.2464 25.4597 86.7862 26.1245C86.326 26.7893 85.7095 27.312 84.9368 27.6927C84.1697 28.0734 83.2692 28.2637 82.2351 28.2637ZM92.8864 20.2268V27.9995H90.3381V10.545H92.8523V17.0393H93.0142C93.321 16.3347 93.7898 15.7751 94.4205 15.3603C95.0511 14.9455 95.875 14.7381 96.892 14.7381C97.7898 14.7381 98.5739 14.9228 99.2443 15.2921C99.9205 15.6614 100.443 16.2126 100.812 16.9455C101.188 17.6728 101.375 18.5819 101.375 19.6728V27.9995H98.8267V19.9796C98.8267 19.0194 98.5795 18.2751 98.0852 17.7467C97.5909 17.2126 96.9034 16.9455 96.0227 16.9455C95.4205 16.9455 94.8807 17.0734 94.4034 17.3291C93.9318 17.5847 93.5597 17.9597 93.2869 18.4541C93.0199 18.9427 92.8864 19.5336 92.8864 20.2268Z" fill="#E5E5E6"/>
<defs>
<clipPath id="clip0_6566_58345">
<rect width="39" height="38.9994" fill="white"/>
</clipPath>
</defs>
</svg>
