<svg width="26" height="26" viewBox="0 0 26 26" fill="none" xmlns="http://www.w3.org/2000/svg">
<g clip-path="url(#clip0_1139_17308)">
<rect width="26" height="26" fill="#DBDAFF"/>
<g clip-path="url(#clip1_1139_17308)">
<path d="M12.9979 3.25C18.3812 3.24844 22.7578 7.62828 22.75 13.0107C22.7422 18.3868 18.377 22.7484 13.0021 22.7505C7.61778 22.7521 3.24221 18.3722 3.25001 12.9893C3.25833 7.61112 7.6209 3.25156 12.9979 3.25ZM13.039 17.3135C15.9301 17.3083 17.9897 14.5436 17.1426 11.7913C17.0761 11.575 17.1302 11.5178 17.3236 11.4543C18.3089 11.1304 18.949 10.1565 18.8346 9.17888C18.7036 8.05935 17.9273 7.28925 16.8067 7.1681C15.8271 7.06202 14.8553 7.70628 14.5443 8.69737C14.4762 8.91473 14.3956 8.90797 14.2193 8.85077C13.4789 8.61158 12.7255 8.5913 11.9705 8.77537C9.5422 9.36608 8.16167 11.7747 8.86571 14.2051C8.92811 14.4198 8.88495 14.4708 8.68632 14.5373C7.59854 14.9024 6.97093 16.0162 7.22312 17.1009C7.45711 18.107 8.28178 18.7893 9.31601 18.8319C10.2904 18.8719 11.1817 18.2376 11.4833 17.2683C11.5384 17.091 11.5945 17.0598 11.7656 17.1191C12.1764 17.261 12.6033 17.3229 13.039 17.3141V17.3135Z" fill="#6F6AFF"/>
<path d="M15.1749 9.4873C15.1292 8.59813 15.7536 7.90863 16.6106 7.90239C17.4498 7.89615 18.1076 8.57109 18.0784 9.40931C18.0498 10.2434 17.3058 10.8876 16.4722 10.8003C15.7214 10.7218 15.3273 11.2386 15.6054 11.9354C16.0443 13.0331 15.8077 14.2145 14.9882 15.0174C14.1802 15.8093 12.9962 16.024 11.9147 15.5758C11.2829 15.3137 10.7723 15.6913 10.8103 16.3922C10.8508 17.1384 10.5435 17.6807 9.93151 17.9428C9.3793 18.1789 8.71945 18.0447 8.31023 17.6131C7.88802 17.1675 7.78818 16.5009 8.06221 15.9544C8.34299 15.3954 8.92224 15.0548 9.53269 15.1671C10.1749 15.2851 10.6979 14.6877 10.3964 14.0159C9.92891 12.9754 10.1749 11.7544 10.9813 10.9802C11.846 10.1498 12.8792 9.90225 13.9873 10.3682C14.6222 10.6349 15.3377 10.2704 15.1744 9.48678L15.1749 9.4873ZM14.6227 13.0128C14.6347 12.1314 13.9311 11.4029 13.0539 11.3884C12.1419 11.3738 11.4056 12.0805 11.3963 12.9795C11.3874 13.8557 12.1019 14.5951 12.9692 14.6076C13.8828 14.6206 14.6107 13.9186 14.6227 13.0123V13.0128Z" fill="#6F6AFF"/>
</g>
</g>
<path d="M0.5 6C0.5 2.96243 2.96243 0.5 6 0.5H25.5V25.5H6C2.96243 25.5 0.5 23.0376 0.5 20V6Z" stroke="black" style="mix-blend-mode:soft-light"/>
<defs>
<clipPath id="clip0_1139_17308">
<path d="M0 6C0 2.68629 2.68629 0 6 0H26V26H6C2.68629 26 0 23.3137 0 20V6Z" fill="white"/>
</clipPath>
<clipPath id="clip1_1139_17308">
<rect width="19.5" height="19.5" fill="white" transform="translate(3.25 3.25)"/>
</clipPath>
</defs>
</svg>
