<svg width="191" height="172" viewBox="0 0 191 172" fill="none" xmlns="http://www.w3.org/2000/svg">
<g clip-path="url(#clip0_6184_50330)">
<g filter="url(#filter0_dd_6184_50330)">
<rect x="0.699951" width="189.7" height="171.5" rx="8.4" fill="white" shape-rendering="crispEdges"/>
<rect x="162.4" y="14" width="14" height="14" rx="4.2" fill="#0071E3"/>
<path d="M168.664 24.3277C168.969 24.3277 169.2 24.2106 169.356 23.9763L172.735 18.8837C172.792 18.8007 172.833 18.7189 172.86 18.6384C172.887 18.5554 172.9 18.4761 172.9 18.4004C172.9 18.1905 172.827 18.0172 172.68 17.8806C172.536 17.7414 172.358 17.6719 172.146 17.6719C172 17.6719 171.875 17.7012 171.773 17.7597C171.672 17.8159 171.577 17.9135 171.487 18.0526L168.65 22.5082L167.229 20.8058C167.075 20.6276 166.883 20.5385 166.651 20.5385C166.433 20.5385 166.254 20.6081 166.112 20.7472C165.971 20.8863 165.9 21.0608 165.9 21.2707C165.9 21.3659 165.915 21.4562 165.944 21.5416C165.976 21.6246 166.033 21.7113 166.116 21.8016L168.002 24.0239C168.175 24.2264 168.396 24.3277 168.664 24.3277Z" fill="white"/>
<rect x="14.7" y="137.9" width="66.4" height="19.6" rx="2.8" fill="#E5E5E6" fill-opacity="0.5"/>
<path d="M21.5788 151.928V143.655H22.1088V151.928H21.5788ZM23.2366 146.221C23.2022 145.915 23.06 145.678 22.8101 145.51C22.5602 145.34 22.2456 145.255 21.8665 145.255C21.595 145.255 21.3602 145.298 21.162 145.384C20.9638 145.468 20.8097 145.584 20.6999 145.733C20.5921 145.88 20.5383 146.046 20.5383 146.234C20.5383 146.391 20.5749 146.527 20.6482 146.641C20.7236 146.755 20.8216 146.851 20.9422 146.929C21.065 147.004 21.1964 147.068 21.3365 147.119C21.4765 147.169 21.6112 147.21 21.7404 147.242L22.3867 147.41C22.5979 147.462 22.8144 147.532 23.0363 147.62C23.2582 147.709 23.4639 147.825 23.6535 147.969C23.8431 148.114 23.996 148.292 24.1124 148.506C24.2309 148.719 24.2901 148.974 24.2901 149.272C24.2901 149.646 24.1932 149.979 23.9993 150.27C23.8075 150.561 23.5285 150.79 23.1623 150.958C22.7982 151.126 22.3576 151.21 21.8406 151.21C21.3451 151.21 20.9164 151.132 20.5544 150.975C20.1925 150.817 19.9092 150.594 19.7046 150.306C19.4999 150.015 19.3868 149.67 19.3652 149.272H20.367C20.3864 149.511 20.464 149.71 20.5997 149.869C20.7376 150.027 20.9131 150.144 21.1264 150.222C21.3419 150.297 21.5778 150.335 21.8341 150.335C22.1164 150.335 22.3673 150.291 22.5871 150.202C22.809 150.112 22.9835 149.987 23.1106 149.827C23.2377 149.666 23.3013 149.477 23.3013 149.262C23.3013 149.066 23.2452 148.905 23.1332 148.78C23.0233 148.655 22.8736 148.552 22.684 148.47C22.4966 148.388 22.2844 148.316 22.0474 148.254L21.2654 148.04C20.7354 147.896 20.3153 147.684 20.0051 147.404C19.697 147.124 19.543 146.753 19.543 146.292C19.543 145.911 19.6464 145.578 19.8532 145.294C20.06 145.009 20.3401 144.788 20.6934 144.631C21.0467 144.472 21.4453 144.392 21.8891 144.392C22.3372 144.392 22.7325 144.471 23.075 144.628C23.4197 144.785 23.6912 145.002 23.8894 145.277C24.0876 145.551 24.191 145.866 24.1996 146.221H23.2366ZM27.9038 144.482V151.101H26.902V145.484H26.8632L25.2798 146.518V145.562L26.9311 144.482H27.9038ZM30.5819 150.196L30.5334 150.548C30.5011 150.807 30.4462 151.076 30.3686 151.356C30.2932 151.638 30.2146 151.9 30.1327 152.141C30.053 152.382 29.9873 152.574 29.9356 152.716H29.2505C29.2785 152.583 29.3173 152.402 29.3668 152.173C29.4164 151.947 29.4649 151.694 29.5123 151.414C29.5597 151.134 29.5952 150.849 29.6189 150.558L29.6512 150.196H30.5819ZM33.9976 151.21C33.487 151.208 33.0508 151.074 32.6889 150.807C32.3269 150.539 32.0501 150.151 31.8584 149.64C31.6666 149.129 31.5707 148.514 31.5707 147.795C31.5707 147.077 31.6666 146.464 31.8584 145.956C32.0522 145.448 32.3302 145.06 32.6921 144.793C33.0562 144.525 33.4914 144.392 33.9976 144.392C34.5039 144.392 34.938 144.527 35.2999 144.796C35.6619 145.063 35.9387 145.451 36.1304 145.959C36.3243 146.465 36.4213 147.077 36.4213 147.795C36.4213 148.516 36.3254 149.133 36.1337 149.643C35.9419 150.152 35.6651 150.54 35.3032 150.81C34.9412 151.077 34.5061 151.21 33.9976 151.21ZM33.9976 150.348C34.4457 150.348 34.7958 150.129 35.0479 149.692C35.3021 149.254 35.4292 148.622 35.4292 147.795C35.4292 147.245 35.371 146.781 35.2547 146.402C35.1405 146.021 34.9757 145.732 34.7603 145.536C34.547 145.338 34.2928 145.239 33.9976 145.239C33.5517 145.239 33.2016 145.458 32.9474 145.898C32.6932 146.337 32.565 146.97 32.5628 147.795C32.5628 148.346 32.6199 148.813 32.7341 149.194C32.8504 149.573 33.0152 149.861 33.2285 150.057C33.4418 150.251 33.6982 150.348 33.9976 150.348ZM39.8717 151.21C39.3612 151.208 38.9249 151.074 38.563 150.807C38.201 150.539 37.9242 150.151 37.7325 149.64C37.5407 149.129 37.4449 148.514 37.4449 147.795C37.4449 147.077 37.5407 146.464 37.7325 145.956C37.9264 145.448 38.2043 145.06 38.5662 144.793C38.9303 144.525 39.3655 144.392 39.8717 144.392C40.378 144.392 40.8121 144.527 41.1741 144.796C41.536 145.063 41.8128 145.451 42.0046 145.959C42.1985 146.465 42.2954 147.077 42.2954 147.795C42.2954 148.516 42.1995 149.133 42.0078 149.643C41.8161 150.152 41.5392 150.54 41.1773 150.81C40.8154 151.077 40.3802 151.21 39.8717 151.21ZM39.8717 150.348C40.3199 150.348 40.6699 150.129 40.922 149.692C41.1762 149.254 41.3033 148.622 41.3033 147.795C41.3033 147.245 41.2452 146.781 41.1288 146.402C41.0146 146.021 40.8498 145.732 40.6344 145.536C40.4211 145.338 40.1669 145.239 39.8717 145.239C39.4258 145.239 39.0757 145.458 38.8215 145.898C38.5673 146.337 38.4391 146.97 38.4369 147.795C38.4369 148.346 38.494 148.813 38.6082 149.194C38.7246 149.573 38.8894 149.861 39.1026 150.057C39.3159 150.251 39.5723 150.348 39.8717 150.348ZM45.7459 151.21C45.2353 151.208 44.799 151.074 44.4371 150.807C44.0752 150.539 43.7983 150.151 43.6066 149.64C43.4149 149.129 43.319 148.514 43.319 147.795C43.319 147.077 43.4149 146.464 43.6066 145.956C43.8005 145.448 44.0784 145.06 44.4403 144.793C44.8044 144.525 45.2396 144.392 45.7459 144.392C46.2521 144.392 46.6862 144.527 47.0482 144.796C47.4101 145.063 47.6869 145.451 47.8787 145.959C48.0726 146.465 48.1695 147.077 48.1695 147.795C48.1695 148.516 48.0737 149.133 47.8819 149.643C47.6902 150.152 47.4133 150.54 47.0514 150.81C46.6895 151.077 46.2543 151.21 45.7459 151.21ZM45.7459 150.348C46.194 150.348 46.5441 150.129 46.7961 149.692C47.0503 149.254 47.1774 148.622 47.1774 147.795C47.1774 147.245 47.1193 146.781 47.0029 146.402C46.8888 146.021 46.7239 145.732 46.5085 145.536C46.2952 145.338 46.041 145.239 45.7459 145.239C45.2999 145.239 44.9498 145.458 44.6956 145.898C44.4414 146.337 44.3132 146.97 44.3111 147.795C44.3111 148.346 44.3682 148.813 44.4823 149.194C44.5987 149.573 44.7635 149.861 44.9768 150.057C45.19 150.251 45.4464 150.348 45.7459 150.348ZM49.7255 151.162C49.5488 151.162 49.397 151.1 49.2699 150.975C49.1428 150.847 49.0792 150.694 49.0792 150.516C49.0792 150.339 49.1428 150.188 49.2699 150.063C49.397 149.936 49.5488 149.873 49.7255 149.873C49.9022 149.873 50.054 149.936 50.1812 150.063C50.3083 150.188 50.3718 150.339 50.3718 150.516C50.3718 150.634 50.3417 150.743 50.2813 150.842C50.2232 150.939 50.1456 151.017 50.0487 151.075C49.9517 151.133 49.844 151.162 49.7255 151.162ZM53.7173 151.21C53.2067 151.208 52.7704 151.074 52.4085 150.807C52.0466 150.539 51.7697 150.151 51.578 149.64C51.3862 149.129 51.2904 148.514 51.2904 147.795C51.2904 147.077 51.3862 146.464 51.578 145.956C51.7719 145.448 52.0498 145.06 52.4117 144.793C52.7758 144.525 53.211 144.392 53.7173 144.392C54.2235 144.392 54.6576 144.527 55.0196 144.796C55.3815 145.063 55.6583 145.451 55.8501 145.959C56.044 146.465 56.1409 147.077 56.1409 147.795C56.1409 148.516 56.045 149.133 55.8533 149.643C55.6616 150.152 55.3847 150.54 55.0228 150.81C54.6609 151.077 54.2257 151.21 53.7173 151.21ZM53.7173 150.348C54.1654 150.348 54.5154 150.129 54.7675 149.692C55.0217 149.254 55.1488 148.622 55.1488 147.795C55.1488 147.245 55.0907 146.781 54.9743 146.402C54.8601 146.021 54.6953 145.732 54.4799 145.536C54.2666 145.338 54.0124 145.239 53.7173 145.239C53.2713 145.239 52.9212 145.458 52.667 145.898C52.4128 146.337 52.2846 146.97 52.2825 147.795C52.2825 148.346 52.3395 148.813 52.4537 149.194C52.5701 149.573 52.7349 149.861 52.9482 150.057C53.1614 150.251 53.4178 150.348 53.7173 150.348ZM59.5914 151.21C59.0808 151.208 58.6445 151.074 58.2826 150.807C57.9207 150.539 57.6438 150.151 57.4521 149.64C57.2604 149.129 57.1645 148.514 57.1645 147.795C57.1645 147.077 57.2604 146.464 57.4521 145.956C57.646 145.448 57.9239 145.06 58.2858 144.793C58.6499 144.525 59.0851 144.392 59.5914 144.392C60.0977 144.392 60.5318 144.527 60.8937 144.796C61.2556 145.063 61.5325 145.451 61.7242 145.959C61.9181 146.465 62.015 147.077 62.015 147.795C62.015 148.516 61.9192 149.133 61.7274 149.643C61.5357 150.152 61.2588 150.54 60.8969 150.81C60.535 151.077 60.0998 151.21 59.5914 151.21ZM59.5914 150.348C60.0395 150.348 60.3896 150.129 60.6416 149.692C60.8958 149.254 61.0229 148.622 61.0229 147.795C61.0229 147.245 60.9648 146.781 60.8484 146.402C60.7343 146.021 60.5695 145.732 60.354 145.536C60.1407 145.338 59.8865 145.239 59.5914 145.239C59.1454 145.239 58.7953 145.458 58.5411 145.898C58.2869 146.337 58.1587 146.97 58.1566 147.795C58.1566 148.346 58.2137 148.813 58.3278 149.194C58.4442 149.573 58.609 149.861 58.8223 150.057C59.0356 150.251 59.2919 150.348 59.5914 150.348Z" fill="#313233"/>
<path d="M68.7987 146.6L71.1762 148.977C71.2446 149.045 71.3554 149.045 71.4237 148.977L73.8012 146.6C73.9114 146.489 73.8334 146.301 73.6774 146.301H68.9224C68.7665 146.301 68.6884 146.489 68.7987 146.6Z" fill="#96979A"/>
<path d="M37.1001 39.9004V25.9004" stroke="black" stroke-width="1.4" stroke-linecap="round" stroke-linejoin="round"/>
<path d="M28.7 39.9V17.5" stroke="black" stroke-width="1.4" stroke-linecap="round" stroke-linejoin="round"/>
<path d="M20.3 39.9V31.5" stroke="black" stroke-width="1.4" stroke-linecap="round" stroke-linejoin="round"/>
<path d="M21.4693 99.8545V108H20.3398L16.1994 102.026H16.1239V108H14.8949V99.8545H16.0324L20.1767 105.836H20.2523V99.8545H21.4693ZM25.7399 108.123C25.1672 108.123 24.6674 107.992 24.2405 107.73C23.8136 107.467 23.4821 107.1 23.2462 106.628C23.0102 106.156 22.8922 105.604 22.8922 104.973C22.8922 104.34 23.0102 103.785 23.2462 103.311C23.4821 102.836 23.8136 102.468 24.2405 102.205C24.6674 101.943 25.1672 101.811 25.7399 101.811C26.3126 101.811 26.8125 101.943 27.2393 102.205C27.6662 102.468 27.9977 102.836 28.2337 103.311C28.4696 103.785 28.5876 104.34 28.5876 104.973C28.5876 105.604 28.4696 106.156 28.2337 106.628C27.9977 107.1 27.6662 107.467 27.2393 107.73C26.8125 107.992 26.3126 108.123 25.7399 108.123ZM25.7439 107.125C26.1151 107.125 26.4227 107.027 26.6666 106.831C26.9106 106.634 27.0909 106.373 27.2075 106.047C27.3268 105.721 27.3865 105.362 27.3865 104.969C27.3865 104.58 27.3268 104.222 27.2075 103.895C27.0909 103.567 26.9106 103.303 26.6666 103.104C26.4227 102.905 26.1151 102.806 25.7439 102.806C25.37 102.806 25.0598 102.905 24.8132 103.104C24.5693 103.303 24.3876 103.567 24.2683 103.895C24.1517 104.222 24.0933 104.58 24.0933 104.969C24.0933 105.362 24.1517 105.721 24.2683 106.047C24.3876 106.373 24.5693 106.634 24.8132 106.831C25.0598 107.027 25.37 107.125 25.7439 107.125ZM32.7668 101.891V102.845H29.4298V101.891H32.7668ZM30.3247 100.427H31.5139V106.206C31.5139 106.437 31.5484 106.611 31.6173 106.727C31.6863 106.841 31.7751 106.92 31.8838 106.962C31.9952 107.002 32.1158 107.022 32.2457 107.022C32.3412 107.022 32.4247 107.015 32.4963 107.002C32.5679 106.988 32.6236 106.978 32.6634 106.97L32.8781 107.952C32.8092 107.979 32.7111 108.005 32.5838 108.032C32.4565 108.061 32.2974 108.077 32.1065 108.08C31.7937 108.085 31.502 108.029 31.2315 107.913C30.9611 107.796 30.7423 107.616 30.5753 107.372C30.4082 107.128 30.3247 106.821 30.3247 106.453V100.427ZM34.0822 108V101.891H35.2714V108H34.0822ZM34.6828 100.948C34.476 100.948 34.2983 100.879 34.1499 100.741C34.004 100.601 33.9311 100.434 33.9311 100.24C33.9311 100.044 34.004 99.8771 34.1499 99.7392C34.2983 99.5987 34.476 99.5284 34.6828 99.5284C34.8896 99.5284 35.066 99.5987 35.2118 99.7392C35.3603 99.8771 35.4345 100.044 35.4345 100.24C35.4345 100.434 35.3603 100.601 35.2118 100.741C35.066 100.879 34.8896 100.948 34.6828 100.948ZM39.7787 101.891V102.845H36.3264V101.891H39.7787ZM37.273 108V101.183C37.273 100.801 37.3565 100.484 37.5236 100.232C37.6906 99.9778 37.912 99.7883 38.1878 99.6636C38.4635 99.5364 38.7632 99.4727 39.0866 99.4727C39.3253 99.4727 39.5295 99.4926 39.6991 99.5324C39.8688 99.5695 39.9948 99.604 40.077 99.6358L39.7986 100.598C39.7429 100.582 39.6713 100.564 39.5838 100.543C39.4963 100.519 39.3902 100.507 39.2656 100.507C38.9766 100.507 38.7698 100.578 38.6452 100.722C38.5232 100.865 38.4622 101.072 38.4622 101.342V108H37.273ZM41.7574 110.291C41.5797 110.291 41.418 110.276 41.2722 110.247C41.1263 110.221 41.0176 110.191 40.946 110.16L41.2324 109.185C41.4498 109.244 41.6434 109.269 41.8131 109.261C41.9828 109.253 42.1326 109.189 42.2625 109.07C42.3951 108.951 42.5117 108.756 42.6125 108.485L42.7597 108.08L40.5244 101.891H41.7972L43.3443 106.632H43.408L44.9551 101.891H46.2318L43.7142 108.815C43.5975 109.134 43.4491 109.403 43.2687 109.623C43.0884 109.845 42.8737 110.013 42.6244 110.124C42.3752 110.235 42.0862 110.291 41.7574 110.291ZM50.3135 108V101.891H51.455V102.885H51.5305C51.6578 102.548 51.866 102.286 52.155 102.098C52.444 101.907 52.79 101.811 53.193 101.811C53.6014 101.811 53.9434 101.907 54.2192 102.098C54.4976 102.289 54.7031 102.551 54.8357 102.885H54.8993C55.0451 102.559 55.2771 102.299 55.5953 102.106C55.9135 101.909 56.2927 101.811 56.7328 101.811C57.287 101.811 57.7391 101.985 58.0891 102.332C58.4417 102.68 58.618 103.203 58.618 103.903V108H57.4288V104.015C57.4288 103.601 57.3161 103.302 57.0908 103.116C56.8654 102.93 56.5963 102.838 56.2834 102.838C55.8963 102.838 55.5953 102.957 55.3805 103.195C55.1658 103.431 55.0584 103.735 55.0584 104.106V108H53.8732V103.939C53.8732 103.608 53.7697 103.341 53.5629 103.14C53.3561 102.938 53.087 102.838 52.7555 102.838C52.5302 102.838 52.322 102.897 52.1311 103.016C51.9428 103.133 51.7904 103.296 51.6737 103.506C51.5597 103.715 51.5027 103.958 51.5027 104.234V108H50.3135ZM62.8449 108.123C62.243 108.123 61.7246 107.995 61.2898 107.738C60.8576 107.478 60.5235 107.113 60.2875 106.644C60.0542 106.172 59.9375 105.619 59.9375 104.985C59.9375 104.359 60.0542 103.808 60.2875 103.331C60.5235 102.853 60.8523 102.481 61.2739 102.213C61.6981 101.945 62.1939 101.811 62.7614 101.811C63.1061 101.811 63.4402 101.868 63.7636 101.982C64.0871 102.096 64.3775 102.275 64.6347 102.519C64.8919 102.763 65.0947 103.08 65.2432 103.47C65.3917 103.857 65.4659 104.328 65.4659 104.882V105.303H60.6097V104.413H64.3006C64.3006 104.1 64.2369 103.823 64.1097 103.581C63.9824 103.337 63.8034 103.145 63.5727 103.005C63.3447 102.864 63.0769 102.794 62.7693 102.794C62.4352 102.794 62.1436 102.876 61.8943 103.04C61.6477 103.202 61.4568 103.414 61.3216 103.677C61.189 103.937 61.1227 104.219 61.1227 104.524V105.22C61.1227 105.628 61.1943 105.976 61.3375 106.262C61.4833 106.548 61.6862 106.767 61.946 106.918C62.2059 107.067 62.5095 107.141 62.8568 107.141C63.0822 107.141 63.2877 107.109 63.4733 107.045C63.6589 106.979 63.8193 106.881 63.9545 106.751C64.0898 106.621 64.1932 106.461 64.2648 106.27L65.3903 106.473C65.3002 106.804 65.1384 107.095 64.9051 107.344C64.6744 107.59 64.3841 107.783 64.0341 107.92C63.6867 108.056 63.2903 108.123 62.8449 108.123ZM71.0739 108L69.2761 101.891H70.5051L71.7023 106.377H71.7619L72.9631 101.891H74.192L75.3852 106.357H75.4449L76.6341 101.891H77.8631L76.0693 108H74.8563L73.6153 103.589H73.5239L72.283 108H71.0739ZM80.1808 104.373V108H78.9916V99.8545H80.1649V102.885H80.2405C80.3837 102.556 80.6024 102.295 80.8967 102.102C81.191 101.908 81.5755 101.811 82.0501 101.811C82.4691 101.811 82.835 101.898 83.1479 102.07C83.4634 102.242 83.7073 102.499 83.8797 102.841C84.0547 103.181 84.1422 103.605 84.1422 104.114V108H82.953V104.257C82.953 103.809 82.8376 103.462 82.607 103.215C82.3763 102.966 82.0554 102.841 81.6445 102.841C81.3634 102.841 81.1115 102.901 80.8888 103.02C80.6687 103.14 80.495 103.315 80.3678 103.545C80.2431 103.773 80.1808 104.049 80.1808 104.373ZM88.3621 108.123C87.7602 108.123 87.2418 107.995 86.807 107.738C86.3748 107.478 86.0407 107.113 85.8047 106.644C85.5714 106.172 85.4547 105.619 85.4547 104.985C85.4547 104.359 85.5714 103.808 85.8047 103.331C86.0407 102.853 86.3695 102.481 86.7911 102.213C87.2153 101.945 87.7111 101.811 88.2786 101.811C88.6232 101.811 88.9573 101.868 89.2808 101.982C89.6043 102.096 89.8946 102.275 90.1518 102.519C90.409 102.763 90.6119 103.08 90.7604 103.47C90.9089 103.857 90.9831 104.328 90.9831 104.882V105.303H86.1268V104.413H89.8178C89.8178 104.1 89.7541 103.823 89.6268 103.581C89.4996 103.337 89.3206 103.145 89.0899 103.005C88.8619 102.864 88.5941 102.794 88.2865 102.794C87.9524 102.794 87.6607 102.876 87.4115 103.04C87.1649 103.202 86.974 103.414 86.8388 103.677C86.7062 103.937 86.6399 104.219 86.6399 104.524V105.22C86.6399 105.628 86.7115 105.976 86.8547 106.262C87.0005 106.548 87.2034 106.767 87.4632 106.918C87.7231 107.067 88.0267 107.141 88.374 107.141C88.5994 107.141 88.8049 107.109 88.9905 107.045C89.1761 106.979 89.3365 106.881 89.4717 106.751C89.607 106.621 89.7104 106.461 89.782 106.27L90.9075 106.473C90.8174 106.804 90.6556 107.095 90.4223 107.344C90.1916 107.59 89.9013 107.783 89.5513 107.92C89.2039 108.056 88.8075 108.123 88.3621 108.123ZM93.4918 104.373V108H92.3026V101.891H93.444V102.885H93.5196C93.6601 102.562 93.8802 102.302 94.1798 102.106C94.4821 101.909 94.8626 101.811 95.3213 101.811C95.7376 101.811 96.1022 101.899 96.4151 102.074C96.7279 102.246 96.9705 102.503 97.1429 102.845C97.3152 103.187 97.4014 103.61 97.4014 104.114V108H96.2122V104.257C96.2122 103.815 96.0969 103.469 95.8662 103.219C95.6355 102.967 95.3187 102.841 94.9156 102.841C94.6399 102.841 94.3946 102.901 94.1798 103.02C93.9677 103.14 93.7993 103.315 93.6747 103.545C93.5527 103.773 93.4918 104.049 93.4918 104.373ZM103.738 108.135C103.351 108.135 103.001 108.064 102.688 107.92C102.375 107.775 102.127 107.564 101.944 107.288C101.764 107.012 101.674 106.674 101.674 106.274C101.674 105.929 101.74 105.645 101.873 105.423C102.005 105.2 102.184 105.024 102.41 104.894C102.635 104.764 102.887 104.666 103.165 104.599C103.444 104.533 103.728 104.483 104.017 104.448C104.383 104.406 104.679 104.371 104.908 104.345C105.136 104.316 105.301 104.269 105.405 104.206C105.508 104.142 105.56 104.039 105.56 103.895V103.868C105.56 103.52 105.462 103.251 105.265 103.06C105.072 102.869 104.783 102.774 104.398 102.774C103.998 102.774 103.683 102.863 103.452 103.04C103.224 103.215 103.066 103.41 102.979 103.625L101.861 103.37C101.994 102.999 102.187 102.7 102.442 102.472C102.699 102.241 102.994 102.074 103.329 101.97C103.663 101.864 104.014 101.811 104.383 101.811C104.626 101.811 104.885 101.841 105.158 101.899C105.434 101.955 105.691 102.058 105.93 102.209C106.171 102.36 106.369 102.576 106.522 102.857C106.676 103.136 106.753 103.498 106.753 103.943V108H105.592V107.165H105.544C105.467 107.319 105.352 107.47 105.198 107.618C105.044 107.767 104.847 107.89 104.605 107.988C104.364 108.086 104.075 108.135 103.738 108.135ZM103.997 107.181C104.326 107.181 104.607 107.116 104.84 106.986C105.076 106.856 105.255 106.686 105.377 106.477C105.501 106.265 105.564 106.038 105.564 105.797V105.009C105.521 105.052 105.439 105.091 105.317 105.128C105.198 105.163 105.061 105.193 104.908 105.22C104.754 105.244 104.604 105.266 104.458 105.288C104.312 105.306 104.19 105.322 104.092 105.335C103.862 105.364 103.651 105.413 103.46 105.482C103.272 105.551 103.12 105.651 103.006 105.781C102.895 105.908 102.839 106.078 102.839 106.29C102.839 106.584 102.948 106.807 103.165 106.958C103.383 107.106 103.66 107.181 103.997 107.181ZM109.526 104.373V108H108.337V101.891H109.478V102.885H109.554C109.695 102.562 109.915 102.302 110.214 102.106C110.516 101.909 110.897 101.811 111.356 101.811C111.772 101.811 112.137 101.899 112.449 102.074C112.762 102.246 113.005 102.503 113.177 102.845C113.35 103.187 113.436 103.61 113.436 104.114V108H112.247V104.257C112.247 103.815 112.131 103.469 111.901 103.219C111.67 102.967 111.353 102.841 110.95 102.841C110.674 102.841 110.429 102.901 110.214 103.02C110.002 103.14 109.834 103.315 109.709 103.545C109.587 103.773 109.526 104.049 109.526 104.373ZM115.564 110.291C115.386 110.291 115.224 110.276 115.078 110.247C114.933 110.221 114.824 110.191 114.752 110.16L115.039 109.185C115.256 109.244 115.45 109.269 115.619 109.261C115.789 109.253 115.939 109.189 116.069 109.07C116.201 108.951 116.318 108.756 116.419 108.485L116.566 108.08L114.331 101.891H115.603L117.151 106.632H117.214L118.761 101.891H120.038L117.52 108.815C117.404 109.134 117.255 109.403 117.075 109.623C116.895 109.845 116.68 110.013 116.431 110.124C116.181 110.235 115.892 110.291 115.564 110.291ZM125.444 108L123.646 101.891H124.875L126.073 106.377H126.132L127.333 101.891H128.562L129.756 106.357H129.815L131.004 101.891H132.233L130.44 108H129.227L127.986 103.589H127.894L126.653 108H125.444ZM135.14 108.135C134.753 108.135 134.403 108.064 134.09 107.92C133.777 107.775 133.529 107.564 133.346 107.288C133.166 107.012 133.076 106.674 133.076 106.274C133.076 105.929 133.142 105.645 133.274 105.423C133.407 105.2 133.586 105.024 133.811 104.894C134.037 104.764 134.289 104.666 134.567 104.599C134.845 104.533 135.129 104.483 135.418 104.448C135.784 104.406 136.081 104.371 136.309 104.345C136.537 104.316 136.703 104.269 136.806 104.206C136.91 104.142 136.961 104.039 136.961 103.895V103.868C136.961 103.52 136.863 103.251 136.667 103.06C136.473 102.869 136.184 102.774 135.8 102.774C135.4 102.774 135.084 102.863 134.853 103.04C134.625 103.215 134.468 103.41 134.38 103.625L133.262 103.37C133.395 102.999 133.589 102.7 133.843 102.472C134.1 102.241 134.396 102.074 134.73 101.97C135.064 101.864 135.416 101.811 135.784 101.811C136.028 101.811 136.287 101.841 136.56 101.899C136.835 101.955 137.093 102.058 137.331 102.209C137.573 102.36 137.77 102.576 137.924 102.857C138.078 103.136 138.155 103.498 138.155 103.943V108H136.993V107.165H136.945C136.869 107.319 136.753 107.47 136.599 107.618C136.446 107.767 136.248 107.89 136.007 107.988C135.766 108.086 135.477 108.135 135.14 108.135ZM135.398 107.181C135.727 107.181 136.008 107.116 136.241 106.986C136.477 106.856 136.656 106.686 136.778 106.477C136.903 106.265 136.965 106.038 136.965 105.797V105.009C136.923 105.052 136.841 105.091 136.719 105.128C136.599 105.163 136.463 105.193 136.309 105.22C136.155 105.244 136.005 105.266 135.86 105.288C135.714 105.306 135.592 105.322 135.494 105.335C135.263 105.364 135.052 105.413 134.861 105.482C134.673 105.551 134.522 105.651 134.408 105.781C134.297 105.908 134.241 106.078 134.241 106.29C134.241 106.584 134.35 106.807 134.567 106.958C134.784 107.106 135.062 107.181 135.398 107.181ZM140.928 99.8545V108H139.738V99.8545H140.928ZM143.717 99.8545V108H142.528V99.8545H143.717ZM147.95 108.123C147.348 108.123 146.829 107.995 146.394 107.738C145.962 107.478 145.628 107.113 145.392 106.644C145.159 106.172 145.042 105.619 145.042 104.985C145.042 104.359 145.159 103.808 145.392 103.331C145.628 102.853 145.957 102.481 146.379 102.213C146.803 101.945 147.299 101.811 147.866 101.811C148.211 101.811 148.545 101.868 148.868 101.982C149.192 102.096 149.482 102.275 149.739 102.519C149.997 102.763 150.199 103.08 150.348 103.47C150.496 103.857 150.571 104.328 150.571 104.882V105.303H145.714V104.413H149.405C149.405 104.1 149.342 103.823 149.214 103.581C149.087 103.337 148.908 103.145 148.677 103.005C148.449 102.864 148.182 102.794 147.874 102.794C147.54 102.794 147.248 102.876 146.999 103.04C146.752 103.202 146.561 103.414 146.426 103.677C146.294 103.937 146.227 104.219 146.227 104.524V105.22C146.227 105.628 146.299 105.976 146.442 106.262C146.588 106.548 146.791 106.767 147.051 106.918C147.311 107.067 147.614 107.141 147.961 107.141C148.187 107.141 148.392 107.109 148.578 107.045C148.764 106.979 148.924 106.881 149.059 106.751C149.194 106.621 149.298 106.461 149.369 106.27L150.495 106.473C150.405 106.804 150.243 107.095 150.01 107.344C149.779 107.59 149.489 107.783 149.139 107.92C148.791 108.056 148.395 108.123 147.95 108.123ZM154.742 101.891V102.845H151.405V101.891H154.742ZM152.3 100.427H153.489V106.206C153.489 106.437 153.523 106.611 153.592 106.727C153.661 106.841 153.75 106.92 153.859 106.962C153.97 107.002 154.091 107.022 154.221 107.022C154.316 107.022 154.4 107.015 154.471 107.002C154.543 106.988 154.599 106.978 154.638 106.97L154.853 107.952C154.784 107.979 154.686 108.005 154.559 108.032C154.432 108.061 154.272 108.077 154.082 108.08C153.769 108.085 153.477 108.029 153.207 107.913C152.936 107.796 152.717 107.616 152.55 107.372C152.383 107.128 152.3 106.821 152.3 106.453V100.427ZM160.537 103.382L159.459 103.573C159.414 103.435 159.342 103.304 159.244 103.18C159.149 103.055 159.019 102.953 158.854 102.873C158.69 102.794 158.484 102.754 158.238 102.754C157.901 102.754 157.62 102.83 157.395 102.981C157.169 103.129 157.057 103.321 157.057 103.557C157.057 103.762 157.132 103.926 157.283 104.051C157.434 104.175 157.678 104.277 158.015 104.357L158.986 104.58C159.548 104.709 159.967 104.91 160.242 105.18C160.518 105.451 160.656 105.802 160.656 106.234C160.656 106.6 160.55 106.926 160.338 107.213C160.128 107.496 159.835 107.719 159.459 107.881C159.085 108.042 158.651 108.123 158.158 108.123C157.474 108.123 156.916 107.977 156.484 107.686C156.052 107.391 155.786 106.974 155.688 106.433L156.838 106.258C156.909 106.558 157.057 106.784 157.279 106.938C157.502 107.089 157.792 107.165 158.15 107.165C158.54 107.165 158.852 107.084 159.085 106.922C159.318 106.758 159.435 106.558 159.435 106.322C159.435 106.131 159.363 105.97 159.22 105.84C159.08 105.71 158.864 105.612 158.572 105.546L157.538 105.319C156.968 105.189 156.546 104.983 156.273 104.699C156.003 104.415 155.867 104.056 155.867 103.621C155.867 103.26 155.968 102.945 156.17 102.674C156.371 102.404 156.65 102.193 157.005 102.042C157.36 101.888 157.767 101.811 158.226 101.811C158.886 101.811 159.406 101.955 159.785 102.241C160.164 102.525 160.415 102.905 160.537 103.382ZM14.7994 121V114.891H15.9409V115.885H16.0165C16.1438 115.548 16.3519 115.286 16.6409 115.098C16.9299 114.907 17.2759 114.811 17.679 114.811C18.0873 114.811 18.4294 114.907 18.7051 115.098C18.9835 115.289 19.189 115.551 19.3216 115.885H19.3852C19.5311 115.559 19.7631 115.299 20.0812 115.106C20.3994 114.909 20.7786 114.811 21.2187 114.811C21.7729 114.811 22.225 114.985 22.575 115.332C22.9277 115.68 23.104 116.203 23.104 116.903V121H21.9148V117.015C21.9148 116.601 21.8021 116.302 21.5767 116.116C21.3513 115.93 21.0822 115.838 20.7693 115.838C20.3822 115.838 20.0812 115.957 19.8665 116.195C19.6517 116.431 19.5443 116.735 19.5443 117.106V121H18.3591V116.939C18.3591 116.608 18.2557 116.341 18.0489 116.14C17.842 115.938 17.5729 115.838 17.2415 115.838C17.0161 115.838 16.808 115.897 16.617 116.016C16.4288 116.133 16.2763 116.296 16.1597 116.506C16.0456 116.715 15.9886 116.958 15.9886 117.234V121H14.7994ZM27.2712 121.123C26.6984 121.123 26.1986 120.992 25.7717 120.73C25.3448 120.467 25.0134 120.1 24.7774 119.628C24.5414 119.156 24.4234 118.604 24.4234 117.973C24.4234 117.34 24.5414 116.785 24.7774 116.311C25.0134 115.836 25.3448 115.468 25.7717 115.205C26.1986 114.943 26.6984 114.811 27.2712 114.811C27.8439 114.811 28.3437 114.943 28.7706 115.205C29.1975 115.468 29.5289 115.836 29.7649 116.311C30.0009 116.785 30.1189 117.34 30.1189 117.973C30.1189 118.604 30.0009 119.156 29.7649 119.628C29.5289 120.1 29.1975 120.467 28.7706 120.73C28.3437 120.992 27.8439 121.123 27.2712 121.123ZM27.2751 120.125C27.6464 120.125 27.9539 120.027 28.1979 119.831C28.4418 119.634 28.6221 119.373 28.7388 119.047C28.8581 118.721 28.9178 118.362 28.9178 117.969C28.9178 117.58 28.8581 117.222 28.7388 116.895C28.6221 116.567 28.4418 116.303 28.1979 116.104C27.9539 115.905 27.6464 115.806 27.2751 115.806C26.9013 115.806 26.5911 115.905 26.3445 116.104C26.1005 116.303 25.9189 116.567 25.7996 116.895C25.6829 117.222 25.6246 117.58 25.6246 117.969C25.6246 118.362 25.6829 118.721 25.7996 119.047C25.9189 119.373 26.1005 119.634 26.3445 119.831C26.5911 120.027 26.9013 120.125 27.2751 120.125ZM36.4646 114.891L34.2493 121H32.9766L30.7572 114.891H32.0339L33.5811 119.592H33.6447L35.1879 114.891H36.4646ZM40.0074 121.123C39.4055 121.123 38.8871 120.995 38.4523 120.738C38.0201 120.478 37.686 120.113 37.45 119.644C37.2167 119.172 37.1 118.619 37.1 117.985C37.1 117.359 37.2167 116.808 37.45 116.331C37.686 115.853 38.0148 115.481 38.4364 115.213C38.8606 114.945 39.3564 114.811 39.9239 114.811C40.2686 114.811 40.6027 114.868 40.9261 114.982C41.2496 115.096 41.54 115.275 41.7972 115.519C42.0544 115.763 42.2572 116.08 42.4057 116.47C42.5542 116.857 42.6284 117.328 42.6284 117.882V118.303H37.7722V117.413H41.4631C41.4631 117.1 41.3994 116.823 41.2722 116.581C41.1449 116.337 40.9659 116.145 40.7352 116.005C40.5072 115.864 40.2394 115.794 39.9318 115.794C39.5977 115.794 39.3061 115.876 39.0568 116.04C38.8102 116.202 38.6193 116.414 38.4841 116.677C38.3515 116.937 38.2852 117.219 38.2852 117.524V118.22C38.2852 118.628 38.3568 118.976 38.5 119.262C38.6458 119.548 38.8487 119.767 39.1085 119.918C39.3684 120.067 39.672 120.141 40.0193 120.141C40.2447 120.141 40.4502 120.109 40.6358 120.045C40.8214 119.979 40.9818 119.881 41.117 119.751C41.2523 119.621 41.3557 119.461 41.4273 119.27L42.5528 119.473C42.4627 119.804 42.3009 120.095 42.0676 120.344C41.8369 120.59 41.5466 120.783 41.1966 120.92C40.8492 121.056 40.4528 121.123 40.0074 121.123ZM46.9119 121V114.891H48.0534V115.885H48.129C48.2562 115.548 48.4644 115.286 48.7534 115.098C49.0424 114.907 49.3884 114.811 49.7915 114.811C50.1998 114.811 50.5419 114.907 50.8176 115.098C51.096 115.289 51.3015 115.551 51.4341 115.885H51.4977C51.6436 115.559 51.8756 115.299 52.1937 115.106C52.5119 114.909 52.8911 114.811 53.3312 114.811C53.8854 114.811 54.3375 114.985 54.6875 115.332C55.0402 115.68 55.2165 116.203 55.2165 116.903V121H54.0273V117.015C54.0273 116.601 53.9146 116.302 53.6892 116.116C53.4638 115.93 53.1947 115.838 52.8818 115.838C52.4947 115.838 52.1937 115.957 51.979 116.195C51.7642 116.431 51.6568 116.735 51.6568 117.106V121H50.4716V116.939C50.4716 116.608 50.3682 116.341 50.1614 116.14C49.9545 115.938 49.6854 115.838 49.354 115.838C49.1286 115.838 48.9205 115.897 48.7295 116.016C48.5413 116.133 48.3888 116.296 48.2722 116.506C48.1581 116.715 48.1011 116.958 48.1011 117.234V121H46.9119ZM59.3837 121.123C58.8109 121.123 58.3111 120.992 57.8842 120.73C57.4573 120.467 57.1259 120.1 56.8899 119.628C56.6539 119.156 56.5359 118.604 56.5359 117.973C56.5359 117.34 56.6539 116.785 56.8899 116.311C57.1259 115.836 57.4573 115.468 57.8842 115.205C58.3111 114.943 58.8109 114.811 59.3837 114.811C59.9564 114.811 60.4562 114.943 60.8831 115.205C61.31 115.468 61.6414 115.836 61.8774 116.311C62.1134 116.785 62.2314 117.34 62.2314 117.973C62.2314 118.604 62.1134 119.156 61.8774 119.628C61.6414 120.1 61.31 120.467 60.8831 120.73C60.4562 120.992 59.9564 121.123 59.3837 121.123ZM59.3876 120.125C59.7589 120.125 60.0664 120.027 60.3104 119.831C60.5543 119.634 60.7346 119.373 60.8513 119.047C60.9706 118.721 61.0303 118.362 61.0303 117.969C61.0303 117.58 60.9706 117.222 60.8513 116.895C60.7346 116.567 60.5543 116.303 60.3104 116.104C60.0664 115.905 59.7589 115.806 59.3876 115.806C59.0138 115.806 58.7036 115.905 58.457 116.104C58.213 116.303 58.0314 116.567 57.9121 116.895C57.7954 117.222 57.7371 117.58 57.7371 117.969C57.7371 118.362 57.7954 118.721 57.9121 119.047C58.0314 119.373 58.213 119.634 58.457 119.831C58.7036 120.027 59.0138 120.125 59.3876 120.125ZM63.5588 121V114.891H64.7082V115.861H64.7719C64.8832 115.533 65.0794 115.274 65.3605 115.086C65.6442 114.895 65.9651 114.799 66.323 114.799C66.3973 114.799 66.4848 114.802 66.5855 114.807C66.6889 114.813 66.7698 114.819 66.8281 114.827V115.965C66.7804 115.952 66.6955 115.937 66.5736 115.921C66.4516 115.902 66.3296 115.893 66.2077 115.893C65.9266 115.893 65.676 115.953 65.456 116.072C65.2385 116.189 65.0662 116.352 64.9389 116.561C64.8116 116.768 64.748 117.004 64.748 117.269V121H63.5588ZM70.2714 121.123C69.6696 121.123 69.1512 120.995 68.7163 120.738C68.2841 120.478 67.95 120.113 67.7141 119.644C67.4807 119.172 67.3641 118.619 67.3641 117.985C67.3641 117.359 67.4807 116.808 67.7141 116.331C67.95 115.853 68.2788 115.481 68.7004 115.213C69.1247 114.945 69.6205 114.811 70.1879 114.811C70.5326 114.811 70.8667 114.868 71.1902 114.982C71.5137 115.096 71.804 115.275 72.0612 115.519C72.3184 115.763 72.5213 116.08 72.6697 116.47C72.8182 116.857 72.8925 117.328 72.8925 117.882V118.303H68.0362V117.413H71.7271C71.7271 117.1 71.6635 116.823 71.5362 116.581C71.4089 116.337 71.23 116.145 70.9993 116.005C70.7713 115.864 70.5035 115.794 70.1959 115.794C69.8618 115.794 69.5701 115.876 69.3209 116.04C69.0743 116.202 68.8834 116.414 68.7482 116.677C68.6156 116.937 68.5493 117.219 68.5493 117.524V118.22C68.5493 118.628 68.6209 118.976 68.7641 119.262C68.9099 119.548 69.1127 119.767 69.3726 119.918C69.6324 120.067 69.936 120.141 70.2834 120.141C70.5088 120.141 70.7143 120.109 70.8999 120.045C71.0855 119.979 71.2459 119.881 71.3811 119.751C71.5163 119.621 71.6197 119.461 71.6913 119.27L72.8169 119.473C72.7268 119.804 72.565 120.095 72.3317 120.344C72.101 120.59 71.8107 120.783 71.4607 120.92C71.1133 121.056 70.7169 121.123 70.2714 121.123ZM80.0277 114.891V115.845H76.6908V114.891H80.0277ZM77.5857 113.427H78.7749V119.206C78.7749 119.437 78.8093 119.611 78.8783 119.727C78.9472 119.841 79.036 119.92 79.1447 119.962C79.2561 120.002 79.3767 120.022 79.5067 120.022C79.6021 120.022 79.6857 120.015 79.7572 120.002C79.8288 119.988 79.8845 119.978 79.9243 119.97L80.1391 120.952C80.0701 120.979 79.972 121.005 79.8447 121.032C79.7175 121.061 79.5584 121.077 79.3675 121.08C79.0546 121.085 78.7629 121.029 78.4925 120.913C78.222 120.796 78.0033 120.616 77.8362 120.372C77.6692 120.128 77.5857 119.821 77.5857 119.453V113.427ZM82.6636 117.373V121H81.4744V112.855H82.6477V115.885H82.7233C82.8665 115.556 83.0852 115.295 83.3795 115.102C83.6739 114.908 84.0583 114.811 84.533 114.811C84.9519 114.811 85.3178 114.898 85.6307 115.07C85.9462 115.242 86.1902 115.499 86.3625 115.841C86.5375 116.181 86.625 116.605 86.625 117.114V121H85.4358V117.257C85.4358 116.809 85.3205 116.462 85.0898 116.215C84.8591 115.966 84.5383 115.841 84.1273 115.841C83.8462 115.841 83.5943 115.901 83.3716 116.02C83.1515 116.14 82.9778 116.315 82.8506 116.545C82.726 116.773 82.6636 117.049 82.6636 117.373ZM89.9898 121.135C89.6026 121.135 89.2526 121.064 88.9398 120.92C88.6269 120.775 88.379 120.564 88.196 120.288C88.0157 120.012 87.9256 119.674 87.9256 119.274C87.9256 118.929 87.9919 118.645 88.1244 118.423C88.257 118.2 88.436 118.024 88.6614 117.894C88.8867 117.764 89.1386 117.666 89.417 117.599C89.6955 117.533 89.9792 117.483 90.2682 117.448C90.6341 117.406 90.9311 117.371 91.1591 117.345C91.3871 117.316 91.5528 117.269 91.6562 117.206C91.7597 117.142 91.8114 117.039 91.8114 116.895V116.868C91.8114 116.52 91.7133 116.251 91.517 116.06C91.3235 115.869 91.0345 115.774 90.65 115.774C90.2496 115.774 89.9341 115.863 89.7034 116.04C89.4754 116.215 89.3176 116.41 89.2301 116.625L88.1125 116.37C88.2451 115.999 88.4386 115.7 88.6932 115.472C88.9504 115.241 89.246 115.074 89.5801 114.97C89.9142 114.864 90.2655 114.811 90.6341 114.811C90.878 114.811 91.1366 114.841 91.4097 114.899C91.6854 114.955 91.9426 115.058 92.1812 115.209C92.4225 115.36 92.6201 115.576 92.7739 115.857C92.9276 116.136 93.0045 116.498 93.0045 116.943V121H91.8432V120.165H91.7955C91.7186 120.319 91.6032 120.47 91.4494 120.618C91.2956 120.767 91.0981 120.89 90.8568 120.988C90.6155 121.086 90.3265 121.135 89.9898 121.135ZM90.2483 120.181C90.5771 120.181 90.8581 120.116 91.0915 119.986C91.3275 119.856 91.5064 119.686 91.6284 119.477C91.753 119.265 91.8153 119.038 91.8153 118.797V118.009C91.7729 118.052 91.6907 118.091 91.5687 118.128C91.4494 118.163 91.3129 118.193 91.1591 118.22C91.0053 118.244 90.8555 118.266 90.7097 118.288C90.5638 118.306 90.4419 118.322 90.3437 118.335C90.1131 118.364 89.9023 118.413 89.7114 118.482C89.5231 118.551 89.372 118.651 89.258 118.781C89.1466 118.908 89.0909 119.078 89.0909 119.29C89.0909 119.584 89.1996 119.807 89.417 119.958C89.6345 120.106 89.9116 120.181 90.2483 120.181ZM95.7777 117.373V121H94.5885V114.891H95.73V115.885H95.8055C95.9461 115.562 96.1661 115.302 96.4658 115.106C96.768 114.909 97.1485 114.811 97.6072 114.811C98.0235 114.811 98.3881 114.899 98.701 115.074C99.0139 115.246 99.2565 115.503 99.4288 115.845C99.6012 116.187 99.6874 116.61 99.6874 117.114V121H98.4982V117.257C98.4982 116.815 98.3828 116.469 98.1521 116.219C97.9214 115.967 97.6046 115.841 97.2016 115.841C96.9258 115.841 96.6805 115.901 96.4658 116.02C96.2536 116.14 96.0853 116.315 95.9607 116.545C95.8387 116.773 95.7777 117.049 95.7777 117.373Z" fill="#19191A"/>
</g>
</g>
<defs>
<filter id="filter0_dd_6184_50330" x="-6.30005" y="-4.2" width="203.7" height="185.5" filterUnits="userSpaceOnUse" color-interpolation-filters="sRGB">
<feFlood flood-opacity="0" result="BackgroundImageFix"/>
<feColorMatrix in="SourceAlpha" type="matrix" values="0 0 0 0 0 0 0 0 0 0 0 0 0 0 0 0 0 0 127 0" result="hardAlpha"/>
<feOffset dy="0.7"/>
<feGaussianBlur stdDeviation="0.35"/>
<feComposite in2="hardAlpha" operator="out"/>
<feColorMatrix type="matrix" values="0 0 0 0 0 0 0 0 0 0 0 0 0 0 0 0 0 0 0.04 0"/>
<feBlend mode="normal" in2="BackgroundImageFix" result="effect1_dropShadow_6184_50330"/>
<feColorMatrix in="SourceAlpha" type="matrix" values="0 0 0 0 0 0 0 0 0 0 0 0 0 0 0 0 0 0 127 0" result="hardAlpha"/>
<feOffset dy="2.8"/>
<feGaussianBlur stdDeviation="3.5"/>
<feComposite in2="hardAlpha" operator="out"/>
<feColorMatrix type="matrix" values="0 0 0 0 0 0 0 0 0 0 0 0 0 0 0 0 0 0 0.04 0"/>
<feBlend mode="normal" in2="effect1_dropShadow_6184_50330" result="effect2_dropShadow_6184_50330"/>
<feBlend mode="normal" in="SourceGraphic" in2="effect2_dropShadow_6184_50330" result="shape"/>
</filter>
<clipPath id="clip0_6184_50330">
<rect width="189.7" height="171.5" fill="white" transform="translate(0.699951)"/>
</clipPath>
</defs>
</svg>
