<svg width="190" height="172" viewBox="0 0 190 172" fill="none" xmlns="http://www.w3.org/2000/svg">
<g clip-path="url(#clip0_6184_50343)">
<g filter="url(#filter0_dd_6184_50343)">
<rect width="189.7" height="171.5" rx="8.4" fill="white" shape-rendering="crispEdges"/>
<rect x="161.7" y="14" width="14" height="14" rx="4.2" fill="#0071E3"/>
<path d="M167.964 24.3277C168.269 24.3277 168.5 24.2106 168.656 23.9763L172.035 18.8837C172.091 18.8007 172.133 18.7189 172.16 18.6384C172.187 18.5554 172.2 18.4761 172.2 18.4004C172.2 18.1905 172.127 18.0172 171.98 17.8806C171.836 17.7414 171.658 17.6719 171.446 17.6719C171.299 17.6719 171.175 17.7012 171.072 17.7597C170.972 17.8159 170.877 17.9135 170.787 18.0526L167.949 22.5082L166.529 20.8058C166.375 20.6276 166.182 20.5385 165.95 20.5385C165.733 20.5385 165.554 20.6081 165.412 20.7472C165.271 20.8863 165.2 21.0608 165.2 21.2707C165.2 21.3659 165.215 21.4562 165.244 21.5416C165.276 21.6246 165.333 21.7113 165.416 21.8016L167.301 24.0239C167.475 24.2264 167.696 24.3277 167.964 24.3277Z" fill="white"/>
<path d="M27.9997 39.6663C34.443 39.6663 39.6663 34.443 39.6663 27.9997C39.6663 21.5564 34.443 16.333 27.9997 16.333C21.5564 16.333 16.333 21.5564 16.333 27.9997C16.333 34.443 21.5564 39.6663 27.9997 39.6663Z" stroke="black" stroke-width="1.4" stroke-linecap="round" stroke-linejoin="round"/>
<path d="M28 21V28L32.6667 30.3333" stroke="black" stroke-width="1.4" stroke-linecap="round" stroke-linejoin="round"/>
<rect x="14" y="115" width="66.4" height="19.6" rx="2.8" fill="#E5E5E6" fill-opacity="0.5"/>
<path d="M24.0275 125.437L19.736 127.518V126.529L22.9029 125.088L22.8706 125.143V125.004L22.9029 125.062L19.736 123.617V122.632L24.0275 124.713V125.437ZM30.2603 128.39C29.8165 128.39 29.4201 128.314 29.0711 128.161C28.7242 128.008 28.4495 127.796 28.247 127.524C28.0467 127.251 27.939 126.934 27.9239 126.574H28.9386C28.9515 126.77 29.0172 126.94 29.1357 127.085C29.2563 127.227 29.4136 127.337 29.6075 127.414C29.8014 127.492 30.0168 127.531 30.2538 127.531C30.5145 127.531 30.745 127.485 30.9454 127.395C31.1479 127.304 31.3062 127.178 31.4204 127.017C31.5346 126.853 31.5917 126.665 31.5917 126.451C31.5917 126.229 31.5346 126.034 31.4204 125.866C31.3084 125.696 31.1436 125.563 30.926 125.466C30.7105 125.369 30.4499 125.32 30.1439 125.32H29.5849V124.506H30.1439C30.3895 124.506 30.605 124.462 30.7903 124.373C30.9777 124.285 31.1242 124.162 31.2297 124.005C31.3353 123.846 31.3881 123.659 31.3881 123.446C31.3881 123.241 31.3418 123.064 31.2491 122.913C31.1586 122.76 31.0294 122.64 30.8613 122.554C30.6955 122.468 30.4994 122.425 30.2732 122.425C30.0578 122.425 29.8563 122.465 29.6689 122.544C29.4836 122.622 29.3328 122.734 29.2165 122.881C29.1002 123.025 29.0377 123.198 29.0291 123.401H28.0628C28.0736 123.043 28.1792 122.729 28.3795 122.457C28.582 122.186 28.8492 121.974 29.1809 121.821C29.5127 121.668 29.8811 121.591 30.2861 121.591C30.7105 121.591 31.0768 121.674 31.3849 121.84C31.6951 122.004 31.9342 122.222 32.1023 122.496C32.2724 122.77 32.3565 123.069 32.3543 123.394C32.3565 123.765 32.2531 124.079 32.0441 124.338C31.8373 124.596 31.5615 124.77 31.2168 124.858V124.91C31.6563 124.977 31.9967 125.151 32.238 125.433C32.4814 125.716 32.6021 126.066 32.5999 126.484C32.6021 126.848 32.5008 127.174 32.2961 127.463C32.0936 127.752 31.8168 127.979 31.4656 128.145C31.1145 128.308 30.7127 128.39 30.2603 128.39ZM36.1255 128.41C35.6149 128.408 35.1787 128.273 34.8167 128.006C34.4548 127.739 34.178 127.35 33.9862 126.839C33.7945 126.329 33.6986 125.714 33.6986 124.994C33.6986 124.277 33.7945 123.664 33.9862 123.155C34.1801 122.647 34.458 122.259 34.82 121.992C35.1841 121.725 35.6192 121.591 36.1255 121.591C36.6318 121.591 37.0659 121.726 37.4278 121.995C37.7898 122.262 38.0666 122.65 38.2583 123.158C38.4522 123.665 38.5492 124.277 38.5492 124.994C38.5492 125.716 38.4533 126.332 38.2616 126.842C38.0698 127.351 37.793 127.74 37.4311 128.009C37.0691 128.276 36.6339 128.41 36.1255 128.41ZM36.1255 127.547C36.5736 127.547 36.9237 127.328 37.1758 126.891C37.43 126.454 37.5571 125.821 37.5571 124.994C37.5571 124.445 37.4989 123.98 37.3826 123.601C37.2684 123.22 37.1036 122.931 36.8882 122.735C36.6749 122.537 36.4207 122.438 36.1255 122.438C35.6796 122.438 35.3295 122.658 35.0753 123.097C34.821 123.537 34.6929 124.169 34.6907 124.994C34.6907 125.545 34.7478 126.012 34.862 126.393C34.9783 126.772 35.1431 127.06 35.3564 127.256C35.5697 127.45 35.8261 127.547 36.1255 127.547ZM43.9749 128.397C43.5742 128.397 43.2166 128.294 42.902 128.09C42.5897 127.883 42.3441 127.589 42.1652 127.208C41.9886 126.824 41.9003 126.364 41.9003 125.828C41.9003 125.291 41.9897 124.832 42.1685 124.451C42.3494 124.07 42.5972 123.778 42.9117 123.575C43.2263 123.373 43.5828 123.272 43.9814 123.272C44.2894 123.272 44.5372 123.323 44.7246 123.427C44.9142 123.528 45.0607 123.646 45.1641 123.782C45.2697 123.918 45.3515 124.037 45.4097 124.141H45.4679V121.682H46.4341V128.3H45.4905V127.527H45.4097C45.3515 127.633 45.2675 127.754 45.1576 127.889C45.0499 128.025 44.9013 128.144 44.7117 128.245C44.5221 128.346 44.2765 128.397 43.9749 128.397ZM44.1882 127.573C44.4661 127.573 44.7009 127.499 44.8927 127.353C45.0866 127.204 45.2331 126.999 45.3322 126.736C45.4334 126.473 45.484 126.167 45.484 125.818C45.484 125.473 45.4345 125.172 45.3354 124.913C45.2363 124.655 45.0909 124.453 44.8991 124.309C44.7074 124.165 44.4704 124.092 44.1882 124.092C43.8974 124.092 43.655 124.168 43.4611 124.319C43.2672 124.469 43.1207 124.675 43.0216 124.936C42.9247 125.196 42.8762 125.491 42.8762 125.818C42.8762 126.15 42.9257 126.448 43.0248 126.713C43.1239 126.978 43.2704 127.188 43.4643 127.343C43.6604 127.496 43.9017 127.573 44.1882 127.573ZM49.2577 128.41C48.9431 128.41 48.6587 128.352 48.4045 128.235C48.1503 128.117 47.9489 127.945 47.8002 127.721C47.6537 127.497 47.5805 127.223 47.5805 126.897C47.5805 126.617 47.6344 126.387 47.7421 126.206C47.8498 126.025 47.9952 125.882 48.1783 125.776C48.3614 125.67 48.5661 125.591 48.7923 125.537C49.0185 125.483 49.249 125.442 49.4839 125.414C49.7812 125.38 50.0225 125.352 50.2077 125.33C50.393 125.306 50.5277 125.269 50.6117 125.217C50.6957 125.165 50.7377 125.081 50.7377 124.965V124.942C50.7377 124.66 50.658 124.441 50.4986 124.286C50.3413 124.131 50.1065 124.054 49.7941 124.054C49.4688 124.054 49.2124 124.126 49.025 124.27C48.8397 124.412 48.7115 124.571 48.6404 124.745L47.7324 124.538C47.8401 124.237 47.9974 123.993 48.2042 123.808C48.4132 123.621 48.6534 123.485 48.9248 123.401C49.1963 123.315 49.4817 123.272 49.7812 123.272C49.9794 123.272 50.1894 123.295 50.4113 123.343C50.6354 123.388 50.8443 123.472 51.0382 123.595C51.2343 123.717 51.3948 123.893 51.5197 124.121C51.6447 124.348 51.7072 124.642 51.7072 125.004V128.3H50.7636V127.621H50.7248C50.6623 127.746 50.5686 127.869 50.4436 127.99C50.3187 128.11 50.1582 128.21 49.9621 128.29C49.7661 128.37 49.5313 128.41 49.2577 128.41ZM49.4677 127.634C49.7348 127.634 49.9632 127.581 50.1528 127.476C50.3445 127.37 50.4899 127.232 50.589 127.062C50.6903 126.89 50.7409 126.706 50.7409 126.51V125.87C50.7065 125.904 50.6397 125.936 50.5406 125.967C50.4436 125.995 50.3327 126.019 50.2077 126.041C50.0828 126.06 49.9611 126.079 49.8426 126.096C49.7241 126.111 49.625 126.124 49.5453 126.135C49.3578 126.158 49.1866 126.198 49.0315 126.254C48.8785 126.31 48.7557 126.391 48.6631 126.497C48.5726 126.6 48.5273 126.738 48.5273 126.91C48.5273 127.149 48.6157 127.33 48.7923 127.453C48.969 127.574 49.1941 127.634 49.4677 127.634ZM53.4271 130.161C53.2828 130.161 53.1514 130.149 53.0329 130.126C52.9144 130.104 52.8261 130.08 52.7679 130.055L53.0006 129.263C53.1772 129.31 53.3345 129.331 53.4724 129.324C53.6103 129.318 53.732 129.266 53.8376 129.169C53.9453 129.072 54.0401 128.914 54.1219 128.694L54.2415 128.364L52.4254 123.336H53.4595L54.7165 127.188H54.7682L56.0253 123.336H57.0626L55.0171 128.962C54.9223 129.221 54.8016 129.439 54.6551 129.618C54.5086 129.799 54.3341 129.935 54.1316 130.025C53.9291 130.116 53.6943 130.161 53.4271 130.161ZM61.6902 124.548L60.8144 124.703C60.7778 124.591 60.7196 124.484 60.6399 124.383C60.5624 124.282 60.4568 124.199 60.3232 124.134C60.1897 124.07 60.0227 124.037 59.8224 124.037C59.5487 124.037 59.3204 124.099 59.1373 124.222C58.9541 124.342 58.8626 124.498 58.8626 124.69C58.8626 124.856 58.924 124.99 59.0468 125.091C59.1696 125.192 59.3678 125.275 59.6414 125.34L60.4299 125.521C60.8866 125.626 61.227 125.789 61.451 126.009C61.6751 126.228 61.7871 126.514 61.7871 126.865C61.7871 127.162 61.7009 127.427 61.5286 127.66C61.3584 127.89 61.1204 128.071 60.8144 128.203C60.5107 128.334 60.1584 128.4 59.7577 128.4C59.2019 128.4 58.7484 128.281 58.3972 128.045C58.0461 127.805 57.8306 127.466 57.7509 127.027L58.6849 126.884C58.743 127.128 58.8626 127.312 59.0436 127.437C59.2245 127.56 59.4604 127.621 59.7513 127.621C60.0679 127.621 60.3211 127.555 60.5107 127.424C60.7003 127.29 60.795 127.128 60.795 126.936C60.795 126.781 60.7369 126.651 60.6205 126.545C60.5064 126.44 60.3308 126.36 60.0938 126.306L59.2536 126.122C58.7904 126.016 58.4479 125.848 58.226 125.618C58.0062 125.387 57.8964 125.095 57.8964 124.742C57.8964 124.449 57.9782 124.193 58.142 123.973C58.3057 123.753 58.5319 123.582 58.8206 123.459C59.1093 123.334 59.44 123.272 59.8127 123.272C60.3491 123.272 60.7713 123.388 61.0794 123.621C61.3875 123.851 61.5911 124.16 61.6902 124.548Z" fill="#313233"/>
<path d="M68.0987 123.699L70.4763 126.077C70.5446 126.145 70.6554 126.145 70.7237 126.077L73.1012 123.699C73.2115 123.589 73.1334 123.4 72.9775 123.4H68.2225C68.0666 123.4 67.9885 123.589 68.0987 123.699Z" fill="#96979A"/>
<path d="M21.4693 82.8545V91H20.3398L16.1994 85.0261H16.1239V91H14.8949V82.8545H16.0324L20.1767 88.8364H20.2523V82.8545H21.4693ZM25.7399 91.1233C25.1672 91.1233 24.6674 90.992 24.2405 90.7295C23.8136 90.467 23.4821 90.0998 23.2462 89.6278C23.0102 89.1559 22.8922 88.6044 22.8922 87.9733C22.8922 87.3396 23.0102 86.7854 23.2462 86.3108C23.4821 85.8362 23.8136 85.4676 24.2405 85.2051C24.6674 84.9426 25.1672 84.8114 25.7399 84.8114C26.3126 84.8114 26.8125 84.9426 27.2393 85.2051C27.6662 85.4676 27.9977 85.8362 28.2337 86.3108C28.4696 86.7854 28.5876 87.3396 28.5876 87.9733C28.5876 88.6044 28.4696 89.1559 28.2337 89.6278C27.9977 90.0998 27.6662 90.467 27.2393 90.7295C26.8125 90.992 26.3126 91.1233 25.7399 91.1233ZM25.7439 90.125C26.1151 90.125 26.4227 90.0269 26.6666 89.8307C26.9106 89.6345 27.0909 89.3733 27.2075 89.0472C27.3268 88.721 27.3865 88.3617 27.3865 87.9693C27.3865 87.5795 27.3268 87.2216 27.2075 86.8955C27.0909 86.5667 26.9106 86.3028 26.6666 86.104C26.4227 85.9051 26.1151 85.8057 25.7439 85.8057C25.37 85.8057 25.0598 85.9051 24.8132 86.104C24.5693 86.3028 24.3876 86.5667 24.2683 86.8955C24.1517 87.2216 24.0933 87.5795 24.0933 87.9693C24.0933 88.3617 24.1517 88.721 24.2683 89.0472C24.3876 89.3733 24.5693 89.6345 24.8132 89.8307C25.0598 90.0269 25.37 90.125 25.7439 90.125ZM32.7668 84.8909V85.8455H29.4298V84.8909H32.7668ZM30.3247 83.4273H31.5139V89.2063C31.5139 89.4369 31.5484 89.6106 31.6173 89.7273C31.6863 89.8413 31.7751 89.9195 31.8838 89.9619C31.9952 90.0017 32.1158 90.0216 32.2457 90.0216C32.3412 90.0216 32.4247 90.015 32.4963 90.0017C32.5679 89.9884 32.6236 89.9778 32.6634 89.9699L32.8781 90.9523C32.8092 90.9788 32.7111 91.0053 32.5838 91.0318C32.4565 91.061 32.2974 91.0769 32.1065 91.0795C31.7937 91.0848 31.502 91.0292 31.2315 90.9125C30.9611 90.7958 30.7423 90.6155 30.5753 90.3716C30.4082 90.1277 30.3247 89.8214 30.3247 89.4528V83.4273ZM34.0822 91V84.8909H35.2714V91H34.0822ZM34.6828 83.9483C34.476 83.9483 34.2983 83.8794 34.1499 83.7415C34.004 83.6009 33.9311 83.4339 33.9311 83.2403C33.9311 83.0441 34.004 82.8771 34.1499 82.7392C34.2983 82.5987 34.476 82.5284 34.6828 82.5284C34.8896 82.5284 35.066 82.5987 35.2118 82.7392C35.3603 82.8771 35.4345 83.0441 35.4345 83.2403C35.4345 83.4339 35.3603 83.6009 35.2118 83.7415C35.066 83.8794 34.8896 83.9483 34.6828 83.9483ZM39.7787 84.8909V85.8455H36.3264V84.8909H39.7787ZM37.273 91V84.183C37.273 83.8011 37.3565 83.4843 37.5236 83.2324C37.6906 82.9778 37.912 82.7883 38.1878 82.6636C38.4635 82.5364 38.7632 82.4727 39.0866 82.4727C39.3253 82.4727 39.5295 82.4926 39.6991 82.5324C39.8688 82.5695 39.9948 82.604 40.077 82.6358L39.7986 83.5983C39.7429 83.5824 39.6713 83.5638 39.5838 83.5426C39.4963 83.5187 39.3902 83.5068 39.2656 83.5068C38.9766 83.5068 38.7698 83.5784 38.6452 83.7216C38.5232 83.8648 38.4622 84.0716 38.4622 84.342V91H37.273ZM41.7574 93.2909C41.5797 93.2909 41.418 93.2763 41.2722 93.2472C41.1263 93.2206 41.0176 93.1915 40.946 93.1597L41.2324 92.1852C41.4498 92.2436 41.6434 92.2688 41.8131 92.2608C41.9828 92.2528 42.1326 92.1892 42.2625 92.0699C42.3951 91.9506 42.5117 91.7557 42.6125 91.4852L42.7597 91.0795L40.5244 84.8909H41.7972L43.3443 89.6318H43.408L44.9551 84.8909H46.2318L43.7142 91.8153C43.5975 92.1335 43.4491 92.4027 43.2687 92.6227C43.0884 92.8455 42.8737 93.0125 42.6244 93.1239C42.3752 93.2352 42.0862 93.2909 41.7574 93.2909ZM50.3135 91V84.8909H51.455V85.8852H51.5305C51.6578 85.5485 51.866 85.286 52.155 85.0977C52.444 84.9068 52.79 84.8114 53.193 84.8114C53.6014 84.8114 53.9434 84.9068 54.2192 85.0977C54.4976 85.2886 54.7031 85.5511 54.8357 85.8852H54.8993C55.0451 85.5591 55.2771 85.2992 55.5953 85.1057C55.9135 84.9095 56.2927 84.8114 56.7328 84.8114C57.287 84.8114 57.7391 84.985 58.0891 85.3324C58.4417 85.6797 58.618 86.2034 58.618 86.9034V91H57.4288V87.0148C57.4288 86.6011 57.3161 86.3015 57.0908 86.1159C56.8654 85.9303 56.5963 85.8375 56.2834 85.8375C55.8963 85.8375 55.5953 85.9568 55.3805 86.1955C55.1658 86.4314 55.0584 86.735 55.0584 87.1063V91H53.8732V86.9392C53.8732 86.6078 53.7697 86.3413 53.5629 86.1398C53.3561 85.9383 53.087 85.8375 52.7555 85.8375C52.5302 85.8375 52.322 85.8972 52.1311 86.0165C51.9428 86.1331 51.7904 86.2962 51.6737 86.5057C51.5597 86.7152 51.5027 86.9578 51.5027 87.2335V91H50.3135ZM62.8449 91.1233C62.243 91.1233 61.7246 90.9947 61.2898 90.7375C60.8576 90.4777 60.5235 90.1131 60.2875 89.6438C60.0542 89.1718 59.9375 88.6189 59.9375 87.9852C59.9375 87.3595 60.0542 86.808 60.2875 86.3307C60.5235 85.8534 60.8523 85.4809 61.2739 85.2131C61.6981 84.9453 62.1939 84.8114 62.7614 84.8114C63.1061 84.8114 63.4402 84.8684 63.7636 84.9824C64.0871 85.0964 64.3775 85.2754 64.6347 85.5193C64.8919 85.7633 65.0947 86.0801 65.2432 86.4699C65.3917 86.857 65.4659 87.3277 65.4659 87.8818V88.3034H60.6097V87.4125H64.3006C64.3006 87.0996 64.2369 86.8225 64.1097 86.5813C63.9824 86.3373 63.8034 86.1451 63.5727 86.0045C63.3447 85.864 63.0769 85.7938 62.7693 85.7938C62.4352 85.7938 62.1436 85.8759 61.8943 86.0403C61.6477 86.2021 61.4568 86.4142 61.3216 86.6767C61.189 86.9366 61.1227 87.2189 61.1227 87.5239V88.2199C61.1227 88.6282 61.1943 88.9756 61.3375 89.2619C61.4833 89.5483 61.6862 89.767 61.946 89.9182C62.2059 90.0667 62.5095 90.1409 62.8568 90.1409C63.0822 90.1409 63.2877 90.1091 63.4733 90.0455C63.6589 89.9792 63.8193 89.8811 63.9545 89.7511C64.0898 89.6212 64.1932 89.4608 64.2648 89.2699L65.3903 89.4727C65.3002 89.8042 65.1384 90.0945 64.9051 90.3438C64.6744 90.5903 64.3841 90.7826 64.0341 90.9205C63.6867 91.0557 63.2903 91.1233 62.8449 91.1233ZM71.0739 91L69.2761 84.8909H70.5051L71.7023 89.3773H71.7619L72.9631 84.8909H74.192L75.3852 89.3574H75.4449L76.6341 84.8909H77.8631L76.0693 91H74.8563L73.6153 86.5892H73.5239L72.283 91H71.0739ZM80.1808 87.3727V91H78.9916V82.8545H80.1649V85.8852H80.2405C80.3837 85.5564 80.6024 85.2953 80.8967 85.1017C81.191 84.9081 81.5755 84.8114 82.0501 84.8114C82.4691 84.8114 82.835 84.8975 83.1479 85.0699C83.4634 85.2422 83.7073 85.4994 83.8797 85.8415C84.0547 86.1809 84.1422 86.6051 84.1422 87.1142V91H82.953V87.2574C82.953 86.8093 82.8376 86.4619 82.607 86.2153C82.3763 85.9661 82.0554 85.8415 81.6445 85.8415C81.3634 85.8415 81.1115 85.9011 80.8888 86.0205C80.6687 86.1398 80.495 86.3148 80.3678 86.5455C80.2431 86.7735 80.1808 87.0492 80.1808 87.3727ZM88.3621 91.1233C87.7602 91.1233 87.2418 90.9947 86.807 90.7375C86.3748 90.4777 86.0407 90.1131 85.8047 89.6438C85.5714 89.1718 85.4547 88.6189 85.4547 87.9852C85.4547 87.3595 85.5714 86.808 85.8047 86.3307C86.0407 85.8534 86.3695 85.4809 86.7911 85.2131C87.2153 84.9453 87.7111 84.8114 88.2786 84.8114C88.6232 84.8114 88.9573 84.8684 89.2808 84.9824C89.6043 85.0964 89.8946 85.2754 90.1518 85.5193C90.409 85.7633 90.6119 86.0801 90.7604 86.4699C90.9089 86.857 90.9831 87.3277 90.9831 87.8818V88.3034H86.1268V87.4125H89.8178C89.8178 87.0996 89.7541 86.8225 89.6268 86.5813C89.4996 86.3373 89.3206 86.1451 89.0899 86.0045C88.8619 85.864 88.5941 85.7938 88.2865 85.7938C87.9524 85.7938 87.6607 85.8759 87.4115 86.0403C87.1649 86.2021 86.974 86.4142 86.8388 86.6767C86.7062 86.9366 86.6399 87.2189 86.6399 87.5239V88.2199C86.6399 88.6282 86.7115 88.9756 86.8547 89.2619C87.0005 89.5483 87.2034 89.767 87.4632 89.9182C87.7231 90.0667 88.0267 90.1409 88.374 90.1409C88.5994 90.1409 88.8049 90.1091 88.9905 90.0455C89.1761 89.9792 89.3365 89.8811 89.4717 89.7511C89.607 89.6212 89.7104 89.4608 89.782 89.2699L90.9075 89.4727C90.8174 89.8042 90.6556 90.0945 90.4223 90.3438C90.1916 90.5903 89.9013 90.7826 89.5513 90.9205C89.2039 91.0557 88.8075 91.1233 88.3621 91.1233ZM93.4918 87.3727V91H92.3026V84.8909H93.444V85.8852H93.5196C93.6601 85.5617 93.8802 85.3019 94.1798 85.1057C94.4821 84.9095 94.8626 84.8114 95.3213 84.8114C95.7376 84.8114 96.1022 84.8989 96.4151 85.0739C96.7279 85.2462 96.9705 85.5034 97.1429 85.8455C97.3152 86.1875 97.4014 86.6104 97.4014 87.1142V91H96.2122V87.2574C96.2122 86.8146 96.0969 86.4686 95.8662 86.2193C95.6355 85.9674 95.3187 85.8415 94.9156 85.8415C94.6399 85.8415 94.3946 85.9011 94.1798 86.0205C93.9677 86.1398 93.7993 86.3148 93.6747 86.5455C93.5527 86.7735 93.4918 87.0492 93.4918 87.3727ZM103.738 91.1352C103.351 91.1352 103.001 91.0636 102.688 90.9205C102.375 90.7746 102.127 90.5638 101.944 90.2881C101.764 90.0123 101.674 89.6742 101.674 89.2739C101.674 88.9292 101.74 88.6455 101.873 88.4227C102.005 88.2 102.184 88.0237 102.41 87.8938C102.635 87.7638 102.887 87.6657 103.165 87.5994C103.444 87.5331 103.728 87.4828 104.017 87.4483C104.383 87.4059 104.679 87.3714 104.908 87.3449C105.136 87.3157 105.301 87.2693 105.405 87.2057C105.508 87.142 105.56 87.0386 105.56 86.8955V86.8676C105.56 86.5203 105.462 86.2511 105.265 86.0602C105.072 85.8693 104.783 85.7739 104.398 85.7739C103.998 85.7739 103.683 85.8627 103.452 86.0403C103.224 86.2153 103.066 86.4102 102.979 86.625L101.861 86.3705C101.994 85.9992 102.187 85.6996 102.442 85.4716C102.699 85.2409 102.994 85.0739 103.329 84.9705C103.663 84.8644 104.014 84.8114 104.383 84.8114C104.626 84.8114 104.885 84.8405 105.158 84.8989C105.434 84.9545 105.691 85.058 105.93 85.2091C106.171 85.3602 106.369 85.5763 106.522 85.8574C106.676 86.1358 106.753 86.4977 106.753 86.9432V91H105.592V90.1648H105.544C105.467 90.3186 105.352 90.4697 105.198 90.6182C105.044 90.7667 104.847 90.89 104.605 90.9881C104.364 91.0862 104.075 91.1352 103.738 91.1352ZM103.997 90.1807C104.326 90.1807 104.607 90.1157 104.84 89.9858C105.076 89.8559 105.255 89.6862 105.377 89.4767C105.501 89.2646 105.564 89.0379 105.564 88.7966V88.0091C105.521 88.0515 105.439 88.0913 105.317 88.1284C105.198 88.1629 105.061 88.1934 104.908 88.2199C104.754 88.2437 104.604 88.2663 104.458 88.2875C104.312 88.3061 104.19 88.322 104.092 88.3352C103.862 88.3644 103.651 88.4134 103.46 88.4824C103.272 88.5513 103.12 88.6508 103.006 88.7807C102.895 88.908 102.839 89.0777 102.839 89.2898C102.839 89.5841 102.948 89.8068 103.165 89.958C103.383 90.1064 103.66 90.1807 103.997 90.1807ZM109.526 87.3727V91H108.337V84.8909H109.478V85.8852H109.554C109.695 85.5617 109.915 85.3019 110.214 85.1057C110.516 84.9095 110.897 84.8114 111.356 84.8114C111.772 84.8114 112.137 84.8989 112.449 85.0739C112.762 85.2462 113.005 85.5034 113.177 85.8455C113.35 86.1875 113.436 86.6104 113.436 87.1142V91H112.247V87.2574C112.247 86.8146 112.131 86.4686 111.901 86.2193C111.67 85.9674 111.353 85.8415 110.95 85.8415C110.674 85.8415 110.429 85.9011 110.214 86.0205C110.002 86.1398 109.834 86.3148 109.709 86.5455C109.587 86.7735 109.526 87.0492 109.526 87.3727ZM115.564 93.2909C115.386 93.2909 115.224 93.2763 115.078 93.2472C114.933 93.2206 114.824 93.1915 114.752 93.1597L115.039 92.1852C115.256 92.2436 115.45 92.2688 115.619 92.2608C115.789 92.2528 115.939 92.1892 116.069 92.0699C116.201 91.9506 116.318 91.7557 116.419 91.4852L116.566 91.0795L114.331 84.8909H115.603L117.151 89.6318H117.214L118.761 84.8909H120.038L117.52 91.8153C117.404 92.1335 117.255 92.4027 117.075 92.6227C116.895 92.8455 116.68 93.0125 116.431 93.1239C116.181 93.2352 115.892 93.2909 115.564 93.2909ZM16.1239 104L14.3261 97.8909H15.5551L16.7523 102.377H16.8119L18.0131 97.8909H19.242L20.4352 102.357H20.4949L21.6841 97.8909H22.9131L21.1193 104H19.9062L18.6653 99.5892H18.5739L17.333 104H16.1239ZM25.8195 104.135C25.4323 104.135 25.0823 104.064 24.7695 103.92C24.4566 103.775 24.2087 103.564 24.0257 103.288C23.8454 103.012 23.7553 102.674 23.7553 102.274C23.7553 101.929 23.8215 101.645 23.9541 101.423C24.0867 101.2 24.2657 101.024 24.4911 100.894C24.7164 100.764 24.9683 100.666 25.2467 100.599C25.5251 100.533 25.8089 100.483 26.0979 100.448C26.4638 100.406 26.7607 100.371 26.9888 100.345C27.2168 100.316 27.3825 100.269 27.4859 100.206C27.5893 100.142 27.6411 100.039 27.6411 99.8955V99.8676C27.6411 99.5203 27.5429 99.2511 27.3467 99.0602C27.1532 98.8693 26.8642 98.7739 26.4797 98.7739C26.0793 98.7739 25.7638 98.8627 25.5331 99.0403C25.3051 99.2153 25.1473 99.4102 25.0598 99.625L23.9422 99.3705C24.0748 98.9992 24.2683 98.6996 24.5229 98.4716C24.7801 98.2409 25.0757 98.0739 25.4098 97.9705C25.7439 97.8644 26.0952 97.8114 26.4638 97.8114C26.7077 97.8114 26.9662 97.8405 27.2393 97.8989C27.5151 97.9545 27.7723 98.058 28.0109 98.2091C28.2522 98.3602 28.4498 98.5763 28.6036 98.8574C28.7573 99.1358 28.8342 99.4977 28.8342 99.9432V104H27.6729V103.165H27.6251C27.5482 103.319 27.4329 103.47 27.2791 103.618C27.1253 103.767 26.9278 103.89 26.6865 103.988C26.4452 104.086 26.1562 104.135 25.8195 104.135ZM26.078 103.181C26.4068 103.181 26.6878 103.116 26.9212 102.986C27.1571 102.856 27.3361 102.686 27.4581 102.477C27.5827 102.265 27.645 102.038 27.645 101.797V101.009C27.6026 101.052 27.5204 101.091 27.3984 101.128C27.2791 101.163 27.1426 101.193 26.9888 101.22C26.835 101.244 26.6852 101.266 26.5393 101.288C26.3935 101.306 26.2715 101.322 26.1734 101.335C25.9428 101.364 25.732 101.413 25.5411 101.482C25.3528 101.551 25.2017 101.651 25.0876 101.781C24.9763 101.908 24.9206 102.078 24.9206 102.29C24.9206 102.584 25.0293 102.807 25.2467 102.958C25.4642 103.106 25.7412 103.181 26.078 103.181ZM31.6074 95.8545V104H30.4182V95.8545H31.6074ZM34.3964 95.8545V104H33.2072V95.8545H34.3964ZM38.6293 104.123C38.0274 104.123 37.509 103.995 37.0741 103.738C36.642 103.478 36.3079 103.113 36.0719 102.644C35.8385 102.172 35.7219 101.619 35.7219 100.985C35.7219 100.359 35.8385 99.808 36.0719 99.3307C36.3079 98.8534 36.6366 98.4809 37.0582 98.2131C37.4825 97.9453 37.9783 97.8114 38.5457 97.8114C38.8904 97.8114 39.2245 97.8684 39.548 97.9824C39.8715 98.0964 40.1618 98.2754 40.419 98.5193C40.6762 98.7633 40.8791 99.0801 41.0276 99.4699C41.176 99.857 41.2503 100.328 41.2503 100.882V101.303H36.394V100.413H40.0849C40.0849 100.1 40.0213 99.8225 39.894 99.5813C39.7668 99.3373 39.5878 99.1451 39.3571 99.0045C39.1291 98.864 38.8613 98.7938 38.5537 98.7938C38.2196 98.7938 37.9279 98.8759 37.6787 99.0403C37.4321 99.2021 37.2412 99.4142 37.106 99.6767C36.9734 99.9366 36.9071 100.219 36.9071 100.524V101.22C36.9071 101.628 36.9787 101.976 37.1219 102.262C37.2677 102.548 37.4705 102.767 37.7304 102.918C37.9902 103.067 38.2938 103.141 38.6412 103.141C38.8666 103.141 39.0721 103.109 39.2577 103.045C39.4433 102.979 39.6037 102.881 39.7389 102.751C39.8741 102.621 39.9776 102.461 40.0491 102.27L41.1747 102.473C41.0846 102.804 40.9228 103.095 40.6895 103.344C40.4588 103.59 40.1685 103.783 39.8185 103.92C39.4711 104.056 39.0747 104.123 38.6293 104.123ZM45.4214 97.8909V98.8455H42.0845V97.8909H45.4214ZM42.9794 96.4273H44.1686V102.206C44.1686 102.437 44.2031 102.611 44.272 102.727C44.341 102.841 44.4298 102.92 44.5385 102.962C44.6499 103.002 44.7705 103.022 44.9004 103.022C44.9959 103.022 45.0794 103.015 45.151 103.002C45.2226 102.988 45.2783 102.978 45.318 102.97L45.5328 103.952C45.4639 103.979 45.3658 104.005 45.2385 104.032C45.1112 104.061 44.9521 104.077 44.7612 104.08C44.4483 104.085 44.1567 104.029 43.8862 103.913C43.6158 103.796 43.397 103.616 43.23 103.372C43.0629 103.128 42.9794 102.821 42.9794 102.453V96.4273ZM51.9879 104.119C51.4947 104.119 51.0546 103.993 50.6675 103.741C50.283 103.487 49.9807 103.125 49.7607 102.656C49.5432 102.184 49.4345 101.618 49.4345 100.957C49.4345 100.297 49.5446 99.7324 49.7646 99.2631C49.9874 98.7937 50.2923 98.4345 50.6794 98.1852C51.0665 97.936 51.5053 97.8114 51.9959 97.8114C52.375 97.8114 52.68 97.875 52.9107 98.0023C53.144 98.1269 53.3243 98.2727 53.4516 98.4398C53.5815 98.6068 53.6822 98.754 53.7538 98.8813H53.8254V95.8545H55.0146V104H53.8533V103.049H53.7538C53.6822 103.179 53.5788 103.328 53.4436 103.495C53.311 103.662 53.1281 103.808 52.8947 103.932C52.6614 104.057 52.3591 104.119 51.9879 104.119ZM52.2504 103.105C52.5925 103.105 52.8815 103.015 53.1175 102.835C53.3561 102.652 53.5364 102.398 53.6584 102.075C53.783 101.752 53.8453 101.375 53.8453 100.945C53.8453 100.521 53.7843 100.15 53.6624 99.8318C53.5404 99.5136 53.3614 99.2657 53.1254 99.0881C52.8894 98.9104 52.5978 98.8216 52.2504 98.8216C51.8925 98.8216 51.5942 98.9144 51.3555 99.1C51.1169 99.2856 50.9366 99.5388 50.8146 99.8597C50.6953 100.18 50.6357 100.542 50.6357 100.945C50.6357 101.354 50.6966 101.721 50.8186 102.047C50.9406 102.373 51.1209 102.632 51.3595 102.823C51.6008 103.011 51.8978 103.105 52.2504 103.105ZM59.2852 104.123C58.7125 104.123 58.2127 103.992 57.7858 103.73C57.3589 103.467 57.0275 103.1 56.7915 102.628C56.5555 102.156 56.4375 101.604 56.4375 100.973C56.4375 100.34 56.5555 99.7854 56.7915 99.3108C57.0275 98.8362 57.3589 98.4676 57.7858 98.2051C58.2127 97.9426 58.7125 97.8114 59.2852 97.8114C59.858 97.8114 60.3578 97.9426 60.7847 98.2051C61.2116 98.4676 61.543 98.8362 61.779 99.3108C62.015 99.7854 62.133 100.34 62.133 100.973C62.133 101.604 62.015 102.156 61.779 102.628C61.543 103.1 61.2116 103.467 60.7847 103.73C60.3578 103.992 59.858 104.123 59.2852 104.123ZM59.2892 103.125C59.6604 103.125 59.968 103.027 60.2119 102.831C60.4559 102.634 60.6362 102.373 60.7528 102.047C60.8722 101.721 60.9318 101.362 60.9318 100.969C60.9318 100.58 60.8722 100.222 60.7528 99.8955C60.6362 99.5667 60.4559 99.3028 60.2119 99.104C59.968 98.9051 59.6604 98.8057 59.2892 98.8057C58.9153 98.8057 58.6051 98.9051 58.3585 99.104C58.1146 99.3028 57.933 99.5667 57.8136 99.8955C57.697 100.222 57.6386 100.58 57.6386 100.969C57.6386 101.362 57.697 101.721 57.8136 102.047C57.933 102.373 58.1146 102.634 58.3585 102.831C58.6051 103.027 58.9153 103.125 59.2892 103.125ZM63.4604 104V97.8909H64.6098V98.8614H64.6734C64.7848 98.5326 64.981 98.2741 65.2621 98.0858C65.5458 97.8949 65.8666 97.7994 66.2246 97.7994C66.2988 97.7994 66.3863 97.8021 66.4871 97.8074C66.5905 97.8127 66.6714 97.8193 66.7297 97.8273V98.9648C66.682 98.9515 66.5971 98.9369 66.4751 98.921C66.3532 98.9025 66.2312 98.8932 66.1092 98.8932C65.8282 98.8932 65.5776 98.9528 65.3575 99.0722C65.1401 99.1888 64.9678 99.3519 64.8405 99.5614C64.7132 99.7682 64.6496 100.004 64.6496 100.269V104H63.4604ZM67.7588 104V97.8909H68.9003V98.8852H68.9759C69.1031 98.5485 69.3113 98.286 69.6003 98.0977C69.8893 97.9068 70.2353 97.8114 70.6384 97.8114C71.0467 97.8114 71.3887 97.9068 71.6645 98.0977C71.9429 98.2886 72.1484 98.5511 72.281 98.8852H72.3446C72.4904 98.5591 72.7224 98.2992 73.0406 98.1057C73.3588 97.9095 73.738 97.8114 74.1781 97.8114C74.7323 97.8114 75.1844 97.985 75.5344 98.3324C75.887 98.6797 76.0634 99.2034 76.0634 99.9034V104H74.8741V100.015C74.8741 99.6011 74.7615 99.3015 74.5361 99.1159C74.3107 98.9303 74.0416 98.8375 73.7287 98.8375C73.3416 98.8375 73.0406 98.9568 72.8259 99.1955C72.6111 99.4314 72.5037 99.735 72.5037 100.106V104H71.3185V99.9392C71.3185 99.6078 71.2151 99.3413 71.0082 99.1398C70.8014 98.9383 70.5323 98.8375 70.2009 98.8375C69.9755 98.8375 69.7673 98.8972 69.5764 99.0165C69.3882 99.1331 69.2357 99.2962 69.119 99.5057C69.005 99.7152 68.948 99.9578 68.948 100.234V104H67.7588ZM79.4351 104.135C79.048 104.135 78.698 104.064 78.3851 103.92C78.0722 103.775 77.8243 103.564 77.6413 103.288C77.461 103.012 77.3709 102.674 77.3709 102.274C77.3709 101.929 77.4372 101.645 77.5697 101.423C77.7023 101.2 77.8813 101.024 78.1067 100.894C78.3321 100.764 78.5839 100.666 78.8624 100.599C79.1408 100.533 79.4245 100.483 79.7135 100.448C80.0794 100.406 80.3764 100.371 80.6044 100.345C80.8324 100.316 80.9982 100.269 81.1016 100.206C81.205 100.142 81.2567 100.039 81.2567 99.8955V99.8676C81.2567 99.5203 81.1586 99.2511 80.9624 99.0602C80.7688 98.8693 80.4798 98.7739 80.0953 98.7739C79.6949 98.7739 79.3794 98.8627 79.1487 99.0403C78.9207 99.2153 78.7629 99.4102 78.6754 99.625L77.5578 99.3705C77.6904 98.9992 77.8839 98.6996 78.1385 98.4716C78.3957 98.2409 78.6913 98.0739 79.0254 97.9705C79.3595 97.8644 79.7108 97.8114 80.0794 97.8114C80.3233 97.8114 80.5819 97.8405 80.855 97.8989C81.1307 97.9545 81.3879 98.058 81.6266 98.2091C81.8678 98.3602 82.0654 98.5763 82.2192 98.8574C82.373 99.1358 82.4499 99.4977 82.4499 99.9432V104H81.2885V103.165H81.2408C81.1639 103.319 81.0485 103.47 80.8947 103.618C80.741 103.767 80.5434 103.89 80.3021 103.988C80.0608 104.086 79.7718 104.135 79.4351 104.135ZM79.6936 103.181C80.0224 103.181 80.3035 103.116 80.5368 102.986C80.7728 102.856 80.9518 102.686 81.0737 102.477C81.1983 102.265 81.2607 102.038 81.2607 101.797V101.009C81.2182 101.052 81.136 101.091 81.0141 101.128C80.8947 101.163 80.7582 101.193 80.6044 101.22C80.4506 101.244 80.3008 101.266 80.155 101.288C80.0091 101.306 79.8872 101.322 79.7891 101.335C79.5584 101.364 79.3476 101.413 79.1567 101.482C78.9684 101.551 78.8173 101.651 78.7033 101.781C78.5919 101.908 78.5362 102.078 78.5362 102.29C78.5362 102.584 78.6449 102.807 78.8624 102.958C79.0798 103.106 79.3569 103.181 79.6936 103.181ZM85.223 100.373V104H84.0338V97.8909H85.1753V98.8852H85.2509C85.3914 98.5617 85.6115 98.3019 85.9111 98.1057C86.2134 97.9095 86.5938 97.8114 87.0526 97.8114C87.4688 97.8114 87.8334 97.8989 88.1463 98.0739C88.4592 98.2462 88.7018 98.5034 88.8741 98.8455C89.0465 99.1875 89.1327 99.6104 89.1327 100.114V104H87.9435V100.257C87.9435 99.8146 87.8281 99.4686 87.5974 99.2193C87.3668 98.9674 87.0499 98.8415 86.6469 98.8415C86.3711 98.8415 86.1259 98.9011 85.9111 99.0205C85.699 99.1398 85.5306 99.3148 85.406 99.5455C85.284 99.7735 85.223 100.049 85.223 100.373ZM93.5793 97.8909V98.8455H90.2423V97.8909H93.5793ZM91.1372 96.4273H92.3264V102.206C92.3264 102.437 92.3609 102.611 92.4298 102.727C92.4988 102.841 92.5876 102.92 92.6963 102.962C92.8077 103.002 92.9283 103.022 93.0582 103.022C93.1537 103.022 93.2372 103.015 93.3088 103.002C93.3804 102.988 93.4361 102.978 93.4759 102.97L93.6906 103.952C93.6217 103.979 93.5236 104.005 93.3963 104.032C93.269 104.061 93.1099 104.077 92.919 104.08C92.6062 104.085 92.3145 104.029 92.044 103.913C91.7736 103.796 91.5548 103.616 91.3878 103.372C91.2207 103.128 91.1372 102.821 91.1372 102.453V96.4273ZM100.766 97.8909V98.8455H97.3139V97.8909H100.766ZM98.2605 104V97.183C98.2605 96.8011 98.344 96.4843 98.5111 96.2324C98.6781 95.9778 98.8995 95.7883 99.1753 95.6636C99.451 95.5364 99.7507 95.4727 100.074 95.4727C100.313 95.4727 100.517 95.4926 100.687 95.5324C100.856 95.5695 100.982 95.604 101.064 95.6358L100.786 96.5983C100.73 96.5824 100.659 96.5638 100.571 96.5426C100.484 96.5187 100.378 96.5068 100.253 96.5068C99.9641 96.5068 99.7573 96.5784 99.6327 96.7216C99.5107 96.8648 99.4497 97.0716 99.4497 97.342V104H98.2605ZM104.326 104.123C103.753 104.123 103.253 103.992 102.826 103.73C102.4 103.467 102.068 103.1 101.832 102.628C101.596 102.156 101.478 101.604 101.478 100.973C101.478 100.34 101.596 99.7854 101.832 99.3108C102.068 98.8362 102.4 98.4676 102.826 98.2051C103.253 97.9426 103.753 97.8114 104.326 97.8114C104.899 97.8114 105.398 97.9426 105.825 98.2051C106.252 98.4676 106.584 98.8362 106.82 99.3108C107.056 99.7854 107.174 100.34 107.174 100.973C107.174 101.604 107.056 102.156 106.82 102.628C106.584 103.1 106.252 103.467 105.825 103.73C105.398 103.992 104.899 104.123 104.326 104.123ZM104.33 103.125C104.701 103.125 105.009 103.027 105.253 102.831C105.496 102.634 105.677 102.373 105.793 102.047C105.913 101.721 105.972 101.362 105.972 100.969C105.972 100.58 105.913 100.222 105.793 99.8955C105.677 99.5667 105.496 99.3028 105.253 99.104C105.009 98.9051 104.701 98.8057 104.33 98.8057C103.956 98.8057 103.646 98.9051 103.399 99.104C103.155 99.3028 102.974 99.5667 102.854 99.8955C102.738 100.222 102.679 100.58 102.679 100.969C102.679 101.362 102.738 101.721 102.854 102.047C102.974 102.373 103.155 102.634 103.399 102.831C103.646 103.027 103.956 103.125 104.33 103.125ZM108.501 104V97.8909H109.65V98.8614H109.714C109.825 98.5326 110.022 98.2741 110.303 98.0858C110.586 97.8949 110.907 97.7994 111.265 97.7994C111.339 97.7994 111.427 97.8021 111.528 97.8074C111.631 97.8127 111.712 97.8193 111.77 97.8273V98.9648C111.723 98.9515 111.638 98.9369 111.516 98.921C111.394 98.9025 111.272 98.8932 111.15 98.8932C110.869 98.8932 110.618 98.9528 110.398 99.0722C110.181 99.1888 110.008 99.3519 109.881 99.5614C109.754 99.7682 109.69 100.004 109.69 100.269V104H108.501Z" fill="#19191A"/>
<path d="M14.8949 154V145.855H16.0841V148.881H16.1557C16.2246 148.754 16.3241 148.607 16.454 148.44C16.5839 148.273 16.7642 148.127 16.9949 148.002C17.2256 147.875 17.5305 147.811 17.9097 147.811C18.4028 147.811 18.843 147.936 19.2301 148.185C19.6172 148.434 19.9208 148.794 20.1409 149.263C20.3636 149.732 20.475 150.297 20.475 150.957C20.475 151.618 20.365 152.184 20.1449 152.656C19.9248 153.125 19.6225 153.487 19.2381 153.741C18.8536 153.993 18.4148 154.119 17.9216 154.119C17.5504 154.119 17.2468 154.057 17.0108 153.932C16.7775 153.808 16.5945 153.662 16.4619 153.495C16.3294 153.328 16.2273 153.179 16.1557 153.049H16.0562V154H14.8949ZM16.0602 150.945C16.0602 151.375 16.1225 151.752 16.2472 152.075C16.3718 152.398 16.5521 152.652 16.7881 152.835C17.0241 153.015 17.3131 153.105 17.6551 153.105C18.0104 153.105 18.3074 153.011 18.546 152.823C18.7847 152.632 18.965 152.373 19.0869 152.047C19.2116 151.721 19.2739 151.354 19.2739 150.945C19.2739 150.542 19.2129 150.18 19.0909 149.86C18.9716 149.539 18.7913 149.286 18.55 149.1C18.3114 148.914 18.0131 148.822 17.6551 148.822C17.3104 148.822 17.0187 148.91 16.7801 149.088C16.5441 149.266 16.3652 149.514 16.2432 149.832C16.1212 150.15 16.0602 150.521 16.0602 150.945ZM24.4433 154.123C23.8414 154.123 23.3231 153.995 22.8882 153.738C22.456 153.478 22.1219 153.113 21.8859 152.644C21.6526 152.172 21.5359 151.619 21.5359 150.985C21.5359 150.359 21.6526 149.808 21.8859 149.331C22.1219 148.853 22.4507 148.481 22.8723 148.213C23.2965 147.945 23.7924 147.811 24.3598 147.811C24.7045 147.811 25.0386 147.868 25.3621 147.982C25.6856 148.096 25.9759 148.275 26.2331 148.519C26.4903 148.763 26.6931 149.08 26.8416 149.47C26.9901 149.857 27.0643 150.328 27.0643 150.882V151.303H22.2081V150.413H25.899C25.899 150.1 25.8354 149.823 25.7081 149.581C25.5808 149.337 25.4018 149.145 25.1712 149.005C24.9431 148.864 24.6753 148.794 24.3678 148.794C24.0337 148.794 23.742 148.876 23.4928 149.04C23.2462 149.202 23.0553 149.414 22.92 149.677C22.7875 149.937 22.7212 150.219 22.7212 150.524V151.22C22.7212 151.628 22.7928 151.976 22.9359 152.262C23.0818 152.548 23.2846 152.767 23.5445 152.918C23.8043 153.067 24.1079 153.141 24.4553 153.141C24.6806 153.141 24.8861 153.109 25.0717 153.045C25.2573 152.979 25.4178 152.881 25.553 152.751C25.6882 152.621 25.7916 152.461 25.8632 152.27L26.9888 152.473C26.8986 152.804 26.7369 153.095 26.5036 153.344C26.2729 153.59 25.9825 153.783 25.6325 153.92C25.2852 154.056 24.8888 154.123 24.4433 154.123ZM30.9571 154.123C30.3658 154.123 29.8567 153.989 29.4298 153.722C29.0056 153.451 28.6795 153.079 28.4514 152.604C28.2234 152.129 28.1094 151.586 28.1094 150.973C28.1094 150.353 28.226 149.805 28.4594 149.331C28.6927 148.853 29.0215 148.481 29.4457 148.213C29.87 147.945 30.3698 147.811 30.9452 147.811C31.4092 147.811 31.8228 147.898 32.1861 148.07C32.5493 148.24 32.8423 148.478 33.0651 148.786C33.2904 149.093 33.4243 149.453 33.4668 149.864H32.3094C32.2457 149.577 32.0999 149.331 31.8719 149.124C31.6465 148.917 31.3442 148.814 30.9651 148.814C30.6336 148.814 30.3433 148.901 30.094 149.076C29.8474 149.248 29.6552 149.495 29.5173 149.816C29.3795 150.134 29.3105 150.511 29.3105 150.945C29.3105 151.391 29.3781 151.775 29.5134 152.099C29.6486 152.422 29.8395 152.673 30.0861 152.851C30.3353 153.028 30.6283 153.117 30.9651 153.117C31.1904 153.117 31.3946 153.076 31.5776 152.994C31.7632 152.909 31.9183 152.788 32.0429 152.632C32.1702 152.475 32.259 152.287 32.3094 152.067H33.4668C33.4243 152.462 33.2957 152.815 33.081 153.125C32.8662 153.435 32.5785 153.679 32.2179 153.857C31.8599 154.034 31.4397 154.123 30.9571 154.123ZM37.3118 154.123C36.7391 154.123 36.2393 153.992 35.8124 153.73C35.3855 153.467 35.054 153.1 34.818 152.628C34.5821 152.156 34.4641 151.604 34.4641 150.973C34.4641 150.34 34.5821 149.785 34.818 149.311C35.054 148.836 35.3855 148.468 35.8124 148.205C36.2393 147.943 36.7391 147.811 37.3118 147.811C37.8845 147.811 38.3843 147.943 38.8112 148.205C39.2381 148.468 39.5696 148.836 39.8055 149.311C40.0415 149.785 40.1595 150.34 40.1595 150.973C40.1595 151.604 40.0415 152.156 39.8055 152.628C39.5696 153.1 39.2381 153.467 38.8112 153.73C38.3843 153.992 37.8845 154.123 37.3118 154.123ZM37.3158 153.125C37.687 153.125 37.9946 153.027 38.2385 152.831C38.4824 152.634 38.6627 152.373 38.7794 152.047C38.8987 151.721 38.9584 151.362 38.9584 150.969C38.9584 150.58 38.8987 150.222 38.7794 149.895C38.6627 149.567 38.4824 149.303 38.2385 149.104C37.9946 148.905 37.687 148.806 37.3158 148.806C36.9419 148.806 36.6317 148.905 36.3851 149.104C36.1411 149.303 35.9595 149.567 35.8402 149.895C35.7235 150.222 35.6652 150.58 35.6652 150.969C35.6652 151.362 35.7235 151.721 35.8402 152.047C35.9595 152.373 36.1411 152.634 36.3851 152.831C36.6317 153.027 36.9419 153.125 37.3158 153.125ZM41.4869 154V147.891H42.6284V148.885H42.704C42.8313 148.548 43.0394 148.286 43.3284 148.098C43.6174 147.907 43.9634 147.811 44.3665 147.811C44.7748 147.811 45.1169 147.907 45.3926 148.098C45.671 148.289 45.8765 148.551 46.0091 148.885H46.0727C46.2186 148.559 46.4506 148.299 46.7687 148.106C47.0869 147.909 47.4661 147.811 47.9062 147.811C48.4604 147.811 48.9125 147.985 49.2625 148.332C49.6152 148.68 49.7915 149.203 49.7915 149.903V154H48.6023V150.015C48.6023 149.601 48.4896 149.302 48.2642 149.116C48.0388 148.93 47.7697 148.838 47.4568 148.838C47.0697 148.838 46.7687 148.957 46.554 149.195C46.3392 149.431 46.2318 149.735 46.2318 150.106V154H45.0466V149.939C45.0466 149.608 44.9432 149.341 44.7364 149.14C44.5295 148.938 44.2604 148.838 43.929 148.838C43.7036 148.838 43.4955 148.897 43.3045 149.016C43.1163 149.133 42.9638 149.296 42.8472 149.506C42.7331 149.715 42.6761 149.958 42.6761 150.234V154H41.4869ZM54.0183 154.123C53.4164 154.123 52.8981 153.995 52.4632 153.738C52.031 153.478 51.6969 153.113 51.4609 152.644C51.2276 152.172 51.1109 151.619 51.1109 150.985C51.1109 150.359 51.2276 149.808 51.4609 149.331C51.6969 148.853 52.0257 148.481 52.4473 148.213C52.8715 147.945 53.3674 147.811 53.9348 147.811C54.2795 147.811 54.6136 147.868 54.9371 147.982C55.2606 148.096 55.5509 148.275 55.8081 148.519C56.0653 148.763 56.2681 149.08 56.4166 149.47C56.5651 149.857 56.6393 150.328 56.6393 150.882V151.303H51.7831V150.413H55.474C55.474 150.1 55.4104 149.823 55.2831 149.581C55.1558 149.337 54.9768 149.145 54.7462 149.005C54.5181 148.864 54.2503 148.794 53.9428 148.794C53.6087 148.794 53.317 148.876 53.0678 149.04C52.8212 149.202 52.6303 149.414 52.495 149.677C52.3625 149.937 52.2962 150.219 52.2962 150.524V151.22C52.2962 151.628 52.3678 151.976 52.5109 152.262C52.6568 152.548 52.8596 152.767 53.1195 152.918C53.3793 153.067 53.6829 153.141 54.0303 153.141C54.2556 153.141 54.4611 153.109 54.6467 153.045C54.8323 152.979 54.9928 152.881 55.128 152.751C55.2632 152.621 55.3666 152.461 55.4382 152.27L56.5638 152.473C56.4736 152.804 56.3119 153.095 56.0786 153.344C55.8479 153.59 55.5575 153.783 55.2075 153.92C54.8602 154.056 54.4638 154.123 54.0183 154.123ZM62.5366 149.382L61.4588 149.573C61.4137 149.435 61.3421 149.304 61.244 149.18C61.1486 149.055 61.0187 148.953 60.8543 148.873C60.6899 148.794 60.4844 148.754 60.2378 148.754C59.901 148.754 59.62 148.83 59.3946 148.981C59.1692 149.129 59.0565 149.321 59.0565 149.557C59.0565 149.762 59.1321 149.926 59.2832 150.051C59.4344 150.175 59.6783 150.277 60.0151 150.357L60.9855 150.58C61.5476 150.709 61.9666 150.91 62.2423 151.18C62.5181 151.451 62.656 151.802 62.656 152.234C62.656 152.6 62.5499 152.926 62.3378 153.213C62.1283 153.496 61.8353 153.719 61.4588 153.881C61.0849 154.042 60.6514 154.123 60.1582 154.123C59.4741 154.123 58.916 153.977 58.4838 153.686C58.0516 153.391 57.7865 152.974 57.6884 152.433L58.8378 152.258C58.9094 152.558 59.0565 152.784 59.2793 152.938C59.502 153.089 59.7923 153.165 60.1503 153.165C60.5401 153.165 60.8516 153.084 61.0849 152.922C61.3183 152.758 61.4349 152.558 61.4349 152.322C61.4349 152.131 61.3634 151.97 61.2202 151.84C61.0796 151.71 60.8635 151.612 60.5719 151.546L59.5378 151.319C58.9677 151.189 58.5461 150.983 58.273 150.699C58.0026 150.415 57.8673 150.056 57.8673 149.621C57.8673 149.26 57.9681 148.945 58.1696 148.674C58.3711 148.404 58.6495 148.193 59.0048 148.042C59.3601 147.888 59.7671 147.811 60.2259 147.811C60.8861 147.811 61.4058 147.955 61.7849 148.241C62.1641 148.525 62.4147 148.905 62.5366 149.382ZM68.7054 154.135C68.3183 154.135 67.9683 154.064 67.6554 153.92C67.3425 153.775 67.0946 153.564 66.9116 153.288C66.7313 153.012 66.6412 152.674 66.6412 152.274C66.6412 151.929 66.7075 151.645 66.8401 151.423C66.9726 151.2 67.1516 151.024 67.377 150.894C67.6024 150.764 67.8543 150.666 68.1327 150.599C68.4111 150.533 68.6948 150.483 68.9838 150.448C69.3497 150.406 69.6467 150.371 69.8747 150.345C70.1027 150.316 70.2685 150.269 70.3719 150.206C70.4753 150.142 70.527 150.039 70.527 149.895V149.868C70.527 149.52 70.4289 149.251 70.2327 149.06C70.0391 148.869 69.7501 148.774 69.3656 148.774C68.9652 148.774 68.6497 148.863 68.419 149.04C68.191 149.215 68.0332 149.41 67.9457 149.625L66.8281 149.37C66.9607 148.999 67.1543 148.7 67.4088 148.472C67.666 148.241 67.9616 148.074 68.2957 147.97C68.6298 147.864 68.9812 147.811 69.3497 147.811C69.5937 147.811 69.8522 147.841 70.1253 147.899C70.401 147.955 70.6582 148.058 70.8969 148.209C71.1382 148.36 71.3357 148.576 71.4895 148.857C71.6433 149.136 71.7202 149.498 71.7202 149.943V154H70.5588V153.165H70.5111C70.4342 153.319 70.3188 153.47 70.1651 153.618C70.0113 153.767 69.8137 153.89 69.5724 153.988C69.3312 154.086 69.0421 154.135 68.7054 154.135ZM68.9639 153.181C69.2927 153.181 69.5738 153.116 69.8071 152.986C70.0431 152.856 70.2221 152.686 70.344 152.477C70.4687 152.265 70.531 152.038 70.531 151.797V151.009C70.4885 151.052 70.4063 151.091 70.2844 151.128C70.1651 151.163 70.0285 151.193 69.8747 151.22C69.7209 151.244 69.5711 151.266 69.4253 151.288C69.2795 151.306 69.1575 151.322 69.0594 151.335C68.8287 151.364 68.6179 151.413 68.427 151.482C68.2387 151.551 68.0876 151.651 67.9736 151.781C67.8622 151.908 67.8065 152.078 67.8065 152.29C67.8065 152.584 67.9152 152.807 68.1327 152.958C68.3501 153.106 68.6272 153.181 68.9639 153.181ZM75.8774 154.123C75.2861 154.123 74.777 153.989 74.3501 153.722C73.9259 153.451 73.5998 153.079 73.3717 152.604C73.1437 152.129 73.0297 151.586 73.0297 150.973C73.0297 150.353 73.1464 149.805 73.3797 149.331C73.613 148.853 73.9418 148.481 74.366 148.213C74.7903 147.945 75.2901 147.811 75.8655 147.811C76.3295 147.811 76.7431 147.898 77.1064 148.07C77.4696 148.24 77.7626 148.478 77.9854 148.786C78.2107 149.093 78.3446 149.453 78.3871 149.864H77.2297C77.166 149.577 77.0202 149.331 76.7922 149.124C76.5668 148.917 76.2645 148.814 75.8854 148.814C75.5539 148.814 75.2636 148.901 75.0143 149.076C74.7678 149.248 74.5755 149.495 74.4376 149.816C74.2998 150.134 74.2308 150.511 74.2308 150.945C74.2308 151.391 74.2984 151.775 74.4337 152.099C74.5689 152.422 74.7598 152.673 75.0064 152.851C75.2556 153.028 75.5486 153.117 75.8854 153.117C76.1107 153.117 76.3149 153.076 76.4979 152.994C76.6835 152.909 76.8386 152.788 76.9632 152.632C77.0905 152.475 77.1793 152.287 77.2297 152.067H78.3871C78.3446 152.462 78.216 152.815 78.0013 153.125C77.7865 153.435 77.4988 153.679 77.1382 153.857C76.7803 154.034 76.36 154.123 75.8774 154.123ZM82.5105 147.891V148.845H79.1736V147.891H82.5105ZM80.0685 146.427H81.2577V152.206C81.2577 152.437 81.2921 152.611 81.3611 152.727C81.43 152.841 81.5188 152.92 81.6276 152.962C81.7389 153.002 81.8596 153.022 81.9895 153.022C82.0849 153.022 82.1685 153.015 82.2401 153.002C82.3116 152.988 82.3673 152.978 82.4071 152.97L82.6219 153.952C82.5529 153.979 82.4548 154.005 82.3276 154.032C82.2003 154.061 82.0412 154.077 81.8503 154.08C81.5374 154.085 81.2457 154.029 80.9753 153.913C80.7048 153.796 80.4861 153.616 80.319 153.372C80.152 153.128 80.0685 152.821 80.0685 152.453V146.427ZM83.826 154V147.891H85.0152V154H83.826ZM84.4266 146.948C84.2197 146.948 84.0421 146.879 83.8936 146.741C83.7478 146.601 83.6749 146.434 83.6749 146.24C83.6749 146.044 83.7478 145.877 83.8936 145.739C84.0421 145.599 84.2197 145.528 84.4266 145.528C84.6334 145.528 84.8097 145.599 84.9555 145.739C85.104 145.877 85.1783 146.044 85.1783 146.24C85.1783 146.434 85.104 146.601 84.9555 146.741C84.8097 146.879 84.6334 146.948 84.4266 146.948ZM91.8412 147.891L89.6258 154H88.3531L86.1338 147.891H87.4105L88.9577 152.592H89.0213L90.5645 147.891H91.8412ZM95.3839 154.123C94.7821 154.123 94.2637 153.995 93.8288 153.738C93.3966 153.478 93.0625 153.113 92.8266 152.644C92.5932 152.172 92.4766 151.619 92.4766 150.985C92.4766 150.359 92.5932 149.808 92.8266 149.331C93.0625 148.853 93.3913 148.481 93.8129 148.213C94.2372 147.945 94.733 147.811 95.3004 147.811C95.6451 147.811 95.9792 147.868 96.3027 147.982C96.6262 148.096 96.9165 148.275 97.1737 148.519C97.4309 148.763 97.6338 149.08 97.7822 149.47C97.9307 149.857 98.005 150.328 98.005 150.882V151.303H93.1487V150.413H96.8396C96.8396 150.1 96.776 149.823 96.6487 149.581C96.5214 149.337 96.3425 149.145 96.1118 149.005C95.8838 148.864 95.616 148.794 95.3084 148.794C94.9743 148.794 94.6826 148.876 94.4334 149.04C94.1868 149.202 93.9959 149.414 93.8607 149.677C93.7281 149.937 93.6618 150.219 93.6618 150.524V151.22C93.6618 151.628 93.7334 151.976 93.8766 152.262C94.0224 152.548 94.2252 152.767 94.4851 152.918C94.7449 153.067 95.0485 153.141 95.3959 153.141C95.6213 153.141 95.8268 153.109 96.0124 153.045C96.198 152.979 96.3584 152.881 96.4936 152.751C96.6288 152.621 96.7322 152.461 96.8038 152.27L97.9294 152.473C97.8393 152.804 97.6775 153.095 97.4442 153.344C97.2135 153.59 96.9232 153.783 96.5732 153.92C96.2258 154.056 95.8294 154.123 95.3839 154.123Z" fill="#19191A"/>
</g>
</g>
<defs>
<filter id="filter0_dd_6184_50343" x="-7" y="-4.2" width="203.7" height="185.5" filterUnits="userSpaceOnUse" color-interpolation-filters="sRGB">
<feFlood flood-opacity="0" result="BackgroundImageFix"/>
<feColorMatrix in="SourceAlpha" type="matrix" values="0 0 0 0 0 0 0 0 0 0 0 0 0 0 0 0 0 0 127 0" result="hardAlpha"/>
<feOffset dy="0.7"/>
<feGaussianBlur stdDeviation="0.35"/>
<feComposite in2="hardAlpha" operator="out"/>
<feColorMatrix type="matrix" values="0 0 0 0 0 0 0 0 0 0 0 0 0 0 0 0 0 0 0.04 0"/>
<feBlend mode="normal" in2="BackgroundImageFix" result="effect1_dropShadow_6184_50343"/>
<feColorMatrix in="SourceAlpha" type="matrix" values="0 0 0 0 0 0 0 0 0 0 0 0 0 0 0 0 0 0 127 0" result="hardAlpha"/>
<feOffset dy="2.8"/>
<feGaussianBlur stdDeviation="3.5"/>
<feComposite in2="hardAlpha" operator="out"/>
<feColorMatrix type="matrix" values="0 0 0 0 0 0 0 0 0 0 0 0 0 0 0 0 0 0 0.04 0"/>
<feBlend mode="normal" in2="effect1_dropShadow_6184_50343" result="effect2_dropShadow_6184_50343"/>
<feBlend mode="normal" in="SourceGraphic" in2="effect2_dropShadow_6184_50343" result="shape"/>
</filter>
<clipPath id="clip0_6184_50343">
<rect width="189.7" height="171.5" fill="white"/>
</clipPath>
</defs>
</svg>
