<svg width="26" height="26" viewBox="0 0 26 26" fill="none" xmlns="http://www.w3.org/2000/svg">
<g clip-path="url(#clip0_1139_17321)">
<rect width="26" height="26" fill="#F5CFCF"/>
<g clip-path="url(#clip1_1139_17321)">
<path d="M7.38813 8.87773C5.57017 10.9329 5.50182 14.5094 7.21619 16.9887C9.05685 19.6504 12.4454 20.7104 15.4747 19.5722C18.4404 18.4578 20.3494 15.3776 19.9797 12.3029C19.5474 8.70674 17.1325 6.48082 13.0281 5.93877V4.875C13.5941 4.94075 14.1709 4.96085 14.7264 5.07957C18.1618 5.81295 20.7609 8.75498 21.0799 12.24C21.4068 15.8095 19.3769 19.1614 16.0652 20.5217C12.8105 21.8586 9.03864 20.9235 6.77465 18.2187C4.48701 15.4859 4.23821 11.6017 6.17749 8.62065C6.41281 8.25905 6.54572 7.96555 6.39555 7.49989C6.1056 6.60025 6.56535 5.63203 7.39144 5.1666C8.21729 4.70117 9.24771 4.84118 9.91771 5.50976C10.604 6.19466 10.7348 7.26103 10.2346 8.09232C9.74743 8.90185 8.78204 9.28781 7.86727 9.03476C7.7022 8.98912 7.54114 8.92834 7.38813 8.87773ZM8.45379 5.99009C7.92781 5.97495 7.44772 6.41626 7.41461 6.94577C7.37985 7.5006 7.83936 8.00055 8.39915 8.01711C8.95232 8.03343 9.44424 7.55286 9.44116 6.99899C9.43833 6.4716 8.98212 6.00546 8.45379 5.99032V5.99009Z" fill="#D94041"/>
<path d="M13.0226 16.1573C11.2739 16.1684 9.85468 14.7742 9.84333 13.0343C9.83198 11.2859 11.2252 9.86761 12.9665 9.85555C14.7157 9.84349 16.1332 11.2362 16.1448 12.9783C16.1564 14.7276 14.7632 16.1464 13.0226 16.1573Z" fill="#D94041"/>
</g>
</g>
<path d="M0.5 6C0.5 2.96243 2.96243 0.5 6 0.5H25.5V25.5H6C2.96243 25.5 0.5 23.0376 0.5 20V6Z" stroke="black" style="mix-blend-mode:soft-light"/>
<defs>
<clipPath id="clip0_1139_17321">
<path d="M0 6C0 2.68629 2.68629 0 6 0H26V26H6C2.68629 26 0 23.3137 0 20V6Z" fill="white"/>
</clipPath>
<clipPath id="clip1_1139_17321">
<rect width="16.2391" height="16.25" fill="white" transform="translate(4.875 4.875)"/>
</clipPath>
</defs>
</svg>
