<svg width="120" height="20" viewBox="0 0 120 20" fill="none" xmlns="http://www.w3.org/2000/svg">
<path d="M0.100852 3.17969V0.818181H14.1722V3.17969H8.49929V19H5.76491V3.17969H0.100852ZM19.7231 10.9034V19H17.0686V0.818181H19.6876V7.5831H19.8563C20.1759 6.84919 20.6642 6.26622 21.3211 5.83416C21.9781 5.40211 22.8363 5.18608 23.8957 5.18608C24.8308 5.18608 25.6476 5.37843 26.346 5.76314C27.0503 6.14785 27.5948 6.72195 27.9795 7.48544C28.3701 8.24302 28.5654 9.18999 28.5654 10.3263V19H25.911V10.646C25.911 9.64571 25.6535 8.87038 25.1386 8.31996C24.6237 7.76361 23.9075 7.48544 22.9901 7.48544C22.3628 7.48544 21.8005 7.61861 21.3034 7.88494C20.8121 8.15128 20.4244 8.5419 20.1404 9.05682C19.8622 9.56581 19.7231 10.1813 19.7231 10.9034ZM32.1077 19V5.36364H34.7622V19H32.1077ZM33.4482 3.25959C32.9866 3.25959 32.5901 3.1057 32.2586 2.79794C31.9331 2.48426 31.7703 2.11139 31.7703 1.67933C31.7703 1.24136 31.9331 0.868489 32.2586 0.560723C32.5901 0.24704 32.9866 0.0901985 33.4482 0.0901985C33.9099 0.0901985 34.3035 0.24704 34.629 0.560723C34.9604 0.868489 35.1262 1.24136 35.1262 1.67933C35.1262 2.11139 34.9604 2.48426 34.629 2.79794C34.3035 3.1057 33.9099 3.25959 33.4482 3.25959ZM48.5517 8.69283L46.1458 9.11896C46.0452 8.8112 45.8854 8.51823 45.6664 8.24006C45.4533 7.96188 45.1633 7.73402 44.7963 7.55646C44.4294 7.37891 43.9707 7.29013 43.4203 7.29013C42.6686 7.29013 42.0413 7.45881 41.5382 7.79616C41.0351 8.1276 40.7836 8.5567 40.7836 9.08345C40.7836 9.53918 40.9522 9.90613 41.2896 10.1843C41.627 10.4625 42.1715 10.6903 42.9231 10.8679L45.0893 11.3651C46.344 11.6551 47.2792 12.1019 47.8947 12.7056C48.5102 13.3093 48.818 14.0935 48.818 15.0582C48.818 15.875 48.5813 16.603 48.1078 17.2422C47.6402 17.8755 46.9862 18.3726 46.1458 18.7337C45.3113 19.0947 44.3436 19.2752 43.2427 19.2752C41.7157 19.2752 40.4699 18.9497 39.5051 18.2987C38.5404 17.6417 37.9486 16.7095 37.7296 15.5021L40.2953 15.1115C40.4551 15.7803 40.7836 16.2863 41.2807 16.6296C41.7779 16.967 42.426 17.1357 43.225 17.1357C44.095 17.1357 44.7904 16.9551 45.3113 16.5941C45.8321 16.2272 46.0925 15.7803 46.0925 15.2536C46.0925 14.8274 45.9327 14.4693 45.6131 14.1793C45.2994 13.8893 44.8171 13.6703 44.166 13.5224L41.8578 13.0163C40.5853 12.7263 39.6442 12.2647 39.0346 11.6314C38.4309 10.9981 38.1291 10.1961 38.1291 9.2255C38.1291 8.42057 38.354 7.71626 38.8038 7.11257C39.2536 6.50888 39.8751 6.03835 40.6681 5.70099C41.4612 5.35772 42.3697 5.18608 43.3936 5.18608C44.8674 5.18608 46.0274 5.50568 46.8738 6.14489C47.7201 6.77817 48.2794 7.62749 48.5517 8.69283ZM61.3091 19L57.2963 5.36364H60.0396L62.7118 15.3778H62.845L65.5261 5.36364H68.2694L70.9327 15.3335H71.0659L73.7203 5.36364H76.4636L72.4597 19H69.752L66.9821 9.15447H66.7779L64.008 19H61.3091ZM84.4448 19.2752C83.1013 19.2752 81.9442 18.9882 80.9735 18.4141C80.0088 17.834 79.2631 17.0202 78.7363 15.9727C78.2155 14.9192 77.9551 13.6851 77.9551 12.2706C77.9551 10.8738 78.2155 9.64276 78.7363 8.57741C79.2631 7.51207 79.997 6.68052 80.938 6.08274C81.885 5.48497 82.9918 5.18608 84.2583 5.18608C85.0278 5.18608 85.7735 5.31333 86.4956 5.56783C87.2176 5.82232 87.8657 6.22183 88.4398 6.76634C89.0139 7.31084 89.4667 8.01811 89.7981 8.88814C90.1296 9.75225 90.2953 10.8028 90.2953 12.0398V12.9808H79.4554V10.9922H87.6941C87.6941 10.2938 87.552 9.67531 87.2679 9.13672C86.9838 8.59221 86.5843 8.16312 86.0694 7.84943C85.5604 7.53575 84.9627 7.37891 84.2761 7.37891C83.5304 7.37891 82.8793 7.56238 82.323 7.92933C81.7725 8.29036 81.3464 8.76385 81.0446 9.34979C80.7486 9.92981 80.6007 10.5601 80.6007 11.2408V12.7944C80.6007 13.7058 80.7605 14.4812 81.0801 15.1204C81.4056 15.7596 81.8584 16.2479 82.4384 16.5852C83.0184 16.9167 83.6961 17.0824 84.4714 17.0824C84.9745 17.0824 85.4332 17.0114 85.8475 16.8693C86.2618 16.7214 86.6199 16.5024 86.9217 16.2124C87.2235 15.9223 87.4544 15.5643 87.6142 15.1381L90.1266 15.5909C89.9254 16.3307 89.5643 16.9788 89.0435 17.5352C88.5286 18.0856 87.8805 18.5147 87.0993 18.8224C86.3239 19.1243 85.4391 19.2752 84.4448 19.2752ZM99.1176 19.2752C97.7741 19.2752 96.617 18.9882 95.6464 18.4141C94.6817 17.834 93.9359 17.0202 93.4092 15.9727C92.8883 14.9192 92.6279 13.6851 92.6279 12.2706C92.6279 10.8738 92.8883 9.64276 93.4092 8.57741C93.9359 7.51207 94.6698 6.68052 95.6109 6.08274C96.5579 5.48497 97.6646 5.18608 98.9312 5.18608C99.7006 5.18608 100.446 5.31333 101.168 5.56783C101.89 5.82232 102.539 6.22183 103.113 6.76634C103.687 7.31084 104.14 8.01811 104.471 8.88814C104.802 9.75225 104.968 10.8028 104.968 12.0398V12.9808H94.1283V10.9922H102.367C102.367 10.2938 102.225 9.67531 101.941 9.13672C101.657 8.59221 101.257 8.16312 100.742 7.84943C100.233 7.53575 99.6355 7.37891 98.949 7.37891C98.2032 7.37891 97.5522 7.56238 96.9958 7.92933C96.4454 8.29036 96.0193 8.76385 95.7174 9.34979C95.4215 9.92981 95.2735 10.5601 95.2735 11.2408V12.7944C95.2735 13.7058 95.4333 14.4812 95.7529 15.1204C96.0785 15.7596 96.5312 16.2479 97.1112 16.5852C97.6913 16.9167 98.3689 17.0824 99.1443 17.0824C99.6473 17.0824 100.106 17.0114 100.52 16.8693C100.935 16.7214 101.293 16.5024 101.595 16.2124C101.896 15.9223 102.127 15.5643 102.287 15.1381L104.799 15.5909C104.598 16.3307 104.237 16.9788 103.716 17.5352C103.201 18.0856 102.553 18.5147 101.772 18.8224C100.997 19.1243 100.112 19.2752 99.1176 19.2752ZM110.355 14.3746L110.337 11.1342H110.799L116.232 5.36364H119.41L113.213 11.9332H112.796L110.355 14.3746ZM107.913 19V0.818181H110.568V19H107.913ZM116.525 19L111.642 12.5192L113.471 10.6637L119.783 19H116.525Z" fill="#19191A"/>
</svg>
