<svg width="49" height="20" viewBox="0 0 49 20" fill="none" xmlns="http://www.w3.org/2000/svg">
<rect x="0.5" y="0.5" width="48" height="19" rx="3.5" fill="#313233"/>
<path d="M8.6321 14V6.72727H11.544C12.0791 6.72727 12.5253 6.80658 12.8828 6.9652C13.2403 7.12382 13.509 7.34399 13.6889 7.62571C13.8688 7.90507 13.9588 8.22704 13.9588 8.59162C13.9588 8.87571 13.902 9.12547 13.7884 9.34091C13.6747 9.55398 13.5185 9.72917 13.3196 9.86648C13.1231 10.0014 12.8982 10.0973 12.6449 10.1541V10.2251C12.9219 10.237 13.1811 10.3151 13.4226 10.4595C13.6664 10.6039 13.8641 10.8063 14.0156 11.0668C14.1671 11.3248 14.2429 11.6326 14.2429 11.9901C14.2429 12.3759 14.147 12.7204 13.9553 13.0234C13.7659 13.3241 13.4853 13.562 13.1136 13.7372C12.742 13.9124 12.2839 14 11.7393 14H8.6321ZM10.1697 12.7429H11.4233C11.8518 12.7429 12.1643 12.6612 12.3608 12.4979C12.5573 12.3321 12.6555 12.112 12.6555 11.8374C12.6555 11.6361 12.607 11.4586 12.5099 11.3047C12.4129 11.1508 12.2744 11.0301 12.0945 10.9425C11.9169 10.8549 11.705 10.8111 11.4588 10.8111H10.1697V12.7429ZM10.1697 9.7706H11.3097C11.5204 9.7706 11.7074 9.7339 11.8707 9.66051C12.0365 9.58475 12.1667 9.47822 12.2614 9.34091C12.3584 9.2036 12.407 9.03906 12.407 8.8473C12.407 8.58452 12.3134 8.37263 12.1264 8.21165C11.9418 8.05066 11.679 7.97017 11.3381 7.97017H10.1697V9.7706ZM17.2434 14V6.72727H22.144V7.99503H18.7811V9.72798H21.8919V10.9957H18.7811V12.7322H22.1582V14H17.2434ZM25.0895 7.99503V6.72727H31.0625V7.99503H28.8359V14H27.3161V7.99503H25.0895ZM34.411 14H32.7633L35.274 6.72727H37.2555L39.7626 14H38.1149L36.2931 8.3892H36.2363L34.411 14ZM34.3081 11.1413H38.2001V12.3416H34.3081V11.1413Z" fill="white"/>
<rect x="0.5" y="0.5" width="48" height="19" rx="3.5" stroke="black"/>
</svg>
