<?xml version="1.0" encoding="utf-8"?>
<!-- Generator: Adobe Illustrator 26.5.0, SVG Export Plug-In . SVG Version: 6.00 Build 0)  -->
<svg version="1.1" id="Layer_1" xmlns="http://www.w3.org/2000/svg" xmlns:xlink="http://www.w3.org/1999/xlink" x="0px" y="0px"
	 viewBox="0 0 604.59 604.58" style="enable-background:new 0 0 604.59 604.58;" xml:space="preserve">
<path d="M604.59,301.73l-73.1-73.1l0.05-0.05L302.97,0l-72.79,72.79l-0.1-0.1L0,302.78l94.24,94.25l0.05-0.05L301.9,604.58
	l94.25-94.25l-0.08-0.08L604.59,301.73z M255.89,370.08l114.33-114.33l45.93,45.93L301.82,416.01L255.89,370.08z M234.44,348.63
	l-45.9-45.9L302.88,188.4l45.9,45.9L234.44,348.63z M375.36,488.06l-51.34-51.34l186.33-186.33l51.34,51.34L375.36,488.06z
	 M302.97,42.91l185.67,185.66l-51.34,51.34L251.63,94.25L302.97,42.91z M230.08,115.6l51.34,51.34L167.09,281.28l-0.18-0.18
	l-72.85,72.85L42.9,302.78L230.08,115.6z M301.9,561.68L115.75,375.52l51.34-51.34l186.15,186.15L301.9,561.68z"/>
</svg>
