<svg width="120" height="38" viewBox="0 0 120 38" fill="none" xmlns="http://www.w3.org/2000/svg">
<path d="M37.8635 18.9999L33.356 14.4563L19.082 0.0681152L14.5745 4.61174L0 18.9999L5.85983 24.9066L18.7815 37.9316L24.6413 32.0249L37.8635 18.9999ZM16.077 23.2406L23.2891 15.9708L26.1439 18.8484L18.9318 26.1182L16.077 23.2406ZM14.7247 21.8775L11.8699 18.9999L19.082 11.7301L21.9368 14.6077L14.7247 21.8775ZM23.4393 30.6618L20.284 27.4813L32.0037 15.6679L35.159 18.8484L23.4393 30.6618ZM18.9318 2.64284L30.5012 14.3048L27.3459 17.4853L15.7765 5.82337L18.9318 2.64284ZM14.4242 7.18646L17.5795 10.367L10.3674 17.6368L5.85983 22.1804L2.70454 18.9999L14.4242 7.18646ZM18.9318 35.3569L7.2121 23.5435L10.3674 20.363L22.0871 32.1764L18.9318 35.3569Z" fill="white"/>
<path d="M48.8022 7.1333H51.7426V27.5057H63.0839V30.026H48.8022V7.1333Z" fill="white"/>
<path d="M66.2339 21.6246C66.2339 16.164 69.5943 12.8036 74.4249 12.8036C79.2554 12.8036 82.6158 16.374 82.6158 21.6246C82.6158 26.8753 79.2554 30.4457 74.4249 30.4457C69.5943 30.4457 66.2339 26.8753 66.2339 21.6246ZM79.8855 21.6246C79.8855 18.2642 78.2053 15.1139 74.4249 15.1139C70.6444 15.1139 68.9642 18.2642 68.9642 21.6246C68.9642 24.985 70.6444 28.1354 74.4249 28.1354C78.2053 28.1354 79.8855 24.985 79.8855 21.6246Z" fill="white"/>
<path d="M85.9771 21.6249C85.9771 16.3743 89.3374 12.8038 94.168 12.8038C97.9485 12.8038 100.889 14.9041 101.309 18.2645H98.5785C98.1585 16.7943 96.6883 15.3241 94.168 15.3241C90.8076 15.3241 88.7074 17.8444 88.7074 21.8349C88.7074 25.8254 90.8076 28.3457 94.168 28.3457C96.2683 28.3457 97.9485 27.2956 98.5785 25.4053H101.309C100.889 28.3457 98.1585 30.866 94.168 30.866C89.1274 30.4459 85.9771 26.6655 85.9771 21.6249Z" fill="white"/>
<path d="M108.239 30.026H105.509V7.1333H108.239V15.5343H108.449C109.289 13.8541 110.969 12.5939 113.7 12.5939C117.48 12.5939 120 14.6942 120 19.1047V30.026H117.27V19.3147C117.27 16.5844 115.59 15.1142 113.07 15.1142C110.339 15.1142 108.239 16.7944 108.239 19.7348V30.026Z" fill="white"/>
</svg>
