<svg width="43" height="43" viewBox="0 0 43 43" fill="none" xmlns="http://www.w3.org/2000/svg">
<rect width="43" height="43" fill="#CACBCC"/>
<path d="M21 31C26.5228 31 31 26.5228 31 21C31 15.4772 26.5228 11 21 11C15.4772 11 11 15.4772 11 21C11 26.5228 15.4772 31 21 31Z" stroke="white" stroke-width="2" stroke-linecap="round" stroke-linejoin="round"/>
<path d="M18.0898 18.0001C18.3249 17.3317 18.789 16.7682 19.3998 16.4092C20.0106 16.0502 20.7287 15.919 21.427 16.0388C22.1253 16.1586 22.7587 16.5216 23.2149 17.0636C23.6712 17.6056 23.9209 18.2916 23.9198 19.0001C23.9198 21.0001 20.9198 22.0001 20.9198 22.0001" stroke="white" stroke-width="2" stroke-linecap="round" stroke-linejoin="round"/>
<path d="M21 26H21.01" stroke="white" stroke-width="2" stroke-linecap="round" stroke-linejoin="round"/>
</svg>
