<svg width="58" height="58" viewBox="0 0 58 58" fill="none" xmlns="http://www.w3.org/2000/svg">
<g filter="url(#filter0_dd_696_19399)">
<rect x="10" y="6" width="38" height="38" rx="8" fill="white"/>
</g>
<path d="M21.5 20H23.1667H36.5" stroke="#B0B1B3" stroke-width="1.5" stroke-linecap="round" stroke-linejoin="round"/>
<path d="M25.667 20V18.3333C25.667 17.8913 25.8426 17.4673 26.1551 17.1548C26.4677 16.8422 26.8916 16.6666 27.3337 16.6666H30.667C31.109 16.6666 31.5329 16.8422 31.8455 17.1548C32.1581 17.4673 32.3337 17.8913 32.3337 18.3333V20M34.8337 20V31.6666C34.8337 32.1087 34.6581 32.5326 34.3455 32.8451C34.0329 33.1577 33.609 33.3333 33.167 33.3333H24.8337C24.3916 33.3333 23.9677 33.1577 23.6551 32.8451C23.3426 32.5326 23.167 32.1087 23.167 31.6666V20H34.8337Z" stroke="#B0B1B3" stroke-width="1.5" stroke-linecap="round" stroke-linejoin="round"/>
<path d="M27.333 24.1666V29.1666" stroke="#B0B1B3" stroke-width="1.5" stroke-linecap="round" stroke-linejoin="round"/>
<path d="M30.667 24.1666V29.1666" stroke="#B0B1B3" stroke-width="1.5" stroke-linecap="round" stroke-linejoin="round"/>
<defs>
<filter id="filter0_dd_696_19399" x="0" y="0" width="58" height="58" filterUnits="userSpaceOnUse" color-interpolation-filters="sRGB">
<feFlood flood-opacity="0" result="BackgroundImageFix"/>
<feColorMatrix in="SourceAlpha" type="matrix" values="0 0 0 0 0 0 0 0 0 0 0 0 0 0 0 0 0 0 127 0" result="hardAlpha"/>
<feOffset dy="1"/>
<feGaussianBlur stdDeviation="0.5"/>
<feComposite in2="hardAlpha" operator="out"/>
<feColorMatrix type="matrix" values="0 0 0 0 0 0 0 0 0 0 0 0 0 0 0 0 0 0 0.04 0"/>
<feBlend mode="normal" in2="BackgroundImageFix" result="effect1_dropShadow_696_19399"/>
<feColorMatrix in="SourceAlpha" type="matrix" values="0 0 0 0 0 0 0 0 0 0 0 0 0 0 0 0 0 0 127 0" result="hardAlpha"/>
<feOffset dy="4"/>
<feGaussianBlur stdDeviation="5"/>
<feComposite in2="hardAlpha" operator="out"/>
<feColorMatrix type="matrix" values="0 0 0 0 0 0 0 0 0 0 0 0 0 0 0 0 0 0 0.04 0"/>
<feBlend mode="normal" in2="effect1_dropShadow_696_19399" result="effect2_dropShadow_696_19399"/>
<feBlend mode="normal" in="SourceGraphic" in2="effect2_dropShadow_696_19399" result="shape"/>
</filter>
</defs>
</svg>
