<svg width="24" height="24" viewBox="0 0 24 24" xmlns="http://www.w3.org/2000/svg">
    <path d="M15.182 5.875h-1.518V4.77a.266.266 0 0 0-.268-.269h-2.83a.266.266 0 0 0-.268.269v1.106H8.78c-.711 0-1.28.57-1.28 1.28V18.22c0 .711.585 1.28 1.28 1.28h6.402c.711 0 1.28-.569 1.28-1.28V7.155c0-.71-.569-1.28-1.28-1.28zM13.743 13.4h-.853v2.608c0 .332-.427.458-.6.19L9.87 12.593a.397.397 0 0 1 .332-.617h.853V9.368c0-.332.427-.458.601-.19l2.434 3.589a.41.41 0 0 1-.348.632z" fill="#FFF" fill-rule="nonzero"/>
</svg>
