<svg width="110" height="25" viewBox="0 0 110 25" xmlns="http://www.w3.org/2000/svg">
    <g fill-rule="nonzero" fill="none">
        <path d="M32.186 19.688a7.023 7.023 0 0 1-.99.497 7.311 7.311 0 0 1-2.44.387 6.096 6.096 0 0 1-2.393-.46 5.986 5.986 0 0 1-1.926-1.262 5.736 5.736 0 0 1-1.275-1.84 5.84 5.84 0 0 1-.495-2.33 6.054 6.054 0 0 1 .44-2.301 5.94 5.94 0 0 1 1.229-1.842 5.812 5.812 0 0 1 4.136-1.712 5.302 5.302 0 0 1 2.22.47 5.502 5.502 0 0 1 1.806 1.27c.51.553.91 1.2 1.174 1.906.288.777.431 1.6.422 2.43a.781.781 0 0 1-.78.782h-7.63a3.195 3.195 0 0 0 1.165 1.731 3.302 3.302 0 0 0 2.036.654c.475.001.946-.08 1.394-.24l.192-.092a1.655 1.655 0 0 1 1.834.276 1.023 1.023 0 0 1 .065 1.455c-.052.081-.114.155-.184.221zm-3.75-8.433a2.617 2.617 0 0 0-1.752.626 3.141 3.141 0 0 0-1.018 1.667h5.502a3.353 3.353 0 0 0-1.027-1.648 2.562 2.562 0 0 0-1.706-.645zm7.987-6.214h6.795a5.68 5.68 0 0 1 3.669 1.17 3.688 3.688 0 0 1 1.458 3.056 3.527 3.527 0 0 1-.495 1.841 4.144 4.144 0 0 1-1.34 1.372 4.507 4.507 0 0 1 1.734 1.427c.425.585.653 1.291.651 2.016a3.974 3.974 0 0 1-1.467 3.213 5.79 5.79 0 0 1-3.843 1.215h-7.162a.33.33 0 0 1-.33-.332V5.42a.341.341 0 0 1 .33-.378zm6.594 2.624h-3.779v3.618h3.788c.586.049 1.17-.11 1.65-.451.399-.318.623-.806.606-1.316a1.632 1.632 0 0 0-.605-1.326 2.497 2.497 0 0 0-1.651-.488l-.01-.037zm.302 10.034a2.625 2.625 0 0 0 1.734-.533 1.909 1.909 0 0 0 0-2.873 2.625 2.625 0 0 0-1.734-.543h-4.08v3.95h4.08zm9.015-10.126a1.593 1.593 0 0 1-1.192-.506 1.688 1.688 0 0 1 0-2.394c.308-.33.741-.514 1.192-.506a1.7 1.7 0 0 1 1.697 1.703 1.7 1.7 0 0 1-1.697 1.703zm1.513 1.75v10.696a.34.34 0 0 1-.339.332h-2.311a.33.33 0 0 1-.33-.332V9.322a.33.33 0 0 1 .33-.331h2.302a.339.339 0 0 1 .348.331zm2.311 10.696V4.85a.322.322 0 0 1 .266-.323h2.302a.33.33 0 0 1 .395.258.157.157 0 0 1 0 .064v8.939l4.814-4.704a.293.293 0 0 1 .23-.092h2.402a.34.34 0 0 1 .34.331c0 .09-.037.177-.101.24L62.1 14.247l5.062 5.524a.342.342 0 0 1 0 .47.348.348 0 0 1-.229.082h-2.907a.32.32 0 0 1-.239-.101l-4.667-5.054v4.86a.33.33 0 0 1-.33.332h-2.302a.34.34 0 0 1-.34-.34h.01zm21.277-.331c-.32.188-.65.354-.99.497a7.311 7.311 0 0 1-2.44.387 6.096 6.096 0 0 1-2.394-.46 5.986 5.986 0 0 1-1.926-1.243 5.598 5.598 0 0 1-1.274-1.842 5.837 5.837 0 0 1-.468-2.329 6.05 6.05 0 0 1 .44-2.301 5.94 5.94 0 0 1 1.229-1.841 5.685 5.685 0 0 1 1.834-1.252 5.75 5.75 0 0 1 2.284-.46 5.302 5.302 0 0 1 2.219.469 5.503 5.503 0 0 1 1.742 1.252 5.684 5.684 0 0 1 1.174 1.933c.289.777.432 1.601.422 2.43v.452a.33.33 0 0 1-.33.331h-8.07a3.195 3.195 0 0 0 1.164 1.73 3.302 3.302 0 0 0 2.036.654c.472.003.94-.078 1.385-.239l.202-.092a1.664 1.664 0 0 1 1.834.276 1.032 1.032 0 0 1 .183 1.455c-.079.076-.168.141-.266.193h.01zm-3.751-8.433a2.662 2.662 0 0 0-1.761.626 3.252 3.252 0 0 0-1.018 1.667h5.502A3.224 3.224 0 0 0 75.38 11.9a2.535 2.535 0 0 0-1.705-.645h.009zM96.4 12.738a8.369 8.369 0 0 1-.578 3.13 7.552 7.552 0 0 1-1.623 2.494 7.335 7.335 0 0 1-2.421 1.63 7.532 7.532 0 0 1-3.027.607 8.226 8.226 0 0 1-3.164-.616 7.782 7.782 0 0 1-4.227-4.17 8.065 8.065 0 0 1 0-6.169 7.671 7.671 0 0 1 4.236-4.16 7.98 7.98 0 0 1 3.137-.617 8.456 8.456 0 0 1 3.549.764 10.09 10.09 0 0 1 2.494 1.84.332.332 0 0 1 0 .47L93.08 9.516a.338.338 0 0 1-.459 0 7.34 7.34 0 0 0-1.623-1.262 5.138 5.138 0 0 0-2.265-.506 4.662 4.662 0 0 0-1.898.377 4.65 4.65 0 0 0-2.504 2.615 5.385 5.385 0 0 0-.358 1.98c-.007.68.118 1.355.367 1.988.228.589.575 1.125 1.018 1.574.437.456.965.814 1.55 1.05a4.79 4.79 0 0 0 1.917.386 4.446 4.446 0 0 0 2.75-.92 3.795 3.795 0 0 0 1.44-2.293h-3.824a.67.67 0 0 1-.66-.672v-1.38a.67.67 0 0 1 .66-.673h6.842a.34.34 0 0 1 .34.332l.027.626zm1.421 1.942a5.763 5.763 0 0 1 .468-2.32 5.938 5.938 0 0 1 1.284-1.841 5.821 5.821 0 0 1 1.916-1.252 6.26 6.26 0 0 1 4.714 0 5.821 5.821 0 0 1 1.917 1.252 6 6 0 0 1 1.284 6.527 5.754 5.754 0 0 1-1.284 1.841 6.2 6.2 0 0 1-8.547 0 5.754 5.754 0 0 1-1.284-1.841 5.837 5.837 0 0 1-.477-2.366h.01zm6.025 3.296a2.947 2.947 0 0 0 2.21-.92 3.49 3.49 0 0 0 0-4.696 3.03 3.03 0 0 0-4.42 0 3.49 3.49 0 0 0 0 4.695c.572.605 1.37.94 2.201.92h.01z" fill="#FFF"/>
        <path d="M12.763 4.088a2.173 2.173 0 0 0 0-2.93l-.075-.072A1.899 1.899 0 0 0 11.312.5c-.523 0-1.022.212-1.377.586L.57 11.04a2.155 2.155 0 0 0 0 2.92l9.365 9.954c.355.374.854.586 1.377.586s1.022-.212 1.376-.586l.075-.082c.76-.833.76-2.087 0-2.92L4.85 12.505l7.913-8.417z" fill="#268AFF"/>
        <path d="M3.237 4.088a2.173 2.173 0 0 1 0-2.93l.075-.072A1.899 1.899 0 0 1 4.688.5c.523 0 1.022.212 1.377.586l9.365 9.954c.76.833.76 2.087 0 2.92l-9.365 9.954a1.899 1.899 0 0 1-1.377.586 1.899 1.899 0 0 1-1.376-.586l-.075-.082a2.155 2.155 0 0 1 0-2.92l7.913-8.407-7.913-8.417z" fill="#50E3C2"/>
    </g>
</svg>
