<svg width="24" height="24" viewBox="0 0 24 24" xmlns="http://www.w3.org/2000/svg">
    <g fill="#FFF" fill-rule="nonzero">
        <path d="M11.805 4.32c3.55 0 6.428 2.898 6.428 6.473.032 4.95-6.428 8.527-6.428 8.527s-6.425-3.59-6.43-8.527c0-3.705 2.88-6.473 6.43-6.473zm.04 2.617a3.906 3.906 0 1 0 0 7.813 3.906 3.906 0 0 0 0-7.813z"/>
        <path d="M11.349 9.616c.066-.043.18-.09.391-.09.31 0 .485.074.561.135.04.03.06.058.075.088.014.03.023.066.023.12h.974c0-.185-.038-.37-.119-.54a1.267 1.267 0 0 0-.602-.59 1.746 1.746 0 0 0-.36-.125v-.372h-.975v.355c-.08.017-.158.038-.231.066a1.28 1.28 0 0 0-.85 1.205c-.002.221.053.44.164.618.095.156.225.275.355.36.231.15.467.218.686.278.164.043.321.078.457.116.102.028.192.058.264.089a.473.473 0 0 1 .19.125.196.196 0 0 1 .031.062.425.425 0 0 1 .017.13.33.33 0 0 1-.031.16.178.178 0 0 1-.047.056.526.526 0 0 1-.2.087c-.1.026-.232.04-.381.04-.229 0-.364-.063-.433-.122a.27.27 0 0 1-.099-.22h-.974c0 .183.038.366.114.531.113.25.313.456.556.588.127.07.266.119.413.151v.364h.974v-.371c.134-.03.266-.07.393-.133.192-.093.375-.239.5-.44.128-.2.19-.442.189-.69 0-.23-.05-.451-.153-.638a1.213 1.213 0 0 0-.345-.39c-.232-.168-.476-.249-.7-.313-.17-.047-.33-.083-.472-.12a2.551 2.551 0 0 1-.273-.085.494.494 0 0 1-.19-.11l-.02-.034a.305.305 0 0 1 .127-.342z"/>
    </g>
</svg>
