<svg width="24" height="24" viewBox="0 0 24 24" xmlns="http://www.w3.org/2000/svg">
    <path d="M15.72 10.479h-.46V7.683A3.687 3.687 0 0 0 11.577 4a3.687 3.687 0 0 0-3.683 3.683v2.796h-.46c-.792 0-1.434.642-1.434 1.434v6.653C6 19.358 6.642 20 7.434 20h8.286c.792 0 1.435-.642 1.435-1.434v-6.653c0-.792-.643-1.434-1.435-1.434zM9.183 7.683a2.397 2.397 0 0 1 2.395-2.395 2.397 2.397 0 0 1 2.394 2.395v2.796H9.183V7.683zm3.128 7.484v1.79a.734.734 0 1 1-1.467 0v-1.79a1.303 1.303 0 1 1 1.467 0z" fill="#AAA" fill-rule="nonzero"/>
</svg>
