<svg xmlns="http://www.w3.org/2000/svg" width="160" height="160" viewBox="0 0 160 160">
    <g fill="none" fill-rule="evenodd">
        <circle cx="80" cy="80" r="80" fill="#D1AF94"/>
        <path fill="#FFF" fill-rule="nonzero" d="M80 0C35.84 0 0 35.84 0 80s35.84 80 80 80 80-35.84 80-80S124.16 0 80 0zm0 24c13.28 0 24 10.72 24 24S93.28 72 80 72 56 61.28 56 48s10.72-24 24-24zm0 113.6c-20 0-37.68-10.24-48-25.76.24-15.92 32-24.64 48-24.64 15.92 0 47.76 8.72 48 24.64-10.32 15.52-28 25.76-48 25.76z" opacity=".54"/>
    </g>
</svg>
