<svg width="24" height="24" viewBox="0 0 24 24" xmlns="http://www.w3.org/2000/svg">
    <g fill="none" fill-rule="evenodd">
        <path d="M0 0h24v24H0z"/>
        <path d="M6.995 11.318a4.328 4.328 0 0 1 4.323-4.323 4.328 4.328 0 0 1 4.323 4.323 4.328 4.328 0 0 1-4.323 4.323 4.328 4.328 0 0 1-4.323-4.323m11.713 5.98-2.275-2.276a6.282 6.282 0 0 0 1.203-3.704A6.325 6.325 0 0 0 11.318 5 6.325 6.325 0 0 0 5 11.318a6.325 6.325 0 0 0 6.318 6.318 6.282 6.282 0 0 0 3.704-1.204l2.275 2.276a.994.994 0 0 0 1.41 0 .997.997 0 0 0 0-1.41" stroke="#FFF" stroke-width=".5" fill="#B6B6B6"/>
    </g>
</svg>
