<svg width="40" height="40" viewBox="0 0 40 40" xmlns="http://www.w3.org/2000/svg">
    <g transform="translate(1)" fill="none" fill-rule="evenodd">
        <rect stroke="#B6B6B6" y="3" width="36" height="36" rx="4"/>
        <g fill="#0D0D0D" fill-rule="nonzero">
            <path d="M16.85 17.334a2.723 2.723 0 0 0 1.53-1.836h6.869a.666.666 0 1 0 0-1.333h-6.867a3.086 3.086 0 0 0-.16-.467 2.747 2.747 0 0 0-5.166.467h-2.474a.667.667 0 1 0 0 1.333h2.47c.214.876.849 1.59 1.693 1.906.683.26 1.44.235 2.104-.07zm-1.634-1.176a1.417 1.417 0 1 1 1.083-.037c-.34.16-.73.175-1.083.043v-.006zM16.85 29.668a2.724 2.724 0 0 0 1.53-1.837h6.869a.666.666 0 1 0 0-1.333h-6.867a3.095 3.095 0 0 0-.16-.467 2.746 2.746 0 0 0-5.166.467h-2.474a.667.667 0 1 0 0 1.333h2.47c.214.877.849 1.59 1.693 1.907.683.26 1.44.234 2.104-.07zm-1.634-1.177a1.416 1.416 0 1 1 .998-2.65 1.416 1.416 0 0 1-.998 2.65zM22.582 21.968c.037-.1.067-.2.094-.304h2.573a.667.667 0 1 0 0-1.333h-2.583a2.755 2.755 0 0 0-3.8-1.836 2.733 2.733 0 0 0-1.533 1.836h-6.75a.667.667 0 0 0 0 1.334h6.753a2.746 2.746 0 0 0 5.246.303zm-3.083.366a1.417 1.417 0 1 1 1.827-.826 1.408 1.408 0 0 1-.743.78c-.34.16-.731.177-1.084.046z"/>
        </g>
        <rect stroke="#F6F6F6" fill="#0D0D0D" x="31.5" y=".5" width="7" height="7" rx="3.5"/>
    </g>
</svg>
