<svg width="32" height="32" viewBox="0 0 32 32" fill="none" xmlns="http://www.w3.org/2000/svg">
<g clip-path="url(#clip0_11570_29711)">
<path opacity="0.2" d="M22 12.0901V15.5001C22 17.7501 18.345 19.6063 13.5663 19.9451C15.305 20.6038 17.55 21.0001 20 21.0001C25.5225 21.0001 30 18.9851 30 16.5001C30 14.3226 26.565 12.5076 22 12.0901Z" fill="black"/>
<path opacity="0.2" d="M12 15C17.5228 15 22 12.9853 22 10.5C22 8.01472 17.5228 6 12 6C6.47715 6 2 8.01472 2 10.5C2 12.9853 6.47715 15 12 15Z" fill="black"/>
<path d="M12 15C17.5228 15 22 12.9853 22 10.5C22 8.01472 17.5228 6 12 6C6.47715 6 2 8.01472 2 10.5C2 12.9853 6.47715 15 12 15Z" stroke="black" stroke-width="2" stroke-linecap="round" stroke-linejoin="round"/>
<path d="M2 10.5V15.5C2 17.985 6.4775 20 12 20C17.5225 20 22 17.985 22 15.5V10.5" stroke="black" stroke-width="2" stroke-linecap="round" stroke-linejoin="round"/>
<path d="M8 14.625V19.625" stroke="black" stroke-width="2" stroke-linecap="round" stroke-linejoin="round"/>
<path d="M22 12.0901C26.565 12.5076 30 14.3226 30 16.5001C30 18.9851 25.5225 21.0001 20 21.0001C17.55 21.0001 15.305 20.6038 13.5663 19.9451" stroke="black" stroke-width="2" stroke-linecap="round" stroke-linejoin="round"/>
<path d="M10 19.91V21.5C10 23.985 14.4775 26 20 26C25.5225 26 30 23.985 30 21.5V16.5" stroke="black" stroke-width="2" stroke-linecap="round" stroke-linejoin="round"/>
<path d="M24 20.625V25.625" stroke="black" stroke-width="2" stroke-linecap="round" stroke-linejoin="round"/>
<path d="M16 14.625V25.625" stroke="black" stroke-width="2" stroke-linecap="round" stroke-linejoin="round"/>
</g>
<defs>
<clipPath id="clip0_11570_29711">
<rect width="32" height="32" fill="white"/>
</clipPath>
</defs>
</svg>
