<svg width="20" height="20" viewBox="0 0 20 20" fill="none" xmlns="http://www.w3.org/2000/svg">
<g clip-path="url(#clip0_11871_2407)">
<path d="M18.057 5.30625C17.9834 5.01824 17.8424 4.75186 17.6455 4.52909C17.4487 4.30632 17.2017 4.13354 16.925 4.025C14.2469 2.99063 9.98438 3 9.75 3C9.51562 3 5.25312 2.99063 2.575 4.025C2.29825 4.13354 2.05128 4.30632 1.85445 4.52909C1.65762 4.75186 1.51658 5.01824 1.44297 5.30625C1.24063 6.08594 1 7.51094 1 9.875C1 12.2391 1.24063 13.6641 1.44297 14.4438C1.51647 14.7319 1.65746 14.9984 1.8543 15.2214C2.05113 15.4443 2.29816 15.6172 2.575 15.7258C5.14062 16.7156 9.15625 16.75 9.69844 16.75H9.80156C10.3438 16.75 14.3617 16.7156 16.925 15.7258C17.2018 15.6172 17.4489 15.4443 17.6457 15.2214C17.8425 14.9984 17.9835 14.7319 18.057 14.4438C18.2594 13.6625 18.5 12.2391 18.5 9.875C18.5 7.51094 18.2594 6.08594 18.057 5.30625ZM12.2961 10.3844L9.17109 12.5719C9.07761 12.6374 8.96799 12.676 8.8541 12.6836C8.74022 12.6912 8.62643 12.6675 8.52508 12.615C8.42373 12.5625 8.33868 12.4833 8.27917 12.3859C8.21966 12.2885 8.18796 12.1766 8.1875 12.0625V7.6875C8.18753 7.57317 8.21893 7.46103 8.27827 7.3633C8.3376 7.26557 8.42261 7.18599 8.52404 7.13323C8.62547 7.08046 8.73943 7.05652 8.85352 7.06403C8.96761 7.07153 9.07745 7.11018 9.17109 7.17578L12.2961 9.36328C12.3783 9.42093 12.4454 9.49753 12.4917 9.5866C12.5381 9.67568 12.5623 9.7746 12.5623 9.875C12.5622 9.9754 12.5381 10.0743 12.4917 10.1634C12.4454 10.2525 12.3783 10.3291 12.2961 10.3867V10.3844Z" fill="black" fill-opacity="0.5"/>
</g>
<defs>
<clipPath id="clip0_11871_2407">
<rect width="20" height="20" fill="white"/>
</clipPath>
</defs>
</svg>
