<svg width="32" height="32" viewBox="0 0 32 32" fill="none" xmlns="http://www.w3.org/2000/svg">
<path d="M31 16L27.4286 12.4L16.119 1L12.5476 4.6L1 16L5.64286 20.68L15.881 31L20.5238 26.32L31 16ZM13.7381 19.36L19.4524 13.6L21.7143 15.88L16 21.64L13.7381 19.36ZM12.6667 18.28L10.4048 16L16.119 10.24L18.381 12.52L12.6667 18.28ZM19.5714 25.24L17.0714 22.72L26.3571 13.36L28.8571 15.88L19.5714 25.24ZM16 3.04L25.1667 12.28L22.6667 14.8L13.5 5.56L16 3.04ZM12.4286 6.64L14.9286 9.16L9.21429 14.92L5.64286 18.52L3.14286 16L12.4286 6.64ZM16 28.96L6.71429 19.6L9.21429 17.08L18.5 26.44L16 28.96Z" fill="black" stroke="black" stroke-width="0.5"/>
</svg>
