<svg width="20" height="20" viewBox="0 0 20 20" fill="none" xmlns="http://www.w3.org/2000/svg">
<g clip-path="url(#clip0_11871_2413)">
<path d="M16.75 3H4.25C3.91848 3 3.60054 3.1317 3.36612 3.36612C3.1317 3.60054 3 3.91848 3 4.25V15.5C3 15.8315 3.1317 16.1495 3.36612 16.3839C3.60054 16.6183 3.91848 16.75 4.25 16.75H5.5V19.25C5.49996 19.3688 5.53377 19.4851 5.59748 19.5854C5.66119 19.6857 5.75216 19.7657 5.85973 19.8161C5.9673 19.8666 6.08701 19.8853 6.20483 19.8701C6.32266 19.8549 6.43372 19.8065 6.525 19.7305L10.1016 16.75H13.3984C13.6911 16.7501 13.9744 16.6475 14.1992 16.4602L17.55 13.6672C17.6911 13.5502 17.8046 13.4034 17.8824 13.2374C17.9602 13.0715 18.0003 12.8903 18 12.707V4.25C18 3.91848 17.8683 3.60054 17.6339 3.36612C17.3995 3.1317 17.0815 3 16.75 3ZM10.5 11.125C10.5 11.2908 10.4342 11.4497 10.3169 11.5669C10.1997 11.6842 10.0408 11.75 9.875 11.75C9.70924 11.75 9.55027 11.6842 9.43306 11.5669C9.31585 11.4497 9.25 11.2908 9.25 11.125V7.375C9.25 7.20924 9.31585 7.05027 9.43306 6.93306C9.55027 6.81585 9.70924 6.75 9.875 6.75C10.0408 6.75 10.1997 6.81585 10.3169 6.93306C10.4342 7.05027 10.5 7.20924 10.5 7.375V11.125ZM14.25 11.125C14.25 11.2908 14.1842 11.4497 14.0669 11.5669C13.9497 11.6842 13.7908 11.75 13.625 11.75C13.4592 11.75 13.3003 11.6842 13.1831 11.5669C13.0658 11.4497 13 11.2908 13 11.125V7.375C13 7.20924 13.0658 7.05027 13.1831 6.93306C13.3003 6.81585 13.4592 6.75 13.625 6.75C13.7908 6.75 13.9497 6.81585 14.0669 6.93306C14.1842 7.05027 14.25 7.20924 14.25 7.375V11.125Z" fill="black" fill-opacity="0.5"/>
</g>
<defs>
<clipPath id="clip0_11871_2413">
<rect width="20" height="20" fill="white"/>
</clipPath>
</defs>
</svg>
