<svg width="20" height="20" viewBox="0 0 20 20" fill="none" xmlns="http://www.w3.org/2000/svg">
<g clip-path="url(#clip0_11871_2404)">
<path d="M17 2H3.25C2.91848 2 2.60054 2.1317 2.36612 2.36612C2.1317 2.60054 2 2.91848 2 3.25V17C2 17.3315 2.1317 17.6495 2.36612 17.8839C2.60054 18.1183 2.91848 18.25 3.25 18.25H17C17.3315 18.25 17.6495 18.1183 17.8839 17.8839C18.1183 17.6495 18.25 17.3315 18.25 17V3.25C18.25 2.91848 18.1183 2.60054 17.8839 2.36612C17.6495 2.1317 17.3315 2 17 2ZM7.625 13.875C7.625 14.0408 7.55915 14.1997 7.44194 14.3169C7.32473 14.4342 7.16576 14.5 7 14.5C6.83424 14.5 6.67527 14.4342 6.55806 14.3169C6.44085 14.1997 6.375 14.0408 6.375 13.875V8.875C6.375 8.70924 6.44085 8.55027 6.55806 8.43306C6.67527 8.31585 6.83424 8.25 7 8.25C7.16576 8.25 7.32473 8.31585 7.44194 8.43306C7.55915 8.55027 7.625 8.70924 7.625 8.875V13.875ZM7 7.625C6.81458 7.625 6.63332 7.57002 6.47915 7.467C6.32498 7.36399 6.20482 7.21757 6.13386 7.04627C6.06291 6.87496 6.04434 6.68646 6.08051 6.5046C6.11669 6.32275 6.20598 6.1557 6.33709 6.02459C6.4682 5.89348 6.63525 5.80419 6.8171 5.76801C6.99896 5.73184 7.18746 5.75041 7.35877 5.82136C7.53007 5.89232 7.67649 6.01248 7.7795 6.16665C7.88252 6.32082 7.9375 6.50208 7.9375 6.6875C7.9375 6.93614 7.83873 7.1746 7.66291 7.35041C7.4871 7.52623 7.24864 7.625 7 7.625ZM14.5 13.875C14.5 14.0408 14.4342 14.1997 14.3169 14.3169C14.1997 14.4342 14.0408 14.5 13.875 14.5C13.7092 14.5 13.5503 14.4342 13.4331 14.3169C13.3158 14.1997 13.25 14.0408 13.25 13.875V11.0625C13.25 10.6481 13.0854 10.2507 12.7924 9.95765C12.4993 9.66462 12.1019 9.5 11.6875 9.5C11.2731 9.5 10.8757 9.66462 10.5826 9.95765C10.2896 10.2507 10.125 10.6481 10.125 11.0625V13.875C10.125 14.0408 10.0592 14.1997 9.94194 14.3169C9.82473 14.4342 9.66576 14.5 9.5 14.5C9.33424 14.5 9.17527 14.4342 9.05806 14.3169C8.94085 14.1997 8.875 14.0408 8.875 13.875V8.875C8.87578 8.72191 8.93271 8.57443 9.03501 8.46053C9.13731 8.34664 9.27785 8.27425 9.42998 8.2571C9.58211 8.23995 9.73524 8.27923 9.86033 8.3675C9.98541 8.45576 10.0738 8.58686 10.1086 8.73594C10.5314 8.44912 11.0243 8.28289 11.5345 8.25509C12.0446 8.2273 12.5527 8.33899 13.0042 8.57817C13.4556 8.81736 13.8334 9.175 14.097 9.61269C14.3605 10.0504 14.4998 10.5516 14.5 11.0625V13.875Z" fill="black" fill-opacity="0.5"/>
</g>
<defs>
<clipPath id="clip0_11871_2404">
<rect width="20" height="20" fill="white"/>
</clipPath>
</defs>
</svg>
