<svg width="20" height="20" viewBox="0 0 20 20" fill="none" xmlns="http://www.w3.org/2000/svg">
<g clip-path="url(#clip0_11871_2410)">
<path d="M12.625 10.125C12.625 10.6195 12.4784 11.1028 12.2037 11.5139C11.929 11.925 11.5385 12.2455 11.0817 12.4347C10.6249 12.6239 10.1222 12.6734 9.63727 12.577C9.15232 12.4805 8.70686 12.2424 8.35723 11.8928C8.0076 11.5431 7.7695 11.0977 7.67304 10.6127C7.57657 10.1278 7.62608 9.62511 7.8153 9.16829C8.00452 8.71148 8.32495 8.32103 8.73607 8.04633C9.1472 7.77162 9.63055 7.625 10.125 7.625C10.788 7.625 11.4239 7.88839 11.8928 8.35723C12.3616 8.82607 12.625 9.46196 12.625 10.125ZM18.25 6.375V13.875C18.2488 15.0349 17.7874 16.147 16.9672 16.9672C16.147 17.7874 15.0349 18.2488 13.875 18.25H6.375C5.21506 18.2488 4.10298 17.7874 3.28278 16.9672C2.46258 16.147 2.00124 15.0349 2 13.875V6.375C2.00124 5.21506 2.46258 4.10298 3.28278 3.28278C4.10298 2.46258 5.21506 2.00124 6.375 2H13.875C15.0349 2.00124 16.147 2.46258 16.9672 3.28278C17.7874 4.10298 18.2488 5.21506 18.25 6.375ZM13.875 10.125C13.875 9.38332 13.6551 8.6583 13.243 8.04161C12.831 7.42493 12.2453 6.94428 11.5601 6.66045C10.8748 6.37662 10.1208 6.30236 9.39341 6.44706C8.66598 6.59175 7.9978 6.9489 7.47335 7.47335C6.9489 7.9978 6.59175 8.66598 6.44706 9.39341C6.30236 10.1208 6.37662 10.8748 6.66045 11.5601C6.94428 12.2453 7.42493 12.831 8.04161 13.243C8.6583 13.6551 9.38332 13.875 10.125 13.875C11.1192 13.874 12.0725 13.4785 12.7755 12.7755C13.4785 12.0725 13.874 11.1192 13.875 10.125ZM15.75 5.4375C15.75 5.25208 15.695 5.07082 15.592 4.91665C15.489 4.76248 15.3426 4.64232 15.1713 4.57136C15 4.50041 14.8115 4.48184 14.6296 4.51801C14.4477 4.55419 14.2807 4.64348 14.1496 4.77459C14.0185 4.9057 13.9292 5.07275 13.893 5.2546C13.8568 5.43646 13.8754 5.62496 13.9464 5.79627C14.0173 5.96757 14.1375 6.11399 14.2917 6.217C14.4458 6.32002 14.6271 6.375 14.8125 6.375C15.0611 6.375 15.2996 6.27623 15.4754 6.10041C15.6512 5.9246 15.75 5.68614 15.75 5.4375Z" fill="black" fill-opacity="0.5"/>
</g>
<defs>
<clipPath id="clip0_11871_2410">
<rect width="20" height="20" fill="white"/>
</clipPath>
</defs>
</svg>
