<svg width="23" height="20" viewBox="0 0 23 20" fill="none" xmlns="http://www.w3.org/2000/svg">
<g clip-path="url(#clip0_4881_8019)">
<path d="M10.68 7.76H1C1 11.9 4.49 15.5 8.68 15.23C12.51 14.98 15.4 11.63 15.4 7.79V4.5C15.4 2.57 16.97 1 18.9 1H21.02V1.11C21.02 2.7 19.96 3.99 18.37 3.99H15.43" stroke="#19191A" stroke-width="2" stroke-miterlimit="10"/>
<path d="M15.4296 3.99H12.6196C11.0296 3.99 9.80957 2.7 9.80957 1.11V1H11.9296C13.8596 1 15.4296 2.57 15.4296 4.5" stroke="#19191A" stroke-width="2" stroke-miterlimit="10"/>
<path d="M11.2403 11.2998V15.0998C11.2403 16.9498 9.74027 18.4398 7.90027 18.4398V11.4698C7.90027 11.3798 7.82027 11.3198 7.74027 11.3498C7.24027 11.5098 5.69027 11.8898 5.03027 10.8398" fill="white"/>
<path d="M11.2403 11.2998V15.0998C11.2403 16.9498 9.74027 18.4398 7.90027 18.4398V11.4698C7.90027 11.3798 7.82027 11.3198 7.74027 11.3498C7.24027 11.5098 5.69027 11.8898 5.03027 10.8398" stroke="#19191A" stroke-width="2" stroke-miterlimit="10"/>
</g>
<defs>
<clipPath id="clip0_4881_8019">
<rect width="22.02" height="19.45" fill="white"/>
</clipPath>
</defs>
</svg>
