<svg width="57" height="20" viewBox="0 0 57 20" fill="none" xmlns="http://www.w3.org/2000/svg">
<path d="M10.7102 3.86364V15.5H8.83523L3.35227 7.57386H3.25568V15.5H1.14773V3.86364H3.03409L8.51136 11.7955H8.61364V3.86364H10.7102ZM16.7798 15.6705C15.9048 15.6705 15.1491 15.4886 14.5128 15.125C13.8802 14.7576 13.3935 14.2386 13.0526 13.5682C12.7116 12.8939 12.5412 12.1004 12.5412 11.1875C12.5412 10.2898 12.7116 9.50189 13.0526 8.82386C13.3973 8.14205 13.8783 7.61174 14.4957 7.23295C15.1132 6.85038 15.8385 6.65909 16.6719 6.65909C17.2098 6.65909 17.7173 6.74621 18.1946 6.92045C18.6757 7.09091 19.0999 7.35606 19.4673 7.71591C19.8385 8.07576 20.1302 8.53409 20.3423 9.09091C20.5545 9.64394 20.6605 10.303 20.6605 11.0682V11.6989H13.5071V10.3125H18.6889C18.6851 9.91856 18.5999 9.56818 18.4332 9.26136C18.2666 8.95076 18.0336 8.70644 17.7344 8.52841C17.4389 8.35038 17.0942 8.26136 16.7003 8.26136C16.2798 8.26136 15.9105 8.36364 15.5923 8.56818C15.2741 8.76894 15.026 9.03409 14.848 9.36364C14.6738 9.68939 14.5848 10.0473 14.581 10.4375V11.6477C14.581 12.1553 14.6738 12.5909 14.8594 12.9545C15.045 13.3144 15.3045 13.5909 15.6378 13.7841C15.9711 13.9735 16.3613 14.0682 16.8082 14.0682C17.1075 14.0682 17.3783 14.0265 17.6207 13.9432C17.8632 13.8561 18.0734 13.7292 18.2514 13.5625C18.4295 13.3958 18.5639 13.1894 18.6548 12.9432L20.5753 13.1591C20.4541 13.6667 20.223 14.1098 19.8821 14.4886C19.545 14.8636 19.1132 15.1553 18.5866 15.3636C18.0601 15.5682 17.4579 15.6705 16.7798 15.6705ZM23.8949 6.77273L25.6562 9.99432L27.446 6.77273H29.6222L26.9915 11.1364L29.6676 15.5H27.5028L25.6562 12.358L23.8267 15.5H21.6449L24.304 11.1364L21.7131 6.77273H23.8949ZM35.571 6.77273V8.36364H30.554V6.77273H35.571ZM31.7926 4.68182H33.8494V12.875C33.8494 13.1515 33.8911 13.3636 33.9744 13.5114C34.0616 13.6553 34.1752 13.7538 34.3153 13.8068C34.4555 13.8598 34.6108 13.8864 34.7812 13.8864C34.91 13.8864 35.0275 13.8769 35.1335 13.858C35.2434 13.839 35.3267 13.822 35.3835 13.8068L35.7301 15.4148C35.6203 15.4527 35.4631 15.4943 35.2585 15.5398C35.0578 15.5852 34.8116 15.6117 34.5199 15.6193C34.0047 15.6345 33.5407 15.5568 33.1278 15.3864C32.715 15.2121 32.3873 14.9432 32.1449 14.5795C31.9063 14.2159 31.7888 13.7614 31.7926 13.2159V4.68182Z" fill="#19191A"/>
<path d="M44.5 15L49.5 10L44.5 5" stroke="#19191A" stroke-width="2" stroke-linecap="round" stroke-linejoin="round"/>
</svg>
