<svg width="88" height="20" viewBox="0 0 88 20" fill="none" xmlns="http://www.w3.org/2000/svg">
<path d="M12.5 15L7.5 10L12.5 5" stroke="#19191A" stroke-width="2" stroke-linecap="round" stroke-linejoin="round"/>
<path d="M21.1477 15.5V3.86364H25.5114C26.4053 3.86364 27.1553 4.0303 27.7614 4.36364C28.3712 4.69697 28.8314 5.1553 29.142 5.73864C29.4564 6.31818 29.6136 6.97727 29.6136 7.71591C29.6136 8.46212 29.4564 9.125 29.142 9.70455C28.8277 10.2841 28.3636 10.7405 27.75 11.0739C27.1364 11.4034 26.3807 11.5682 25.483 11.5682H22.5909V9.83523H25.1989C25.7216 9.83523 26.1496 9.74432 26.483 9.5625C26.8163 9.38068 27.0625 9.13068 27.2216 8.8125C27.3845 8.49432 27.4659 8.12879 27.4659 7.71591C27.4659 7.30303 27.3845 6.93939 27.2216 6.625C27.0625 6.31061 26.8144 6.06629 26.4773 5.89205C26.1439 5.71402 25.714 5.625 25.1875 5.625H23.2557V15.5H21.1477ZM31.3537 15.5V6.77273H33.348V8.22727H33.4389C33.598 7.72348 33.8707 7.33523 34.2571 7.0625C34.6473 6.78598 35.0923 6.64773 35.5923 6.64773C35.706 6.64773 35.8329 6.65341 35.973 6.66477C36.117 6.67235 36.2363 6.68561 36.331 6.70455V8.59659C36.2438 8.56629 36.1056 8.53977 35.9162 8.51705C35.7306 8.49053 35.5507 8.47727 35.3764 8.47727C35.0014 8.47727 34.6643 8.55871 34.3651 8.72159C34.0696 8.88068 33.8366 9.10227 33.6662 9.38636C33.4957 9.67045 33.4105 9.99811 33.4105 10.3693V15.5H31.3537ZM41.2017 15.6705C40.3267 15.6705 39.571 15.4886 38.9347 15.125C38.3021 14.7576 37.8153 14.2386 37.4744 13.5682C37.1335 12.8939 36.9631 12.1004 36.9631 11.1875C36.9631 10.2898 37.1335 9.50189 37.4744 8.82386C37.8191 8.14205 38.3002 7.61174 38.9176 7.23295C39.535 6.85038 40.2604 6.65909 41.0938 6.65909C41.6316 6.65909 42.1392 6.74621 42.6165 6.92045C43.0975 7.09091 43.5218 7.35606 43.8892 7.71591C44.2604 8.07576 44.5521 8.53409 44.7642 9.09091C44.9763 9.64394 45.0824 10.303 45.0824 11.0682V11.6989H37.929V10.3125H43.1108C43.107 9.91856 43.0218 9.56818 42.8551 9.26136C42.6884 8.95076 42.4555 8.70644 42.1562 8.52841C41.8608 8.35038 41.5161 8.26136 41.1222 8.26136C40.7017 8.26136 40.3324 8.36364 40.0142 8.56818C39.696 8.76894 39.4479 9.03409 39.2699 9.36364C39.0956 9.68939 39.0066 10.0473 39.0028 10.4375V11.6477C39.0028 12.1553 39.0956 12.5909 39.2812 12.9545C39.4669 13.3144 39.7263 13.5909 40.0597 13.7841C40.393 13.9735 40.7831 14.0682 41.2301 14.0682C41.5294 14.0682 41.8002 14.0265 42.0426 13.9432C42.285 13.8561 42.4953 13.7292 42.6733 13.5625C42.8513 13.3958 42.9858 13.1894 43.0767 12.9432L44.9972 13.1591C44.8759 13.6667 44.6449 14.1098 44.304 14.4886C43.9669 14.8636 43.535 15.1553 43.0085 15.3636C42.482 15.5682 41.8797 15.6705 41.2017 15.6705ZM54.3679 6.77273L51.2599 15.5H48.9872L45.8793 6.77273H48.0724L50.0781 13.2557H50.169L52.1804 6.77273H54.3679ZM55.7912 15.5V6.77273H57.848V15.5H55.7912ZM56.8253 5.53409C56.4995 5.53409 56.2192 5.42614 55.9844 5.21023C55.7495 4.99053 55.6321 4.72727 55.6321 4.42045C55.6321 4.10985 55.7495 3.84659 55.9844 3.63068C56.2192 3.41098 56.4995 3.30114 56.8253 3.30114C57.1548 3.30114 57.4351 3.41098 57.6662 3.63068C57.901 3.84659 58.0185 4.10985 58.0185 4.42045C58.0185 4.72727 57.901 4.99053 57.6662 5.21023C57.4351 5.42614 57.1548 5.53409 56.8253 5.53409ZM63.7699 15.6705C62.9176 15.6705 62.179 15.483 61.554 15.108C60.929 14.733 60.4441 14.2083 60.0994 13.5341C59.7585 12.8598 59.5881 12.072 59.5881 11.1705C59.5881 10.2689 59.7585 9.47917 60.0994 8.80114C60.4441 8.12311 60.929 7.59659 61.554 7.22159C62.179 6.84659 62.9176 6.65909 63.7699 6.65909C64.6222 6.65909 65.3608 6.84659 65.9858 7.22159C66.6108 7.59659 67.0938 8.12311 67.4347 8.80114C67.7794 9.47917 67.9517 10.2689 67.9517 11.1705C67.9517 12.072 67.7794 12.8598 67.4347 13.5341C67.0938 14.2083 66.6108 14.733 65.9858 15.108C65.3608 15.483 64.6222 15.6705 63.7699 15.6705ZM63.7812 14.0227C64.2434 14.0227 64.6297 13.8958 64.9403 13.642C65.2509 13.3845 65.482 13.0398 65.6335 12.608C65.7888 12.1761 65.8665 11.6951 65.8665 11.1648C65.8665 10.6307 65.7888 10.1477 65.6335 9.71591C65.482 9.2803 65.2509 8.93371 64.9403 8.67614C64.6297 8.41856 64.2434 8.28977 63.7812 8.28977C63.3078 8.28977 62.9138 8.41856 62.5994 8.67614C62.2888 8.93371 62.0559 9.2803 61.9006 9.71591C61.7491 10.1477 61.6733 10.6307 61.6733 11.1648C61.6733 11.6951 61.7491 12.1761 61.9006 12.608C62.0559 13.0398 62.2888 13.3845 62.5994 13.642C62.9138 13.8958 63.3078 14.0227 63.7812 14.0227ZM75.2599 11.8295V6.77273H77.3168V15.5H75.3224V13.9489H75.2315C75.0346 14.4375 74.7107 14.8371 74.2599 15.1477C73.813 15.4583 73.2618 15.6136 72.6065 15.6136C72.0346 15.6136 71.5289 15.4867 71.0895 15.233C70.6539 14.9754 70.313 14.6023 70.0668 14.1136C69.8205 13.6212 69.6974 13.0265 69.6974 12.3295V6.77273H71.7543V12.0114C71.7543 12.5644 71.9058 13.0038 72.2088 13.3295C72.5118 13.6553 72.9096 13.8182 73.402 13.8182C73.705 13.8182 73.9986 13.7443 74.2827 13.5966C74.5668 13.4489 74.7997 13.2292 74.9815 12.9375C75.1671 12.642 75.2599 12.2727 75.2599 11.8295ZM86.3295 9.07955L84.4545 9.28409C84.4015 9.0947 84.3087 8.91667 84.1761 8.75C84.0473 8.58333 83.8731 8.44886 83.6534 8.34659C83.4337 8.24432 83.1648 8.19318 82.8466 8.19318C82.4186 8.19318 82.0587 8.28598 81.767 8.47159C81.4792 8.6572 81.3371 8.89773 81.3409 9.19318C81.3371 9.44697 81.4299 9.65341 81.6193 9.8125C81.8125 9.97159 82.1307 10.1023 82.5739 10.2045L84.0625 10.5227C84.8883 10.7008 85.5019 10.983 85.9034 11.3693C86.3087 11.7557 86.5133 12.2614 86.517 12.8864C86.5133 13.4356 86.3523 13.9205 86.0341 14.3409C85.7197 14.7576 85.2822 15.0833 84.7216 15.3182C84.161 15.553 83.517 15.6705 82.7898 15.6705C81.7216 15.6705 80.8617 15.447 80.2102 15C79.5587 14.5492 79.1705 13.9223 79.0455 13.1193L81.0511 12.9261C81.142 13.3201 81.3352 13.6174 81.6307 13.8182C81.9261 14.0189 82.3106 14.1193 82.7841 14.1193C83.2727 14.1193 83.6648 14.0189 83.9602 13.8182C84.2595 13.6174 84.4091 13.3693 84.4091 13.0739C84.4091 12.8239 84.3125 12.6174 84.1193 12.4545C83.9299 12.2917 83.6345 12.1667 83.233 12.0795L81.7443 11.767C80.9072 11.5928 80.2879 11.2992 79.8864 10.8864C79.4848 10.4697 79.286 9.94318 79.2898 9.30682C79.286 8.76894 79.4318 8.30303 79.7273 7.90909C80.0265 7.51136 80.4413 7.20455 80.9716 6.98864C81.5057 6.76894 82.1212 6.65909 82.8182 6.65909C83.8409 6.65909 84.6458 6.87689 85.233 7.3125C85.8239 7.74811 86.1894 8.33712 86.3295 9.07955Z" fill="#19191A"/>
</svg>
