<svg xmlns="http://www.w3.org/2000/svg" width="30" height="30" viewBox="0 0 30 30">
    <path fill="#D9534F" fill-rule="evenodd" d="M9.163 1.183A14.701 14.701 0 0 1 15 0c2.045 0 3.991.394 5.837 1.183 1.846.788 3.44 1.854 4.782 3.198 1.344 1.343 2.41 2.937 3.199 4.783A14.716 14.716 0 0 1 30 15c0 2.046-.394 3.991-1.182 5.837-.789 1.846-1.855 3.44-3.199 4.783-1.343 1.344-2.936 2.41-4.782 3.198A14.69 14.69 0 0 1 15 30.001c-2.046 0-3.991-.394-5.837-1.183-1.846-.789-3.44-1.854-4.783-3.198-1.343-1.343-2.41-2.937-3.198-4.783A14.7 14.7 0 0 1 0 15a14.7 14.7 0 0 1 1.182-5.836c.789-1.846 1.855-3.44 3.198-4.783 1.343-1.344 2.937-2.41 4.783-3.198 0 0-1.846.788 0 0zm7.32 15.143l1-7.85c.045-.348 0-.646-.139-.898-.138-.25-.327-.377-.569-.377h-3.568c-.23 0-.414.127-.552.377-.138.252-.184.55-.138.897l1 7.851c.046.347.17.646.371.897.2.252.416.377.647.377h.93c.23 0 .446-.125.647-.377.201-.251.324-.55.37-.897 0 0-.046.347 0 0zm-3.15 6.474h3.333v-2.6h-3.333v2.6z"/>
</svg>
