<svg width="16" height="16" viewBox="0 0 16 16" fill="none" xmlns="http://www.w3.org/2000/svg">
<g clip-path="url(#clip0_5774_19991)">
<path d="M16 7.98474L14.0654 6.05011L14.067 6.04848L8.0177 0L6.09121 1.92649L6.08877 1.92405L0 8.01282L2.49419 10.507L2.49582 10.5054L7.99003 15.9996L10.4842 13.5054L10.4822 13.5034L16.0004 7.98474H16ZM8.52232 11.4682H7.31124L9.34842 13.5054L7.98962 14.8642L3.0631 9.93809L4.4219 8.57929L5.46939 9.62678V8.49139L4.9896 8.0116L5.46939 7.53181V6.39642L4.4219 7.4439L4.41702 7.43902L2.4893 9.36674L1.13539 8.01282L6.08877 3.05944L7.44757 4.41824L7.33403 4.53178H8.36808C8.48569 4.53178 8.59923 4.53666 8.70951 4.54521L6.6589 2.4946L8.0177 1.13579L12.9312 6.04929L11.5724 7.40809L10.8741 6.70977C10.8611 6.9926 10.7935 7.25182 10.6718 7.48134C10.6531 7.51634 10.6332 7.55052 10.6128 7.58389L11.0133 7.98433L10.8053 8.19228C10.8163 8.20978 10.8277 8.22647 10.8383 8.24397C10.9762 8.4804 11.0596 8.74899 11.0881 9.04484L13.5058 6.62716L14.8646 7.98596L9.93362 12.917L8.57481 11.5582L8.66678 11.4662C8.61877 11.4678 8.57115 11.4694 8.52191 11.4694L8.52232 11.4682Z" fill="white"/>
<path d="M10.2646 10.0894C10.4143 9.85219 10.4892 9.58198 10.4892 9.2788C10.4892 8.99801 10.4298 8.75547 10.3106 8.55159C10.1913 8.34771 10.0367 8.1894 9.84582 8.07586C9.65496 7.96233 9.45108 7.90088 9.23336 7.89152V7.83576C9.43236 7.791 9.60979 7.71531 9.76484 7.60828C9.92029 7.50125 10.0424 7.3637 10.1319 7.19523C10.221 7.02675 10.2658 6.83101 10.2658 6.60759C10.2658 6.3211 10.195 6.06757 10.0538 5.84701C9.91215 5.62644 9.70094 5.45389 9.42015 5.32937C9.13936 5.20484 8.78857 5.14258 8.36778 5.14258H6.0791V10.8586H8.5212C8.94931 10.8586 9.30905 10.7898 9.60124 10.6518C9.89343 10.5143 10.1144 10.3267 10.2642 10.0894H10.2646ZM7.28774 6.11925H8.20581C8.47359 6.11925 8.68072 6.18233 8.82682 6.30889C8.97291 6.43545 9.04576 6.6019 9.04576 6.80863C9.04576 6.9592 9.00791 7.08861 8.93263 7.19645C8.85734 7.30429 8.75479 7.38771 8.62579 7.44631C8.49638 7.50492 8.34906 7.53422 8.18343 7.53422H7.28733V6.11925H7.28774ZM9.00995 9.67639C8.85531 9.8058 8.60992 9.87051 8.27296 9.87051H7.28774V8.35218H8.30104C8.49475 8.35218 8.6616 8.38677 8.80199 8.45555C8.94239 8.52432 9.05105 8.61914 9.12715 8.74041C9.20325 8.86128 9.2415 9.00086 9.2415 9.15916C9.2415 9.37484 9.16418 9.54739 9.00995 9.6768V9.67639Z" fill="white"/>
</g>
<defs>
<clipPath id="clip0_5774_19991">
<rect width="16" height="15.9996" fill="white"/>
</clipPath>
</defs>
</svg>
