<svg width="19" height="16" viewBox="0 0 19 16" fill="none" xmlns="http://www.w3.org/2000/svg">
<g clip-path="url(#clip0_11602_37740)">
<path d="M5.68186 8.42929L12.0924 13.3749C12.1662 13.4322 12.2557 13.4717 12.3521 13.4894C12.4485 13.5071 12.5485 13.5025 12.6422 13.476C12.736 13.4494 12.8203 13.4019 12.8869 13.3381C12.9535 13.2742 13 13.1963 13.0221 13.1118L15.9091 2.07617C15.912 2.0651 15.9113 2.05357 15.9072 2.04281C15.9032 2.03204 15.8959 2.02246 15.8861 2.01507C15.8763 2.00769 15.8644 2.00278 15.8517 2.00088C15.839 1.99898 15.826 2.00016 15.814 2.00429L1.4205 6.96117C1.33114 6.99143 1.25536 7.04638 1.20451 7.11778C1.15367 7.18917 1.13051 7.27315 1.13851 7.35711C1.14652 7.44107 1.18525 7.52048 1.2489 7.58342C1.31255 7.64635 1.39769 7.68943 1.49152 7.70617L5.68186 8.42929Z" stroke="black" stroke-width="1.5" stroke-linecap="round" stroke-linejoin="round"/>
<path d="M5.68188 8.42937L15.8673 2.00562" stroke="black" stroke-width="1.5" stroke-linecap="round" stroke-linejoin="round"/>
<path d="M8.83316 10.8613L6.65916 12.8463C6.5806 12.918 6.4795 12.9675 6.3688 12.9883C6.2581 13.0091 6.14286 13.0004 6.03786 12.9632C5.93286 12.9259 5.84287 12.862 5.77945 12.7795C5.71602 12.697 5.68205 12.5997 5.68188 12.5001V8.42944" stroke="black" stroke-width="1.5" stroke-linecap="round" stroke-linejoin="round"/>
</g>
<defs>
<clipPath id="clip0_11602_37740">
<rect width="18.1818" height="16" fill="white"/>
</clipPath>
</defs>
</svg>
