<svg width="36" height="36" viewBox="0 0 36 36" fill="none" xmlns="http://www.w3.org/2000/svg">
<g clip-path="url(#clip0_11602_37059)">
<path opacity="0.2" d="M14.625 19.125V23.0625C14.625 24.4052 14.0916 25.6928 13.1422 26.6422C12.1928 27.5916 10.9052 28.125 9.5625 28.125C8.21984 28.125 6.93217 27.5916 5.98277 26.6422C5.03337 25.6928 4.5 24.4052 4.5 23.0625L4.5 19.125H14.625Z" fill="black"/>
<path opacity="0.2" d="M31.5 19.125V23.0625C31.5 24.4052 30.9666 25.6928 30.0172 26.6422C29.0678 27.5916 27.7802 28.125 26.4375 28.125C25.0948 28.125 23.8072 27.5916 22.8578 26.6422C21.9084 25.6928 21.375 24.4052 21.375 23.0625V19.125H31.5Z" fill="black"/>
<path d="M14.625 19.125V23.0625C14.625 24.4052 14.0916 25.6928 13.1422 26.6422C12.1928 27.5916 10.9052 28.125 9.5625 28.125C8.21984 28.125 6.93217 27.5916 5.98277 26.6422C5.03337 25.6928 4.5 24.4052 4.5 23.0625L4.5 19.125" stroke="black" stroke-width="2.5" stroke-linecap="round" stroke-linejoin="round"/>
<path d="M31.5 19.125V23.0625C31.5 24.4052 30.9666 25.6928 30.0172 26.6422C29.0678 27.5916 27.7802 28.125 26.4375 28.125C25.0948 28.125 23.8072 27.5916 22.8578 26.6422C21.9084 25.6928 21.375 24.4052 21.375 23.0625V19.125" stroke="black" stroke-width="2.5" stroke-linecap="round" stroke-linejoin="round"/>
<path d="M28.125 6.75C29.0201 6.75 29.8786 7.10558 30.5115 7.73851C31.1444 8.37145 31.5 9.22989 31.5 10.125V19.125L4.5 19.125L4.5 10.125C4.5 9.22989 4.85558 8.37145 5.48851 7.73851C6.12145 7.10558 6.97989 6.75 7.875 6.75" stroke="black" stroke-width="2.5" stroke-linecap="round" stroke-linejoin="round"/>
<path d="M22.5 19.125L30.0178 26.6428" stroke="black" stroke-width="2.5" stroke-linecap="round" stroke-linejoin="round"/>
<path d="M5.625 19.125L13.1428 26.6428" stroke="black" stroke-width="2.5" stroke-linecap="round" stroke-linejoin="round"/>
</g>
<defs>
<clipPath id="clip0_11602_37059">
<rect width="36" height="36" fill="white"/>
</clipPath>
</defs>
</svg>
