<svg width="10" height="9" viewBox="0 0 10 9" fill="none" xmlns="http://www.w3.org/2000/svg">
<path opacity="0.2" d="M0.375 7.5C0.375 7.69891 0.454018 7.88968 0.59467 8.03033C0.735322 8.17098 0.926088 8.25 1.125 8.25H8.625C8.72446 8.25 8.81984 8.21049 8.89017 8.14017C8.96049 8.06984 9 7.97446 9 7.875V2.625C9 2.52554 8.96049 2.43016 8.89017 2.35984C8.81984 2.28951 8.72446 2.25 8.625 2.25H1.125C0.926088 2.25 0.735322 2.17098 0.59467 2.03033C0.454018 1.88968 0.375 1.69891 0.375 1.5V7.5Z" fill="black"/>
<path d="M0.375 1.5V7.5C0.375 7.69891 0.454018 7.88968 0.59467 8.03033C0.735322 8.17098 0.926088 8.25 1.125 8.25H8.625C8.72446 8.25 8.81984 8.21049 8.89017 8.14017C8.96049 8.06984 9 7.97446 9 7.875V2.625C9 2.52554 8.96049 2.43016 8.89017 2.35984C8.81984 2.28951 8.72446 2.25 8.625 2.25H1.125C0.926088 2.25 0.735322 2.17098 0.59467 2.03033C0.454018 1.88968 0.375 1.69891 0.375 1.5ZM0.375 1.5C0.375 1.30109 0.454018 1.11032 0.59467 0.96967C0.735322 0.829018 0.926088 0.75 1.125 0.75H7.5" stroke="black" stroke-width="0.75" stroke-linecap="round" stroke-linejoin="round"/>
<path d="M6.9375 5.625C7.24816 5.625 7.5 5.37316 7.5 5.0625C7.5 4.75184 7.24816 4.5 6.9375 4.5C6.62684 4.5 6.375 4.75184 6.375 5.0625C6.375 5.37316 6.62684 5.625 6.9375 5.625Z" fill="black"/>
</svg>
