<svg width="37" height="36" viewBox="0 0 37 36" fill="none" xmlns="http://www.w3.org/2000/svg">
<g clip-path="url(#clip0_11602_36778)">
<path opacity="0.2" d="M18.5 18L9.95 11.5875C9.81028 11.4827 9.69688 11.3468 9.61877 11.1906C9.54066 11.0344 9.5 10.8622 9.5 10.6875V9H27.5V10.6369C27.4995 10.8103 27.4588 10.9813 27.3812 11.1365C27.3037 11.2916 27.1913 11.4267 27.0528 11.5312L18.5 18Z" fill="black"/>
<path d="M9.5 9H27.5" stroke="black" stroke-width="2.5" stroke-linecap="round" stroke-linejoin="round"/>
<path d="M18.5 18L9.95 11.5875C9.81028 11.4827 9.69688 11.3468 9.61877 11.1906C9.54066 11.0344 9.5 10.8622 9.5 10.6875V5.625C9.5 5.32663 9.61853 5.04048 9.82951 4.82951C10.0405 4.61853 10.3266 4.5 10.625 4.5H26.375C26.6734 4.5 26.9595 4.61853 27.1705 4.82951C27.3815 5.04048 27.5 5.32663 27.5 5.625V10.6369C27.4995 10.8103 27.4588 10.9813 27.3812 11.1365C27.3037 11.2916 27.1913 11.4267 27.0528 11.5312L18.5 18Z" stroke="black" stroke-width="2.5" stroke-linecap="round" stroke-linejoin="round"/>
<path d="M18.5 18L9.95 24.4125C9.81028 24.5173 9.69688 24.6532 9.61877 24.8094C9.54066 24.9656 9.5 25.1378 9.5 25.3125V30.375C9.5 30.6734 9.61853 30.9595 9.82951 31.1705C10.0405 31.3815 10.3266 31.5 10.625 31.5H26.375C26.6734 31.5 26.9595 31.3815 27.1705 31.1705C27.3815 30.9595 27.5 30.6734 27.5 30.375V25.3631C27.4999 25.1892 27.4595 25.0176 27.3819 24.862C27.3043 24.7063 27.1916 24.5707 27.0528 24.4659L18.5 18Z" stroke="black" stroke-width="2.5" stroke-linecap="round" stroke-linejoin="round"/>
</g>
<defs>
<clipPath id="clip0_11602_36778">
<rect width="36" height="36" fill="white" transform="translate(0.5)"/>
</clipPath>
</defs>
</svg>
