<svg width="10" height="11" viewBox="0 0 10 11" fill="none" xmlns="http://www.w3.org/2000/svg">
<path opacity="0.2" d="M1.62494 5.25C1.62494 4.35489 1.98052 3.49645 2.61346 2.86351C3.24639 2.23058 4.10484 1.875 4.99994 1.875C5.89505 1.875 6.75349 2.23058 7.38643 2.86351C8.01936 3.49645 8.37494 4.35489 8.37494 5.25C8.37494 6.92906 8.764 7.90312 9.07338 8.4375C9.10624 8.49441 9.12356 8.55896 9.12362 8.62467C9.12368 8.69038 9.10647 8.75496 9.07371 8.81193C9.04095 8.8689 8.9938 8.91626 8.93698 8.94927C8.88016 8.98227 8.81566 8.99977 8.74994 9H1.24994C1.18431 8.99961 1.11993 8.98199 1.06323 8.94892C1.00654 8.91584 0.959519 8.86847 0.926873 8.81153C0.894227 8.75458 0.877098 8.69007 0.877198 8.62444C0.877297 8.5588 0.894623 8.49434 0.927442 8.4375C1.23635 7.90312 1.62494 6.92859 1.62494 5.25Z" fill="black"/>
<path d="M3.5 9C3.5 9.39782 3.65804 9.77936 3.93934 10.0607C4.22064 10.342 4.60218 10.5 5 10.5C5.39782 10.5 5.77936 10.342 6.06066 10.0607C6.34196 9.77936 6.5 9.39782 6.5 9" stroke="black" stroke-linecap="round" stroke-linejoin="round"/>
<path d="M7.625 1.125C8.34915 1.58706 8.93648 2.23444 9.32609 3" stroke="black" stroke-linecap="round" stroke-linejoin="round"/>
<path d="M0.673828 3C1.06344 2.23444 1.65078 1.58706 2.37492 1.125" stroke="black" stroke-linecap="round" stroke-linejoin="round"/>
<path d="M1.62494 5.25C1.62494 4.35489 1.98052 3.49645 2.61346 2.86351C3.24639 2.23058 4.10484 1.875 4.99994 1.875C5.89505 1.875 6.75349 2.23058 7.38643 2.86351C8.01936 3.49645 8.37494 4.35489 8.37494 5.25C8.37494 6.92906 8.764 7.90313 9.07338 8.4375C9.10624 8.49441 9.12356 8.55896 9.12362 8.62467C9.12368 8.69038 9.10647 8.75496 9.07371 8.81193C9.04095 8.8689 8.9938 8.91626 8.93698 8.94927C8.88016 8.98227 8.81566 8.99977 8.74994 9H1.24994C1.18431 8.99961 1.11993 8.98199 1.06323 8.94892C1.00654 8.91584 0.959519 8.86847 0.926873 8.81153C0.894227 8.75458 0.877098 8.69007 0.877198 8.62444C0.877297 8.5588 0.894623 8.49434 0.927442 8.4375C1.23635 7.90313 1.62494 6.92859 1.62494 5.25Z" stroke="black" stroke-linecap="round" stroke-linejoin="round"/>
</svg>
