<svg width="8" height="8" viewBox="0 0 8 8" fill="none" xmlns="http://www.w3.org/2000/svg">
<g clip-path="url(#clip0_6930_59059)">
<path d="M4.57521 7C4.5166 7.10103 4.43249 7.18488 4.33128 7.24318C4.23008 7.30147 4.11533 7.33215 3.99854 7.33215C3.88175 7.33215 3.767 7.30147 3.6658 7.24318C3.56459 7.18488 3.48048 7.10103 3.42188 7" stroke="black" stroke-linecap="round" stroke-linejoin="round"/>
<path d="M6.21076 4.33317C6.06247 3.79031 5.99177 3.22919 6.00076 2.6665" stroke="black" stroke-linecap="round" stroke-linejoin="round"/>
<path d="M2.08667 2.08667C2.02876 2.27454 1.99954 2.47008 2 2.66667C2 5 1 5.66667 1 5.66667H5.66667" stroke="black" stroke-linecap="round" stroke-linejoin="round"/>
<path d="M6.00062 2.66654C6.00116 2.30423 5.90327 1.94858 5.7174 1.63757C5.53154 1.32657 5.26468 1.07189 4.94533 0.900755C4.62599 0.729616 4.26615 0.64844 3.90426 0.665898C3.54237 0.683356 3.19201 0.798792 2.89062 0.999875" stroke="black" stroke-linecap="round" stroke-linejoin="round"/>
<path d="M0.332031 0.333496L7.66536 7.66683" stroke="black" stroke-linecap="round" stroke-linejoin="round"/>
</g>
<defs>
<clipPath id="clip0_6930_59059">
<rect width="8" height="8" fill="white"/>
</clipPath>
</defs>
</svg>
