<svg width="28" height="29" viewBox="0 0 28 29" fill="none" xmlns="http://www.w3.org/2000/svg">
<rect y="3" width="26" height="26" rx="6" fill="#0D0D0D"/>
<path d="M17.6101 8.95061H14.9223C14.5927 8.37524 13.9587 8 13.2488 8C12.5388 8 11.9049 8.37524 11.6006 8.95061H8.88747C8.4057 8.95061 8 9.35087 8 9.82617C8 10.3015 8.4057 10.7017 8.88747 10.7017H11.6006C11.9302 11.2771 12.5388 11.6523 13.2488 11.6523C13.9587 11.6523 14.5927 11.2771 14.9223 10.7017H17.6354C18.1172 10.7017 18.5229 10.3015 18.5229 9.82617C18.5229 9.35087 18.0918 8.95061 17.6101 8.95061Z" fill="white"/>
<path d="M13.5276 12.2026H12.9697C11.1694 12.2026 9.72412 13.6035 9.72412 15.3298V19.6826C9.72412 20.433 10.2566 21.0334 10.9919 21.2085V20.0328C10.9919 18.9071 12.0062 17.9815 13.2486 17.9815C14.4911 17.9815 15.5307 18.9071 15.5307 20.0328V21.2085C16.2407 21.0334 16.7985 20.433 16.7985 19.6826V15.3298C16.7732 13.6037 15.3025 12.2026 13.5274 12.2026H13.5276Z" fill="white"/>
<path d="M13.2483 19.0073C12.5637 19.0073 11.9805 19.4826 11.9805 20.058V22.7347C11.9805 23.3101 12.5383 23.7854 13.2483 23.7854C13.9329 23.7854 14.5161 23.3101 14.5161 22.7347V20.033C14.5161 19.4576 13.9329 19.0073 13.2483 19.0073Z" fill="white"/>
<circle cx="24.5" cy="3.5" r="3" fill="#F37B26" stroke="white"/>
</svg>
