<svg width="26" height="26" viewBox="0 0 26 26" fill="none" xmlns="http://www.w3.org/2000/svg">
<rect width="26" height="26" rx="6" fill="#0D0D0D"/>
<path d="M17.132 6.40332H14.5779C14.2647 5.85657 13.6623 5.5 12.9877 5.5C12.313 5.5 11.7106 5.85657 11.4215 6.40332H8.84332C8.38552 6.40332 8 6.78366 8 7.23532C8 7.68698 8.38552 8.06733 8.84332 8.06733H11.4215C11.7347 8.61408 12.313 8.97065 12.9877 8.97065C13.6623 8.97065 14.2647 8.61408 14.5779 8.06733H17.1561C17.6139 8.06733 17.9994 7.68698 17.9994 7.23532C17.9994 6.78366 17.5898 6.40332 17.132 6.40332Z" fill="white"/>
<path d="M13.2524 9.49365H12.7223C11.0116 9.49365 9.63818 10.8249 9.63818 12.4652V16.6015C9.63818 17.3146 10.1442 17.8851 10.8429 18.0515V16.9343C10.8429 15.8646 11.8067 14.985 12.9874 14.985C14.168 14.985 15.1559 15.8646 15.1559 16.9343V18.0515C15.8306 17.8851 16.3607 17.3146 16.3607 16.6015V12.4652C16.3366 10.825 14.9391 9.49365 13.2523 9.49365H13.2524Z" fill="white"/>
<path d="M12.988 15.96C12.3374 15.96 11.7832 16.4116 11.7832 16.9584V19.5019C11.7832 20.0487 12.3133 20.5003 12.988 20.5003C13.6385 20.5003 14.1927 20.0487 14.1927 19.5019V16.9346C14.1927 16.3878 13.6385 15.96 12.988 15.96Z" fill="white"/>
</svg>
