<svg width="61" height="61" viewBox="0 0 61 61" fill="none" xmlns="http://www.w3.org/2000/svg">
<rect width="61" height="61" rx="12" fill="#F19938"/>
<path d="M38.1525 29.1649C39.8856 28.2786 40.9885 26.703 40.7326 24.0836C40.3977 20.4991 37.4539 19.2978 33.5543 18.9631V14H30.5213V18.8252C29.7334 18.8252 28.926 18.8449 28.1186 18.8644V14H25.0855V18.9631C23.9704 18.9967 22.6717 18.9803 19 18.9631V22.193C21.3946 22.1506 22.651 21.9967 22.939 23.5322V37.1214C22.7561 38.3398 21.7812 38.1642 19.6106 38.1258L19.0001 41.7299C24.5302 41.7299 25.0856 41.7496 25.0856 41.7496V46H28.1188V41.8087C28.9458 41.8285 29.7534 41.8285 30.5215 41.8285V46H33.5545V41.7496C38.6357 41.4738 42.0325 40.1937 42.4855 35.408C42.8398 31.5676 41.0278 29.8541 38.1525 29.1649ZM28.1777 22.4096C29.8912 22.4096 35.2482 21.8779 35.2482 25.4426C35.2482 28.8498 29.8912 28.4558 28.1777 28.4558V22.4096ZM28.1777 38.1456V31.4888C30.226 31.4888 36.4983 30.9177 36.4983 34.8173C36.4982 38.5788 30.226 38.1456 28.1777 38.1456Z" fill="white"/>
</svg>
