<svg width="10" height="13" viewBox="0 0 10 13" fill="none" xmlns="http://www.w3.org/2000/svg">
<path d="M5.00009 5.99403C5.55388 5.99403 6.09523 5.82982 6.55568 5.52215C7.01614 5.21448 7.37503 4.77718 7.58695 4.26555C7.79888 3.75392 7.85433 3.19093 7.74629 2.64778C7.63825 2.10463 7.37157 1.60572 6.97999 1.21414C6.5884 0.822548 6.08949 0.555874 5.54634 0.447836C5.00319 0.339797 4.44021 0.395247 3.92857 0.607172C3.41694 0.819097 2.97964 1.17798 2.67197 1.63844C2.36431 2.0989 2.20009 2.64025 2.20009 3.19403C2.20009 3.93664 2.49509 4.64883 3.02019 5.17393C3.54529 5.69904 4.25748 5.99403 5.00009 5.99403Z" fill="#231F20"/>
<path d="M9.20004 12.994C9.38569 12.994 9.56374 12.9203 9.69501 12.789C9.82629 12.6577 9.90004 12.4797 9.90004 12.294C9.90004 10.9945 9.38379 9.74814 8.46486 8.82921C7.54593 7.91028 6.2996 7.39403 5.00004 7.39403C3.70048 7.39403 2.45414 7.91028 1.53521 8.82921C0.616285 9.74814 0.100037 10.9945 0.100037 12.294C0.100037 12.4797 0.173787 12.6577 0.305062 12.789C0.436337 12.9203 0.614385 12.994 0.800037 12.994H9.20004Z" fill="#231F20"/>
</svg>
