<svg width="12" height="12" viewBox="0 0 12 12" fill="none" xmlns="http://www.w3.org/2000/svg">
<path fill-rule="evenodd" clip-rule="evenodd" d="M12.0001 5.99997C12.0001 6.19888 11.9211 6.38965 11.7805 6.5303C11.6398 6.67095 11.449 6.74997 11.2501 6.74997H2.56062L5.78112 9.96897C5.85085 10.0387 5.90617 10.1215 5.94391 10.2126C5.98164 10.3037 6.00107 10.4014 6.00107 10.5C6.00107 10.5986 5.98164 10.6962 5.94391 10.7873C5.90617 10.8785 5.85085 10.9612 5.78112 11.031C5.71139 11.1007 5.6286 11.156 5.5375 11.1938C5.44639 11.2315 5.34874 11.2509 5.25012 11.2509C5.1515 11.2509 5.05385 11.2315 4.96274 11.1938C4.87164 11.156 4.78885 11.1007 4.71912 11.031L0.21912 6.53097C0.149275 6.4613 0.0938606 6.37854 0.0560509 6.28742C0.0182412 6.1963 -0.0012207 6.09862 -0.0012207 5.99997C-0.0012207 5.90132 0.0182412 5.80364 0.0560509 5.71252C0.0938606 5.6214 0.149275 5.53864 0.21912 5.46897L4.71912 0.968971C4.85995 0.828141 5.05096 0.749023 5.25012 0.749023C5.44928 0.749023 5.64029 0.828141 5.78112 0.968971C5.92195 1.1098 6.00107 1.30081 6.00107 1.49997C6.00107 1.69913 5.92195 1.89014 5.78112 2.03097L2.56062 5.24997H11.2501C11.449 5.24997 11.6398 5.32899 11.7805 5.46964C11.9211 5.61029 12.0001 5.80106 12.0001 5.99997Z" fill="white"/>
</svg>
