<svg width="24" height="24" viewBox="0 0 24 24" fill="none" xmlns="http://www.w3.org/2000/svg">
<g clip-path="url(#clip0_10305_61475)">
<path opacity="0.2" d="M12 15.7499C12.9422 15.7514 13.8505 15.3981 14.544 14.7603C15.2376 14.1225 15.6656 13.247 15.743 12.308C15.8204 11.369 15.5415 10.4352 14.9617 9.69248C14.3819 8.94976 13.5438 8.4525 12.6141 8.29964C12.4411 8.26927 12.2845 8.17857 12.1721 8.04366C12.0597 7.90876 11.9987 7.73837 12 7.56276V3.74995C11.9997 3.64594 12.0209 3.543 12.0625 3.44765C12.104 3.35231 12.165 3.26665 12.2414 3.19611C12.3178 3.12558 12.4081 3.07172 12.5065 3.03795C12.6049 3.00418 12.7092 2.99124 12.8128 2.99995C17.4441 3.41526 21.0628 7.37057 20.9991 12.1256C20.9316 16.9724 16.9753 20.9287 12.1285 20.9962H12V15.7499Z" fill="#4A4B4D"/>
<path d="M12 21V15.75" stroke="#4A4B4D" stroke-width="1.5" stroke-linecap="round" stroke-linejoin="round"/>
<path d="M3 12H8.25" stroke="#4A4B4D" stroke-width="1.5" stroke-linecap="round" stroke-linejoin="round"/>
<path d="M8.86407 9.8212C8.3897 10.4849 8.20782 11.3081 8.2547 12.1949C8.29165 12.9011 8.52749 13.5823 8.935 14.1602C9.34251 14.738 9.90508 15.1889 10.5578 15.4607C11.2105 15.7326 11.9268 15.8143 12.624 15.6966C13.3212 15.5788 13.971 15.2664 14.4982 14.7953C15.0255 14.3241 15.4088 13.7135 15.6039 13.0339C15.7991 12.3543 15.7981 11.6334 15.6011 10.9543C15.4041 10.2752 15.0192 9.66562 14.4907 9.19592C13.9621 8.72621 13.3116 8.4155 12.6141 8.29964C12.4411 8.26926 12.2845 8.17857 12.1721 8.04366C12.0597 7.90876 11.9987 7.73837 12 7.56276V3.74995C11.9996 3.64594 12.0209 3.543 12.0625 3.44765C12.104 3.35231 12.165 3.26665 12.2414 3.19611C12.3178 3.12558 12.4081 3.07172 12.5065 3.03795C12.6049 3.00418 12.7092 2.99124 12.8128 2.99995C17.4441 3.41526 21.0628 7.37057 20.9991 12.1256C20.9316 16.9724 16.9753 20.9287 12.1284 20.9962C10.9361 21.0132 9.75226 20.7931 8.64571 20.3487C7.53916 19.9042 6.53196 19.2443 5.68263 18.4073C4.8333 17.5703 4.15878 16.5728 3.69825 15.4729C3.23773 14.3729 3.00038 13.1924 3.00001 11.9999C2.99695 9.90495 3.73406 7.87622 5.08126 6.27182C5.14781 6.19165 5.23034 6.12622 5.32358 6.0797C5.41682 6.03319 5.51873 6.00662 5.62281 6.00168C5.72689 5.99674 5.83086 6.01354 5.92809 6.05102C6.02531 6.08849 6.11367 6.14581 6.18751 6.21932L8.77501 8.86307C8.89985 8.98698 8.97717 9.15083 8.99345 9.32597C9.00973 9.50111 8.96394 9.6764 8.86407 9.8212Z" stroke="#4A4B4D" stroke-width="1.5" stroke-linecap="round" stroke-linejoin="round"/>
</g>
<defs>
<clipPath id="clip0_10305_61475">
<rect width="24" height="24" fill="white"/>
</clipPath>
</defs>
</svg>
