<svg width="14" height="12" viewBox="0 0 14 12" fill="none" xmlns="http://www.w3.org/2000/svg">
<path opacity="0.2" d="M1.82188 11.3819C1.74905 11.4431 1.66025 11.4823 1.56591 11.4949C1.47158 11.5074 1.37562 11.4928 1.28931 11.4527C1.20301 11.4126 1.12994 11.3487 1.07869 11.2685C1.02744 11.1883 1.00014 11.0952 1 11V1C1 0.867392 1.05268 0.740215 1.14645 0.646447C1.24021 0.552679 1.36739 0.5 1.5 0.5H12.5C12.6326 0.5 12.7598 0.552679 12.8536 0.646447C12.9473 0.740215 13 0.867392 13 1V9C13 9.13261 12.9473 9.25979 12.8536 9.35355C12.7598 9.44732 12.6326 9.5 12.5 9.5H4L1.82188 11.3819Z" fill="#5F33FF"/>
<path d="M1.82188 11.3819C1.74905 11.4431 1.66025 11.4823 1.56591 11.4949C1.47158 11.5074 1.37562 11.4928 1.28931 11.4527C1.20301 11.4126 1.12994 11.3487 1.07869 11.2685C1.02744 11.1883 1.00014 11.0952 1 11V1C1 0.867392 1.05268 0.740215 1.14645 0.646447C1.24021 0.552679 1.36739 0.5 1.5 0.5H12.5C12.6326 0.5 12.7598 0.552679 12.8536 0.646447C12.9473 0.740215 13 0.867392 13 1V9C13 9.13261 12.9473 9.25979 12.8536 9.35355C12.7598 9.44732 12.6326 9.5 12.5 9.5H4L1.82188 11.3819Z" stroke="#5F33FF" stroke-linecap="round" stroke-linejoin="round"/>
</svg>
