<svg width="10" height="10" viewBox="0 0 10 10" fill="none" xmlns="http://www.w3.org/2000/svg">
<path d="M3.94874 9.75446C4.38459 9.75446 4.71409 9.5871 4.93724 9.25237L9.76464 1.97727C9.84484 1.85872 9.90411 1.74191 9.94247 1.62685C9.98082 1.5083 10 1.39498 10 1.28689C10 0.987028 9.8954 0.739469 9.68619 0.544211C9.48047 0.345466 9.22594 0.246094 8.92259 0.246094C8.71339 0.246094 8.53556 0.287935 8.38912 0.371617C8.24616 0.451812 8.11018 0.591282 7.98117 0.790027L3.92782 7.15509L1.89854 4.72308C1.67887 4.46855 1.40342 4.34128 1.07218 4.34128C0.761855 4.34128 0.505579 4.44065 0.303347 4.6394C0.101116 4.83814 0 5.08745 0 5.38731C0 5.52329 0.0209205 5.6523 0.0627615 5.77434C0.108089 5.89289 0.190028 6.01667 0.308577 6.14568L3.00209 9.32036C3.24965 9.60976 3.5652 9.75446 3.94874 9.75446Z" fill="white"/>
</svg>
