<svg width="22" height="22" viewBox="0 0 22 22" fill="none" xmlns="http://www.w3.org/2000/svg">
<rect width="22" height="22" rx="6" fill="#F5AC37"/>
<path d="M11.3095 11.3176H14.4541C14.5211 11.3176 14.5528 11.3176 14.5576 11.2297C14.5833 10.9098 14.5833 10.5881 14.5576 10.2678C14.5576 10.2056 14.5267 10.1799 14.4593 10.1799H8.20115C8.12369 10.1799 8.10283 10.2056 8.10283 10.2782V11.1988C8.10283 11.3176 8.10283 11.3176 8.22684 11.3176H11.3095ZM14.2064 9.10408C14.2154 9.08062 14.2154 9.05492 14.2064 9.03183C14.1539 8.91751 14.0917 8.8084 14.0195 8.70599C13.9107 8.53096 13.7826 8.36971 13.6367 8.22485C13.5678 8.13734 13.4881 8.05876 13.3987 7.9921C12.9511 7.61114 12.4189 7.34152 11.8469 7.20597C11.5583 7.14117 11.2634 7.11026 10.9677 7.11287H8.19035C8.11289 7.11287 8.10246 7.14378 8.10246 7.21118V9.0471C8.10246 9.12456 8.10246 9.14542 8.20077 9.14542H14.1692C14.1692 9.14542 14.2209 9.13499 14.2314 9.10408H14.2061H14.2064ZM14.2064 12.3935C14.1185 12.3838 14.0299 12.3838 13.942 12.3935H8.20636C8.1289 12.3935 8.10283 12.3935 8.10283 12.497V14.2919C8.10283 14.3746 8.10283 14.3955 8.20636 14.3955H10.8545C10.9811 14.4052 11.1077 14.3962 11.2317 14.3698C11.616 14.3422 11.994 14.2588 12.3545 14.1214C12.4856 14.076 12.6122 14.0167 12.7317 13.9456H12.7679C13.3886 13.6227 13.8929 13.1155 14.2109 12.4929C14.2109 12.4929 14.247 12.4147 14.2064 12.3942V12.3935ZM7.06347 15.3261V15.2952V14.0901V13.6816V12.4661C7.06347 12.3987 7.06347 12.3886 6.9808 12.3886H5.85839C5.7962 12.3886 5.77051 12.3886 5.77051 12.306V11.3232H6.97037C7.0374 11.3232 7.06347 11.3232 7.06347 11.2353V10.263C7.06347 10.2008 7.06347 10.1855 6.9808 10.1855H5.85839C5.7962 10.1855 5.77051 10.1855 5.77051 10.1028V9.19271C5.77051 9.13573 5.77051 9.12047 5.85318 9.12047H6.96516C7.04262 9.12047 7.06347 9.12047 7.06347 9.02215V6.23439C7.06347 6.15171 7.06347 6.13086 7.167 6.13086H11.0459C11.3274 6.14203 11.6071 6.17294 11.8838 6.22396C12.4539 6.32935 13.0017 6.53305 13.5026 6.82389C13.8348 7.0194 14.1405 7.2555 14.4127 7.52735C14.6175 7.73999 14.8023 7.97013 14.9661 8.21517C15.1289 8.46356 15.264 8.72908 15.3702 9.00651C15.3832 9.07876 15.4525 9.12754 15.5247 9.11525H16.4505C16.5693 9.11525 16.5693 9.11525 16.5745 9.22921V10.0775C16.5745 10.1602 16.5436 10.1811 16.4605 10.1811H15.7467C15.6744 10.1811 15.6536 10.1811 15.6588 10.2742C15.6871 10.5892 15.6871 10.9054 15.6588 11.2204C15.6588 11.3083 15.6588 11.3187 15.7575 11.3187H16.5741C16.6102 11.3653 16.5741 11.4118 16.5741 11.4587C16.5793 11.5187 16.5793 11.5794 16.5741 11.6394V12.2654C16.5741 12.3532 16.5484 12.3793 16.4706 12.3793H15.4931C15.4249 12.3663 15.3586 12.4099 15.343 12.4776C15.1102 13.0828 14.7378 13.6254 14.2567 14.0603C14.0809 14.2186 13.8962 14.3675 13.7033 14.505C13.4963 14.6241 13.2948 14.7481 13.0825 14.8464C12.6919 15.0222 12.2822 15.1518 11.8618 15.2341C11.4626 15.3056 11.0578 15.338 10.6515 15.3324H7.06198V15.3272L7.06347 15.3261Z" fill="#FEFEFD"/>
</svg>
