<svg width="16" height="17" viewBox="0 0 16 17" fill="none" xmlns="http://www.w3.org/2000/svg">
<path d="M6 8.6C6.46795 8.60066 6.93547 8.57295 7.4 8.51706V9.80394C6.9362 9.86841 6.46844 9.90051 6.00011 9.9L5.99989 9.9C5.53156 9.90051 5.0638 9.86841 4.6 9.80394V8.51706C5.06453 8.57295 5.53205 8.60066 6 8.6ZM6 8.6C5.99995 8.6 5.99991 8.6 5.99986 8.6L6 8.5L6.00014 8.6C6.00009 8.6 6.00005 8.6 6 8.6ZM10 11.6C9.53199 11.6002 9.06441 11.5714 8.6 11.5138V12.8038C9.52893 12.932 10.4711 12.932 11.4 12.8038V11.5171C10.9355 11.573 10.468 11.6007 10 11.6ZM10 11.6C9.99999 11.6 9.99992 11.6 9.99986 11.6L10 11.5L10 11.6ZM11.6 6.01085V5.75C11.6 4.91002 10.9672 4.19608 9.97058 3.69775C8.97017 3.1975 7.57892 2.9 6 2.9C4.42109 2.9 3.02983 3.1975 2.02942 3.69775C1.03282 4.19608 0.4 4.91002 0.4 5.75V8.25C0.4 8.94939 0.839931 9.56215 1.56048 10.0337C2.26412 10.4941 3.2479 10.8295 4.4 10.9911V11.25C4.4 12.09 5.03282 12.8039 6.02942 13.3023C7.02983 13.8025 8.42108 14.1 10 14.1C11.5789 14.1 12.9702 13.8025 13.9706 13.3023C14.9672 12.8039 15.6 12.09 15.6 11.25V8.75C15.6 8.05741 15.174 7.4472 14.4593 6.97522C13.7614 6.51434 12.7769 6.17645 11.6 6.01085ZM14.4 8.75C14.4 8.91671 14.3022 9.10464 14.0914 9.29838C13.8821 9.49077 13.5723 9.6782 13.1774 9.84252C12.3885 10.1709 11.2769 10.4 10 10.4C9.9229 10.4 9.846 10.3991 9.76934 10.3974C10.885 9.89465 11.6 9.14486 11.6 8.25V7.2255C12.4707 7.36671 13.1678 7.61261 13.6499 7.89214C13.9016 8.03806 14.0915 8.19127 14.2173 8.34056C14.3436 8.49036 14.4 8.62951 14.4 8.75ZM8.6 8.29703C9.30388 8.11944 9.91553 7.86818 10.4 7.55839V8.25C10.4 8.46254 10.24 8.70838 9.90082 8.95189C9.58998 9.17503 9.14649 9.38257 8.6 9.54634V8.29703ZM6 4.1C7.27686 4.1 8.38847 4.32912 9.17743 4.65748C9.57227 4.8218 9.88207 5.00923 10.0914 5.20162C10.3022 5.39536 10.4 5.58329 10.4 5.75C10.4 5.91671 10.3022 6.10464 10.0914 6.29838C9.88207 6.49077 9.57227 6.6782 9.17743 6.84252C8.38847 7.17088 7.27686 7.4 6 7.4C4.72314 7.4 3.61153 7.17088 2.82256 6.84252C2.42773 6.6782 2.11793 6.49077 1.9086 6.29838C1.69779 6.10464 1.6 5.91671 1.6 5.75C1.6 5.58329 1.69779 5.39536 1.9086 5.20162C2.11793 5.00923 2.42773 4.8218 2.82256 4.65748C3.61153 4.32912 4.72314 4.1 6 4.1ZM1.6 8.25V7.55839C2.08447 7.86818 2.69612 8.11944 3.4 8.29703V9.54634C2.85351 9.38257 2.41002 9.17503 2.09918 8.95189C1.75996 8.70838 1.6 8.46254 1.6 8.25ZM5.6 11.25V11.093C5.73149 11.0972 5.86466 11.1 6 11.1C6.23765 11.1 6.46976 11.0923 6.69743 11.0791C6.92813 11.161 7.16259 11.2319 7.4 11.2915V12.5463C6.85351 12.3826 6.41002 12.175 6.09917 11.9519C5.75996 11.7084 5.6 11.4625 5.6 11.25ZM12.6 11.297C13.3039 11.1194 13.9155 10.8682 14.4 10.5584V11.25C14.4 11.4625 14.24 11.7084 13.9008 11.9519C13.59 12.175 13.1465 12.3826 12.6 12.5463V11.297Z" fill="#636467" stroke="#636467" stroke-width="0.2"/>
</svg>
