<svg width="22" height="22" viewBox="0 0 22 22" fill="none" xmlns="http://www.w3.org/2000/svg">
<rect width="22" height="22" rx="6" fill="#E84042"/>
<g clip-path="url(#clip0_4360_35430)">
<path d="M18.0313 11.0061C18.0242 14.6955 15.0354 17.6891 11.3295 17.6721C7.59641 17.6551 4.65951 14.5984 4.68869 10.9457C4.71816 7.31973 7.66923 4.32021 11.3765 4.32814C15.0553 4.33607 18.0347 7.32681 18.0313 11.0061ZM8.74425 13.9659V13.9639C9.03723 13.9639 9.33049 13.9699 9.62319 13.9625C10.089 13.9509 10.4514 13.7489 10.7016 13.3525C10.7365 13.2975 10.7708 13.242 10.8031 13.1856C11.3244 12.2741 11.8455 11.3622 12.366 10.4502C12.4731 10.2626 12.5833 10.077 12.6794 9.88346C12.7681 9.70523 12.81 9.51652 12.8089 9.31789C12.8077 9.1 12.7499 8.89712 12.6451 8.70728C12.3589 8.18932 12.0634 7.67674 11.7647 7.16615C11.7364 7.1177 11.7024 7.07265 11.6709 7.02618C11.5151 6.79723 11.1589 6.80687 11.0096 7.02561C10.9427 7.12337 10.8801 7.22367 10.8215 7.32653C10.2862 8.26441 9.75127 9.20229 9.21659 10.1405C8.64224 11.148 8.06846 12.1556 7.49468 13.1635C7.44793 13.2457 7.40656 13.3307 7.372 13.4191C7.28841 13.6324 7.44567 13.9217 7.69728 13.9498C7.77095 13.958 7.84405 13.9665 7.91829 13.9662C8.19342 13.9659 8.46883 13.9662 8.74397 13.9662L8.74425 13.9659ZM13.9598 13.9659V13.9665C14.2913 13.9665 14.6229 13.9665 14.9544 13.9665C15.0581 13.9665 15.1609 13.9617 15.2644 13.9501C15.5208 13.9212 15.6803 13.6183 15.5868 13.4117C15.5636 13.3607 15.5435 13.3077 15.5163 13.2587C15.4389 13.119 15.3596 12.9802 15.2791 12.8422C15.0003 12.3642 14.7212 11.8864 14.4412 11.4093C14.386 11.3149 14.3304 11.22 14.2556 11.139C14.0978 10.9684 13.8187 10.9715 13.6634 11.1444C13.6076 11.2064 13.5623 11.2758 13.5206 11.3475C13.1614 11.9632 12.8024 12.5795 12.4442 13.1961C12.4011 13.2703 12.3612 13.3465 12.3348 13.4287C12.2609 13.6588 12.4167 13.9104 12.6556 13.9478C12.7346 13.9603 12.8143 13.9662 12.8944 13.9659C13.2498 13.9654 13.6048 13.9659 13.9601 13.9659H13.9598Z" fill="white"/>
</g>
<defs>
<clipPath id="clip0_4360_35430">
<rect width="13.3426" height="13.3443" fill="white" transform="translate(4.68848 4.32812)"/>
</clipPath>
</defs>
</svg>
