<svg width="22" height="22" viewBox="0 0 22 22" fill="none" xmlns="http://www.w3.org/2000/svg">
<rect width="22" height="22" rx="6" fill="#53AE94"/>
<path d="M11.9924 9.2826V7.89094H15.2266V5.77051H6.41962V7.89094H9.65427V9.28148C7.02544 9.40029 5.04883 9.91258 5.04883 10.5263C5.04883 11.14 7.02639 11.6523 9.65427 11.7718V16.2295H11.9931V11.7714C14.6172 11.6523 16.5898 11.1403 16.5898 10.5272C16.5898 9.91407 14.6172 9.40216 11.9931 9.28298M11.9931 11.3939V11.3927C11.9271 11.3969 11.5881 11.4169 10.8332 11.4169C10.2297 11.4169 9.80506 11.4 9.65541 11.3924V11.3942C7.33291 11.293 5.59931 10.8951 5.59931 10.4189C5.59931 9.9427 7.3331 9.5453 9.65541 9.44389V10.9978C9.80753 11.0081 10.2426 11.0333 10.8431 11.0333C11.5643 11.0333 11.9269 11.0038 11.9935 10.9978V9.44389C14.3114 9.54548 16.041 9.94382 16.041 10.4183C16.041 10.8928 14.3107 11.2913 11.9935 11.3929" fill="white"/>
</svg>
