<?xml version="1.0" standalone="no"?>
<!DOCTYPE svg PUBLIC "-//W3C//DTD SVG 20010904//EN"
 "http://www.w3.org/TR/2001/REC-SVG-20010904/DTD/svg10.dtd">
<svg version="1.0" xmlns="http://www.w3.org/2000/svg"
 width="338.000000pt" height="338.000000pt" viewBox="0 0 338.000000 338.000000"
 preserveAspectRatio="xMidYMid meet">
<metadata>
Created by potrace 1.16, written by Peter Selinger 2001-2019
</metadata>
<g transform="translate(0.000000,338.000000) scale(0.100000,-0.100000)"
fill="#000000" stroke="none">
<path d="M0 1690 l0 -1690 538 1 c338 1 513 5 472 10 -267 34 -493 149 -680
345 -144 151 -232 317 -287 542 -14 58 -17 160 -20 727 -5 708 -1 790 43 944
30 105 108 265 169 346 105 140 264 275 413 349 81 41 224 85 320 100 80 13
42 14 -440 15 l-528 1 0 -1690z"/>
<path d="M2452 3364 c231 -35 446 -146 616 -315 135 -135 232 -297 286 -480
l25 -84 0 448 1 447 -507 -1 c-466 -1 -501 -2 -421 -15z"/>
<path d="M1861 2279 c-38 -15 -78 -45 -138 -102 -87 -84 -99 -109 -65 -140 34
-31 61 -20 136 53 81 78 123 100 195 100 147 0 257 -154 211 -296 -16 -50
-227 -268 -285 -295 -83 -38 -189 -16 -260 55 -43 44 -77 47 -102 10 -16 -24
-16 -28 2 -60 20 -38 59 -70 125 -104 67 -35 185 -39 265 -10 52 20 77 40 196
159 119 119 139 144 159 196 29 79 25 196 -10 268 -29 61 -95 128 -157 157
-70 34 -198 38 -272 9z"/>
<path d="M1538 1909 c-78 -12 -139 -54 -266 -183 -154 -156 -167 -180 -167
-311 0 -89 3 -106 27 -150 33 -64 89 -120 153 -153 44 -24 62 -27 145 -27 124
0 177 24 278 129 75 77 85 101 54 129 -34 31 -61 21 -143 -57 -86 -83 -128
-101 -211 -94 -142 14 -237 173 -183 306 21 49 228 259 280 283 48 22 132 25
180 5 18 -8 55 -34 80 -57 41 -38 49 -41 73 -33 15 5 31 21 36 35 7 22 4 33
-18 62 -66 87 -198 135 -318 116z"/>
<path d="M3370 881 c0 -30 -49 -170 -85 -246 -94 -194 -251 -364 -442 -478
-119 -72 -280 -126 -429 -146 -47 -6 99 -9 449 -10 l517 -1 0 450 c0 248 -2
450 -5 450 -3 0 -5 -8 -5 -19z"/>
</g>
</svg>
