<svg width="16" height="17" viewBox="0 0 16 17" fill="none" xmlns="http://www.w3.org/2000/svg">
<g clip-path="url(#clip0_11563_23722)">
<path opacity="0.2" d="M13 2.66663H6C5.86739 2.66663 5.74021 2.7193 5.64645 2.81307C5.55268 2.90684 5.5 3.03402 5.5 3.16663V6.16663H3C2.86739 6.16663 2.74021 6.2193 2.64645 6.31307C2.55268 6.40684 2.5 6.53402 2.5 6.66663V13.1666C2.5 13.2992 2.55268 13.4264 2.64645 13.5202C2.74021 13.6139 2.86739 13.6666 3 13.6666H10C10.1326 13.6666 10.2598 13.6139 10.3536 13.5202C10.4473 13.4264 10.5 13.2992 10.5 13.1666V10.1666H13C13.1326 10.1666 13.2598 10.1139 13.3536 10.0202C13.4473 9.92641 13.5 9.79923 13.5 9.66663V3.16663C13.5 3.03402 13.4473 2.90684 13.3536 2.81307C13.2598 2.7193 13.1326 2.66663 13 2.66663Z" fill="#636467"/>
<path d="M5 10.1666H13C13.1326 10.1666 13.2598 10.1139 13.3536 10.0202C13.4473 9.92641 13.5 9.79923 13.5 9.66663V3.16663C13.5 3.03402 13.4473 2.90684 13.3536 2.81307C13.2598 2.7193 13.1326 2.66663 13 2.66663H6C5.86739 2.66663 5.74021 2.7193 5.64645 2.81307C5.55268 2.90684 5.5 3.03402 5.5 3.16663V3.66663" stroke="#636467" stroke-width="1.5" stroke-linecap="round" stroke-linejoin="round"/>
<path d="M6.5 8.66663L5 10.1666L6.5 11.6666" fill="#636467"/>
<path d="M6.5 8.66663L5 10.1666L6.5 11.6666" stroke="#636467" stroke-width="1.5" stroke-linecap="round" stroke-linejoin="round"/>
<path d="M11 6.16663H3C2.86739 6.16663 2.74021 6.2193 2.64645 6.31307C2.55268 6.40684 2.5 6.53402 2.5 6.66663V13.1666C2.5 13.2992 2.55268 13.4264 2.64645 13.5202C2.74021 13.6139 2.86739 13.6666 3 13.6666H10C10.1326 13.6666 10.2598 13.6139 10.3536 13.5202C10.4473 13.4264 10.5 13.2992 10.5 13.1666V12.6666" stroke="#636467" stroke-width="1.5" stroke-linecap="round" stroke-linejoin="round"/>
<path d="M9.5 7.66663L11 6.16663L9.5 4.66663" fill="#636467"/>
<path d="M9.5 7.66663L11 6.16663L9.5 4.66663" stroke="#636467" stroke-width="1.5" stroke-linecap="round" stroke-linejoin="round"/>
</g>
<defs>
<clipPath id="clip0_11563_23722">
<rect width="16" height="16" fill="white" transform="translate(0 0.5)"/>
</clipPath>
</defs>
</svg>
