<svg width="12" height="12" viewBox="0 0 12 12" fill="none" xmlns="http://www.w3.org/2000/svg">
<g clip-path="url(#clip0_11298_1561)">
<path opacity="0.2" d="M9.75 1.875H4.5C4.40054 1.875 4.30516 1.91451 4.23484 1.98484C4.16451 2.05516 4.125 2.15054 4.125 2.25V4.5H2.25C2.15054 4.5 2.05516 4.53951 1.98484 4.60984C1.91451 4.68016 1.875 4.77554 1.875 4.875V9.75C1.875 9.84946 1.91451 9.94484 1.98484 10.0152C2.05516 10.0855 2.15054 10.125 2.25 10.125H7.5C7.59946 10.125 7.69484 10.0855 7.76517 10.0152C7.83549 9.94484 7.875 9.84946 7.875 9.75V7.5H9.75C9.84946 7.5 9.94484 7.46049 10.0152 7.39017C10.0855 7.31984 10.125 7.22446 10.125 7.125V2.25C10.125 2.15054 10.0855 2.05516 10.0152 1.98484C9.94484 1.91451 9.84946 1.875 9.75 1.875Z" fill="black"/>
<path d="M3.75 7.5H9.75C9.84946 7.5 9.94484 7.46049 10.0152 7.39017C10.0855 7.31984 10.125 7.22446 10.125 7.125V2.25C10.125 2.15054 10.0855 2.05516 10.0152 1.98484C9.94484 1.91451 9.84946 1.875 9.75 1.875H4.5C4.40054 1.875 4.30516 1.91451 4.23484 1.98484C4.16451 2.05516 4.125 2.15054 4.125 2.25V2.625" stroke="black" stroke-linecap="round" stroke-linejoin="round"/>
<path d="M4.875 6.375L3.75 7.5L4.875 8.625" stroke="black" stroke-linecap="round" stroke-linejoin="round"/>
<path d="M8.25 4.5H2.25C2.15054 4.5 2.05516 4.53951 1.98484 4.60984C1.91451 4.68016 1.875 4.77554 1.875 4.875V9.75C1.875 9.84946 1.91451 9.94484 1.98484 10.0152C2.05516 10.0855 2.15054 10.125 2.25 10.125H7.5C7.59946 10.125 7.69484 10.0855 7.76517 10.0152C7.83549 9.94484 7.875 9.84946 7.875 9.75V9.375" stroke="black" stroke-linecap="round" stroke-linejoin="round"/>
<path d="M7.125 5.625L8.25 4.5L7.125 3.375" stroke="black" stroke-linecap="round" stroke-linejoin="round"/>
</g>
<defs>
<clipPath id="clip0_11298_1561">
<rect width="12" height="12" fill="white"/>
</clipPath>
</defs>
</svg>
