<svg width="13" height="12" viewBox="0 0 13 12" fill="none" xmlns="http://www.w3.org/2000/svg">
<path d="M12.2002 5.26671L9.78574 7.37387L10.509 10.511C10.5473 10.675 10.5364 10.8467 10.4776 11.0045C10.4189 11.1624 10.3149 11.2994 10.1787 11.3984C10.0425 11.4975 9.88013 11.5542 9.71187 11.5615C9.54362 11.5688 9.37696 11.5263 9.23272 11.4394L6.49652 9.77975L3.76621 11.4394C3.62197 11.5263 3.45531 11.5688 3.28705 11.5615C3.1188 11.5542 2.95643 11.4975 2.82024 11.3984C2.68404 11.2994 2.58007 11.1624 2.52132 11.0045C2.46257 10.8467 2.45165 10.675 2.48993 10.511L3.21212 7.37708L0.797134 5.26671C0.669403 5.15655 0.57704 5.01113 0.531628 4.84868C0.486216 4.68623 0.489776 4.51399 0.541862 4.35356C0.593948 4.19313 0.692241 4.05165 0.824414 3.94686C0.956588 3.84207 1.11676 3.77863 1.28484 3.76451L4.46806 3.4888L5.71062 0.525076C5.77551 0.369564 5.88496 0.236727 6.02519 0.143292C6.16542 0.0498566 6.33016 0 6.49866 0C6.66717 0 6.83191 0.0498566 6.97214 0.143292C7.11237 0.236727 7.22182 0.369564 7.2867 0.525076L8.53301 3.4888L11.7152 3.76451C11.8832 3.77863 12.0434 3.84207 12.1756 3.94686C12.3078 4.05165 12.4061 4.19313 12.4581 4.35356C12.5102 4.51399 12.5138 4.68623 12.4684 4.84868C12.423 5.01113 12.3306 5.15655 12.2029 5.26671H12.2002Z" fill="black"/>
</svg>
