<svg width="38" height="38" viewBox="0 0 38 38" fill="none" xmlns="http://www.w3.org/2000/svg">
<path d="M37.9319 18.9318L33.4243 14.3881L19.1504 0L14.6428 4.54362L0.0683594 18.9318L5.92819 24.8385L18.8499 37.8635L24.7097 31.9568L37.9319 18.9318ZM16.1453 23.1725L23.3574 15.9027L26.2122 18.7803L19.0001 26.0501L16.1453 23.1725ZM14.7931 21.8094L11.9383 18.9318L19.1504 11.662L22.0052 14.5396L14.7931 21.8094ZM23.5077 30.5937L20.3524 27.4132L32.0721 15.5998L35.2273 18.7803L23.5077 30.5937ZM19.0001 2.57472L30.5695 14.2367L27.4142 17.4172L15.8448 5.75526L19.0001 2.57472ZM14.4926 7.11834L17.6479 10.2989L10.4358 17.5687L5.92819 22.1123L2.7729 18.9318L14.4926 7.11834ZM19.0001 35.2888L7.28046 23.4754L10.4358 20.2949L22.1554 32.1083L19.0001 35.2888Z" fill="#19191A"/>
</svg>
