<svg width="10" height="10" viewBox="0 0 10 10" fill="none" xmlns="http://www.w3.org/2000/svg">
<path opacity="0.2" d="M8.75 0.875H3.5C3.40054 0.875 3.30516 0.914509 3.23484 0.984835C3.16451 1.05516 3.125 1.15054 3.125 1.25V3.5H1.25C1.15054 3.5 1.05516 3.53951 0.984835 3.60984C0.914509 3.68016 0.875 3.77554 0.875 3.875V8.75C0.875 8.84946 0.914509 8.94484 0.984835 9.01517C1.05516 9.08549 1.15054 9.125 1.25 9.125H6.5C6.59946 9.125 6.69484 9.08549 6.76517 9.01517C6.83549 8.94484 6.875 8.84946 6.875 8.75V6.5H8.75C8.84946 6.5 8.94484 6.46049 9.01517 6.39017C9.08549 6.31984 9.125 6.22446 9.125 6.125V1.25C9.125 1.15054 9.08549 1.05516 9.01517 0.984835C8.94484 0.914509 8.84946 0.875 8.75 0.875Z" fill="black"/>
<path d="M2.75 6.5H8.75C8.84946 6.5 8.94484 6.46049 9.01517 6.39017C9.08549 6.31984 9.125 6.22446 9.125 6.125V1.25C9.125 1.15054 9.08549 1.05516 9.01517 0.984835C8.94484 0.914509 8.84946 0.875 8.75 0.875H3.5C3.40054 0.875 3.30516 0.914509 3.23484 0.984835C3.16451 1.05516 3.125 1.15054 3.125 1.25V1.625" stroke="black" stroke-linecap="round" stroke-linejoin="round"/>
<path d="M3.875 5.375L2.75 6.5L3.875 7.625" stroke="black" stroke-linecap="round" stroke-linejoin="round"/>
<path d="M7.25 3.5H1.25C1.15054 3.5 1.05516 3.53951 0.984835 3.60984C0.914509 3.68016 0.875 3.77554 0.875 3.875V8.75C0.875 8.84946 0.914509 8.94484 0.984835 9.01517C1.05516 9.08549 1.15054 9.125 1.25 9.125H6.5C6.59946 9.125 6.69484 9.08549 6.76517 9.01517C6.83549 8.94484 6.875 8.84946 6.875 8.75V8.375" stroke="black" stroke-linecap="round" stroke-linejoin="round"/>
<path d="M6.125 4.625L7.25 3.5L6.125 2.375" stroke="black" stroke-linecap="round" stroke-linejoin="round"/>
</svg>
