<svg width="20" height="21" viewBox="0 0 20 21" fill="none" xmlns="http://www.w3.org/2000/svg">
<g clip-path="url(#clip0_10314_27408)">
<path d="M3.125 5.5V15.5C3.125 15.8315 3.2567 16.1495 3.49112 16.3839C3.72554 16.6183 4.04348 16.75 4.375 16.75H16.875C17.0408 16.75 17.1997 16.6842 17.3169 16.5669C17.4342 16.4497 17.5 16.2908 17.5 16.125V7.375C17.5 7.20924 17.4342 7.05027 17.3169 6.93306C17.1997 6.81585 17.0408 6.75 16.875 6.75H4.375C4.04348 6.75 3.72554 6.6183 3.49112 6.38388C3.2567 6.14946 3.125 5.83152 3.125 5.5ZM3.125 5.5C3.125 5.16848 3.2567 4.85054 3.49112 4.61612C3.72554 4.3817 4.04348 4.25 4.375 4.25H15" stroke="#19191a" stroke-width="2" stroke-linecap="round" stroke-linejoin="round"/>
<path d="M14.0625 12.375C14.5803 12.375 15 11.9553 15 11.4375C15 10.9197 14.5803 10.5 14.0625 10.5C13.5447 10.5 13.125 10.9197 13.125 11.4375C13.125 11.9553 13.5447 12.375 14.0625 12.375Z" fill="#19191a"/>
</g>
<defs>
<clipPath id="clip0_10314_27408">
<rect width="20" height="20" fill="white" transform="translate(0 0.5)"/>
</clipPath>
</defs>
</svg>
