<svg width="19" height="16" viewBox="0 0 19 16" fill="none" xmlns="http://www.w3.org/2000/svg">
<g clip-path="url(#clip0_11097_63113)">
<path d="M6.48191 8.42938L12.8924 13.375C12.9663 13.4323 13.0558 13.4718 13.1522 13.4895C13.2486 13.5072 13.3485 13.5026 13.4423 13.4761C13.536 13.4495 13.6203 13.402 13.6869 13.3382C13.7535 13.2743 13.8001 13.1963 13.8221 13.1119L16.7092 2.07626C16.712 2.06519 16.7113 2.05366 16.7073 2.0429C16.7032 2.03214 16.6959 2.02255 16.6861 2.01516C16.6764 2.00778 16.6645 2.00287 16.6518 2.00097C16.6391 1.99908 16.626 2.00025 16.614 2.00438L2.22055 6.96126C2.13119 6.99152 2.05541 7.04648 2.00456 7.11787C1.95372 7.18926 1.93056 7.27324 1.93856 7.3572C1.94657 7.44116 1.9853 7.52057 2.04895 7.58351C2.1126 7.64645 2.19774 7.68952 2.29157 7.70626L6.48191 8.42938Z" stroke="black" stroke-width="1.5" stroke-linecap="round" stroke-linejoin="round"/>
<path d="M6.48181 8.42937L16.6672 2.00562" stroke="black" stroke-width="1.5" stroke-linecap="round" stroke-linejoin="round"/>
<path d="M9.63309 10.8613L7.45908 12.8463C7.38053 12.918 7.27942 12.9674 7.16873 12.9882C7.05803 13.009 6.94279 13.0003 6.83779 12.9631C6.73278 12.9259 6.6428 12.8619 6.57938 12.7794C6.51595 12.6969 6.48198 12.5996 6.48181 12.5V8.42938" stroke="black" stroke-width="1.5" stroke-linecap="round" stroke-linejoin="round"/>
</g>
<defs>
<clipPath id="clip0_11097_63113">
<rect width="18.1818" height="16" fill="white" transform="translate(0.800049)"/>
</clipPath>
</defs>
</svg>
