<svg width="14" height="14" viewBox="0 0 14 14" fill="none" xmlns="http://www.w3.org/2000/svg">
<path opacity="0.2" d="M5.25706 0.756836C4.94273 1.79688 4.91644 2.90271 5.18098 3.95651C5.44552 5.01032 5.99098 5.97262 6.75925 6.74089C7.52752 7.50916 8.48983 8.05463 9.54363 8.31917C10.5974 8.58371 11.7033 8.55741 12.7433 8.24309C12.4418 9.23446 11.8887 10.1308 11.1378 10.8449C10.3869 11.559 9.46395 12.0665 8.4587 12.3179C7.45345 12.5693 6.40023 12.5561 5.40161 12.2796C4.40298 12.003 3.493 11.4726 2.76029 10.7399C2.02758 10.0071 1.49712 9.09716 1.22056 8.09854C0.944012 7.09991 0.9308 6.04669 1.18221 5.04144C1.43363 4.0362 1.9411 3.11319 2.6552 2.36233C3.3693 1.61147 4.26568 1.05835 5.25706 0.756836Z" fill="#636467"/>
<path d="M5.25706 0.756836C4.94273 1.79688 4.91644 2.90271 5.18098 3.95651C5.44552 5.01032 5.99098 5.97262 6.75925 6.74089C7.52752 7.50916 8.48983 8.05463 9.54363 8.31917C10.5974 8.58371 11.7033 8.55741 12.7433 8.24309C12.4418 9.23446 11.8887 10.1308 11.1378 10.8449C10.3869 11.559 9.46395 12.0665 8.4587 12.3179C7.45345 12.5693 6.40023 12.5561 5.40161 12.2796C4.40298 12.003 3.493 11.4726 2.76029 10.7399C2.02758 10.0071 1.49712 9.09716 1.22056 8.09854C0.944012 7.09991 0.9308 6.04669 1.18221 5.04144C1.43363 4.0362 1.9411 3.11319 2.6552 2.36233C3.3693 1.61147 4.26568 1.05835 5.25706 0.756836Z" stroke="#636467" stroke-width="1.5" stroke-linecap="round" stroke-linejoin="round"/>
</svg>
