<svg width="16" height="17" viewBox="0 0 16 17" xmlns="http://www.w3.org/2000/svg">
    <path d="M13.221 1.4h-.907V.758a.758.758 0 0 0-1.515 0v.641H5.2V.759a.758.758 0 0 0-1.516 0v.641H2.78A2.779 2.779 0 0 0 0 4.18v9.305a2.779 2.779 0 0 0 2.779 2.779H13.22A2.779 2.779 0 0 0 16 13.483V4.179A2.779 2.779 0 0 0 13.221 1.4zM2.781 2.915h.907v1.147a.758.758 0 0 0 1.515 0V2.915H10.8v1.147a.758.758 0 0 0 1.515 0V2.915h.907a1.262 1.262 0 0 1 1.263 1.263v2.299H1.515V4.178a1.263 1.263 0 0 1 1.263-1.263h.003zm10.44 11.832H2.778a1.263 1.263 0 0 1-1.263-1.263V7.993h12.97v5.491a1.264 1.264 0 0 1-1.264 1.263z" fill="#616161" fill-rule="nonzero"/>
</svg>
