<svg width="24" height="24" viewBox="0 0 24 24" fill="none" xmlns="http://www.w3.org/2000/svg">
<path d="M20.999 3.63432C21.2959 3.93123 21.5013 4.41828 21.497 5.18817C21.4926 5.96317 21.2722 6.94268 20.8079 8.07483C19.8809 10.3349 18.0594 13.0143 15.5369 15.5368C13.0144 18.0593 10.3349 19.8808 8.07489 20.8078C6.94274 21.2722 5.96323 21.4926 5.18823 21.4969C4.41835 21.5012 3.93129 21.2959 3.63438 20.999C3.33747 20.7021 3.13216 20.215 3.13646 19.4451C3.14079 18.6701 3.36119 17.6906 3.82557 16.5585C4.75257 14.2984 6.57404 11.619 9.09654 9.09648C11.619 6.57398 14.2985 4.75251 16.5585 3.82551C17.6907 3.36113 18.6702 3.14072 19.4452 3.13639C20.2151 3.13209 20.7021 3.33741 20.999 3.63432Z" stroke="#636467" stroke-width="2"/>
<path d="M3.63475 3.63432C3.33784 3.93123 3.13252 4.41828 3.13682 5.18817C3.14115 5.96317 3.36156 6.94268 3.82594 8.07483C4.75294 10.3349 6.57441 13.0143 9.09691 15.5368C11.6194 18.0593 14.2989 19.8808 16.5589 20.8078C17.691 21.2722 18.6706 21.4926 19.4456 21.4969C20.2154 21.5012 20.7025 21.2959 20.9994 20.999C21.2963 20.7021 21.5016 20.215 21.4973 19.4451C21.493 18.6701 21.2726 17.6906 20.8082 16.5585C19.8812 14.2984 18.0597 11.619 15.5372 9.09648C13.0147 6.57398 10.3353 4.75251 8.07526 3.82551C6.94311 3.36113 5.96359 3.14072 5.1886 3.13639C4.41871 3.13209 3.93166 3.33741 3.63475 3.63432Z" stroke="#636467" stroke-width="2"/>
<circle cx="12.5" cy="12.5" r="1.5" fill="#636467"/>
</svg>
