<svg width="12" height="12" viewBox="0 0 12 12" fill="none" xmlns="http://www.w3.org/2000/svg">
<g clip-path="url(#clip0_12203_1297)">
<path opacity="0.2" d="M1.5 5.625L6 1.125L10.5 5.625H8.25V9.75C8.25 9.84946 8.21049 9.94484 8.14017 10.0152C8.06984 10.0855 7.97446 10.125 7.875 10.125H4.125C4.02554 10.125 3.93016 10.0855 3.85984 10.0152C3.78951 9.94484 3.75 9.84946 3.75 9.75V5.625H1.5Z" fill="black"/>
<path d="M1.5 5.625L6 1.125L10.5 5.625H8.25V9.75C8.25 9.84946 8.21049 9.94484 8.14017 10.0152C8.06984 10.0855 7.97446 10.125 7.875 10.125H4.125C4.02554 10.125 3.93016 10.0855 3.85984 10.0152C3.78951 9.94484 3.75 9.84946 3.75 9.75V5.625H1.5Z" stroke="black" stroke-width="1.5" stroke-linecap="round" stroke-linejoin="round"/>
</g>
<defs>
<clipPath id="clip0_12203_1297">
<rect width="12" height="12" fill="white"/>
</clipPath>
</defs>
</svg>
