<svg width="17" height="16" viewBox="0 0 17 16" fill="none" xmlns="http://www.w3.org/2000/svg">
<g clip-path="url(#clip0_12272_28747)">
<path opacity="0.2" d="M4.00001 6.5C4.00001 5.30653 4.47412 4.16193 5.31803 3.31802C6.16195 2.47411 7.30654 2 8.50001 2C9.69349 2 10.8381 2.47411 11.682 3.31802C12.5259 4.16193 13 5.30653 13 6.5C13 8.73875 13.5188 10.5375 13.9313 11.25C13.9751 11.3259 13.9982 11.4119 13.9983 11.4996C13.9983 11.5872 13.9754 11.6733 13.9317 11.7492C13.888 11.8252 13.8252 11.8883 13.7494 11.9324C13.6736 11.9764 13.5876 11.9997 13.5 12H3.50001C3.4125 11.9995 3.32666 11.976 3.25107 11.9319C3.17548 11.8878 3.11278 11.8246 3.06926 11.7487C3.02573 11.6728 3.00289 11.5868 3.00302 11.4992C3.00315 11.4117 3.02625 11.3258 3.07001 11.25C3.48189 10.5375 4.00001 8.73812 4.00001 6.5Z" fill="black"/>
<path d="M6.5 12C6.5 12.5304 6.71071 13.0391 7.08579 13.4142C7.46086 13.7893 7.96957 14 8.5 14C9.03043 14 9.53914 13.7893 9.91421 13.4142C10.2893 13.0391 10.5 12.5304 10.5 12" stroke="black" stroke-width="1.5" stroke-linecap="round" stroke-linejoin="round"/>
<path d="M4.00001 6.5C4.00001 5.30653 4.47412 4.16193 5.31803 3.31802C6.16195 2.47411 7.30654 2 8.50001 2C9.69349 2 10.8381 2.47411 11.682 3.31802C12.5259 4.16193 13 5.30653 13 6.5C13 8.73875 13.5188 10.5375 13.9313 11.25C13.9751 11.3259 13.9982 11.4119 13.9983 11.4996C13.9983 11.5872 13.9754 11.6733 13.9317 11.7492C13.888 11.8252 13.8252 11.8883 13.7494 11.9324C13.6736 11.9764 13.5876 11.9997 13.5 12H3.50001C3.4125 11.9995 3.32666 11.976 3.25107 11.9319C3.17548 11.8878 3.11278 11.8246 3.06926 11.7487C3.02573 11.6728 3.00289 11.5868 3.00302 11.4992C3.00315 11.4117 3.02625 11.3258 3.07001 11.25C3.48189 10.5375 4.00001 8.73813 4.00001 6.5Z" stroke="black" stroke-width="1.5" stroke-linecap="round" stroke-linejoin="round"/>
</g>
<defs>
<clipPath id="clip0_12272_28747">
<rect width="16" height="16" fill="white" transform="translate(0.5)"/>
</clipPath>
</defs>
</svg>
