<svg width="13" height="14" viewBox="0 0 13 14" fill="none" xmlns="http://www.w3.org/2000/svg">
<path opacity="0.2" d="M9.25 3.5H1.25C0.973858 3.5 0.75 3.72386 0.75 4V12C0.75 12.2761 0.973858 12.5 1.25 12.5H9.25C9.52614 12.5 9.75 12.2761 9.75 12V4C9.75 3.72386 9.52614 3.5 9.25 3.5Z" fill="black"/>
<path d="M6.75 6.5L11.75 1.5" stroke="black" stroke-width="1.5" stroke-linecap="round" stroke-linejoin="round"/>
<path d="M11.75 5.5L11.7494 1.50062L7.75 1.5" stroke="black" stroke-width="1.5" stroke-linecap="round" stroke-linejoin="round"/>
<path d="M9.75 7.5V12C9.75 12.1326 9.69732 12.2598 9.60355 12.3536C9.50979 12.4473 9.38261 12.5 9.25 12.5H1.25C1.11739 12.5 0.990215 12.4473 0.896447 12.3536C0.802679 12.2598 0.75 12.1326 0.75 12V4C0.75 3.86739 0.802679 3.74021 0.896447 3.64645C0.990215 3.55268 1.11739 3.5 1.25 3.5H5.75" stroke="black" stroke-width="1.5" stroke-linecap="round" stroke-linejoin="round"/>
</svg>
