<svg width="14" height="13" viewBox="0 0 14 13" fill="none" xmlns="http://www.w3.org/2000/svg">
<path opacity="0.2" d="M1.15661 1.85425C1.09183 1.78296 1.04913 1.6944 1.03367 1.59932C1.01822 1.50424 1.03068 1.40672 1.06954 1.31858C1.10841 1.23044 1.17201 1.15547 1.25264 1.10276C1.33326 1.05005 1.42745 1.02186 1.52378 1.02161H12.4764C12.5728 1.02162 12.6671 1.04963 12.748 1.10225C12.8288 1.15487 12.8926 1.22983 12.9316 1.31802C12.9706 1.4062 12.9832 1.50382 12.9678 1.59902C12.9523 1.69421 12.9096 1.78288 12.8448 1.85425L8.4936 6.4979V10.1477C8.49365 10.2297 8.47346 10.3104 8.43481 10.3827C8.39616 10.455 8.34026 10.5167 8.27206 10.5622L6.28068 11.8896C6.20577 11.9395 6.11872 11.9683 6.02878 11.9727C5.93884 11.9771 5.84939 11.957 5.76995 11.9146C5.69051 11.8722 5.62406 11.8091 5.57767 11.7319C5.53128 11.6547 5.5067 11.5664 5.50653 11.4763V6.4979L1.15661 1.85425Z" fill="black"/>
<path d="M1.15661 1.85425C1.09183 1.78296 1.04913 1.6944 1.03367 1.59932C1.01822 1.50424 1.03068 1.40672 1.06954 1.31858C1.10841 1.23044 1.17201 1.15547 1.25264 1.10276C1.33326 1.05005 1.42745 1.02186 1.52378 1.02161H12.4764C12.5728 1.02162 12.6671 1.04963 12.748 1.10225C12.8288 1.15487 12.8926 1.22983 12.9316 1.31802C12.9706 1.4062 12.9832 1.50382 12.9678 1.59902C12.9523 1.69421 12.9096 1.78288 12.8448 1.85425L8.4936 6.4979V10.1477C8.49365 10.2297 8.47346 10.3104 8.43481 10.3827C8.39616 10.455 8.34026 10.5167 8.27206 10.5622L6.28068 11.8896C6.20577 11.9395 6.11872 11.9683 6.02878 11.9727C5.93884 11.9771 5.84939 11.957 5.76995 11.9146C5.69051 11.8722 5.62406 11.8091 5.57767 11.7319C5.53128 11.6547 5.5067 11.5664 5.50653 11.4763V6.4979L1.15661 1.85425Z" stroke="black" stroke-width="1.5" stroke-linecap="round" stroke-linejoin="round"/>
</svg>
