<svg width="68" height="69" viewBox="0 0 68 69" fill="none" xmlns="http://www.w3.org/2000/svg">
<g clip-path="url(#clip0_12273_32719)">
<path d="M68 47.7581H58.8411V68.9998H9.19375C8.74129 61.9746 9.23926 55.0379 8.88854 47.7929H0C0.615772 46.5412 0.918304 45.7585 1.35738 45.0617C3.49919 41.6657 5.76684 38.3447 7.80424 34.8871C8.87247 33.0779 10.104 32.3515 12.2699 32.3676C25.5599 32.4748 38.8499 32.4078 52.1425 32.4346C54.2656 32.4399 56.726 31.987 58.418 32.8902C60.011 33.7426 60.8169 36.0959 61.936 37.8113C63.4942 40.2022 65.0336 42.6091 66.557 45.0241C66.9666 45.6755 67.2825 46.3857 68 47.7527V47.7581ZM56.9911 47.7956C55.7943 47.7956 54.9135 47.7956 54.0354 47.7956C49.0449 47.7956 44.0518 47.7474 39.0614 47.8224C37.5514 47.8465 36.5956 47.3748 35.8192 46.0534C34.328 43.5205 32.6841 41.0733 31.0778 38.6074C30.7752 38.1437 30.3522 37.7631 29.8489 37.1868C29.3188 41.5477 29.5089 65.4188 30.047 67.2951H56.9911V47.7929V47.7956ZM64.5383 45.9757C64.5383 45.5334 64.6052 45.319 64.5276 45.1957C62.434 41.8828 60.2895 38.602 58.244 35.2623C57.6122 34.2304 56.7662 34.158 55.7542 34.158C47.9178 34.1714 40.0841 34.1634 32.2477 34.1795C31.7819 34.1795 31.316 34.3591 30.5718 34.5092C33.1259 38.5055 35.5113 42.2393 37.8968 45.973H64.5383V45.9757ZM27.5866 59.1629C28.0765 54.2954 27.8891 39.3096 27.276 37.1734C25.6027 39.7653 23.8545 42.1186 22.4944 44.6784C21.2093 47.0987 19.5601 48.1199 16.7865 47.8599C14.9124 47.683 12.9232 47.4257 10.9848 48.1682V67.0458C16.6687 64.3467 22.1035 61.7682 27.5893 59.1629H27.5866ZM2.79775 46.04C8.44411 46.04 13.4854 46.0855 18.524 45.981C19.1345 45.9676 19.9109 45.2734 20.3017 44.6891C22.3284 41.6603 24.2614 38.5672 26.2024 35.4821C26.4032 35.1605 26.4568 34.745 26.6442 34.1741C21.4289 34.1741 16.4599 34.142 11.4882 34.217C10.9126 34.225 10.1388 34.7021 9.80952 35.1953C7.54187 38.586 5.36525 42.0409 2.79775 46.04Z" fill="#CACBCC"/>
<path d="M12.9121 21.9982C14.0492 22.0459 15.0035 21.1342 15 20.001C14.9965 18.9359 14.145 18.0481 13.0792 18.0021C11.9421 17.9509 11 18.8592 11 20.0044C11 21.0848 11.8324 21.9522 12.9121 21.9982Z" fill="#CACBCC"/>
<path d="M36.4682 27.5024C36.6396 27.0172 36.819 26.6259 36.9153 26.2131C37.3276 24.4334 36.6315 23.6909 34.8431 24.0099C34.5031 24.0715 34.1765 24.3691 33.8579 24.3476C33.5714 24.3288 33.2394 24.0715 33.0547 23.8249C32.9476 23.6829 33.0092 23.2835 33.1404 23.12C33.9355 22.1229 35.0011 21.8227 36.2246 22.0961C37.7908 22.4472 39.0197 23.7981 38.9313 25.2857C38.8644 26.4115 38.6957 27.6337 37.2259 27.9017C37.0947 27.9259 36.926 27.749 36.4682 27.4997V27.5024Z" fill="#CACBCC"/>
<path d="M51.8435 21.5089C51.3053 20.887 50.9653 20.5815 51.0028 20.5225C51.98 19.0108 52.984 17.5178 54.0255 16.0517C54.0977 15.9498 54.6841 16.0115 54.7296 16.1241C54.8768 16.4805 55.0749 17.0247 54.9116 17.2686C53.9987 18.6436 52.9867 19.9489 51.8408 21.5062L51.8435 21.5089Z" fill="#CACBCC"/>
</g>
<defs>
<clipPath id="clip0_12273_32719">
<rect width="68" height="69" fill="white"/>
</clipPath>
</defs>
</svg>
