<svg width="12" height="12" viewBox="0 0 12 12" fill="none" xmlns="http://www.w3.org/2000/svg">
<g clip-path="url(#clip0_12203_1258)">
<path opacity="0.2" d="M5.25 4.5L6.48141 1.125C7.49344 1.965 9.75 4.13203 9.75 6.75C9.75 7.74456 9.35491 8.69839 8.65165 9.40165C7.94839 10.1049 6.99456 10.5 6 10.5C5.00544 10.5 4.05161 10.1049 3.34835 9.40165C2.64509 8.69839 2.25 7.74456 2.25 6.75C2.25 5.31703 2.92594 4.01906 3.70312 3L5.25 4.5Z" fill="black"/>
<path d="M5.25 4.5L6.48141 1.125C7.49344 1.965 9.75 4.13203 9.75 6.75C9.75 7.74456 9.35491 8.69839 8.65165 9.40165C7.94839 10.1049 6.99456 10.5 6 10.5C5.00544 10.5 4.05161 10.1049 3.34835 9.40165C2.64509 8.69839 2.25 7.74456 2.25 6.75C2.25 5.31703 2.92594 4.01906 3.70312 3L5.25 4.5Z" stroke="black" stroke-width="1.5" stroke-linecap="round" stroke-linejoin="round"/>
</g>
<defs>
<clipPath id="clip0_12203_1258">
<rect width="12" height="12" fill="white"/>
</clipPath>
</defs>
</svg>
