<svg width="12" height="12" viewBox="0 0 12 12" fill="none" xmlns="http://www.w3.org/2000/svg">
<g clip-path="url(#clip0_12271_27875)">
<path opacity="0.2" d="M4.125 9.75V4.5H1.875C1.77554 4.5 1.68016 4.53951 1.60984 4.60984C1.53951 4.68016 1.5 4.77554 1.5 4.875V9.75H4.125Z" fill="#19191A"/>
<path opacity="0.2" d="M7.875 9.75V6.375H10.125C10.2245 6.375 10.3198 6.41451 10.3902 6.48483C10.4605 6.55516 10.5 6.65054 10.5 6.75V9.75H7.875Z" fill="#19191A"/>
<path d="M1.5 9.75V4.875C1.5 4.77554 1.53951 4.68016 1.60984 4.60984C1.68016 4.53951 1.77554 4.5 1.875 4.5H4.125" stroke="#19191A" stroke-linecap="round" stroke-linejoin="round"/>
<path d="M4.125 9.75V2.625C4.125 2.52554 4.16451 2.43016 4.23484 2.35984C4.30516 2.28951 4.40054 2.25 4.5 2.25H7.5C7.59946 2.25 7.69484 2.28951 7.76517 2.35984C7.83549 2.43016 7.875 2.52554 7.875 2.625V9.75" stroke="#19191A" stroke-linecap="round" stroke-linejoin="round"/>
<path d="M10.5 9.75V6.75C10.5 6.65054 10.4605 6.55516 10.3902 6.48483C10.3198 6.41451 10.2245 6.375 10.125 6.375H7.875" stroke="#19191A" stroke-linecap="round" stroke-linejoin="round"/>
<path d="M5.625 4.6875L6.1875 4.5V6.375" stroke="#19191A" stroke-linecap="round" stroke-linejoin="round"/>
<path d="M0.75 9.75H11.25" stroke="#19191A" stroke-linecap="round" stroke-linejoin="round"/>
</g>
<defs>
<clipPath id="clip0_12271_27875">
<rect width="12" height="12" fill="white"/>
</clipPath>
</defs>
</svg>
