<svg width="17" height="16" viewBox="0 0 17 16" fill="none" xmlns="http://www.w3.org/2000/svg">
<g clip-path="url(#clip0_12142_15908)">
<path d="M8.33332 1.5C7.04774 1.5 5.79103 1.88122 4.72211 2.59545C3.65319 3.30968 2.82007 4.32484 2.3281 5.51256C1.83613 6.70028 1.70741 8.00721 1.95821 9.26809C2.20902 10.529 2.82808 11.6872 3.73712 12.5962C4.64616 13.5052 5.80435 14.1243 7.06523 14.3751C8.32611 14.6259 9.63304 14.4972 10.8208 14.0052C12.0085 13.5132 13.0236 12.6801 13.7379 11.6112C14.4521 10.5423 14.8333 9.28558 14.8333 8C14.8315 6.27665 14.1461 4.62441 12.9275 3.40582C11.7089 2.18722 10.0567 1.50182 8.33332 1.5ZM13.8333 8C13.8339 8.70561 13.698 9.40468 13.4333 10.0588L10.6396 8.34062C10.5208 8.26733 10.3879 8.21984 10.2496 8.20125L8.82332 8.00875C8.62679 7.98312 8.42706 8.01607 8.24918 8.10346C8.07129 8.19084 7.92315 8.32879 7.82332 8.5H7.27832L7.04082 8.00875C6.97516 7.87196 6.87907 7.75201 6.7599 7.65809C6.64074 7.56417 6.50166 7.49876 6.35332 7.46688L5.85332 7.35875L6.34207 6.5H7.38644C7.55544 6.49967 7.72161 6.45667 7.86957 6.375L8.63519 5.9525C8.70246 5.915 8.76534 5.87015 8.82269 5.81875L10.5046 4.2975C10.6732 4.14638 10.7853 3.9423 10.8223 3.71892C10.8593 3.49554 10.8191 3.26621 10.7083 3.06875L10.6858 3.02813C11.6269 3.47437 12.4222 4.17837 12.9793 5.05841C13.5364 5.93845 13.8326 6.95844 13.8333 8ZM2.83332 8C2.83248 7.18251 3.01487 6.37523 3.36707 5.6375L4.07582 7.52938C4.13488 7.68602 4.23232 7.82532 4.35921 7.93452C4.4861 8.04372 4.63837 8.11931 4.80207 8.15438L6.14144 8.4425L6.37957 8.9375C6.46221 9.10586 6.59028 9.24775 6.74932 9.34715C6.90836 9.44655 7.09202 9.49949 7.27957 9.5H7.37207L6.92019 10.5144C6.84057 10.693 6.81507 10.891 6.84684 11.084C6.87861 11.2769 6.96626 11.4563 7.09894 11.6L7.10769 11.6088L8.33332 12.8713L8.21207 13.4963C6.77571 13.4628 5.40929 12.8694 4.40439 11.8425C3.39949 10.8157 2.8357 9.43674 2.83332 8Z" fill="black"/>
</g>
<defs>
<clipPath id="clip0_12142_15908">
<rect width="16" height="16" fill="white" transform="translate(0.333313)"/>
</clipPath>
</defs>
</svg>
