<svg width="12" height="12" viewBox="0 0 12 12" fill="none" xmlns="http://www.w3.org/2000/svg">
<path d="M6 0.3125C4.87512 0.3125 3.7755 0.646066 2.8402 1.27102C1.90489 1.89597 1.17591 2.78423 0.745438 3.82349C0.314964 4.86274 0.202333 6.00631 0.421786 7.10958C0.64124 8.21284 1.18292 9.22626 1.97833 10.0217C2.77374 10.8171 3.78716 11.3588 4.89043 11.5782C5.99369 11.7977 7.13726 11.685 8.17651 11.2546C9.21577 10.8241 10.104 10.0951 10.729 9.15981C11.3539 8.2245 11.6875 7.12488 11.6875 6C11.6859 4.49207 11.0862 3.04636 10.0199 1.98009C8.95365 0.913821 7.50793 0.314092 6 0.3125ZM5.78125 2.9375C5.91105 2.9375 6.03793 2.97599 6.14585 3.0481C6.25377 3.12021 6.33788 3.2227 6.38755 3.34261C6.43722 3.46253 6.45021 3.59448 6.42489 3.72178C6.39957 3.84908 6.33707 3.96601 6.24529 4.05779C6.15351 4.14957 6.03658 4.21207 5.90928 4.23739C5.78198 4.26271 5.65003 4.24972 5.53012 4.20005C5.4102 4.15038 5.30771 4.06626 5.2356 3.95834C5.16349 3.85042 5.125 3.72354 5.125 3.59375C5.125 3.4197 5.19414 3.25278 5.31721 3.12971C5.44028 3.00664 5.6072 2.9375 5.78125 2.9375ZM6.4375 9.0625C6.20544 9.0625 5.98288 8.97031 5.81878 8.80622C5.65469 8.64212 5.5625 8.41956 5.5625 8.1875V6C5.44647 6 5.33519 5.95391 5.25314 5.87186C5.1711 5.78981 5.125 5.67853 5.125 5.5625C5.125 5.44647 5.1711 5.33519 5.25314 5.25314C5.33519 5.17109 5.44647 5.125 5.5625 5.125C5.79457 5.125 6.01713 5.21719 6.18122 5.38128C6.34531 5.54538 6.4375 5.76794 6.4375 6V8.1875C6.55353 8.1875 6.66481 8.23359 6.74686 8.31564C6.82891 8.39769 6.875 8.50897 6.875 8.625C6.875 8.74103 6.82891 8.85231 6.74686 8.93436C6.66481 9.01641 6.55353 9.0625 6.4375 9.0625Z" fill="#96979A"/>
</svg>
