<svg width="16" height="17" viewBox="0 0 16 17" fill="none" xmlns="http://www.w3.org/2000/svg">
<g clip-path="url(#clip0_2402_54955)">
<path d="M7.33301 3.323H2.66634C2.31272 3.323 1.97358 3.46347 1.72353 3.71352C1.47348 3.96357 1.33301 4.30271 1.33301 4.65633V13.9897C1.33301 14.3433 1.47348 14.6824 1.72353 14.9325C1.97358 15.1825 2.31272 15.323 2.66634 15.323H11.9997C12.3533 15.323 12.6924 15.1825 12.9425 14.9325C13.1925 14.6824 13.333 14.3433 13.333 13.9897V9.323" stroke="#19191A" stroke-width="1.5" stroke-linecap="round" stroke-linejoin="round"/>
<path d="M12.333 2.3229C12.5982 2.05769 12.9579 1.90869 13.333 1.90869C13.7081 1.90869 14.0678 2.05769 14.333 2.3229C14.5982 2.58812 14.7472 2.94783 14.7472 3.3229C14.7472 3.69798 14.5982 4.05769 14.333 4.3229L7.99967 10.6562L5.33301 11.3229L5.99967 8.65624L12.333 2.3229Z" stroke="#19191A" stroke-width="1.5" stroke-linecap="round" stroke-linejoin="round"/>
</g>
<defs>
<clipPath id="clip0_2402_54955">
<rect width="16" height="16" fill="white" transform="translate(0 0.65625)"/>
</clipPath>
</defs>
</svg>
