<svg width="68" height="58" viewBox="0 0 68 58" fill="none" xmlns="http://www.w3.org/2000/svg">
<path d="M68 36.7583H58.8411V58H9.19375C8.74129 50.9748 9.23926 44.0381 8.88854 36.7932H0C0.615772 35.5414 0.918304 34.7588 1.35738 34.0619C3.49919 30.6659 5.76684 27.345 7.80424 23.8873C8.87247 22.0781 10.104 21.3517 12.2699 21.3678C25.5599 21.475 38.8499 21.408 52.1425 21.4348C54.2656 21.4402 56.726 20.9872 58.418 21.8905C60.011 22.7428 60.8169 25.0962 61.936 26.8116C63.4942 29.2024 65.0336 31.6094 66.557 34.0244C66.9666 34.6757 67.2825 35.386 68 36.753V36.7583ZM56.9911 36.7958C55.7943 36.7958 54.9135 36.7958 54.0354 36.7958C49.0449 36.7958 44.0518 36.7476 39.0614 36.8227C37.5514 36.8468 36.5956 36.375 35.8192 35.0536C34.328 32.5207 32.6841 30.0736 31.0778 27.6076C30.7752 27.1439 30.3522 26.7633 29.8489 26.1871C29.3188 30.548 29.5089 54.4191 30.047 56.2953H56.9911V36.7932V36.7958ZM64.5383 34.9759C64.5383 34.5336 64.6052 34.3192 64.5276 34.1959C62.434 30.883 60.2895 27.6023 58.244 24.2626C57.6122 23.2306 56.7662 23.1583 55.7542 23.1583C47.9178 23.1717 40.0841 23.1636 32.2477 23.1797C31.7819 23.1797 31.316 23.3593 30.5718 23.5094C33.1259 27.5058 35.5113 31.2395 37.8968 34.9732H64.5383V34.9759ZM27.5866 48.1632C28.0765 43.2957 27.8891 28.3099 27.276 26.1737C25.6027 28.7655 23.8545 31.1189 22.4944 33.6786C21.2093 36.099 19.5601 37.1202 16.7865 36.8602C14.9124 36.6833 12.9232 36.426 10.9848 37.1684V56.0461C16.6687 53.347 22.1035 50.7685 27.5893 48.1632H27.5866ZM2.79775 35.0402C8.44411 35.0402 13.4854 35.0858 18.524 34.9813C19.1345 34.9679 19.9109 34.2736 20.3017 33.6893C22.3284 30.6605 24.2614 27.5674 26.2024 24.4824C26.4032 24.1607 26.4568 23.7453 26.6442 23.1744C21.4289 23.1744 16.4599 23.1422 11.4882 23.2172C10.9126 23.2253 10.1388 23.7024 9.80952 24.1956C7.54187 27.5862 5.36525 31.0412 2.79775 35.0402Z" fill="#CACBCC"/>
<path d="M12.9121 10.9982C14.0492 11.0459 15.0035 10.1342 15 9.00098C14.9965 7.93591 14.145 7.04807 13.0792 7.00206C11.9421 6.95093 11 7.85923 11 9.00439C11 10.0848 11.8324 10.9522 12.9121 10.9982Z" fill="#CACBCC"/>
<path d="M44.4682 6.50237C44.6396 6.01723 44.819 5.6259 44.9153 5.21313C45.3276 3.43338 44.6315 2.69093 42.8431 3.00989C42.5031 3.07154 42.1765 3.36905 41.8579 3.34761C41.5714 3.32885 41.2394 3.07154 41.0547 2.82495C40.9476 2.68289 41.0092 2.28352 41.1404 2.12001C41.9355 1.12293 43.0011 0.82273 44.2246 1.09612C45.7908 1.44725 47.0197 2.79814 46.9313 4.28573C46.8644 5.41147 46.6957 6.63371 45.2259 6.90174C45.0947 6.92587 44.926 6.74896 44.4682 6.49969V6.50237Z" fill="#CACBCC"/>
<path d="M55.8435 12.5089C55.3053 11.887 54.9653 11.5815 55.0028 11.5225C55.98 10.0108 56.984 8.51784 58.0255 7.05169C58.0977 6.94984 58.6841 7.01149 58.7296 7.12406C58.8768 7.48055 59.0749 8.02466 58.9116 8.26857C57.9987 9.64358 56.9867 10.9489 55.8408 12.5062L55.8435 12.5089Z" fill="#CACBCC"/>
<g clip-path="url(#clip0_8661_23383)">
<path d="M21.6473 13.3199L25.2323 26.6991C25.3511 27.1426 25.6253 27.5251 25.9945 27.7623C26.3636 27.9995 26.7975 28.0721 27.2008 27.9641L42.4044 23.8903C42.606 23.8363 42.7758 23.6964 42.8763 23.5013C42.9769 23.3063 43 23.0722 42.9405 22.8504L39.8037 11.1436C39.7443 10.9218 39.6072 10.7306 39.4226 10.612C39.238 10.4933 39.0211 10.4571 38.8195 10.5111L23.6158 14.5849C23.2126 14.6929 22.7787 14.6203 22.4095 14.3831C22.0403 14.1459 21.7662 13.7634 21.6473 13.3199ZM21.6473 13.3199C21.5285 12.8763 21.5747 12.408 21.7758 12.018C21.9769 11.6279 22.3164 11.3481 22.7196 11.2401L35.6427 7.77735" stroke="#CACBCC" stroke-width="2" stroke-linecap="round" stroke-linejoin="round"/>
<path d="M37.4145 18.9536C38.0443 18.7848 38.4043 18.0864 38.2187 17.3937C38.0331 16.701 37.3721 16.2762 36.7423 16.445C36.1126 16.6137 35.7525 17.3121 35.9381 18.0048C36.1238 18.6975 36.7847 19.1223 37.4145 18.9536Z" fill="#CACBCC"/>
</g>
<defs>
<clipPath id="clip0_8661_23383">
<rect width="28" height="22" fill="white" transform="translate(20)"/>
</clipPath>
</defs>
</svg>
