<svg width="16" height="17" viewBox="0 0 16 17" fill="none" xmlns="http://www.w3.org/2000/svg">
<g clip-path="url(#clip0_10523_33057)">
<path opacity="0.2" d="M13 2.66667H6C5.86739 2.66667 5.74021 2.71935 5.64645 2.81312C5.55268 2.90689 5.5 3.03406 5.5 3.16667V6.16667H3C2.86739 6.16667 2.74021 6.21935 2.64645 6.31312C2.55268 6.40689 2.5 6.53406 2.5 6.66667V13.1667C2.5 13.2993 2.55268 13.4265 2.64645 13.5202C2.74021 13.614 2.86739 13.6667 3 13.6667H10C10.1326 13.6667 10.2598 13.614 10.3536 13.5202C10.4473 13.4265 10.5 13.2993 10.5 13.1667V10.1667H13C13.1326 10.1667 13.2598 10.114 13.3536 10.0202C13.4473 9.92646 13.5 9.79928 13.5 9.66667V3.16667C13.5 3.03406 13.4473 2.90689 13.3536 2.81312C13.2598 2.71935 13.1326 2.66667 13 2.66667Z" fill="#636467"/>
<path d="M5 10.1667H13C13.1326 10.1667 13.2598 10.114 13.3536 10.0202C13.4473 9.92646 13.5 9.79928 13.5 9.66667V3.16667C13.5 3.03406 13.4473 2.90689 13.3536 2.81312C13.2598 2.71935 13.1326 2.66667 13 2.66667H6C5.86739 2.66667 5.74021 2.71935 5.64645 2.81312C5.55268 2.90689 5.5 3.03406 5.5 3.16667V3.66667" stroke="#636467" stroke-width="1.5" stroke-linecap="round" stroke-linejoin="round"/>
<path d="M6.5 8.66666L5 10.1667L6.5 11.6667" fill="#636467"/>
<path d="M6.5 8.66666L5 10.1667L6.5 11.6667" stroke="#636467" stroke-width="1.5" stroke-linecap="round" stroke-linejoin="round"/>
<path d="M11 6.16666H3C2.86739 6.16666 2.74021 6.21934 2.64645 6.31311C2.55268 6.40688 2.5 6.53406 2.5 6.66666V13.1667C2.5 13.2993 2.55268 13.4265 2.64645 13.5202C2.74021 13.614 2.86739 13.6667 3 13.6667H10C10.1326 13.6667 10.2598 13.614 10.3536 13.5202C10.4473 13.4265 10.5 13.2993 10.5 13.1667V12.6667" stroke="#636467" stroke-width="1.5" stroke-linecap="round" stroke-linejoin="round"/>
<path d="M9.5 7.66667L11 6.16667L9.5 4.66667" fill="#636467"/>
<path d="M9.5 7.66667L11 6.16667L9.5 4.66667" stroke="#636467" stroke-width="1.5" stroke-linecap="round" stroke-linejoin="round"/>
</g>
<defs>
<clipPath id="clip0_10523_33057">
<rect width="16" height="16" fill="white" transform="translate(0 0.5)"/>
</clipPath>
</defs>
</svg>
