<svg width="59" height="11" viewBox="0 0 59 11" fill="none" xmlns="http://www.w3.org/2000/svg">
<path d="M0.109508 10V0.545454H6.03707V1.77344H1.536V4.65412H5.72776V5.87749H1.536V8.77202H6.09246V10H0.109508ZM11.1417 2.90909V4.01705H7.26851V2.90909H11.1417ZM8.30722 1.21023H9.68754V7.91797C9.68754 8.18572 9.72755 8.38731 9.80757 8.52273C9.88759 8.65507 9.99069 8.74586 10.1169 8.7951C10.2461 8.84126 10.3862 8.86435 10.537 8.86435C10.6478 8.86435 10.7447 8.85665 10.8278 8.84126C10.9109 8.82588 10.9755 8.81357 11.0217 8.80433L11.271 9.9446C11.191 9.97538 11.0771 10.0062 10.9294 10.0369C10.7816 10.0708 10.597 10.0893 10.3754 10.0923C10.0122 10.0985 9.67369 10.0339 9.35977 9.89844C9.04585 9.76302 8.79195 9.55374 8.59806 9.2706C8.40416 8.98745 8.30722 8.63198 8.30722 8.20419V1.21023ZM14.2013 5.78977V10H12.821V0.545454H14.1828V4.06321H14.2706C14.4367 3.68158 14.6907 3.37843 15.0323 3.15376C15.3739 2.9291 15.8201 2.81676 16.371 2.81676C16.8573 2.81676 17.282 2.91679 17.6452 3.11683C18.0114 3.31688 18.2946 3.61541 18.4946 4.01243C18.6978 4.40637 18.7993 4.89879 18.7993 5.4897V10H17.419V5.65589C17.419 5.13577 17.2851 4.7326 17.0174 4.44638C16.7496 4.15708 16.3772 4.01243 15.9002 4.01243C15.5739 4.01243 15.2816 4.08168 15.023 4.22017C14.7676 4.35866 14.566 4.56179 14.4183 4.82955C14.2736 5.09422 14.2013 5.4143 14.2013 5.78977ZM23.6974 10.1431C22.9988 10.1431 22.3971 9.99384 21.8924 9.69531C21.3907 9.3937 21.0029 8.97053 20.729 8.42578C20.4582 7.87796 20.3228 7.23627 20.3228 6.50071C20.3228 5.77438 20.4582 5.13423 20.729 4.58026C21.0029 4.02628 21.3845 3.59387 21.8739 3.28303C22.3663 2.97218 22.9418 2.81676 23.6005 2.81676C24.0005 2.81676 24.3883 2.88293 24.7638 3.01527C25.1393 3.14761 25.4763 3.35535 25.7748 3.63849C26.0733 3.92164 26.3088 4.28942 26.4811 4.74183C26.6535 5.19117 26.7397 5.73745 26.7397 6.38068V6.87003H21.1029V5.83594H25.387C25.387 5.47277 25.3132 5.15116 25.1654 4.87109C25.0177 4.58795 24.81 4.36482 24.5422 4.2017C24.2775 4.03859 23.9667 3.95703 23.6097 3.95703C23.2219 3.95703 22.8834 4.05244 22.5941 4.24325C22.3078 4.43099 22.0862 4.6772 21.9293 4.98189C21.7754 5.2835 21.6985 5.61127 21.6985 5.9652V6.77308C21.6985 7.24704 21.7816 7.65021 21.9478 7.9826C22.117 8.31499 22.3525 8.56889 22.6541 8.74432C22.9557 8.91667 23.3081 9.00284 23.7112 9.00284C23.9728 9.00284 24.2114 8.96591 24.4268 8.89205C24.6422 8.8151 24.8284 8.70123 24.9854 8.55043C25.1424 8.39962 25.2624 8.21342 25.3455 7.99183L26.6519 8.22727C26.5473 8.61198 26.3596 8.94898 26.0887 9.23828C25.821 9.5245 25.484 9.74763 25.0777 9.90767C24.6746 10.0646 24.2144 10.1431 23.6974 10.1431ZM28.2712 10V2.90909H29.6053V4.03551H29.6792C29.8085 3.65388 30.0362 3.35381 30.3624 3.1353C30.6917 2.91371 31.0641 2.80291 31.4796 2.80291C31.5658 2.80291 31.6674 2.80599 31.7843 2.81214C31.9043 2.8183 31.9982 2.82599 32.0659 2.83523V4.15554C32.0105 4.14015 31.912 4.12322 31.7705 4.10476C31.6289 4.08321 31.4873 4.07244 31.3457 4.07244C31.0195 4.07244 30.7287 4.14169 30.4732 4.28018C30.2209 4.4156 30.0208 4.60488 29.8731 4.84801C29.7254 5.08807 29.6515 5.36198 29.6515 5.66974V10H28.2712ZM36.0626 10.1431C35.364 10.1431 34.7623 9.99384 34.2576 9.69531C33.7559 9.3937 33.3681 8.97053 33.0942 8.42578C32.8234 7.87796 32.688 7.23627 32.688 6.50071C32.688 5.77438 32.8234 5.13423 33.0942 4.58026C33.3681 4.02628 33.7498 3.59387 34.2391 3.28303C34.7315 2.97218 35.3071 2.81676 35.9657 2.81676C36.3658 2.81676 36.7536 2.88293 37.129 3.01527C37.5045 3.14761 37.8415 3.35535 38.14 3.63849C38.4386 3.92164 38.674 4.28942 38.8464 4.74183C39.0187 5.19117 39.1049 5.73745 39.1049 6.38068V6.87003H33.4682V5.83594H37.7523C37.7523 5.47277 37.6784 5.15116 37.5307 4.87109C37.3829 4.58795 37.1752 4.36482 36.9074 4.2017C36.6428 4.03859 36.3319 3.95703 35.9749 3.95703C35.5871 3.95703 35.2486 4.05244 34.9593 4.24325C34.6731 4.43099 34.4515 4.6772 34.2945 4.98189C34.1406 5.2835 34.0637 5.61127 34.0637 5.9652V6.77308C34.0637 7.24704 34.1468 7.65021 34.313 7.9826C34.4823 8.31499 34.7177 8.56889 35.0193 8.74432C35.3209 8.91667 35.6733 9.00284 36.0765 9.00284C36.3381 9.00284 36.5766 8.96591 36.792 8.89205C37.0075 8.8151 37.1937 8.70123 37.3506 8.55043C37.5076 8.39962 37.6276 8.21342 37.7107 7.99183L39.0172 8.22727C38.9125 8.61198 38.7248 8.94898 38.454 9.23828C38.1862 9.5245 37.8492 9.74763 37.443 9.90767C37.0398 10.0646 36.5797 10.1431 36.0626 10.1431ZM45.1282 7.0593V2.90909H46.5132V10H45.1559V8.77202H45.0821C44.919 9.15057 44.6574 9.46603 44.2973 9.71839C43.9403 9.96768 43.4955 10.0923 42.9631 10.0923C42.5076 10.0923 42.1044 9.99231 41.7536 9.79226C41.4058 9.58913 41.1319 9.28906 40.9319 8.89205C40.7349 8.49503 40.6364 8.00414 40.6364 7.41939V2.90909H42.0167V7.2532C42.0167 7.73639 42.1506 8.12109 42.4184 8.40732C42.6861 8.69354 43.0339 8.83665 43.4617 8.83665C43.7202 8.83665 43.9772 8.77202 44.2326 8.64276C44.4912 8.51349 44.7051 8.31806 44.8743 8.05646C45.0467 7.79486 45.1313 7.46248 45.1282 7.0593ZM48.3679 10V2.90909H49.6928V4.06321H49.7805C49.9282 3.67235 50.1698 3.36766 50.5053 3.14915C50.8407 2.92756 51.2424 2.81676 51.7102 2.81676C52.1841 2.81676 52.5812 2.92756 52.9012 3.14915C53.2244 3.37074 53.4629 3.67543 53.6168 4.06321H53.6907C53.8599 3.68466 54.1292 3.38305 54.4985 3.15838C54.8679 2.93063 55.308 2.81676 55.8188 2.81676C56.4621 2.81676 56.9868 3.01835 57.3931 3.42152C57.8024 3.82469 58.0071 4.43253 58.0071 5.24503V10H56.6267V5.37429C56.6267 4.89418 56.4959 4.5464 56.2343 4.33097C55.9727 4.11553 55.6603 4.00781 55.2972 4.00781C54.8478 4.00781 54.4985 4.14631 54.2492 4.4233C54 4.69721 53.8753 5.0496 53.8753 5.48047V10H52.4996V5.28658C52.4996 4.90187 52.3796 4.59257 52.1395 4.35866C51.8995 4.12476 51.5871 4.00781 51.2024 4.00781C50.9408 4.00781 50.6992 4.07706 50.4776 4.21555C50.2591 4.35097 50.0821 4.54025 49.9467 4.78338C49.8143 5.02652 49.7482 5.30812 49.7482 5.6282V10H48.3679Z" fill="#CAA3F5"/>
</svg>
