<svg width="16" height="16" viewBox="0 0 16 16" fill="none" xmlns="http://www.w3.org/2000/svg">
<rect width="16" height="16" rx="2" fill="#EADAFB"/>
<g clip-path="url(#clip0_1607_1758)">
<path d="M11.7459 8.4036C11.755 8.40533 11.7549 8.42191 11.768 8.41721V8.42958C10.4899 9.18507 9.21181 9.94055 7.93345 10.6958C7.91811 10.7048 7.90475 10.7198 7.88421 10.7176C7.88421 9.39503 7.88421 8.07263 7.88408 6.7501C7.88408 6.72337 7.88161 6.69677 7.88037 6.67004H7.88136C7.90264 6.6771 7.92479 6.68229 7.9452 6.69145C8.04456 6.73599 8.14329 6.78189 8.2424 6.82681C8.64068 7.00757 9.03921 7.18809 9.43737 7.36911C9.6748 7.477 9.91186 7.58588 10.1493 7.69377C10.5905 7.89421 11.0314 8.09564 11.4739 8.29336C11.563 8.3332 11.646 8.38987 11.7459 8.4036Z" fill="#282131"/>
<path d="M7.88012 6.67004C7.88148 6.69677 7.88383 6.72337 7.88383 6.7501C7.88395 8.07263 7.88395 9.39503 7.88395 10.7176C7.75466 10.6593 7.63786 10.5791 7.51623 10.5074C6.34391 9.81546 5.17208 9.12246 4 8.42971C4 8.42562 4 8.42142 4 8.41733L4.01188 8.41696C4.02549 8.41276 4.03959 8.40991 4.05246 8.40409C4.41956 8.23743 4.78666 8.0704 5.15364 7.90361C5.9121 7.55891 6.67043 7.21395 7.42925 6.87024C7.57896 6.80243 7.72583 6.72807 7.87999 6.67029L7.88012 6.67004Z" fill="#796293"/>
<path d="M4.02441 9.18471C4.18971 9.26797 4.34499 9.36857 4.50411 9.46235C5.61865 10.1198 6.73245 10.7784 7.8465 11.4367C7.85887 11.444 7.871 11.4519 7.88313 11.4596C7.88313 12.4077 7.88325 13.3557 7.8835 14.3038C7.8835 14.411 7.88449 14.5181 7.88498 14.6253C7.83128 14.5825 7.80109 14.5211 7.76261 14.4669C6.78702 13.0937 5.81241 11.7196 4.83768 10.3458C4.57674 9.97793 4.31579 9.61008 4.05547 9.24187C4.0431 9.2243 4.02194 9.20995 4.02528 9.18372L4.02441 9.18471Z" fill="#CAA3F5"/>
<path d="M7.88516 14.6253C7.88466 14.5182 7.88367 14.411 7.88367 14.3039C7.88342 13.3557 7.88342 12.4077 7.8833 11.4596C8.85927 10.8829 9.83511 10.3061 10.8111 9.72951C11.1086 9.55369 11.4065 9.37824 11.7042 9.2028C11.7164 9.19562 11.7295 9.18968 11.7423 9.18325L11.7414 9.18176C11.752 9.207 11.7289 9.21839 11.7183 9.23336C10.4526 11.0171 9.18653 12.8007 7.9203 14.584C7.9099 14.5987 7.89691 14.6116 7.88516 14.6253Z" fill="#514162"/>
<path d="M4.02517 9.18364L4.01855 9.17943C4.01976 9.17943 4.02156 9.17919 4.02204 9.17979C4.02313 9.18111 4.02361 9.18292 4.02433 9.1846L4.02517 9.18364Z" fill="#8B8B8B"/>
<path d="M11.742 9.18377L11.7513 9.1781L11.7509 9.1839C11.7477 9.18336 11.7445 9.18296 11.7412 9.18228L11.7422 9.18377H11.742Z" fill="#3C3C3B"/>
<path d="M7.87983 6.67012C7.72567 6.72803 7.5788 6.80226 7.42909 6.87007C6.67027 7.21378 5.91194 7.55886 5.15348 7.90344C4.78638 8.07023 4.4194 8.23726 4.0523 8.40392C4.03943 8.40974 4.02521 8.41258 4.01172 8.41679C4.12196 8.23108 4.23121 8.04474 4.34257 7.85964C5.23502 6.37787 6.12797 4.89598 7.02079 3.41421C7.29819 2.95382 7.57583 2.49343 7.85373 2.03328C7.86152 2.02029 7.86363 2.00037 7.8854 2C7.88466 2.03081 7.8833 2.06174 7.8833 2.09255C7.8833 3.58966 7.8833 5.08677 7.88305 6.58376C7.88305 6.61259 7.88157 6.64129 7.88082 6.67012H7.87983Z" fill="#A282C4"/>
<path d="M7.88135 6.67024C7.88209 6.64141 7.88357 6.61271 7.88357 6.58388C7.88357 5.08677 7.88357 3.58966 7.88382 2.09267C7.88382 2.06186 7.88518 2.03093 7.88593 2.00012C7.95979 2.09886 8.01708 2.20786 8.08043 2.31303C9.29247 4.32312 10.5038 6.3337 11.7151 8.34416C11.7266 8.36334 11.7357 8.38388 11.746 8.4038C11.646 8.39006 11.5631 8.3334 11.474 8.29356C11.0316 8.09584 10.5907 7.89453 10.1494 7.69397C9.91197 7.58608 9.67491 7.4772 9.43748 7.36931C9.0392 7.18829 8.64079 7.00777 8.24251 6.82701C8.1434 6.78197 8.04467 6.73619 7.94532 6.69165C7.9249 6.68249 7.90288 6.6773 7.88147 6.67037L7.88135 6.67024Z" fill="#514162"/>
</g>
<defs>
<clipPath id="clip0_1607_1758">
<rect width="7.76778" height="12.6253" fill="white" transform="translate(4 2)"/>
</clipPath>
</defs>
</svg>
