<svg width="23" height="12" viewBox="0 0 23 12" fill="none" xmlns="http://www.w3.org/2000/svg">
<path opacity="0.2" d="M20.6819 4.73371C22.3028 6.35465 22.4285 8.6984 21.0569 10.4637C20.9566 10.5909 20.8178 10.6821 20.6613 10.7239C20.5049 10.7656 20.3391 10.7556 20.1888 10.6953L15.5856 9.06215C15.4707 9.01615 15.369 8.94243 15.2895 8.84755C15.21 8.75267 15.1552 8.63959 15.13 8.5184L14.5478 5.73027C14.5221 5.60431 14.4642 5.48716 14.3798 5.39023C14.2953 5.2933 14.1872 5.21989 14.066 5.17715C12.3912 4.60314 10.5723 4.60743 8.90033 5.18934C8.7782 5.23307 8.66964 5.308 8.58543 5.40667C8.50123 5.50535 8.44431 5.62435 8.42033 5.75184L7.8672 8.5184C7.84194 8.63969 7.78701 8.75284 7.70734 8.84772C7.62767 8.94261 7.52573 9.01628 7.41064 9.06215L2.80845 10.6953C2.65828 10.7568 2.49221 10.7679 2.33517 10.727C2.17813 10.6861 2.0386 10.5953 1.93751 10.4684C0.568765 8.70309 0.69439 6.35934 2.31251 4.7384C7.2972 -0.245351 15.7028 -0.245351 20.6819 4.73371Z" fill="#E84042"/>
<path d="M20.6819 4.73371C22.3028 6.35465 22.4285 8.6984 21.0569 10.4637C20.9566 10.5909 20.8178 10.6821 20.6613 10.7239C20.5049 10.7656 20.3391 10.7556 20.1888 10.6953L15.5856 9.06215C15.4707 9.01615 15.369 8.94243 15.2895 8.84755C15.21 8.75267 15.1552 8.63959 15.13 8.5184L14.5478 5.73027C14.5221 5.60431 14.4642 5.48716 14.3798 5.39023C14.2953 5.2933 14.1872 5.21989 14.066 5.17715C12.3912 4.60314 10.5723 4.60743 8.90033 5.18934C8.7782 5.23307 8.66964 5.308 8.58543 5.40667C8.50123 5.50535 8.44431 5.62435 8.42033 5.75184L7.8672 8.5184C7.84193 8.63969 7.78701 8.75284 7.70734 8.84772C7.62767 8.94261 7.52573 9.01628 7.41064 9.06215L2.80845 10.6953C2.65828 10.7568 2.49221 10.7679 2.33517 10.727C2.17813 10.6861 2.0386 10.5953 1.93751 10.4684C0.568765 8.70309 0.69439 6.35934 2.31251 4.7384C7.2972 -0.245351 15.7028 -0.245351 20.6819 4.73371Z" stroke="#E84042" stroke-width="2" stroke-linecap="round" stroke-linejoin="round"/>
</svg>
