<svg width="24" height="24" viewBox="0 0 24 24" xmlns="http://www.w3.org/2000/svg">
    <g fill="none" fill-rule="evenodd">
        <path d="M0 0h24v24H0z"/>
        <g fill="#0D0D0D">
            <g fill-rule="nonzero">
                <path d="M19.676 11.842a8.164 8.164 0 0 0-15.656 0 .62.62 0 0 0 0 .316 8.164 8.164 0 0 0 15.656 0 .62.62 0 0 0 0-.316zm-7.828 3.424a3.266 3.266 0 1 1 0-6.532 3.266 3.266 0 0 1 0 6.532z"/>
                <path d="M14.026 12a2.177 2.177 0 1 1-4.355 0 2.177 2.177 0 0 1 4.355 0"/>
            </g>
            <path stroke="#FFF" stroke-width=".7" d="M17.728 4.788 18.93 5.99 5.707 19.213l-1.202-1.202z"/>
        </g>
    </g>
</svg>
