<svg width="14" height="14" viewBox="0 0 14 14" fill="none" xmlns="http://www.w3.org/2000/svg">
<path opacity="0.2" d="M7.25 13H1.97938C1.9164 13.0001 1.85403 12.9877 1.79583 12.9637C1.73763 12.9396 1.68475 12.9043 1.64022 12.8598C1.59569 12.8152 1.56038 12.7624 1.53632 12.7042C1.51226 12.646 1.49992 12.5836 1.5 12.5206V7.25C1.5 5.72501 2.1058 4.26247 3.18414 3.18414C4.26247 2.1058 5.72501 1.5 7.25 1.5C8.0051 1.5 8.75281 1.64873 9.45043 1.93769C10.1481 2.22666 10.7819 2.6502 11.3159 3.18414C11.8498 3.71807 12.2733 4.35195 12.5623 5.04957C12.8513 5.74719 13 6.4949 13 7.25C13 8.0051 12.8513 8.75281 12.5623 9.45043C12.2733 10.1481 11.8498 10.7819 11.3159 11.3159C10.7819 11.8498 10.1481 12.2733 9.45043 12.5623C8.75281 12.8513 8.0051 13 7.25 13Z" fill="transparent"/>
<path d="M5 6.5H9" stroke="#19191A" stroke-width="1.5" stroke-linecap="round" stroke-linejoin="round"/>
<path d="M5 8.5H9" stroke="#19191A" stroke-width="1.5" stroke-linecap="round" stroke-linejoin="round"/>
<path d="M7.25 13H1.97938C1.9164 13.0001 1.85403 12.9877 1.79583 12.9637C1.73763 12.9396 1.68475 12.9043 1.64022 12.8598C1.59569 12.8152 1.56038 12.7624 1.53632 12.7042C1.51226 12.646 1.49992 12.5836 1.5 12.5206V7.25C1.5 5.72501 2.1058 4.26247 3.18414 3.18414C4.26247 2.1058 5.72501 1.5 7.25 1.5C8.0051 1.5 8.75281 1.64873 9.45043 1.93769C10.1481 2.22666 10.7819 2.6502 11.3159 3.18414C11.8498 3.71807 12.2733 4.35195 12.5623 5.04957C12.8513 5.74719 13 6.4949 13 7.25C13 8.0051 12.8513 8.75281 12.5623 9.45043C12.2733 10.1481 11.8498 10.7819 11.3159 11.3159C10.7819 11.8498 10.1481 12.2733 9.45043 12.5623C8.75281 12.8513 8.0051 13 7.25 13Z" stroke="#19191A" stroke-width="1.5" stroke-linecap="round" stroke-linejoin="round"/>
</svg>
