<svg width="32" height="33" viewBox="0 0 32 33" fill="none" xmlns="http://www.w3.org/2000/svg">
<path d="M18.6663 3.1665H7.99967C7.29243 3.1665 6.61415 3.44746 6.11406 3.94755C5.61396 4.44765 5.33301 5.12593 5.33301 5.83317V27.1665C5.33301 27.8737 5.61396 28.552 6.11406 29.0521C6.61415 29.5522 7.29243 29.8332 7.99967 29.8332H23.9997C24.7069 29.8332 25.3852 29.5522 25.8853 29.0521C26.3854 28.552 26.6663 27.8737 26.6663 27.1665V11.1665L18.6663 3.1665Z" stroke="#7C7D81" stroke-width="1.6" stroke-linecap="round" stroke-linejoin="round"/>
<path d="M18.666 3.1665V11.1665H26.666" stroke="#7C7D81" stroke-width="1.6" stroke-linecap="round" stroke-linejoin="round"/>
<path d="M21.3327 17.833H10.666" stroke="#7C7D81" stroke-width="1.6" stroke-linecap="round" stroke-linejoin="round"/>
<path d="M21.3327 23.1665H10.666" stroke="#7C7D81" stroke-width="1.6" stroke-linecap="round" stroke-linejoin="round"/>
<path d="M13.3327 12.5H11.9993H10.666" stroke="#7C7D81" stroke-width="1.6" stroke-linecap="round" stroke-linejoin="round"/>
</svg>
