<svg width="16" height="17" viewBox="0 0 16 17" fill="none" xmlns="http://www.w3.org/2000/svg">
<g clip-path="url(#clip0_10247_25641)">
<path opacity="0.2" d="M5.25 10.5C7.04493 10.5 8.5 9.04493 8.5 7.25C8.5 5.45507 7.04493 4 5.25 4C3.45507 4 2 5.45507 2 7.25C2 9.04493 3.45507 10.5 5.25 10.5Z" fill="#636467"/>
<path d="M0.63916 13.0001C1.13859 12.2322 1.82191 11.6012 2.62708 11.1644C3.43224 10.7276 4.33376 10.4988 5.24979 10.4988C6.16581 10.4988 7.06733 10.7276 7.87249 11.1644C8.67766 11.6012 9.36098 12.2322 9.86041 13.0001" stroke="#636467" stroke-width="2" stroke-linecap="round" stroke-linejoin="round"/>
<path d="M10.75 10.5C11.666 10.4995 12.5676 10.7279 13.3728 11.1645C14.178 11.6011 14.8613 12.2321 15.3606 13" stroke="#636467" stroke-width="2" stroke-linecap="round" stroke-linejoin="round"/>
<path d="M5.25 10.5C7.04493 10.5 8.5 9.04493 8.5 7.25C8.5 5.45507 7.04493 4 5.25 4C3.45507 4 2 5.45507 2 7.25C2 9.04493 3.45507 10.5 5.25 10.5Z" stroke="#636467" stroke-width="2" stroke-linecap="round" stroke-linejoin="round"/>
<path d="M9.54297 4.23125C9.98754 4.05393 10.4658 3.977 10.9435 4.00595C11.4213 4.0349 11.8868 4.16901 12.3067 4.39871C12.7266 4.6284 13.0906 4.94801 13.3726 5.33469C13.6547 5.72138 13.8479 6.16559 13.9384 6.63559C14.0289 7.10558 14.0144 7.58977 13.8961 8.05353C13.7777 8.5173 13.5584 8.94921 13.2538 9.31839C12.9492 9.68758 12.5668 9.98492 12.134 10.1892C11.7011 10.3934 11.2285 10.4996 10.7498 10.5" stroke="#636467" stroke-width="2" stroke-linecap="round" stroke-linejoin="round"/>
</g>
<defs>
<clipPath id="clip0_10247_25641">
<rect width="16" height="16" fill="white" transform="translate(0 0.5)"/>
</clipPath>
</defs>
</svg>
