<svg width="12" height="12" viewBox="0 0 12 12" fill="none" xmlns="http://www.w3.org/2000/svg">
<g clip-path="url(#clip0_8799_30175)">
<path d="M4.11582 7.17415C5.42675 7.17415 6.48946 6.11144 6.48946 4.80052C6.48946 3.48959 5.42675 2.42688 4.11582 2.42688C2.8049 2.42688 1.74219 3.48959 1.74219 4.80052C1.74219 6.11144 2.8049 7.17415 4.11582 7.17415Z" stroke="#19191A" stroke-width="1.5" stroke-linecap="round" stroke-linejoin="round"/>
<path d="M0.748535 9.00005C1.11329 8.43922 1.61236 7.97837 2.20041 7.65934C2.78846 7.34032 3.44689 7.17322 4.11591 7.17322C4.78492 7.17322 5.44335 7.34032 6.0314 7.65934C6.61946 7.97837 7.11852 8.43922 7.48328 9.00005" stroke="#19191A" stroke-width="1.5" stroke-linecap="round" stroke-linejoin="round"/>
<path d="M8.13232 7.17407C8.80131 7.17368 9.45978 7.34051 10.0479 7.65939C10.636 7.97827 11.135 8.43909 11.4997 8.99995" stroke="#19191A" stroke-width="1.5" stroke-linecap="round" stroke-linejoin="round"/>
<path d="M7.25049 2.59577C7.57518 2.46627 7.92447 2.41008 8.2734 2.43123C8.62232 2.45237 8.96227 2.55032 9.26896 2.71808C9.57564 2.88583 9.84148 3.11926 10.0475 3.40167C10.2535 3.68409 10.3946 4.00852 10.4607 4.35178C10.5268 4.69504 10.5162 5.04867 10.4298 5.38738C10.3434 5.72609 10.1832 6.04154 9.96071 6.31117C9.73823 6.5808 9.45895 6.79797 9.14281 6.94715C8.82668 7.09633 8.4815 7.17385 8.13193 7.17415" stroke="#19191A" stroke-width="1.5" stroke-linecap="round" stroke-linejoin="round"/>
</g>
<defs>
<clipPath id="clip0_8799_30175">
<rect width="12" height="12" fill="white"/>
</clipPath>
</defs>
</svg>

