<svg width="21" height="21" viewBox="0 0 21 21" fill="none" xmlns="http://www.w3.org/2000/svg">
<g clip-path="url(#clip0_9143_695)">
<path opacity="0.2" d="M10.5 17.9318C14.6421 17.9318 18 14.5739 18 10.4318C18 6.28963 14.6421 2.93176 10.5 2.93176C6.35786 2.93176 3 6.28963 3 10.4318C3 14.5739 6.35786 17.9318 10.5 17.9318Z" fill="white"/>
<path d="M10.5 17.9318C14.6421 17.9318 18 14.5739 18 10.4318C18 6.28963 14.6421 2.93176 10.5 2.93176C6.35786 2.93176 3 6.28963 3 10.4318C3 14.5739 6.35786 17.9318 10.5 17.9318Z" stroke="white" stroke-width="1.5" stroke-linecap="round" stroke-linejoin="round"/>
<path d="M7.375 10.4318C7.375 13.3583 8.41641 15.9724 10.0531 17.7357C10.11 17.7975 10.1791 17.8469 10.256 17.8807C10.3329 17.9144 10.416 17.9319 10.5 17.9319C10.584 17.9319 10.6671 17.9144 10.744 17.8807C10.8209 17.8469 10.89 17.7975 10.9469 17.7357C12.5836 15.9724 13.625 13.3583 13.625 10.4318C13.625 7.50521 12.5836 4.89114 10.9469 3.12786C10.89 3.06602 10.8209 3.01665 10.744 2.98288C10.6671 2.94911 10.584 2.93167 10.5 2.93167C10.416 2.93167 10.3329 2.94911 10.256 2.98288C10.1791 3.01665 10.11 3.06602 10.0531 3.12786C8.41641 4.89114 7.375 7.50521 7.375 10.4318Z" stroke="white" stroke-width="1.5" stroke-linecap="round" stroke-linejoin="round"/>
<path d="M3.42676 7.93176H17.5736" stroke="white" stroke-width="1.5" stroke-linecap="round" stroke-linejoin="round"/>
<path d="M3.42676 12.9318H17.5736" stroke="white" stroke-width="1.5" stroke-linecap="round" stroke-linejoin="round"/>
</g>
<defs>
<clipPath id="clip0_9143_695">
<rect width="20" height="20" fill="white" transform="translate(0.5 0.431763)"/>
</clipPath>
</defs>
</svg>
