<svg width="60" height="60" viewBox="0 0 60 60" fill="none" xmlns="http://www.w3.org/2000/svg">
<g clip-path="url(#clip0_5671_45670)">
<path d="M60 29.9435L52.7451 22.6885L52.7512 22.6824L30.0664 0L22.842 7.22454L22.8329 7.21538L0 30.0488L9.35321 39.4023L9.35931 39.3962L29.9626 60L39.3158 50.6466L39.3082 50.6389L60.0015 29.9435H60ZM25.3951 36.727L36.7414 25.3805L41.2997 29.939L29.9535 41.2855L25.3951 36.727ZM23.2663 34.5981L18.711 30.0427L30.0572 18.6962L34.6125 23.2516L23.2663 34.5981ZM37.2511 48.4352L32.1556 43.3396L50.6468 24.8479L55.7423 29.9435L37.2511 48.4352ZM30.0664 4.25781L48.492 22.6839L43.3965 27.7795L24.9709 9.35344L30.0664 4.25781ZM22.8329 11.4732L27.9284 16.5688L16.5821 27.9153L16.5638 27.897L9.33489 35.1262L4.2577 30.0488L22.8329 11.4732ZM29.9596 55.7422L11.4851 37.2688L16.5806 32.1732L35.0551 50.6481L29.9596 55.7437V55.7422Z" fill="#E5E5E6"/>
</g>
<defs>
<clipPath id="clip0_5671_45670">
<rect width="60" height="60" fill="white"/>
</clipPath>
</defs>
</svg>
