<svg width="11" height="13" viewBox="0 0 11 13" fill="none" xmlns="http://www.w3.org/2000/svg">
<path d="M5.25007 5.99404C5.80386 5.99404 6.34521 5.82982 6.80567 5.52215C7.26613 5.21448 7.62501 4.77718 7.83694 4.26555C8.04886 3.75392 8.10431 3.19093 7.99627 2.64778C7.88823 2.10464 7.62156 1.60572 7.22997 1.21414C6.83839 0.82255 6.33947 0.555876 5.79633 0.447838C5.25318 0.339799 4.69019 0.395249 4.17856 0.607174C3.66693 0.819099 3.22963 1.17798 2.92196 1.63844C2.61429 2.0989 2.45007 2.64025 2.45007 3.19404C2.45007 3.93664 2.74507 4.64883 3.27017 5.17394C3.79528 5.69904 4.50747 5.99404 5.25007 5.99404Z" fill="#B0B1B3"/>
<path d="M9.44998 12.994C9.63563 12.994 9.81367 12.9203 9.94495 12.789C10.0762 12.6577 10.15 12.4797 10.15 12.294C10.15 10.9945 9.63373 9.74814 8.7148 8.82921C7.79587 7.91028 6.54954 7.39403 5.24998 7.39403C3.95041 7.39403 2.70408 7.91028 1.78515 8.82921C0.866224 9.74814 0.349976 10.9945 0.349976 12.294C0.349976 12.4797 0.423726 12.6577 0.555001 12.789C0.686276 12.9203 0.864324 12.994 1.04998 12.994H9.44998Z" fill="#B0B1B3"/>
</svg>

