<svg width="16" height="17" viewBox="0 0 16 17" fill="none" xmlns="http://www.w3.org/2000/svg">
<g clip-path="url(#clip0_10247_25634)">
<path opacity="0.2" d="M9.5 13.5V10.5C9.5 10.3674 9.44732 10.2402 9.35355 10.1464C9.25979 10.0527 9.13261 9.99999 9 9.99999H7C6.86739 9.99999 6.74021 10.0527 6.64645 10.1464C6.55268 10.2402 6.5 10.3674 6.5 10.5V13.5C6.5 13.6326 6.44732 13.7598 6.35355 13.8535C6.25979 13.9473 6.13261 14 6 14H3C2.86739 14 2.74021 13.9473 2.64645 13.8535C2.55268 13.7598 2.5 13.6326 2.5 13.5V7.72124C2.50001 7.65156 2.51458 7.58265 2.54278 7.51894C2.57098 7.45522 2.61218 7.3981 2.66375 7.35124L7.66375 2.62999C7.75581 2.5462 7.87582 2.49976 8.00031 2.49976C8.1248 2.49976 8.24481 2.5462 8.33687 2.62999L13.3369 7.35124C13.3884 7.3981 13.4296 7.45522 13.4578 7.51894C13.486 7.58265 13.5006 7.65156 13.5006 7.72124V13.5C13.5006 13.6326 13.4479 13.7598 13.3542 13.8535C13.2604 13.9473 13.1332 14 13.0006 14H10C9.86739 14 9.74021 13.9473 9.64645 13.8535C9.55268 13.7598 9.5 13.6326 9.5 13.5Z" fill="#636467"/>
<path d="M9.5 13.5V10.5C9.5 10.3674 9.44732 10.2402 9.35355 10.1464C9.25979 10.0527 9.13261 9.99999 9 9.99999H7C6.86739 9.99999 6.74021 10.0527 6.64645 10.1464C6.55268 10.2402 6.5 10.3674 6.5 10.5V13.5C6.5 13.6326 6.44732 13.7598 6.35355 13.8535C6.25979 13.9473 6.13261 14 6 14H3C2.86739 14 2.74021 13.9473 2.64645 13.8535C2.55268 13.7598 2.5 13.6326 2.5 13.5V7.72124C2.50001 7.65156 2.51458 7.58265 2.54278 7.51894C2.57098 7.45522 2.61218 7.3981 2.66375 7.35124L7.66375 2.62999C7.75581 2.5462 7.87582 2.49976 8.00031 2.49976C8.1248 2.49976 8.24481 2.5462 8.33687 2.62999L13.3369 7.35124C13.3884 7.3981 13.4296 7.45522 13.4578 7.51894C13.486 7.58265 13.5006 7.65156 13.5006 7.72124V13.5C13.5006 13.6326 13.4479 13.7598 13.3542 13.8535C13.2604 13.9473 13.1332 14 13.0006 14H10C9.86739 14 9.74021 13.9473 9.64645 13.8535C9.55268 13.7598 9.5 13.6326 9.5 13.5Z" stroke="#636467" stroke-width="2" stroke-linecap="round" stroke-linejoin="round"/>
</g>
<defs>
<clipPath id="clip0_10247_25634">
<rect width="16" height="16" fill="white" transform="translate(0 0.5)"/>
</clipPath>
</defs>
</svg>
