<svg width="8" height="8" viewBox="0 0 8 8" fill="none" xmlns="http://www.w3.org/2000/svg">
<g clip-path="url(#clip0_12_23)">
<path d="M4 0C3.20888 0 2.43552 0.234596 1.77772 0.674121C1.11992 1.11365 0.607234 1.73836 0.304484 2.46927C0.00173312 3.20017 -0.0774802 4.00444 0.0768607 4.78036C0.231202 5.55628 0.612164 6.26902 1.17157 6.82843C1.73098 7.38784 2.44372 7.7688 3.21964 7.92314C3.99556 8.07748 4.79983 7.99827 5.53073 7.69552C6.26164 7.39277 6.88635 6.88008 7.32588 6.22228C7.7654 5.56448 8 4.79112 8 4C8 3.47471 7.89654 2.95457 7.69552 2.46927C7.4945 1.98396 7.19986 1.54301 6.82843 1.17157C6.45699 0.800138 6.01604 0.505501 5.53073 0.304482C5.04543 0.103463 4.52529 0 4 0ZM4.4 5.6C4.4 5.70609 4.35786 5.80783 4.28284 5.88284C4.20783 5.95786 4.10609 6 4 6C3.89391 6 3.79217 5.95786 3.71716 5.88284C3.64214 5.80783 3.6 5.70609 3.6 5.6V3.6C3.6 3.49391 3.64214 3.39217 3.71716 3.31716C3.79217 3.24214 3.89391 3.2 4 3.2C4.10609 3.2 4.20783 3.24214 4.28284 3.31716C4.35786 3.39217 4.4 3.49391 4.4 3.6V5.6ZM4 2.8C3.92089 2.8 3.84355 2.77654 3.77777 2.73259C3.71199 2.68863 3.66072 2.62616 3.63045 2.55307C3.60017 2.47998 3.59225 2.39956 3.60769 2.32196C3.62312 2.24437 3.66122 2.1731 3.71716 2.11716C3.7731 2.06122 3.84437 2.02312 3.92196 2.00769C3.99956 1.99225 4.07998 2.00017 4.15307 2.03045C4.22616 2.06072 4.28864 2.11199 4.33259 2.17777C4.37654 2.24355 4.4 2.32089 4.4 2.4C4.4 2.50609 4.35786 2.60783 4.28284 2.68284C4.20783 2.75786 4.10609 2.8 4 2.8Z" fill="#CACBCC"/>
</g>
<defs>
<clipPath id="clip0_12_23">
<rect width="8" height="8" fill="white"/>
</clipPath>
</defs>
</svg>
