<svg width="13" height="13" viewBox="0 0 13 13" fill="none" xmlns="http://www.w3.org/2000/svg">
<path fill-rule="evenodd" clip-rule="evenodd" d="M6.25004 12.2917C9.58676 12.2917 12.2917 9.58676 12.2917 6.25004C12.2917 2.91332 9.58676 0.208374 6.25004 0.208374C2.91332 0.208374 0.208374 2.91332 0.208374 6.25004C0.208374 9.58676 2.91332 12.2917 6.25004 12.2917ZM6.25 5.5C6.66421 5.5 7 5.83579 7 6.25V8.66667C7 9.08088 6.66421 9.41667 6.25 9.41667C5.83579 9.41667 5.5 9.08088 5.5 8.66667V6.25C5.5 5.83579 5.83579 5.5 6.25 5.5ZM6.25 3.08337C5.83579 3.08337 5.5 3.41916 5.5 3.83337C5.5 4.24759 5.83579 4.58337 6.25 4.58337H6.2575C6.67171 4.58337 7.0075 4.24759 7.0075 3.83337C7.0075 3.41916 6.67171 3.08337 6.2575 3.08337H6.25Z" fill="#303030"/>
</svg>
