<svg width="25" height="26" viewBox="0 0 25 26" fill="none" xmlns="http://www.w3.org/2000/svg">
<g clip-path="url(#clip0_8922_5267)">
<path opacity="0.2" d="M12 12.7058H14.3438C15.3798 12.7058 16.3733 13.1174 17.1059 13.8499C17.8384 14.5825 18.25 15.5761 18.25 16.6121C18.25 17.6481 17.8384 18.6416 17.1059 19.3742C16.3733 20.1068 15.3798 20.5183 14.3438 20.5183H12V12.7058Z" fill="#636467"/>
<path opacity="0.2" d="M12.4688 4.70581H10.9062C9.87025 4.70581 8.87668 5.11736 8.14411 5.84992C7.41155 6.58249 7 7.57606 7 8.61206C7 9.64806 7.41155 10.6416 8.14411 11.3742C8.87668 12.1068 9.87025 12.5183 10.9062 12.5183H12.4688V4.70581Z" fill="#636467"/>
<path d="M12 2.70581V5.04956" stroke="#636467" stroke-width="2.5" stroke-linecap="round" stroke-linejoin="round"/>
<path d="M12 20.7058V23.0496" stroke="#636467" stroke-width="2.5" stroke-linecap="round" stroke-linejoin="round"/>
<path d="M17.7188 8.61206C17.7188 8.09908 17.6177 7.59113 17.4214 7.1172C17.2251 6.64328 16.9374 6.21265 16.5746 5.84992C16.2119 5.4872 15.7813 5.19946 15.3074 5.00316C14.8334 4.80685 14.3255 4.70581 13.8125 4.70581H10.6875C9.6515 4.70581 8.65793 5.11736 7.92536 5.84992C7.1928 6.58249 6.78125 7.57606 6.78125 8.61206C6.78125 9.64806 7.1928 10.6416 7.92536 11.3742C8.65793 12.1068 9.6515 12.5183 10.6875 12.5183H14.5938C15.6298 12.5183 16.6233 12.9299 17.3559 13.6624C18.0884 14.395 18.5 15.3886 18.5 16.4246C18.5 17.4606 18.0884 18.4541 17.3559 19.1867C16.6233 19.9193 15.6298 20.3308 14.5938 20.3308H9.90625C8.87025 20.3308 7.87668 19.9193 7.14411 19.1867C6.41155 18.4541 6 17.4606 6 16.4246" stroke="#636467" stroke-width="2.5" stroke-linecap="round" stroke-linejoin="round"/>
</g>
<defs>
<clipPath id="clip0_8922_5267">
<rect width="25" height="25" fill="#636467" transform="translate(0 0.5)"/>
</clipPath>
</defs>
</svg>
