<svg width="24" height="24" viewBox="0 0 24 24" fill="none" xmlns="http://www.w3.org/2000/svg">
<path d="M17 6.5V4C17 2.89543 16.1046 2 15 2H4C2.89543 2 2 2.89543 2 4V19C2 20.1046 2.89543 21 4 21H19.5C20.6046 21 21.5 20.1046 21.5 19V8C21.5 6.89543 20.6046 6 19.5 6H6.5" stroke="#636467" stroke-width="2"/>
<path d="M8 6H4C2.89543 6 2 5.10457 2 4V4C2 2.89543 2.89543 2 4 2H15C16.1046 2 17 2.89543 17 4V6" stroke="#636467" stroke-width="2"/>
<path d="M21 11.5H19C17.8954 11.5 17 12.3954 17 13.5V13.5C17 14.6046 17.8954 15.5 19 15.5H21" stroke="#636467" stroke-width="2"/>
</svg>
