<svg width="44" height="44" viewBox="0 0 44 44" fill="none" xmlns="http://www.w3.org/2000/svg">
<rect x="0.5" y="0.5" width="43" height="43" rx="7.5" fill="#E5E5E6" fill-opacity="0.5" stroke="#E5E5E6"/>
<path d="M7 24C7 23.4477 7.44772 23 8 23H13C13.5523 23 14 23.4477 14 24V36H7V24Z" fill="#CACBCC"/>
<path d="M17 16C17 15.4477 17.4477 15 18 15H23C23.5523 15 24 15.4477 24 16V36H17V16Z" fill="#19191A"/>
<path d="M27 9C27 8.44771 27.4477 8 28 8H33C33.5523 8 34 8.44772 34 9V36H27V9Z" fill="#96979A"/>
<path d="M28.2846 35.2298L27.4816 34.6337L30.9622 29.9448C31.562 29.1369 32.7714 29.1369 33.3711 29.9448M28.2846 35.2298L33.3711 29.9448M28.2846 35.2298L27.4816 34.6337C26.7469 35.6235 27.4534 37.0278 28.6861 37.0278H35.6473C36.8799 37.0278 37.5864 35.6235 36.8517 34.6337L33.3711 29.9448M28.2846 35.2298L33.3711 29.9448" fill="#19191A"/>
<path d="M28.2846 35.2298L27.4816 34.6337L30.9622 29.9448C31.562 29.1369 32.7714 29.1369 33.3711 29.9448M28.2846 35.2298L33.3711 29.9448M28.2846 35.2298L27.4816 34.6337C26.7469 35.6235 27.4534 37.0278 28.6861 37.0278H35.6473C36.8799 37.0278 37.5864 35.6235 36.8517 34.6337L33.3711 29.9448M28.2846 35.2298L33.3711 29.9448" stroke="black" stroke-width="2"/>
<path d="M28.2846 35.2298L27.4816 34.6337L30.9622 29.9448C31.562 29.1369 32.7714 29.1369 33.3711 29.9448M28.2846 35.2298L33.3711 29.9448M28.2846 35.2298L27.4816 34.6337C26.7469 35.6235 27.4534 37.0278 28.6861 37.0278H35.6473C36.8799 37.0278 37.5864 35.6235 36.8517 34.6337L33.3711 29.9448M28.2846 35.2298L33.3711 29.9448" stroke="#F2F2F2" stroke-width="2"/>
</svg>
