<svg width="32" height="31" viewBox="0 0 32 31" fill="none" xmlns="http://www.w3.org/2000/svg">
<path d="M0 16C0 15.4477 0.447715 15 1 15H6C6.55228 15 7 15.4477 7 16V28H0V16Z" fill="#CACBCC"/>
<path d="M10 8C10 7.44772 10.4477 7 11 7H16C16.5523 7 17 7.44772 17 8V28H10V8Z" fill="#19191A"/>
<path d="M20 1C20 0.447715 20.4477 0 21 0H26C26.5523 0 27 0.447715 27 1V28H20V1Z" fill="#96979A"/>
<path d="M21.2846 27.2298L20.4816 26.6337L23.9622 21.9448C24.562 21.1369 25.7714 21.1369 26.3711 21.9448M21.2846 27.2298L26.3711 21.9448M21.2846 27.2298L20.4816 26.6337C19.7469 27.6235 20.4534 29.0278 21.6861 29.0278H28.6473C29.8799 29.0278 30.5864 27.6235 29.8517 26.6337L26.3711 21.9448M21.2846 27.2298L26.3711 21.9448" fill="#19191A"/>
<path d="M21.2846 27.2298L20.4816 26.6337L23.9622 21.9448C24.562 21.1369 25.7714 21.1369 26.3711 21.9448M21.2846 27.2298L26.3711 21.9448M21.2846 27.2298L20.4816 26.6337C19.7469 27.6235 20.4534 29.0278 21.6861 29.0278H28.6473C29.8799 29.0278 30.5864 27.6235 29.8517 26.6337L26.3711 21.9448M21.2846 27.2298L26.3711 21.9448" stroke="black" stroke-width="2"/>
<path d="M21.2846 27.2298L20.4816 26.6337L23.9622 21.9448C24.562 21.1369 25.7714 21.1369 26.3711 21.9448M21.2846 27.2298L26.3711 21.9448M21.2846 27.2298L20.4816 26.6337C19.7469 27.6235 20.4534 29.0278 21.6861 29.0278H28.6473C29.8799 29.0278 30.5864 27.6235 29.8517 26.6337L26.3711 21.9448M21.2846 27.2298L26.3711 21.9448" stroke="#F2F2F2" stroke-width="2"/>
</svg>
