<svg width="29" height="28" viewBox="0 0 29 28" fill="none" xmlns="http://www.w3.org/2000/svg">
<path d="M9.33333 17.6667C13.9357 17.6667 17.6667 13.9357 17.6667 9.33333C17.6667 4.73096 13.9357 1 9.33333 1C4.73096 1 1 4.73096 1 9.33333C1 13.9357 4.73096 17.6667 9.33333 17.6667Z" stroke="black" stroke-width="2" stroke-linecap="round" stroke-linejoin="round"/>
<path d="M9.33337 6V12.6667" stroke="black" stroke-width="2" stroke-linecap="round" stroke-linejoin="round"/>
<path d="M6 9.33325H12.6667" stroke="black" stroke-width="2" stroke-linecap="round" stroke-linejoin="round"/>
<path d="M19.6667 26.9999C24.2691 26.9999 28 23.269 28 18.6666C28 14.0642 24.2691 10.3333 19.6667 10.3333C15.0643 10.3333 11.3334 14.0642 11.3334 18.6666C11.3334 23.269 15.0643 26.9999 19.6667 26.9999Z" fill="#E5E5E6" stroke="black" stroke-width="2" stroke-linecap="round" stroke-linejoin="round"/>
<path d="M16.3334 18.6665H23" stroke="black" stroke-width="2" stroke-linecap="round" stroke-linejoin="round"/>
</svg>
