<svg width="12" height="12" viewBox="0 0 12 12" fill="none" xmlns="http://www.w3.org/2000/svg">
<path d="M6 0C2.69 0 0 2.69 0 6C0 9.31 2.69 12 6 12C9.31 12 12 9.31 12 6C12 2.69 9.31 0 6 0ZM6.39 9.62C6.22 9.79 6.01 9.88 5.76 9.88C5.51 9.88 5.3 9.79 5.13 9.62C4.96 9.45 4.87 9.24 4.87 8.99C4.87 8.74 4.96 8.53 5.13 8.36C5.3 8.19 5.51 8.1 5.76 8.1C6.01 8.1 6.22 8.19 6.39 8.36C6.56 8.53 6.65 8.74 6.65 8.99C6.65 9.24 6.56 9.45 6.39 9.62ZM7.88 4.98C7.79 5.2 7.64 5.43 7.43 5.65L6.76 6.4C6.67 6.5 6.6 6.59 6.57 6.68C6.53 6.76 6.52 6.85 6.52 6.93C6.52 7.16 6.45 7.34 6.3 7.47C6.15 7.6 5.98 7.66 5.77 7.66C5.56 7.66 5.39 7.6 5.24 7.47C5.1 7.34 5.03 7.16 5.03 6.93C5.03 6.76 5.06 6.58 5.12 6.41C5.18 6.24 5.31 6.04 5.5 5.83L6.08 5.17C6.25 4.99 6.36 4.83 6.42 4.7C6.48 4.57 6.51 4.43 6.51 4.29C6.51 4.08 6.45 3.91 6.31 3.78C6.18 3.65 6.01 3.58 5.79 3.58C5.59 3.58 5.43 3.63 5.31 3.72C5.19 3.81 5.1 3.94 5.03 4.11C4.95 4.28 4.85 4.4 4.73 4.47C4.61 4.54 4.48 4.58 4.33 4.58C4.12 4.58 3.95 4.52 3.83 4.4C3.7 4.28 3.64 4.12 3.64 3.92C3.64 3.83 3.66 3.74 3.69 3.63C3.81 3.24 4.06 2.92 4.43 2.66C4.8 2.4 5.26 2.28 5.82 2.28C6.15 2.28 6.44 2.33 6.71 2.43C6.98 2.53 7.21 2.67 7.4 2.84C7.59 3.01 7.74 3.22 7.84 3.46C7.94 3.7 8 3.96 8 4.24C8 4.52 7.96 4.76 7.86 4.99L7.88 4.98Z" fill="#CACBCC"/>
</svg>
