<svg width="43" height="43" viewBox="0 0 43 43" fill="none" xmlns="http://www.w3.org/2000/svg">
<g clip-path="url(#clip0_3280_24990)">
<g filter="url(#filter0_dd_3280_24990)">
<rect width="43" height="43" rx="8" fill="#5841D8"/>
</g>
<g clip-path="url(#clip1_3280_24990)">
<path d="M33.9959 25.8208C33.9959 26.8298 33.9736 27.8389 34.0022 28.847C34.0298 29.8226 33.1731 30.6411 32.2499 30.6187C31.2398 30.594 30.4835 29.8527 30.483 28.833C30.4825 27.0656 30.484 25.2978 30.482 23.5304C30.4811 22.5878 29.7878 21.7912 28.8898 21.6928C27.9336 21.588 27.0822 22.207 26.8833 23.1593C26.8571 23.284 26.861 23.416 26.861 23.5445C26.8595 25.3041 26.862 27.0637 26.8595 28.8228C26.8586 29.6344 26.3385 30.3408 25.5963 30.5518C24.4295 30.8841 23.321 30.0414 23.3171 28.8082C23.3113 27.0409 23.3161 25.2731 23.3156 23.5057C23.3156 22.5185 22.5355 21.6986 21.59 21.6874C20.5348 21.6753 19.7062 22.4404 19.699 23.4708C19.6859 25.2706 19.6946 27.0705 19.6936 28.8703C19.6936 29.7329 19.0353 30.5106 18.2314 30.5998C17.2325 30.7104 16.4088 30.1622 16.2099 29.2434C16.1764 29.0882 16.1822 28.9222 16.1822 28.7612C16.1803 27.0419 16.1851 25.323 16.1793 23.6037C16.1769 22.8314 15.8586 22.2245 15.1537 21.8732C13.9331 21.2644 12.5476 22.1507 12.5408 23.5445C12.5316 25.2959 12.5423 27.0472 12.5369 28.7985C12.534 29.6946 12.0416 30.3442 11.2149 30.5693C10.1428 30.8613 9.02988 30.0371 9.02551 28.9276C9.01775 26.9016 8.96341 24.8738 9.042 22.8508C9.14631 20.1636 10.0846 17.7535 11.7801 15.6587C13.6886 13.3014 16.1405 11.7965 19.1187 11.2299C25.8476 9.9491 32.1242 14.1509 33.6805 20.623C33.8959 21.5176 34.0041 22.4282 33.9968 23.3514C33.9905 24.1747 33.9954 24.998 33.9954 25.8213L33.9959 25.8208Z" fill="#FFFCFC"/>
</g>
</g>
<defs>
<filter id="filter0_dd_3280_24990" x="-84" y="-66" width="211" height="211" filterUnits="userSpaceOnUse" color-interpolation-filters="sRGB">
<feFlood flood-opacity="0" result="BackgroundImageFix"/>
<feColorMatrix in="SourceAlpha" type="matrix" values="0 0 0 0 0 0 0 0 0 0 0 0 0 0 0 0 0 0 127 0" result="hardAlpha"/>
<feMorphology radius="4" operator="erode" in="SourceAlpha" result="effect1_dropShadow_3280_24990"/>
<feOffset dy="18"/>
<feGaussianBlur stdDeviation="44"/>
<feColorMatrix type="matrix" values="0 0 0 0 0.0941176 0 0 0 0 0.152941 0 0 0 0 0.294118 0 0 0 0.14 0"/>
<feBlend mode="normal" in2="BackgroundImageFix" result="effect1_dropShadow_3280_24990"/>
<feColorMatrix in="SourceAlpha" type="matrix" values="0 0 0 0 0 0 0 0 0 0 0 0 0 0 0 0 0 0 127 0" result="hardAlpha"/>
<feMorphology radius="6" operator="erode" in="SourceAlpha" result="effect2_dropShadow_3280_24990"/>
<feOffset dy="8"/>
<feGaussianBlur stdDeviation="14"/>
<feColorMatrix type="matrix" values="0 0 0 0 0.0941176 0 0 0 0 0.152941 0 0 0 0 0.294118 0 0 0 0.12 0"/>
<feBlend mode="normal" in2="effect1_dropShadow_3280_24990" result="effect2_dropShadow_3280_24990"/>
<feBlend mode="normal" in="SourceGraphic" in2="effect2_dropShadow_3280_24990" result="shape"/>
</filter>
<clipPath id="clip0_3280_24990">
<rect width="43" height="43" fill="white"/>
</clipPath>
<clipPath id="clip1_3280_24990">
<rect width="25.0034" height="19.63" fill="white" transform="translate(9 11)"/>
</clipPath>
</defs>
</svg>
