<svg width="28" height="28" viewBox="0 0 28 28" fill="none" xmlns="http://www.w3.org/2000/svg">
<path opacity="0.2" d="M22.7501 11.3751C22.7513 12.7009 22.4506 14.0096 21.871 15.2019C21.2913 16.3943 20.4478 17.439 19.4044 18.257C19.0857 18.5039 18.8274 18.8202 18.6491 19.1817C18.4708 19.5433 18.3771 19.9407 18.3751 20.3439V21.0001C18.3751 21.2322 18.2829 21.4547 18.1189 21.6188C17.9548 21.7829 17.7322 21.8751 17.5001 21.8751H10.5001C10.2681 21.8751 10.0455 21.7829 9.88142 21.6188C9.71732 21.4547 9.62513 21.2322 9.62513 21.0001V20.3439C9.62472 19.9429 9.53289 19.5474 9.35663 19.1873C9.18037 18.8272 8.92432 18.512 8.60795 18.2657C7.56776 17.4532 6.72524 16.4154 6.14367 15.2305C5.5621 14.0456 5.2566 12.7443 5.25013 11.4243C5.22388 6.68182 9.04763 2.73448 13.789 2.62511C14.9557 2.59695 16.1163 2.80247 17.2024 3.22958C18.2885 3.65669 19.2781 4.29674 20.1131 5.11208C20.9481 5.92741 21.6116 6.90154 22.0645 7.97714C22.5173 9.05273 22.7505 10.2081 22.7501 11.3751Z" fill="#19191A"/>
<path d="M19.2501 25.3749C19.2501 25.6069 19.158 25.8295 18.9939 25.9936C18.8298 26.1577 18.6072 26.2499 18.3751 26.2499H9.62514C9.39308 26.2499 9.17052 26.1577 9.00642 25.9936C8.84233 25.8295 8.75014 25.6069 8.75014 25.3749C8.75014 25.1428 8.84233 24.9202 9.00642 24.7561C9.17052 24.5921 9.39308 24.4999 9.62514 24.4999H18.3751C18.6072 24.4999 18.8298 24.5921 18.9939 24.7561C19.158 24.9202 19.2501 25.1428 19.2501 25.3749ZM23.6251 11.3749C23.6289 12.8335 23.2994 14.2738 22.6617 15.5857C22.0241 16.8976 21.0951 18.0465 19.9458 18.9447C19.7309 19.1094 19.5565 19.3211 19.4359 19.5636C19.3153 19.806 19.2518 20.0728 19.2501 20.3436V20.9999C19.2501 21.464 19.0658 21.9091 18.7376 22.2373C18.4094 22.5655 17.9643 22.7499 17.5001 22.7499H10.5001C10.036 22.7499 9.5909 22.5655 9.26271 22.2373C8.93452 21.9091 8.75014 21.464 8.75014 20.9999V20.3436C8.74996 20.0761 8.68845 19.8121 8.57032 19.5721C8.45219 19.3321 8.2806 19.1223 8.06874 18.9589C6.92241 18.0662 5.99418 16.9243 5.35426 15.6199C4.71435 14.3154 4.37953 12.8825 4.37514 11.4296C4.34671 6.21565 8.55983 1.87565 13.7683 1.74986C15.0516 1.71894 16.3282 1.94505 17.5228 2.41488C18.7175 2.88472 19.8061 3.58879 20.7246 4.48565C21.643 5.38251 22.3728 6.45405 22.871 7.63718C23.3691 8.82031 23.6255 10.0911 23.6251 11.3749ZM21.8751 11.3749C21.8755 10.3245 21.6656 9.28468 21.258 8.31662C20.8504 7.34856 20.2533 6.47182 19.5017 5.73802C18.7502 5.00421 17.8595 4.42817 16.8819 4.04379C15.9044 3.65942 14.8599 3.47448 13.8098 3.49986C9.54421 3.60049 6.10217 7.1519 6.12514 11.4175C6.12906 12.606 6.40327 13.778 6.92703 14.8448C7.45079 15.9117 8.21036 16.8454 9.14827 17.5753C9.56985 17.9031 9.91085 18.3229 10.1452 18.8027C10.3795 19.2826 10.5009 19.8096 10.5001 20.3436V20.9999H13.1251V16.1119L9.88108 12.8689C9.71689 12.7047 9.62466 12.4821 9.62466 12.2499C9.62466 12.0177 9.71689 11.795 9.88108 11.6308C10.0453 11.4666 10.2679 11.3744 10.5001 11.3744C10.7323 11.3744 10.955 11.4666 11.1192 11.6308L14.0001 14.5128L16.8811 11.6308C16.9624 11.5495 17.0589 11.485 17.1651 11.441C17.2713 11.397 17.3852 11.3744 17.5001 11.3744C17.6151 11.3744 17.729 11.397 17.8352 11.441C17.9414 11.485 18.0379 11.5495 18.1192 11.6308C18.2005 11.7121 18.265 11.8086 18.309 11.9148C18.353 12.021 18.3756 12.1349 18.3756 12.2499C18.3756 12.3648 18.353 12.4787 18.309 12.5849C18.265 12.6911 18.2005 12.7876 18.1192 12.8689L14.8751 16.1119V20.9999H17.5001V20.3436C17.5011 19.8081 17.6245 19.2798 17.8609 18.7993C18.0973 18.3187 18.4404 17.8986 18.864 17.571C19.8048 16.8358 20.5651 15.8954 21.0869 14.8215C21.6088 13.7477 21.8784 12.5688 21.8751 11.3749Z" fill="#19191A"/>
</svg>
