<svg width="24" height="24" viewBox="0 0 24 24" fill="none" xmlns="http://www.w3.org/2000/svg">
<g clip-path="url(#clip0_10305_61463)">
<path opacity="0.2" d="M7.37812 15.6563C6.48653 14.9598 5.76437 14.0703 5.26588 13.0546C4.76739 12.039 4.50554 10.9236 4.49999 9.79219C4.47749 5.72719 7.75499 2.34375 11.8191 2.25C13.3941 2.21185 14.9411 2.67066 16.2406 3.56132C17.5402 4.45198 18.5263 5.72927 19.059 7.21196C19.5916 8.69464 19.6439 10.3074 19.2083 11.8215C18.7727 13.3355 17.8714 14.674 16.6322 15.6469C16.3589 15.8588 16.1374 16.1302 15.9845 16.4404C15.8317 16.7507 15.7515 17.0917 15.75 17.4375V18C15.75 18.1989 15.671 18.3897 15.5303 18.5303C15.3897 18.671 15.1989 18.75 15 18.75H8.99999C8.80108 18.75 8.61032 18.671 8.46966 18.5303C8.32901 18.3897 8.24999 18.1989 8.24999 18V17.4375C8.24963 17.0939 8.17092 16.7548 8.01984 16.4462C7.86876 16.1375 7.64929 15.8673 7.37812 15.6563Z" fill="#4A4B4D"/>
<path d="M8.25 21.75H15.75" stroke="#4A4B4D" stroke-width="1.5" stroke-linecap="round" stroke-linejoin="round"/>
<path d="M12 18.75V13.5" stroke="#4A4B4D" stroke-width="1.5" stroke-linecap="round" stroke-linejoin="round"/>
<path d="M9 10.5L12 13.5L15 10.5" stroke="#4A4B4D" stroke-width="1.5" stroke-linecap="round" stroke-linejoin="round"/>
<path d="M7.37812 15.6563C6.48653 14.9598 5.76437 14.0703 5.26588 13.0546C4.76739 12.039 4.50554 10.9236 4.49999 9.79219C4.47749 5.72719 7.75499 2.34375 11.8191 2.25C13.3941 2.21185 14.9411 2.67066 16.2406 3.56132C17.5402 4.45198 18.5263 5.72927 19.059 7.21196C19.5916 8.69464 19.6439 10.3074 19.2083 11.8215C18.7727 13.3355 17.8714 14.674 16.6322 15.6469C16.3589 15.8588 16.1374 16.1302 15.9845 16.4404C15.8317 16.7507 15.7515 17.0917 15.75 17.4375V18C15.75 18.1989 15.671 18.3897 15.5303 18.5303C15.3897 18.671 15.1989 18.75 15 18.75H8.99999C8.80108 18.75 8.61032 18.671 8.46966 18.5303C8.32901 18.3897 8.24999 18.1989 8.24999 18V17.4375C8.24963 17.0939 8.17092 16.7548 8.01984 16.4462C7.86876 16.1375 7.64929 15.8673 7.37812 15.6563Z" stroke="#4A4B4D" stroke-width="1.5" stroke-linecap="round" stroke-linejoin="round"/>
</g>
<defs>
<clipPath id="clip0_10305_61463">
<rect width="24" height="24" fill="white"/>
</clipPath>
</defs>
</svg>
