<svg width="12" height="13" viewBox="0 0 12 13" fill="none" xmlns="http://www.w3.org/2000/svg">
<g clip-path="url(#clip0_7019_59921)">
<path d="M5 6.99998C5.21473 7.28705 5.48868 7.52457 5.80328 7.69645C6.11787 7.86833 6.46575 7.97054 6.82333 7.99615C7.1809 8.02176 7.53979 7.97017 7.87567 7.84487C8.21155 7.71958 8.51656 7.52352 8.77 7.26998L10.27 5.76998C10.7254 5.29848 10.9774 4.66697 10.9717 4.01148C10.966 3.35599 10.7031 2.72896 10.2395 2.26544C9.77603 1.80192 9.14899 1.53899 8.4935 1.5333C7.83801 1.5276 7.20651 1.77959 6.735 2.23498L5.875 3.08998" stroke="white" stroke-width="1.5" stroke-linecap="round" stroke-linejoin="round"/>
<path d="M7.0001 6.00011C6.78537 5.71305 6.51142 5.47552 6.19682 5.30364C5.88223 5.13176 5.53435 5.02955 5.17677 5.00395C4.8192 4.97834 4.46031 5.02993 4.12443 5.15522C3.78855 5.28051 3.48354 5.47658 3.2301 5.73011L1.7301 7.23011C1.2747 7.70162 1.02272 8.33312 1.02841 8.98862C1.03411 9.64411 1.29703 10.2711 1.76055 10.7347C2.22407 11.1982 2.8511 11.4611 3.5066 11.4668C4.16209 11.4725 4.79359 11.2205 5.2651 10.7651L6.1201 9.91011" stroke="white" stroke-width="1.5" stroke-linecap="round" stroke-linejoin="round"/>
</g>
<defs>
<clipPath id="clip0_7019_59921">
<rect width="12" height="12" fill="white" transform="translate(0 0.5)"/>
</clipPath>
</defs>
</svg>
