<svg style="max-height: 500px" viewBox="529.3944 529.45056 22.13568 22.13568" xmlns="http://www.w3.org/2000/svg" xml:space="preserve" width="22.13568" height="22.13568"><path style="stroke:#19191A;stroke-width:1;stroke-dasharray:none;stroke-linecap:butt;stroke-dashoffset:0;stroke-linejoin:miter;stroke-miterlimit:4;fill:#000;fill-rule:nonzero;opacity:1" transform="translate(530.5 530.5)" d="m20 10-2.381-2.4-7.54-7.6L7.7 2.4 0 10l3.095 3.12L9.921 20l3.095-3.12L20 10ZM8.492 12.24l3.81-3.84 1.508 1.52L10 13.76l-1.508-1.52Zm-.714-.72L6.27 10l3.81-3.84 1.507 1.52-3.81 3.84Zm4.603 4.64-1.667-1.68 6.19-6.24 1.667 1.68-6.19 6.24ZM10 1.36l6.111 6.16-1.667 1.68-6.11-6.16L10 1.36Zm-2.381 2.4 1.667 1.68-3.81 3.84-2.38 2.4L1.428 10l6.19-6.24ZM10 18.64 3.81 12.4l1.666-1.68 6.19 6.24L10 18.64Z" stroke-linecap="round"/></svg>