<svg width="40" height="40" viewBox="0 0 40 40" fill="none" xmlns="http://www.w3.org/2000/svg">
<path d="M40 19.9629L35.1637 15.1265L35.167 15.1232L20.0447 0L15.2288 4.81591L15.2222 4.80929L0 20.0324L6.23497 26.2682L6.23828 26.2648L19.9739 40L26.2095 33.7643L26.2042 33.759L40 19.9629ZM16.9298 24.4851L24.494 16.9208L27.5327 19.9596L19.9686 27.5239L16.9298 24.4851ZM15.5107 23.0659L12.4739 20.0291L20.0387 12.4649L23.0755 15.5017L15.5107 23.0659ZM24.834 32.2908L21.4373 28.8941L33.765 16.5662L37.1617 19.9629L24.834 32.2908ZM20.0447 2.839L32.3287 15.1226L28.932 18.5193L16.648 6.23573L20.0447 2.839ZM15.2222 7.64828L18.6189 11.045L11.0548 18.6099L11.0429 18.598L6.22306 23.4179L2.83829 20.0324L15.2222 7.64828ZM19.9739 37.1617L7.65808 24.845L11.0548 21.4483L23.3705 33.7643L19.9739 37.1617Z" fill="#FFFDFD"/>
</svg>
