<svg width="106" height="41" viewBox="0 0 106 41" fill="none" xmlns="http://www.w3.org/2000/svg">
<path d="M24.7653 15.9503L15.9767 24.7388" stroke="#19191A" stroke-width="1.97338" stroke-miterlimit="10"/>
<path d="M20.481 2.00177L2.0293 20.4535L6.84165 25.2658L25.2934 6.81412L20.481 2.00177Z" fill="white" stroke="#19191A" stroke-width="1.97338" stroke-miterlimit="10"/>
<path d="M34.2221 15.6731L20.549 2L15.7367 6.81235L29.4098 20.4854L34.2221 15.6731Z" fill="white" stroke="#19191A" stroke-width="1.97338" stroke-miterlimit="10"/>
<path d="M34.1882 15.7078L15.7365 34.1595L20.5488 38.9718L39.0005 20.5201L34.1882 15.7078Z" fill="white" stroke="black" stroke-width="1.97338" stroke-miterlimit="10"/>
<path d="M25.2643 34.189L6.81256 15.7373L2.00021 20.5497L20.4519 39.0014L25.2643 34.189Z" fill="white" stroke="black" stroke-width="1.97338" stroke-miterlimit="10"/>
<path d="M52.9176 29V11.5455H55.5511V26.733H63.4602V29H52.9176ZM71.7741 29.2642C70.5469 29.2642 69.4759 28.983 68.5611 28.4205C67.6463 27.858 66.9361 27.071 66.4304 26.0597C65.9247 25.0483 65.6719 23.8665 65.6719 22.5142C65.6719 21.1562 65.9247 19.9687 66.4304 18.9517C66.9361 17.9347 67.6463 17.1449 68.5611 16.5824C69.4759 16.0199 70.5469 15.7386 71.7741 15.7386C73.0014 15.7386 74.0724 16.0199 74.9872 16.5824C75.902 17.1449 76.6122 17.9347 77.1179 18.9517C77.6236 19.9687 77.8764 21.1562 77.8764 22.5142C77.8764 23.8665 77.6236 25.0483 77.1179 26.0597C76.6122 27.071 75.902 27.858 74.9872 28.4205C74.0724 28.983 73.0014 29.2642 71.7741 29.2642ZM71.7827 27.125C72.5781 27.125 73.2372 26.9148 73.7599 26.4943C74.2827 26.0739 74.669 25.5142 74.919 24.8153C75.1747 24.1165 75.3026 23.3466 75.3026 22.5057C75.3026 21.6705 75.1747 20.9034 74.919 20.2045C74.669 19.5 74.2827 18.9347 73.7599 18.5085C73.2372 18.0824 72.5781 17.8693 71.7827 17.8693C70.9815 17.8693 70.3168 18.0824 69.7884 18.5085C69.2656 18.9347 68.8764 19.5 68.6207 20.2045C68.3707 20.9034 68.2457 21.6705 68.2457 22.5057C68.2457 23.3466 68.3707 24.1165 68.6207 24.8153C68.8764 25.5142 69.2656 26.0739 69.7884 26.4943C70.3168 26.9148 70.9815 27.125 71.7827 27.125ZM86.2351 29.2642C84.968 29.2642 83.8771 28.9773 82.9624 28.4034C82.0533 27.8239 81.3544 27.0256 80.8658 26.0085C80.3771 24.9915 80.1328 23.8267 80.1328 22.5142C80.1328 21.1847 80.3828 20.0114 80.8828 18.9943C81.3828 17.9716 82.0874 17.1733 82.9964 16.5994C83.9055 16.0256 84.9766 15.7386 86.2095 15.7386C87.2038 15.7386 88.0902 15.9233 88.8686 16.2926C89.647 16.6562 90.2749 17.1676 90.7521 17.8267C91.2351 18.4858 91.522 19.2557 91.6129 20.1364H89.1328C88.9964 19.5227 88.6839 18.9943 88.1953 18.5511C87.7124 18.108 87.0646 17.8864 86.2521 17.8864C85.5419 17.8864 84.9197 18.0739 84.3857 18.4489C83.8572 18.8182 83.4453 19.3466 83.1499 20.0341C82.8544 20.7159 82.7067 21.5227 82.7067 22.4545C82.7067 23.4091 82.8516 24.233 83.1413 24.9261C83.4311 25.6193 83.8402 26.1562 84.3686 26.5369C84.9027 26.9176 85.5305 27.108 86.2521 27.108C86.7351 27.108 87.1726 27.0199 87.5646 26.8438C87.9624 26.6619 88.2947 26.4034 88.5618 26.0682C88.8345 25.733 89.0249 25.3295 89.1328 24.858H91.6129C91.522 25.7045 91.2464 26.4602 90.7862 27.125C90.326 27.7898 89.7095 28.3125 88.9368 28.6932C88.1697 29.0739 87.2692 29.2642 86.2351 29.2642ZM96.8864 21.2273V29H94.3381V11.5455H96.8523V18.0398H97.0142C97.321 17.3352 97.7898 16.7756 98.4205 16.3608C99.0511 15.946 99.875 15.7386 100.892 15.7386C101.79 15.7386 102.574 15.9233 103.244 16.2926C103.92 16.6619 104.443 17.2131 104.812 17.946C105.188 18.6733 105.375 19.5824 105.375 20.6733V29H102.827V20.9801C102.827 20.0199 102.58 19.2756 102.085 18.7472C101.591 18.2131 100.903 17.946 100.023 17.946C99.4205 17.946 98.8807 18.0739 98.4034 18.3295C97.9318 18.5852 97.5597 18.9602 97.2869 19.4545C97.0199 19.9432 96.8864 20.5341 96.8864 21.2273Z" fill="#19191A"/>
</svg>
