<svg width="28" height="28" viewBox="0 0 28 28" fill="none" xmlns="http://www.w3.org/2000/svg">
<rect width="28" height="28" rx="6" fill="#E5E5E6" fill-opacity="0.5"/>
<path d="M18.6667 13.3333H9.33333C8.59695 13.3333 8 13.9302 8 14.6666V19.3333C8 20.0696 8.59695 20.6666 9.33333 20.6666H18.6667C19.403 20.6666 20 20.0696 20 19.3333V14.6666C20 13.9302 19.403 13.3333 18.6667 13.3333Z" stroke="#313233" stroke-width="1.5" stroke-linecap="round" stroke-linejoin="round"/>
<path d="M10.667 13.3333V10.6666C10.667 9.78253 11.0182 8.93468 11.6433 8.30956C12.2684 7.68444 13.1163 7.33325 14.0003 7.33325C14.8844 7.33325 15.7322 7.68444 16.3573 8.30956C16.9825 8.93468 17.3337 9.78253 17.3337 10.6666V13.3333" stroke="#313233" stroke-width="1.5" stroke-linecap="round" stroke-linejoin="round"/>
</svg>
