<svg width="43" height="43" viewBox="0 0 43 43" fill="none" xmlns="http://www.w3.org/2000/svg">
<rect width="43" height="43" rx="12" fill="#1CA293"/>
<g clip-path="url(#clip0_5507_41921)">
<path d="M31.828 17.1679C30.9412 17.746 30.0881 18.3015 29.2358 18.857C28.1269 19.5803 27.0158 20.3001 25.9097 21.0291C25.5925 21.2378 25.283 21.4605 24.9897 21.7009C24.9234 21.7552 24.9241 21.9117 24.9234 22.021C24.9178 24.1324 24.9178 26.2431 24.9136 28.3546C24.9122 28.9397 24.6429 29.3845 24.2058 29.5432C23.5015 29.7991 22.7669 29.2619 22.7655 28.4723C22.762 26.9009 22.7704 25.3288 22.7754 23.7574C22.7782 22.8783 22.7909 21.9984 22.788 21.1193C22.7866 20.6244 23.1004 20.3164 23.45 20.0724C24.3305 19.4577 25.2343 18.874 26.136 18.2902C26.8988 17.796 27.6799 17.3293 28.4399 16.8309C29.3655 16.2239 30.2735 15.5902 31.1971 14.9803C31.5968 14.7167 32.0113 14.4735 32.4301 14.2408C33.1097 13.8629 33.9465 14.3289 34.0001 15.1051C34.0099 15.2454 34.0057 15.3864 34.0057 15.5274C34.0057 19.7848 34.0085 24.0422 34.0022 28.3003C34.0022 28.5287 33.9684 28.7726 33.8838 28.9813C33.7124 29.4008 33.2732 29.6447 32.8742 29.5939C32.373 29.5305 32.0078 29.2203 31.9084 28.7578C31.8746 28.5992 31.8598 28.4328 31.8598 28.27C31.8626 24.6224 31.8682 20.9748 31.8724 17.3279C31.8724 17.2955 31.8548 17.2631 31.828 17.1679Z" fill="white"/>
<path d="M12.0158 17.1661C12.0158 17.6116 12.0158 18.017 12.0158 18.423C12.0158 21.7075 12.0193 24.9914 12.0109 28.2759C12.0109 28.5268 11.97 28.7983 11.8685 29.0239C11.6831 29.4363 11.1642 29.671 10.7553 29.5885C10.2907 29.4941 9.92413 29.0922 9.87972 28.6114C9.8628 28.4253 9.87337 28.2364 9.87337 28.0489C9.87267 23.8028 9.87337 19.5566 9.86914 15.3105C9.86914 14.8678 9.99956 14.4991 10.3901 14.2658C10.7891 14.0268 11.1832 14.0479 11.578 14.3095C12.7271 15.0701 13.8819 15.8209 15.0352 16.5753C16.3493 17.4347 17.6641 18.2926 18.9768 19.1541C19.5281 19.5158 20.0815 19.8739 20.6208 20.2525C20.9754 20.5013 21.0988 20.8827 21.1002 21.2987C21.1087 23.7146 21.1157 26.1313 21.1122 28.5473C21.1115 29.1141 20.6074 29.5914 20.0434 29.6048C19.471 29.6189 18.9775 29.1226 18.9676 28.4824C18.9521 27.4856 18.9606 26.4887 18.9592 25.4912C18.9578 24.3181 18.9514 23.145 18.9592 21.9726C18.9606 21.7618 18.8986 21.6356 18.716 21.5179C17.3892 20.6614 16.0716 19.7907 14.7504 18.9257C13.9221 18.3843 13.0923 17.8457 12.2626 17.3063C12.1963 17.2633 12.1251 17.2281 12.0151 17.1661H12.0158Z" fill="white"/>
</g>
<defs>
<clipPath id="clip0_5507_41921">
<rect width="24.1372" height="15.5082" fill="white" transform="translate(9.86914 14.0984)"/>
</clipPath>
</defs>
</svg>
