<svg version="1.1" xmlns="http://www.w3.org/2000/svg" xmlns:xlink="http://www.w3.org/1999/xlink" width="14" height="14" viewBox="0,0,256,256"><g fill="none" fill-rule="nonzero" stroke="#ffffff" stroke-width="1.5" stroke-linecap="butt" stroke-linejoin="miter" stroke-miterlimit="10" stroke-dasharray="" stroke-dashoffset="0" font-family="none" font-weight="none" font-size="none" text-anchor="none" style="mix-blend-mode: normal"><g transform="scale(18.28571,18.28571)"><path d="M10.2308,3.84211v-0.84211c0,-1.10457 -0.89546,-2 -2.00003,-2h-5.23077c-1.10457,0 -2,0.89543 -2,2v8c0,1.1046 0.89543,2 2,2h8c1.1046,0 2,-0.8954 2,-2v-5.47369c0,-1.10456 -0.8954,-1.99999 -2,-1.99999h-7.23077"></path><path d="M4.69231,3.52632h-2.42915c-0.69763,0 -1.26316,-0.56554 -1.26316,-1.26316v0c0,-0.69762 0.56553,-1.26316 1.26316,-1.26316h5.96761c1.10457,0 2.00003,0.89543 2.00003,2v0.52632"></path><path d="M12.692,7h-1.1984c-0.6976,0 -1.2631,0.56554 -1.2631,1.26316v0c0,0.69762 0.5655,1.26316 1.2631,1.26316h1.1984"></path></g></g></svg>