<svg width="14" height="14" viewBox="0 0 14 14" fill="none" xmlns="http://www.w3.org/2000/svg">
<path d="M10.2308 3.84211V3C10.2308 1.89543 9.33534 1 8.23077 1H3C1.89543 1 1 1.89543 1 3V11C1 12.1046 1.89543 13 3 13H11C12.1046 13 13 12.1046 13 11V5.52631C13 4.42175 12.1046 3.52632 11 3.52632H3.76923" stroke="#19191A" stroke-width="1.5"/>
<path d="M4.69231 3.52632H2.26316C1.56553 3.52632 1 2.96078 1 2.26316V2.26316C1 1.56554 1.56553 1 2.26316 1H8.23077C9.33534 1 10.2308 1.89543 10.2308 3V3.52632" stroke="#19191A" stroke-width="1.5"/>
<path d="M12.692 7H11.4936C10.796 7 10.2305 7.56554 10.2305 8.26316V8.26316C10.2305 8.96078 10.796 9.52632 11.4936 9.52632H12.692" stroke="#19191A" stroke-width="1.5"/>
</svg>
