<svg width="24" height="24" viewBox="0 0 24 24" xmlns="http://www.w3.org/2000/svg">
    <g fill="none" fill-rule="evenodd">
        <path d="M0 0h24v24H0z"/>
        <g fill-rule="nonzero">
            <path d="M16.25 6.875c0 1.036-2.518 1.875-5.625 1.875C7.52 8.75 5 7.91 5 6.875 5 5.839 7.52 5 10.625 5c3.107 0 5.625.84 5.625 1.875M10.438 16.215a4.114 4.114 0 0 1-.282-.715h-.398c-.55 0-.996-.48-.996-1.066v-.598c0-.375.187-.715.469-.902-1.817-.141-3.457-.598-4.231-1.313v2.73c0 1.008 2.414 1.84 5.438 1.864zM10.625 20c1.078 0 2.086-.105 2.953-.281a.984.984 0 0 1-.328-.727v-.398c-.281-.082-.55-.2-.82-.34l-.281.281a.974.974 0 0 1-.692.281c-.281 0-.562-.117-.773-.328l-.422-.422c-.2-.199-.305-.445-.328-.714a.999.999 0 0 1 .152-.586c-2.133-.07-4.195-.528-5.086-1.372v2.731C5 19.156 7.52 20 10.625 20z" stroke="#0D0D0D" stroke-width=".5" fill="#FFF"/>
            <path d="M10.274 12.441c.058-.164.14-.328.222-.48l-.28-.281a.987.987 0 0 1-.282-.75 1.07 1.07 0 0 1 .328-.715l.422-.422c.21-.211.492-.328.773-.328.258 0 .504.105.692.281l.28.281c.259-.14.54-.258.821-.34V9.29c0-.094.012-.188.047-.281-.844.14-1.758.21-2.672.21-2.32 0-4.652-.468-5.625-1.382v2.73c0 .996 2.332 1.805 5.274 1.875z" stroke="#0D0D0D" stroke-width=".5" fill="#FFF"/>
            <path d="M16.25 9.781V7.836c-.223.21-.516.387-.855.55a.988.988 0 0 1 .586.891v.41c.093.024.175.06.27.094z" fill="#000"/>
            <path d="M14.61 12.031c-1.16 0-2.11.95-2.11 2.11s.95 2.109 2.11 2.109 2.109-.95 2.109-2.11-.95-2.109-2.11-2.109z" fill="#FFF"/>
            <path d="M19.473 13.238h-.762a4.223 4.223 0 0 0-.563-1.36l.54-.538c.21-.211.187-.563-.047-.797l-.422-.422a.631.631 0 0 0-.446-.187.496.496 0 0 0-.351.14l-.54.54a4.223 4.223 0 0 0-1.359-.563v-.762c0-.293-.27-.527-.597-.527h-.598c-.328 0-.597.234-.597.527v.762c-.493.105-.95.304-1.36.562l-.539-.539a.496.496 0 0 0-.351-.14.631.631 0 0 0-.446.187l-.422.422c-.234.234-.257.598-.047.797l.54.539c-.258.41-.457.867-.563 1.36h-.762c-.293 0-.527.269-.527.597v.597c0 .329.234.598.527.598h.762c.106.492.305.95.563 1.36l-.54.539c-.21.21-.187.562.047.796l.422.422a.631.631 0 0 0 .446.188.496.496 0 0 0 .351-.14l.54-.54c.41.258.866.457 1.359.563v.761c0 .293.27.528.597.528h.598c.328 0 .597-.235.597-.528v-.761c.493-.106.95-.305 1.36-.563l.539.54c.094.093.223.14.351.14a.631.631 0 0 0 .446-.188l.422-.422c.234-.234.257-.597.047-.796l-.54-.54c.258-.41.457-.867.563-1.359h.762c.293 0 .527-.27.527-.598v-.597c0-.328-.234-.598-.527-.598zm-4.864 3.903c-1.663 0-3-1.337-3-3 0-1.664 1.337-3 3-3 1.664 0 3 1.336 3 3 0 1.663-1.336 3-3 3z" fill="#FFF"/>
        </g>
    </g>
</svg>
