<?xml version="1.0" encoding="UTF-8" standalone="no" ?>
<!DOCTYPE svg PUBLIC "-//W3C//DTD SVG 1.1//EN" "http://www.w3.org/Graphics/SVG/1.1/DTD/svg11.dtd">
<svg xmlns="http://www.w3.org/2000/svg" xmlns:xlink="http://www.w3.org/1999/xlink" version="1.1" width="1080" height="1080" viewBox="0 0 1080 1080" xml:space="preserve">
<desc>Created with Fabric.js 5.2.4</desc>
<defs>
</defs>
<g transform="matrix(1 0 0 1 540 540)" id="879ccd20-df50-4009-b6c5-07ae82996e41"  >
<rect style="stroke: none; stroke-width: 1; stroke-dasharray: none; stroke-linecap: butt; stroke-dashoffset: 0; stroke-linejoin: miter; stroke-miterlimit: 4; fill: rgb(255,255,255); fill-rule: nonzero; opacity: 1; visibility: hidden;" vector-effect="non-scaling-stroke"  x="-540" y="-540" rx="0" ry="0" width="1080" height="1080" />
</g>
<g transform="matrix(1 0 0 1 540 540)" id="e1cfb9ad-231c-42ba-a17f-cc72754462cd"  >
</g>
<g transform="matrix(54 0 0 54 540 540)"  >
<rect style="stroke: none; stroke-width: 1; stroke-dasharray: none; stroke-linecap: butt; stroke-dashoffset: 0; stroke-linejoin: miter; stroke-miterlimit: 4; fill: rgb(255,231,189); fill-rule: nonzero; opacity: 1;"  x="-10" y="-10" rx="8" ry="8" width="20" height="20" />
</g>
<g transform="matrix(3.09 0 0 3.09 540 540)"  >
<g style="" vector-effect="non-scaling-stroke"   >
		<g transform="matrix(1 0 0 1 67.14 -79.33)"  >
<polygon style="stroke: none; stroke-width: 1; stroke-dasharray: none; stroke-linecap: butt; stroke-dashoffset: 0; stroke-linejoin: miter; stroke-miterlimit: 4; fill: rgb(225,119,38); fill-rule: nonzero; opacity: 1;" vector-effect="non-scaling-stroke"  points="54.92,-40.64 -54.92,40.64 -34.5,-7.26 " />
</g>
		<g transform="matrix(1 0 0 1 -67.52 -78.96)"  >
<polygon style="stroke: none; stroke-width: 1; stroke-dasharray: none; stroke-linecap: butt; stroke-dashoffset: 0; stroke-linejoin: miter; stroke-miterlimit: 4; fill: rgb(226,118,37); fill-rule: nonzero; opacity: 1;" vector-effect="non-scaling-stroke"  points="-54.29,-40.91 34.89,-7.62 54.29,40.91 " />
</g>
		<g transform="matrix(1 0 0 1 88.31 82.17)"  >
<polygon style="stroke: none; stroke-width: 1; stroke-dasharray: none; stroke-linecap: butt; stroke-dashoffset: 0; stroke-linejoin: miter; stroke-miterlimit: 4; fill: rgb(226,118,37); fill-rule: nonzero; opacity: 1;" vector-effect="non-scaling-stroke"  points="-10.45,-29.28 38.11,-28.36 21.14,29.28 -38.11,12.97 " />
</g>
		<g transform="matrix(1 0 0 1 -88.31 82.17)"  >
<polygon style="stroke: none; stroke-width: 1; stroke-dasharray: none; stroke-linecap: butt; stroke-dashoffset: 0; stroke-linejoin: miter; stroke-miterlimit: 4; fill: rgb(226,118,37); fill-rule: nonzero; opacity: 1;" vector-effect="non-scaling-stroke"  points="10.45,-29.28 38,12.97 -21.14,29.28 -38,-28.36 " />
</g>
		<g transform="matrix(1 0 0 1 -43.57 -18.37)"  >
<polygon style="stroke: none; stroke-width: 1; stroke-dasharray: none; stroke-linecap: butt; stroke-dashoffset: 0; stroke-linejoin: miter; stroke-miterlimit: 4; fill: rgb(226,118,37); fill-rule: nonzero; opacity: 1;" vector-effect="non-scaling-stroke"  points="27.7,-32.04 29.69,32.04 -29.69,29.34 -12.8,3.86 -12.58,3.62 " />
</g>
		<g transform="matrix(1 0 0 1 43.57 -18.73)"  >
<polygon style="stroke: none; stroke-width: 1; stroke-dasharray: none; stroke-linecap: butt; stroke-dashoffset: 0; stroke-linejoin: miter; stroke-miterlimit: 4; fill: rgb(226,118,37); fill-rule: nonzero; opacity: 1;" vector-effect="non-scaling-stroke"  points="-28.32,-32.4 12.58,3.98 12.79,4.22 29.68,29.7 -29.68,32.4 " />
</g>
		<g transform="matrix(1 0 0 1 -34.98 74.8)"  >
<polygon style="stroke: none; stroke-width: 1; stroke-dasharray: none; stroke-linecap: butt; stroke-dashoffset: 0; stroke-linejoin: miter; stroke-miterlimit: 4; fill: rgb(226,118,37); fill-rule: nonzero; opacity: 1;" vector-effect="non-scaling-stroke"  points="-13.59,-21.72 18.83,3.54 -18.83,21.72 " />
</g>
		<g transform="matrix(1 0 0 1 34.93 74.8)"  >
<polygon style="stroke: none; stroke-width: 1; stroke-dasharray: none; stroke-linecap: butt; stroke-dashoffset: 0; stroke-linejoin: miter; stroke-miterlimit: 4; fill: rgb(226,118,37); fill-rule: nonzero; opacity: 1;" vector-effect="non-scaling-stroke"  points="13.65,-21.72 18.78,21.72 -18.78,3.54 " />
</g>
		<g transform="matrix(1 0 0 1 36.03 93.6)"  >
<polygon style="stroke: none; stroke-width: 1; stroke-dasharray: none; stroke-linecap: butt; stroke-dashoffset: 0; stroke-linejoin: miter; stroke-miterlimit: 4; fill: rgb(213,191,178); fill-rule: nonzero; opacity: 1;" vector-effect="non-scaling-stroke"  points="-19.05,-17.65 19.05,0.8 -16.39,17.65 -16.03,6.51 " />
</g>
		<g transform="matrix(1 0 0 1 -36.09 93.6)"  >
<polygon style="stroke: none; stroke-width: 1; stroke-dasharray: none; stroke-linecap: butt; stroke-dashoffset: 0; stroke-linejoin: miter; stroke-miterlimit: 4; fill: rgb(213,191,178); fill-rule: nonzero; opacity: 1;" vector-effect="non-scaling-stroke"  points="19.1,-17.64 16.19,6.33 16.43,17.64 -19.1,0.81 " />
</g>
		<g transform="matrix(1 0 0 1 -34.99 32.5)"  >
<polygon style="stroke: none; stroke-width: 1; stroke-dasharray: none; stroke-linecap: butt; stroke-dashoffset: 0; stroke-linejoin: miter; stroke-miterlimit: 4; fill: rgb(35,52,71); fill-rule: nonzero; opacity: 1;" vector-effect="non-scaling-stroke"  points="6.99,-10.46 16.95,10.46 -16.95,0.53 " />
</g>
		<g transform="matrix(1 0 0 1 35.04 32.5)"  >
<polygon style="stroke: none; stroke-width: 1; stroke-dasharray: none; stroke-linecap: butt; stroke-dashoffset: 0; stroke-linejoin: miter; stroke-miterlimit: 4; fill: rgb(35,52,71); fill-rule: nonzero; opacity: 1;" vector-effect="non-scaling-stroke"  points="-7.05,-10.46 17.01,0.53 -17.01,10.46 " />
</g>
		<g transform="matrix(1 0 0 1 -63.4 75.38)"  >
<polygon style="stroke: none; stroke-width: 1; stroke-dasharray: none; stroke-linecap: butt; stroke-dashoffset: 0; stroke-linejoin: miter; stroke-miterlimit: 4; fill: rgb(204,98,40); fill-rule: nonzero; opacity: 1;" vector-effect="non-scaling-stroke"  points="17.43,-22.52 11.95,22.52 -17.43,-21.54 " />
</g>
		<g transform="matrix(1 0 0 1 63.4 75.38)"  >
<polygon style="stroke: none; stroke-width: 1; stroke-dasharray: none; stroke-linecap: butt; stroke-dashoffset: 0; stroke-linejoin: miter; stroke-miterlimit: 4; fill: rgb(204,98,40); fill-rule: nonzero; opacity: 1;" vector-effect="non-scaling-stroke"  points="-17.43,-22.52 17.43,-21.54 -12.06,22.52 " />
</g>
		<g transform="matrix(1 0 0 1 43.9 26.72)"  >
<polygon style="stroke: none; stroke-width: 1; stroke-dasharray: none; stroke-linecap: butt; stroke-dashoffset: 0; stroke-linejoin: miter; stroke-miterlimit: 4; fill: rgb(204,98,40); fill-rule: nonzero; opacity: 1;" vector-effect="non-scaling-stroke"  points="30.21,-18.3 4.85,7.55 -14.71,-1.38 -24.07,18.3 -30.21,-15.55 " />
</g>
		<g transform="matrix(1 0 0 1 -43.91 26.72)"  >
<polygon style="stroke: none; stroke-width: 1; stroke-dasharray: none; stroke-linecap: butt; stroke-dashoffset: 0; stroke-linejoin: miter; stroke-miterlimit: 4; fill: rgb(204,98,40); fill-rule: nonzero; opacity: 1;" vector-effect="non-scaling-stroke"  points="-30.22,-18.3 30.22,-15.55 24.08,18.3 14.71,-1.38 -4.74,7.55 " />
</g>
		<g transform="matrix(1 0 0 1 -60.99 32.05)"  >
<polygon style="stroke: none; stroke-width: 1; stroke-dasharray: none; stroke-linecap: butt; stroke-dashoffset: 0; stroke-linejoin: miter; stroke-miterlimit: 4; fill: rgb(226,117,37); fill-rule: nonzero; opacity: 1;" vector-effect="non-scaling-stroke"  points="-14.85,-28.93 13.85,0.19 14.85,28.93 " />
</g>
		<g transform="matrix(1 0 0 1 60.99 32.05)"  >
<polygon style="stroke: none; stroke-width: 1; stroke-dasharray: none; stroke-linecap: butt; stroke-dashoffset: 0; stroke-linejoin: miter; stroke-miterlimit: 4; fill: rgb(226,117,37); fill-rule: nonzero; opacity: 1;" vector-effect="non-scaling-stroke"  points="14.87,-28.99 -14.87,28.99 -13.75,0.19 " />
</g>
		<g transform="matrix(1 0 0 1 -16.34 45.39)"  >
<polygon style="stroke: none; stroke-width: 1; stroke-dasharray: none; stroke-linecap: butt; stroke-dashoffset: 0; stroke-linejoin: miter; stroke-miterlimit: 4; fill: rgb(226,117,37); fill-rule: nonzero; opacity: 1;" vector-effect="non-scaling-stroke"  points="1.25,-40.5 2.4,-33.23 5.26,-15.12 3.42,40.5 -5.25,-4.18 -5.26,-4.64 " />
</g>
		<g transform="matrix(1 0 0 1 16.4 45.4)"  >
<polygon style="stroke: none; stroke-width: 1; stroke-dasharray: none; stroke-linecap: butt; stroke-dashoffset: 0; stroke-linejoin: miter; stroke-miterlimit: 4; fill: rgb(226,117,37); fill-rule: nonzero; opacity: 1;" vector-effect="non-scaling-stroke"  points="-1.32,-40.61 5.2,-4.65 5.2,-4.19 -3.5,40.61 -3.84,29.4 -5.2,-15.46 " />
</g>
		<g transform="matrix(1 0 0 1 31.11 55.36)"  >
<polygon style="stroke: none; stroke-width: 1; stroke-dasharray: none; stroke-linecap: butt; stroke-dashoffset: 0; stroke-linejoin: miter; stroke-miterlimit: 4; fill: rgb(245,132,31); fill-rule: nonzero; opacity: 1;" vector-effect="non-scaling-stroke"  points="18.68,-24.28 17.71,0.7 -12.56,24.28 -18.68,19.96 -11.82,-15.38 " />
</g>
		<g transform="matrix(1 0 0 1 -31.05 55.36)"  >
<polygon style="stroke: none; stroke-width: 1; stroke-dasharray: none; stroke-linecap: butt; stroke-dashoffset: 0; stroke-linejoin: miter; stroke-miterlimit: 4; fill: rgb(245,132,31); fill-rule: nonzero; opacity: 1;" vector-effect="non-scaling-stroke"  points="-18.63,-24.28 11.77,-15.38 18.63,19.96 12.51,24.28 -17.77,0.69 " />
</g>
		<g transform="matrix(1 0 0 1 -0.11 104.43)"  >
<polygon style="stroke: none; stroke-width: 1; stroke-dasharray: none; stroke-linecap: butt; stroke-dashoffset: 0; stroke-linejoin: miter; stroke-miterlimit: 4; fill: rgb(192,172,157); fill-rule: nonzero; opacity: 1;" vector-effect="non-scaling-stroke"  points="-60.87,-15.54 -22.14,2.81 -22.3,-5.02 -19.06,-7.87 19.27,-7.87 22.63,-5.03 22.38,2.8 60.87,-15.49 42.14,-0.02 19.5,15.54 -19.37,15.54 -42,-0.08 " />
</g>
		<g transform="matrix(1 0 0 1 0.05 88.29)"  >
<polygon style="stroke: none; stroke-width: 1; stroke-dasharray: none; stroke-linecap: butt; stroke-dashoffset: 0; stroke-linejoin: miter; stroke-miterlimit: 4; fill: rgb(22,22,22); fill-rule: nonzero; opacity: 1;" vector-effect="non-scaling-stroke"  points="14.15,-14.78 19.63,-10.91 22.84,14.7 18.19,10.78 -18.28,10.78 -22.84,14.78 -19.73,-10.91 -14.26,-14.78 " />
</g>
		<g transform="matrix(1 0 0 1 72.24 -57.48)"  >
<polygon style="stroke: none; stroke-width: 1; stroke-dasharray: none; stroke-linecap: butt; stroke-dashoffset: 0; stroke-linejoin: miter; stroke-miterlimit: 4; fill: rgb(118,62,26); fill-rule: nonzero; opacity: 1;" vector-effect="non-scaling-stroke"  points="42.57,-60.23 55.76,-20.68 47.52,19.32 53.38,23.85 45.45,29.9 51.41,34.5 43.52,41.7 48.36,45.21 35.5,60.23 -17.27,44.87 -17.73,44.62 -55.76,12.54 " />
</g>
		<g transform="matrix(1 0 0 1 -72.24 -57.48)"  >
<polygon style="stroke: none; stroke-width: 1; stroke-dasharray: none; stroke-linecap: butt; stroke-dashoffset: 0; stroke-linejoin: miter; stroke-miterlimit: 4; fill: rgb(118,62,26); fill-rule: nonzero; opacity: 1;" vector-effect="non-scaling-stroke"  points="-42.57,-60.23 55.76,12.54 17.73,44.62 17.27,44.87 -35.5,60.23 -48.36,45.21 -43.52,41.7 -51.41,34.5 -45.46,29.9 -53.51,23.83 -47.43,19.31 -55.76,-20.67 " />
</g>
		<g transform="matrix(1 0 0 1 86 20.36)"  >
<polygon style="stroke: none; stroke-width: 1; stroke-dasharray: none; stroke-linecap: butt; stroke-dashoffset: 0; stroke-linejoin: miter; stroke-miterlimit: 4; fill: rgb(245,132,31); fill-rule: nonzero; opacity: 1;" vector-effect="non-scaling-stroke"  points="-33.61,-36.34 22.31,-20.06 40.47,35.92 -7.45,35.92 -40.47,36.34 -16.46,-10.47 " />
</g>
		<g transform="matrix(1 0 0 1 -85.95 20.36)"  >
<polygon style="stroke: none; stroke-width: 1; stroke-dasharray: none; stroke-linecap: butt; stroke-dashoffset: 0; stroke-linejoin: miter; stroke-miterlimit: 4; fill: rgb(245,132,31); fill-rule: nonzero; opacity: 1;" vector-effect="non-scaling-stroke"  points="33.56,-36.34 16.4,-10.47 40.42,36.34 7.42,35.92 -40.42,35.92 -22.36,-20.06 " />
</g>
		<g transform="matrix(1 0 0 1 0 -5.42)"  >
<polygon style="stroke: none; stroke-width: 1; stroke-dasharray: none; stroke-linecap: butt; stroke-dashoffset: 0; stroke-linejoin: miter; stroke-miterlimit: 4; fill: rgb(245,132,31); fill-rule: nonzero; opacity: 1;" vector-effect="non-scaling-stroke"  points="35.38,-81.44 19.75,-39.2 16.43,17.86 15.16,35.75 15.06,81.44 -15.06,81.44 -15.15,35.83 -16.43,17.85 -19.75,-39.2 -35.38,-81.44 " />
</g>
</g>
</g>
</svg>