<svg width="18" height="17" viewBox="0 0 18 17" fill="none" xmlns="http://www.w3.org/2000/svg">
<path opacity="0.2" d="M6.94608 1.19604C6.55317 2.4961 6.5203 3.87838 6.85098 5.19564C7.18165 6.5129 7.86348 7.71577 8.82382 8.67611C9.78416 9.63646 10.987 10.3183 12.3043 10.649C13.6216 10.9796 15.0038 10.9468 16.3039 10.5539C15.927 11.7931 15.2356 12.9136 14.297 13.8062C13.3584 14.6988 12.2047 15.3331 10.9481 15.6474C9.69157 15.9617 8.37504 15.9452 7.12676 15.5995C5.87848 15.2538 4.74101 14.5907 3.82512 13.6748C2.90923 12.7589 2.24615 11.6215 1.90046 10.3732C1.55477 9.12489 1.53826 7.80836 1.85252 6.5518C2.16679 5.29524 2.80113 4.14149 3.69375 3.20292C4.58638 2.26434 5.70686 1.57294 6.94608 1.19604Z" fill="#19191A"/>
<path d="M6.94608 1.19604C6.55317 2.4961 6.5203 3.87838 6.85098 5.19564C7.18165 6.5129 7.86348 7.71577 8.82382 8.67611C9.78416 9.63646 10.987 10.3183 12.3043 10.649C13.6216 10.9796 15.0038 10.9468 16.3039 10.5539C15.927 11.7931 15.2356 12.9136 14.297 13.8062C13.3584 14.6988 12.2047 15.3331 10.9481 15.6474C9.69157 15.9617 8.37504 15.9452 7.12676 15.5995C5.87848 15.2538 4.74101 14.5907 3.82512 13.6748C2.90923 12.7589 2.24615 11.6215 1.90046 10.3732C1.55477 9.12489 1.53826 7.80836 1.85252 6.5518C2.16679 5.29524 2.80113 4.14149 3.69375 3.20292C4.58638 2.26434 5.70686 1.57294 6.94608 1.19604Z" stroke="#19191A" stroke-width="2" stroke-linecap="round" stroke-linejoin="round"/>
</svg>
