<svg width="25" height="24" viewBox="0 0 25 24" fill="none" xmlns="http://www.w3.org/2000/svg">
<g clip-path="url(#clip0_10177_56197)">
<path opacity="0.2" d="M8.375 15C11.0674 15 13.25 12.8174 13.25 10.125C13.25 7.43261 11.0674 5.25 8.375 5.25C5.68261 5.25 3.5 7.43261 3.5 10.125C3.5 12.8174 5.68261 15 8.375 15Z" fill="#19191A"/>
<path d="M1.45898 18.75C2.20813 17.5982 3.23311 16.6517 4.44086 15.9965C5.64861 15.3412 7.00089 14.998 8.37492 14.998C9.74896 14.998 11.1012 15.3412 12.309 15.9965C13.5167 16.6517 14.5417 17.5982 15.2909 18.75" stroke="#19191A" stroke-width="2" stroke-linecap="round" stroke-linejoin="round"/>
<path d="M16.625 15C17.999 14.9992 19.3513 15.3418 20.5592 15.9967C21.767 16.6517 22.792 17.5981 23.5409 18.75" stroke="#19191A" stroke-width="2" stroke-linecap="round" stroke-linejoin="round"/>
<path d="M8.375 15C11.0674 15 13.25 12.8174 13.25 10.125C13.25 7.43261 11.0674 5.25 8.375 5.25C5.68261 5.25 3.5 7.43261 3.5 10.125C3.5 12.8174 5.68261 15 8.375 15Z" stroke="#19191A" stroke-width="2" stroke-linecap="round" stroke-linejoin="round"/>
<path d="M14.8145 5.59687C15.4813 5.3309 16.1987 5.2155 16.9153 5.25893C17.6319 5.30235 18.3301 5.50352 18.96 5.84806C19.5899 6.19261 20.1359 6.67202 20.559 7.25204C20.9821 7.83206 21.2718 8.49838 21.4076 9.20338C21.5433 9.90837 21.5216 10.6346 21.3441 11.3303C21.1666 12.026 20.8376 12.6738 20.3807 13.2276C19.9238 13.7814 19.3502 14.2274 18.7009 14.5338C18.0516 14.8402 17.3427 14.9994 16.6248 15" stroke="#19191A" stroke-width="2" stroke-linecap="round" stroke-linejoin="round"/>
</g>
<defs>
<clipPath id="clip0_10177_56197">
<rect width="24" height="24" fill="white" transform="translate(0.5)"/>
</clipPath>
</defs>
</svg>
