<svg width="24" height="24" viewBox="0 0 24 24" fill="none" xmlns="http://www.w3.org/2000/svg">
<g clip-path="url(#clip0_10032_83984)">
<path opacity="0.2" d="M11.9996 3C10.1789 2.99989 8.40098 3.55199 6.90061 4.58339C5.40024 5.61479 4.24797 7.077 3.59594 8.77693C2.94392 10.4769 2.82281 12.3346 3.2486 14.1048C3.67439 15.875 4.62706 17.4744 5.98082 18.6919C6.54545 17.5809 7.40664 16.6478 8.46897 15.9962C9.53131 15.3446 10.7533 14.9998 11.9996 15C11.2579 15 10.5329 14.7801 9.91618 14.368C9.2995 13.956 8.81885 13.3703 8.53502 12.6851C8.25119 11.9998 8.17693 11.2458 8.32162 10.5184C8.46632 9.79098 8.82347 9.1228 9.34792 8.59835C9.87237 8.0739 10.5406 7.71675 11.268 7.57206C11.9954 7.42736 12.7494 7.50162 13.4346 7.78545C14.1199 8.06928 14.7055 8.54993 15.1176 9.16661C15.5296 9.7833 15.7496 10.5083 15.7496 11.25C15.7496 12.2446 15.3545 13.1984 14.6512 13.9017C13.948 14.6049 12.9941 15 11.9996 15C13.2457 14.9997 14.4677 15.3443 15.53 15.9958C16.5923 16.6473 17.4536 17.5801 18.0183 18.6909C19.3717 17.4734 20.3241 15.874 20.7497 14.104C21.1753 12.334 21.0541 10.4765 20.4021 8.77676C19.7501 7.07704 18.598 5.61499 17.0978 4.58363C15.5977 3.55228 13.82 3.0001 11.9996 3Z" fill="#B0B1B3"/>
<path d="M5.98145 18.6909C6.54574 17.5794 7.40678 16.6459 8.46914 15.9938C9.5315 15.3418 10.7537 14.9966 12.0002 14.9966C13.2467 14.9966 14.4689 15.3418 15.5312 15.9938C16.5936 16.6459 17.4547 17.5794 18.0189 18.6909" stroke="#B0B1B3" stroke-width="2" stroke-linecap="round" stroke-linejoin="round"/>
<path d="M12 21C16.9706 21 21 16.9706 21 12C21 7.02944 16.9706 3 12 3C7.02944 3 3 7.02944 3 12C3 16.9706 7.02944 21 12 21Z" stroke="#B0B1B3" stroke-width="2" stroke-linecap="round" stroke-linejoin="round"/>
<path d="M12 15C14.0711 15 15.75 13.3211 15.75 11.25C15.75 9.17893 14.0711 7.5 12 7.5C9.92893 7.5 8.25 9.17893 8.25 11.25C8.25 13.3211 9.92893 15 12 15Z" stroke="#B0B1B3" stroke-width="2" stroke-linecap="round" stroke-linejoin="round"/>
</g>
<defs>
<clipPath id="clip0_10032_83984">
<rect width="24" height="24" fill="white"/>
</clipPath>
</defs>
</svg>
