<svg width="16" height="16" viewBox="0 0 16 16" fill="none" xmlns="http://www.w3.org/2000/svg">
<g clip-path="url(#clip0_14_10)">
<path opacity="0.2" d="M13 2.5H3C2.86739 2.5 2.74021 2.55268 2.64645 2.64645C2.55268 2.74021 2.5 2.86739 2.5 3V13C2.5 13.1326 2.55268 13.2598 2.64645 13.3536C2.74021 13.4473 2.86739 13.5 3 13.5H3.54312L10.3962 6.64625C10.4427 6.59976 10.4978 6.56288 10.5585 6.53772C10.6192 6.51256 10.6843 6.49961 10.75 6.49961C10.8157 6.49961 10.8808 6.51256 10.9415 6.53772C11.0022 6.56288 11.0573 6.59976 11.1038 6.64625L13.5 9.04313V3C13.5 2.86739 13.4473 2.74021 13.3536 2.64645C13.2598 2.55268 13.1326 2.5 13 2.5ZM6 7C5.80222 7 5.60888 6.94135 5.44443 6.83147C5.27998 6.72159 5.15181 6.56541 5.07612 6.38268C5.00043 6.19996 4.98063 5.99889 5.01921 5.80491C5.0578 5.61093 5.15304 5.43275 5.29289 5.29289C5.43275 5.15304 5.61093 5.0578 5.80491 5.01921C5.99889 4.98063 6.19996 5.00043 6.38268 5.07612C6.56541 5.15181 6.72159 5.27998 6.83147 5.44443C6.94135 5.60888 7 5.80222 7 6C7 6.26522 6.89464 6.51957 6.70711 6.70711C6.51957 6.89464 6.26522 7 6 7Z" fill="#B0B1B3"/>
<path d="M13 2.5H3C2.72386 2.5 2.5 2.72386 2.5 3V13C2.5 13.2761 2.72386 13.5 3 13.5H13C13.2761 13.5 13.5 13.2761 13.5 13V3C13.5 2.72386 13.2761 2.5 13 2.5Z" stroke="#B0B1B3" stroke-width="1.5" stroke-linecap="round" stroke-linejoin="round"/>
<path d="M6 7C6.55228 7 7 6.55228 7 6C7 5.44772 6.55228 5 6 5C5.44772 5 5 5.44772 5 6C5 6.55228 5.44772 7 6 7Z" stroke="#B0B1B3" stroke-width="1.5" stroke-linecap="round" stroke-linejoin="round"/>
<path d="M3.54309 13.5L10.3962 6.64625C10.4427 6.59976 10.4978 6.56288 10.5585 6.53772C10.6192 6.51255 10.6843 6.4996 10.75 6.4996C10.8157 6.4996 10.8807 6.51255 10.9414 6.53772C11.0021 6.56288 11.0573 6.59976 11.1037 6.64625L13.5 9.04312" stroke="#B0B1B3" stroke-width="1.5" stroke-linecap="round" stroke-linejoin="round"/>
</g>
<defs>
<clipPath id="clip0_14_10">
<rect width="16" height="16" fill="white"/>
</clipPath>
</defs>
</svg>
