<svg width="25" height="24" viewBox="0 0 25 24" fill="none" xmlns="http://www.w3.org/2000/svg">
<g clip-path="url(#clip0_10177_41640)">
<path opacity="0.2" d="M20.25 3.25H9.75C9.55109 3.25 9.36032 3.32902 9.21967 3.46967C9.07902 3.61032 9 3.80109 9 4V8.5H5.25C5.05109 8.5 4.86032 8.57902 4.71967 8.71967C4.57902 8.86032 4.5 9.05109 4.5 9.25V19C4.5 19.1989 4.57902 19.3897 4.71967 19.5303C4.86032 19.671 5.05109 19.75 5.25 19.75H15.75C15.9489 19.75 16.1397 19.671 16.2803 19.5303C16.421 19.3897 16.5 19.1989 16.5 19V14.5H20.25C20.4489 14.5 20.6397 14.421 20.7803 14.2803C20.921 14.1397 21 13.9489 21 13.75V4C21 3.80109 20.921 3.61032 20.7803 3.46967C20.6397 3.32902 20.4489 3.25 20.25 3.25Z" fill="#B0B1B3"/>
<path d="M8.25 14.5H20.25C20.4489 14.5 20.6397 14.421 20.7803 14.2803C20.921 14.1397 21 13.9489 21 13.75V4C21 3.80109 20.921 3.61032 20.7803 3.46967C20.6397 3.32902 20.4489 3.25 20.25 3.25H9.75C9.55109 3.25 9.36032 3.32902 9.21967 3.46967C9.07902 3.61032 9 3.80109 9 4V4.75" stroke="#B0B1B3" stroke-width="2" stroke-linecap="round" stroke-linejoin="round"/>
<path d="M10.5 12.25L8.25 14.5L10.5 16.75" stroke="#B0B1B3" stroke-width="2" stroke-linecap="round" stroke-linejoin="round"/>
<path d="M17.25 8.5H5.25C5.05109 8.5 4.86032 8.57902 4.71967 8.71967C4.57902 8.86032 4.5 9.05109 4.5 9.25V19C4.5 19.1989 4.57902 19.3897 4.71967 19.5303C4.86032 19.671 5.05109 19.75 5.25 19.75H15.75C15.9489 19.75 16.1397 19.671 16.2803 19.5303C16.421 19.3897 16.5 19.1989 16.5 19V18.25" stroke="#B0B1B3" stroke-width="2" stroke-linecap="round" stroke-linejoin="round"/>
<path d="M15 10.75L17.25 8.5L15 6.25" stroke="#B0B1B3" stroke-width="2" stroke-linecap="round" stroke-linejoin="round"/>
</g>
<defs>
<clipPath id="clip0_10177_41640">
<rect width="24" height="24" fill="white" transform="translate(0.75)"/>
</clipPath>
</defs>
</svg>
