<svg width="16" height="17" viewBox="0 0 16 17" fill="none" xmlns="http://www.w3.org/2000/svg">
<path d="M5.75 7.25C5.75 7.05109 5.82902 6.86032 5.96967 6.71967C6.11032 6.57902 6.30109 6.5 6.5 6.5H11C11.1989 6.5 11.3897 6.57902 11.5303 6.71967C11.671 6.86032 11.75 7.05109 11.75 7.25C11.75 7.44891 11.671 7.63968 11.5303 7.78033C11.3897 7.92098 11.1989 8 11 8H6.5C6.30109 8 6.11032 7.92098 5.96967 7.78033C5.82902 7.63968 5.75 7.44891 5.75 7.25ZM6.5 10.5H11C11.1989 10.5 11.3897 10.421 11.5303 10.2803C11.671 10.1397 11.75 9.94891 11.75 9.75C11.75 9.55109 11.671 9.36032 11.5303 9.21967C11.3897 9.07902 11.1989 9 11 9H6.5C6.30109 9 6.11032 9.07902 5.96967 9.21967C5.82902 9.36032 5.75 9.55109 5.75 9.75C5.75 9.94891 5.82902 10.1397 5.96967 10.2803C6.11032 10.421 6.30109 10.5 6.5 10.5ZM14.75 4.5V12C14.75 12.2298 14.7047 12.4574 14.6168 12.6697C14.5288 12.882 14.3999 13.0749 14.2374 13.2374C14.0749 13.3999 13.882 13.5288 13.6697 13.6168C13.4574 13.7047 13.2298 13.75 13 13.75H2.25C1.71957 13.75 1.21086 13.5393 0.835786 13.1642C0.460714 12.7891 0.25 12.2804 0.25 11.75V6C0.25 5.80109 0.329018 5.61032 0.46967 5.46967C0.610322 5.32902 0.801088 5.25 1 5.25C1.19891 5.25 1.38968 5.32902 1.53033 5.46967C1.67098 5.61032 1.75 5.80109 1.75 6V11.75C1.75 11.8826 1.80268 12.0098 1.89645 12.1036C1.99021 12.1973 2.11739 12.25 2.25 12.25C2.38261 12.25 2.50979 12.1973 2.60355 12.1036C2.69732 12.0098 2.75 11.8826 2.75 11.75V4.5C2.75 4.16848 2.8817 3.85054 3.11612 3.61612C3.35054 3.3817 3.66848 3.25 4 3.25H13.5C13.8315 3.25 14.1495 3.3817 14.3839 3.61612C14.6183 3.85054 14.75 4.16848 14.75 4.5ZM13.25 4.75H4.25V11.75C4.25033 11.9186 4.22933 12.0866 4.1875 12.25H13C13.0663 12.25 13.1299 12.2237 13.1768 12.1768C13.2237 12.1299 13.25 12.0663 13.25 12V4.75Z" fill="#636467"/>
</svg>
