<svg width="18" height="20" viewBox="0 0 18 20" fill="none" xmlns="http://www.w3.org/2000/svg">
<path d="M1.5 5H3.16667H16.5" stroke="#B0B1B3" stroke-width="1.5" stroke-linecap="round" stroke-linejoin="round"/>
<path d="M5.66669 4.99996V3.33329C5.66669 2.89127 5.84228 2.46734 6.15484 2.15478C6.4674 1.84222 6.89133 1.66663 7.33335 1.66663H10.6667C11.1087 1.66663 11.5326 1.84222 11.8452 2.15478C12.1578 2.46734 12.3334 2.89127 12.3334 3.33329V4.99996M14.8334 4.99996V16.6666C14.8334 17.1087 14.6578 17.5326 14.3452 17.8451C14.0326 18.1577 13.6087 18.3333 13.1667 18.3333H4.83335C4.39133 18.3333 3.9674 18.1577 3.65484 17.8451C3.34228 17.5326 3.16669 17.1087 3.16669 16.6666V4.99996H14.8334Z" stroke="#B0B1B3" stroke-width="1.5" stroke-linecap="round" stroke-linejoin="round"/>
<path d="M7.33331 9.16663V14.1666" stroke="#B0B1B3" stroke-width="1.5" stroke-linecap="round" stroke-linejoin="round"/>
<path d="M10.6667 9.16663V14.1666" stroke="#B0B1B3" stroke-width="1.5" stroke-linecap="round" stroke-linejoin="round"/>
</svg>
