<svg width="15" height="16" viewBox="0 0 15 16" fill="none" xmlns="http://www.w3.org/2000/svg">
<path d="M12.8333 6H6.83333C6.09695 6 5.5 6.59695 5.5 7.33333V13.3333C5.5 14.0697 6.09695 14.6667 6.83333 14.6667H12.8333C13.5697 14.6667 14.1667 14.0697 14.1667 13.3333V7.33333C14.1667 6.59695 13.5697 6 12.8333 6Z" stroke="#19191A" stroke-width="1.5" stroke-linecap="round" stroke-linejoin="round"/>
<path d="M2.8335 9.99992H2.16683C1.81321 9.99992 1.47407 9.85944 1.22402 9.60939C0.973972 9.35935 0.833496 9.02021 0.833496 8.66658V2.66659C0.833496 2.31296 0.973972 1.97382 1.22402 1.72378C1.47407 1.47373 1.81321 1.33325 2.16683 1.33325H8.16683C8.52045 1.33325 8.85959 1.47373 9.10964 1.72378C9.35969 1.97382 9.50016 2.31296 9.50016 2.66659V3.33325" stroke="#19191A" stroke-width="1.5" stroke-linecap="round" stroke-linejoin="round"/>
</svg>
