<svg width="68" height="69" viewBox="0 0 68 69" fill="none" xmlns="http://www.w3.org/2000/svg">
<g clip-path="url(#clip0_10716_41794)">
<path d="M68 47.7583H58.8411V69H9.19375C8.74129 61.9748 9.23926 55.0381 8.88854 47.7932H0C0.615772 46.5414 0.918304 45.7588 1.35738 45.0619C3.49919 41.6659 5.76684 38.345 7.80424 34.8873C8.87247 33.0781 10.104 32.3517 12.2699 32.3678C25.5599 32.475 38.8499 32.408 52.1425 32.4348C54.2656 32.4402 56.726 31.9872 58.418 32.8905C60.011 33.7428 60.8169 36.0962 61.936 37.8116C63.4942 40.2024 65.0336 42.6094 66.557 45.0244C66.9666 45.6757 67.2825 46.386 68 47.753V47.7583ZM56.9911 47.7958C55.7943 47.7958 54.9135 47.7958 54.0354 47.7958C49.0449 47.7958 44.0518 47.7476 39.0614 47.8227C37.5514 47.8468 36.5956 47.375 35.8192 46.0536C34.328 43.5207 32.6841 41.0736 31.0778 38.6076C30.7752 38.1439 30.3522 37.7633 29.8489 37.1871C29.3188 41.548 29.5089 65.4191 30.047 67.2953H56.9911V47.7932V47.7958ZM64.5383 45.9759C64.5383 45.5336 64.6052 45.3192 64.5276 45.1959C62.434 41.883 60.2895 38.6023 58.244 35.2626C57.6122 34.2306 56.7662 34.1583 55.7542 34.1583C47.9178 34.1717 40.0841 34.1636 32.2477 34.1797C31.7819 34.1797 31.316 34.3593 30.5718 34.5094C33.1259 38.5058 35.5113 42.2395 37.8968 45.9732H64.5383V45.9759ZM27.5866 59.1632C28.0765 54.2957 27.8891 39.3099 27.276 37.1737C25.6027 39.7655 23.8545 42.1189 22.4944 44.6786C21.2093 47.099 19.5601 48.1202 16.7865 47.8602C14.9124 47.6833 12.9232 47.426 10.9848 48.1684V67.0461C16.6687 64.347 22.1035 61.7685 27.5893 59.1632H27.5866ZM2.79775 46.0402C8.44411 46.0402 13.4854 46.0858 18.524 45.9813C19.1345 45.9679 19.9109 45.2736 20.3017 44.6893C22.3284 41.6605 24.2614 38.5674 26.2024 35.4824C26.4032 35.1607 26.4568 34.7453 26.6442 34.1744C21.4289 34.1744 16.4599 34.1422 11.4882 34.2172C10.9126 34.2253 10.1388 34.7024 9.80952 35.1956C7.54187 38.5862 5.36525 42.0412 2.79775 46.0402Z" fill="#CACBCC"/>
<path d="M12.9121 21.9982C14.0492 22.0459 15.0035 21.1342 15 20.001C14.9965 18.9359 14.145 18.0481 13.0792 18.0021C11.9421 17.9509 11 18.8592 11 20.0044C11 21.0848 11.8324 21.9522 12.9121 21.9982Z" fill="#CACBCC"/>
<path d="M44.4682 17.5024C44.6396 17.0172 44.819 16.6259 44.9153 16.2131C45.3276 14.4334 44.6315 13.6909 42.8431 14.0099C42.5031 14.0715 42.1765 14.3691 41.8579 14.3476C41.5714 14.3288 41.2394 14.0715 41.0547 13.8249C40.9476 13.6829 41.0092 13.2835 41.1404 13.12C41.9355 12.1229 43.0011 11.8227 44.2246 12.0961C45.7908 12.4472 47.0197 13.7981 46.9313 15.2857C46.8644 16.4115 46.6957 17.6337 45.2259 17.9017C45.0947 17.9259 44.926 17.749 44.4682 17.4997V17.5024Z" fill="#CACBCC"/>
<path d="M55.8435 23.5089C55.3053 22.887 54.9653 22.5815 55.0028 22.5225C55.98 21.0108 56.984 19.5178 58.0255 18.0517C58.0977 17.9498 58.6841 18.0115 58.7296 18.1241C58.8768 18.4805 59.0749 19.0247 58.9116 19.2686C57.9987 20.6436 56.9867 21.9489 55.8408 23.5062L55.8435 23.5089Z" fill="#CACBCC"/>
<g clip-path="url(#clip1_10716_41794)">
<path d="M21.6473 24.3199L25.2323 37.6991C25.3511 38.1426 25.6253 38.5251 25.9945 38.7623C26.3636 38.9995 26.7975 39.0721 27.2008 38.9641L42.4044 34.8903C42.606 34.8363 42.7758 34.6964 42.8763 34.5013C42.9769 34.3063 43 34.0722 42.9405 33.8504L39.8037 22.1436C39.7443 21.9218 39.6072 21.7306 39.4226 21.612C39.238 21.4933 39.0211 21.4571 38.8195 21.5111L23.6158 25.5849C23.2126 25.6929 22.7787 25.6203 22.4095 25.3831C22.0403 25.1459 21.7662 24.7634 21.6473 24.3199ZM21.6473 24.3199C21.5285 23.8763 21.5747 23.408 21.7758 23.018C21.9769 22.6279 22.3164 22.3481 22.7196 22.2401L35.6427 18.7773" stroke="#CACBCC" stroke-width="2" stroke-linecap="round" stroke-linejoin="round"/>
<path d="M37.4145 29.9536C38.0443 29.7848 38.4043 29.0864 38.2187 28.3937C38.0331 27.701 37.3721 27.2762 36.7423 27.445C36.1126 27.6137 35.7525 28.3121 35.9381 29.0048C36.1238 29.6975 36.7847 30.1223 37.4145 29.9536Z" fill="#CACBCC"/>
</g>
</g>
<defs>
<clipPath id="clip0_10716_41794">
<rect width="68" height="69" fill="white"/>
</clipPath>
<clipPath id="clip1_10716_41794">
<rect width="28" height="22" fill="white" transform="translate(20 11)"/>
</clipPath>
</defs>
</svg>
