<svg width="18" height="24" viewBox="0 0 18 24" xmlns="http://www.w3.org/2000/svg">
    <path d="M0 2v20a2 2 0 0 0 2 2h13.513a2 2 0 0 0 2-2V5.838H12.65a.65.65 0 0 1-.65-.649V0H2a2 2 0 0 0-2 2zM13.297.304V4.54h4.186L13.297.304zM2.534 7.784H9.08a.65.65 0 1 1 0 1.297H2.595a.65.65 0 1 1-.061-1.297zm0 3.567h12.385a.649.649 0 1 1 0 1.298H2.595a.65.65 0 1 1-.061-1.298zm0 3.568h12.385a.65.65 0 1 1 0 1.297H2.595a.65.65 0 1 1-.061-1.297zm0 3.567h12.385a.649.649 0 1 1 0 1.298H2.595a.65.65 0 1 1-.061-1.298z" fill="#B6B6B6" fill-rule="nonzero"/>
</svg>
