<svg width="24" height="25" viewBox="0 0 24 25" xmlns="http://www.w3.org/2000/svg">
    <g fill="none" fill-rule="evenodd">
        <path d="M0 .5h24v24H0z"/>
        <g fill="#0D0D0D" fill-rule="nonzero">
            <path d="M13.454 7.276a1.66 1.66 0 1 1-3.32 0 1.66 1.66 0 0 1 3.32 0"/>
            <path d="M11.794 9.057a1.803 1.803 0 0 0 1.675-1.176 1.793 1.793 0 0 0-.549-1.983 1.795 1.795 0 0 0-2.042-.147 1.8 1.8 0 0 0-.826 1.886c.164.822.911 1.413 1.742 1.42.154.002.154-.237 0-.239a1.555 1.555 0 0 1-1.448-1.01 1.563 1.563 0 0 1 .473-1.725 1.555 1.555 0 0 1 1.771-.125c.547.33.841.988.717 1.616a1.557 1.557 0 0 1-1.513 1.242c-.154.002-.154.241 0 .241zM13.454 12.464a1.66 1.66 0 1 1-3.32 0 1.66 1.66 0 0 1 3.32 0"/>
            <path d="M11.794 10.683a1.803 1.803 0 0 0-1.675 1.176 1.793 1.793 0 0 0 .548 1.983 1.795 1.795 0 0 0 2.043.147 1.8 1.8 0 0 0 .826-1.885c-.164-.823-.911-1.414-1.742-1.421-.154-.002-.154.238 0 .24.637.004 1.23.404 1.448 1.01.22.615.029 1.307-.474 1.724a1.555 1.555 0 0 1-1.77.125 1.554 1.554 0 0 1-.717-1.615 1.557 1.557 0 0 1 1.513-1.243c.154-.002.154-.241 0-.241zM13.454 17.724a1.66 1.66 0 1 1-3.32 0 1.66 1.66 0 0 1 3.32 0"/>
            <path d="M11.794 15.943a1.803 1.803 0 0 0-1.675 1.176 1.793 1.793 0 0 0 .548 1.983 1.795 1.795 0 0 0 2.043.147 1.8 1.8 0 0 0 .826-1.886c-.164-.822-.911-1.413-1.742-1.42-.154-.002-.154.237 0 .239.637.005 1.23.405 1.448 1.01.22.616.029 1.308-.474 1.725a1.555 1.555 0 0 1-1.77.125 1.554 1.554 0 0 1-.717-1.616 1.557 1.557 0 0 1 1.513-1.242c.154-.002.154-.241 0-.241z"/>
        </g>
    </g>
</svg>
