<svg width="24" height="24" viewBox="0 0 24 24" fill="none" xmlns="http://www.w3.org/2000/svg">
<g clip-path="url(#clip0_10832_6512)">
<path opacity="0.2" d="M22.5 18.75H3.75V5.25H22.5C22.6989 5.25 22.8897 5.32902 23.0303 5.46967C23.171 5.61032 23.25 5.80109 23.25 6V18C23.25 18.1989 23.171 18.3897 23.0303 18.5303C22.8897 18.671 22.6989 18.75 22.5 18.75Z" fill="black"/>
<path d="M3.75 5.25V18.75" stroke="black" stroke-width="2" stroke-linecap="round" stroke-linejoin="round"/>
<path d="M9.75 9V12" stroke="black" stroke-width="2" stroke-linecap="round" stroke-linejoin="round"/>
<path d="M6.89697 11.0728L9.74979 11.9999" stroke="black" stroke-width="2" stroke-linecap="round" stroke-linejoin="round"/>
<path d="M7.98633 14.4272L9.74977 12" stroke="black" stroke-width="2" stroke-linecap="round" stroke-linejoin="round"/>
<path d="M11.5134 14.4272L9.75 12" stroke="black" stroke-width="2" stroke-linecap="round" stroke-linejoin="round"/>
<path d="M12.6028 11.0728L9.75 11.9999" stroke="black" stroke-width="2" stroke-linecap="round" stroke-linejoin="round"/>
<path d="M18.75 9V12" stroke="black" stroke-width="2" stroke-linecap="round" stroke-linejoin="round"/>
<path d="M15.897 11.0728L18.7498 11.9999" stroke="black" stroke-width="2" stroke-linecap="round" stroke-linejoin="round"/>
<path d="M16.9863 14.4272L18.7498 12" stroke="black" stroke-width="2" stroke-linecap="round" stroke-linejoin="round"/>
<path d="M20.5134 14.4272L18.75 12" stroke="black" stroke-width="2" stroke-linecap="round" stroke-linejoin="round"/>
<path d="M21.6028 11.0728L18.75 11.9999" stroke="black" stroke-width="2" stroke-linecap="round" stroke-linejoin="round"/>
</g>
<defs>
<clipPath id="clip0_10832_6512">
<rect width="24" height="24" fill="white"/>
</clipPath>
</defs>
</svg>
