<svg width="9" height="11" viewBox="0 0 9 11" fill="none" xmlns="http://www.w3.org/2000/svg">
<path d="M4.83333 4.66667C5.29482 4.66667 5.74595 4.52982 6.12966 4.27343C6.51338 4.01704 6.81245 3.65262 6.98905 3.22626C7.16566 2.7999 7.21186 2.33075 7.12183 1.87812C7.0318 1.4255 6.80957 1.00974 6.48325 0.683418C6.15693 0.357096 5.74117 0.134868 5.28854 0.0448354C4.83592 -0.0451968 4.36677 0.00101099 3.94041 0.177615C3.51404 0.35422 3.14963 0.653289 2.89324 1.037C2.63685 1.42072 2.5 1.87184 2.5 2.33333C2.5 2.95217 2.74583 3.54567 3.18342 3.98325C3.621 4.42084 4.21449 4.66667 4.83333 4.66667Z" fill="#B0B1B3"/>
<path d="M8.41683 10.4999C8.57154 10.4999 8.71991 10.4385 8.82931 10.3291C8.9387 10.2197 9.00016 10.0713 9.00016 9.91659C9.00016 8.83362 8.56996 7.79501 7.80418 7.02923C7.03841 6.26346 5.9998 5.83325 4.91683 5.83325C3.83386 5.83325 2.79525 6.26346 2.02948 7.02923C1.2637 7.79501 0.833496 8.83362 0.833496 9.91659C0.833496 10.0713 0.894954 10.2197 1.00435 10.3291C1.11375 10.4385 1.26212 10.4999 1.41683 10.4999H8.41683Z" fill="#B0B1B3"/>
</svg>
