<svg width="9" height="11" viewBox="0 0 9 11" fill="none" xmlns="http://www.w3.org/2000/svg">
<path d="M4.83339 4.66667C5.29488 4.66667 5.74601 4.52982 6.12972 4.27343C6.51344 4.01704 6.81251 3.65262 6.98911 3.22626C7.16572 2.7999 7.21193 2.33075 7.12189 1.87812C7.03186 1.4255 6.80963 1.00974 6.48331 0.683418C6.15699 0.357096 5.74123 0.134868 5.2886 0.0448354C4.83598 -0.0451968 4.36683 0.00101099 3.94047 0.177615C3.51411 0.35422 3.14969 0.653289 2.8933 1.037C2.63691 1.42072 2.50006 1.87184 2.50006 2.33333C2.50006 2.95217 2.74589 3.54567 3.18348 3.98325C3.62106 4.42084 4.21456 4.66667 4.83339 4.66667Z" fill="#B0B1B3"/>
<path d="M8.41677 10.4999C8.57148 10.4999 8.71985 10.4385 8.82925 10.3291C8.93864 10.2197 9.0001 10.0713 9.0001 9.91659C9.0001 8.83362 8.56989 7.79501 7.80412 7.02923C7.03835 6.26346 5.99974 5.83325 4.91677 5.83325C3.8338 5.83325 2.79519 6.26346 2.02942 7.02923C1.26364 7.79501 0.833435 8.83362 0.833435 9.91659C0.833435 10.0713 0.894893 10.2197 1.00429 10.3291C1.11369 10.4385 1.26206 10.4999 1.41677 10.4999H8.41677Z" fill="#B0B1B3"/>
</svg>
