<svg width="8" height="10" viewBox="0 0 8 10" fill="none" xmlns="http://www.w3.org/2000/svg">
<path d="M3.99996 4.66667C4.46145 4.66667 4.91257 4.52982 5.29629 4.27343C5.68 4.01704 5.97907 3.65262 6.15568 3.22626C6.33228 2.7999 6.37849 2.33075 6.28846 1.87812C6.19843 1.4255 5.9762 1.00974 5.64987 0.683418C5.32355 0.357096 4.90779 0.134868 4.45517 0.0448354C4.00255 -0.0451968 3.53339 0.001011 3.10703 0.177615C2.68067 0.35422 2.31625 0.653289 2.05986 1.037C1.80347 1.42072 1.66663 1.87184 1.66663 2.33333C1.66663 2.95217 1.91246 3.54567 2.35004 3.98325C2.78763 4.42083 3.38112 4.66667 3.99996 4.66667Z" fill="#B0B1B3"/>
<path d="M7.42857 9.66663C7.58012 9.66663 7.72547 9.61395 7.83263 9.52018C7.9398 9.42641 8 9.29923 8 9.16663C8 8.23837 7.57857 7.34813 6.82843 6.69175C6.07828 6.03538 5.06087 5.66663 4 5.66663C2.93913 5.66663 1.92172 6.03538 1.17157 6.69175C0.421427 7.34813 1.58081e-08 8.23837 0 9.16663C0 9.29923 0.060204 9.42641 0.167368 9.52018C0.274531 9.61395 0.419876 9.66663 0.571429 9.66663H7.42857Z" fill="#B0B1B3"/>
</svg>