<svg width="15" height="15" viewBox="0 0 15 15" fill="none" xmlns="http://www.w3.org/2000/svg">
<path d="M7.83333 6.66667C8.29482 6.66667 8.74595 6.52982 9.12966 6.27343C9.51338 6.01704 9.81245 5.65262 9.98905 5.22626C10.1657 4.7999 10.2119 4.33075 10.1218 3.87812C10.0318 3.4255 9.80957 3.00974 9.48325 2.68342C9.15693 2.3571 8.74117 2.13487 8.28854 2.04484C7.83592 1.9548 7.36677 2.00101 6.94041 2.17762C6.51404 2.35422 6.14963 2.65329 5.89324 3.037C5.63685 3.42072 5.5 3.87184 5.5 4.33333C5.5 4.95217 5.74583 5.54567 6.18342 5.98325C6.621 6.42084 7.21449 6.66667 7.83333 6.66667Z" fill="#B0B1B3"/>
<path d="M11.4168 12.4999C11.5715 12.4999 11.7199 12.4385 11.8293 12.3291C11.9387 12.2197 12.0002 12.0713 12.0002 11.9166C12.0002 10.8336 11.57 9.79501 10.8042 9.02923C10.0384 8.26346 8.9998 7.83325 7.91683 7.83325C6.83386 7.83325 5.79525 8.26346 5.02948 9.02923C4.2637 9.79501 3.8335 10.8336 3.8335 11.9166C3.8335 12.0713 3.89495 12.2197 4.00435 12.3291C4.11375 12.4385 4.26212 12.4999 4.41683 12.4999H11.4168Z" fill="#B0B1B3"/>
</svg>
