<svg width="24" height="24" viewBox="0 0 24 24" fill="none" xmlns="http://www.w3.org/2000/svg">
<path d="M23.625 11.7904L20.7685 8.93396L20.7705 8.93201L11.8389 0L8.99453 2.84435L8.99062 2.84044L0 11.8315L3.68253 15.5144L3.68448 15.5124L11.7971 23.6246L15.48 19.9417L15.4769 19.9386L23.625 11.7904ZM9.99918 14.4613L14.4667 9.9937L16.2615 11.7885L11.7939 16.256L9.99918 14.4613ZM9.16099 13.6231L7.3674 11.8295L11.8354 7.36193L13.629 9.15552L9.16099 13.6231ZM14.6676 19.0715L12.6614 17.0653L19.9425 9.78426L21.9486 11.7904L14.6676 19.0715ZM11.8389 1.67675L19.0941 8.93162L17.088 10.9378L9.83271 3.68292L11.8389 1.67675ZM8.99062 4.51719L10.9968 6.52336L6.52922 10.9913L6.52219 10.9843L3.67549 13.831L1.67636 11.8315L8.99062 4.51719ZM11.7971 21.9482L4.52305 14.6738L6.52922 12.6677L13.8032 19.9417L11.7971 21.9482Z" fill="#CACBCC"/>
</svg>

