<svg width="14" height="16" viewBox="0 0 14 16" fill="none" xmlns="http://www.w3.org/2000/svg">
<path d="M11 5.5C11 4.43913 10.5786 3.42172 9.82843 2.67157C9.07828 1.92143 8.06087 1.5 7 1.5C5.93913 1.5 4.92172 1.92143 4.17157 2.67157C3.42143 3.42172 3 4.43913 3 5.5C3 10.1667 1 11.5 1 11.5H13C13 11.5 11 10.1667 11 5.5Z" stroke="#7C7D81" stroke-width="1.5" stroke-linecap="round" stroke-linejoin="round"/>
<path d="M8.30667 14.5C8.18946 14.7021 8.02123 14.8698 7.81882 14.9864C7.61641 15.1029 7.38692 15.1643 7.15333 15.1643C6.91975 15.1643 6.69026 15.1029 6.48785 14.9864C6.28544 14.8698 6.11721 14.7021 6 14.5" stroke="#7C7D81" stroke-width="1.5" stroke-linecap="round" stroke-linejoin="round"/>
</svg>
