<svg width="15" height="15" viewBox="0 0 15 15" fill="none" xmlns="http://www.w3.org/2000/svg">
<path d="M11 4.07895V3C11 1.89543 10.1046 1 9 1H3C1.89543 1 1 1.89543 1 3V12C1 13.1046 1.89543 14 3 14H12C13.1046 14 14 13.1046 14 12V5.73684C14 4.63227 13.1046 3.73684 12 3.73684H4" stroke="#7C7D81" stroke-width="1.5"/>
<path d="M5 3.73684H2.36842C1.61266 3.73684 1 3.12418 1 2.36842V2.36842C1 1.61266 1.61266 1 2.36842 1H9C10.1046 1 11 1.89543 11 3V3.73684" stroke="#7C7D81" stroke-width="1.5"/>
<path d="M13.6667 7H12.3684C11.6127 7 11 7.61266 11 8.36842V8.36842C11 9.12418 11.6127 9.73684 12.3684 9.73684H13.6667" stroke="#7C7D81" stroke-width="1.5"/>
</svg>
