<svg width="22" height="20" viewBox="0 0 22 20" fill="none" xmlns="http://www.w3.org/2000/svg">
<path d="M7.25 10.6442L15.7119 18.0626C15.8093 18.1486 15.9275 18.2078 16.0547 18.2344C16.182 18.2609 16.3139 18.254 16.4377 18.2142C16.5614 18.1744 16.6727 18.1031 16.7606 18.0074C16.8485 17.9116 16.91 17.7946 16.9391 17.6679L20.75 1.1145C20.7537 1.0979 20.7529 1.0806 20.7475 1.06445C20.7421 1.04831 20.7325 1.03393 20.7196 1.02285C20.7067 1.01177 20.691 1.00442 20.6742 1.00157C20.6574 0.99872 20.6402 1.00049 20.6244 1.00668L1.625 8.442C1.50705 8.48739 1.40701 8.56982 1.3399 8.67691C1.27278 8.784 1.24221 8.90997 1.25278 9.0359C1.26334 9.16184 1.31447 9.28096 1.39849 9.37537C1.48251 9.46978 1.59489 9.53439 1.71875 9.5595L7.25 10.6442Z" stroke="#7C7D81" stroke-width="2" stroke-linecap="round" stroke-linejoin="round"/>
<path d="M7.25 10.6442L20.6947 1.00854" stroke="#7C7D81" stroke-width="2" stroke-linecap="round" stroke-linejoin="round"/>
<path d="M11.4097 14.2919L8.54 17.2694C8.43631 17.3769 8.30285 17.4511 8.15673 17.4823C8.01061 17.5135 7.85849 17.5004 7.71989 17.4446C7.58128 17.3888 7.4625 17.2929 7.37878 17.1691C7.29507 17.0453 7.25022 16.8994 7.25 16.75V10.644" stroke="#7C7D81" stroke-width="2" stroke-linecap="round" stroke-linejoin="round"/>
</svg>
