<svg width="14" height="14" viewBox="0 0 14 14" fill="none" xmlns="http://www.w3.org/2000/svg">
<path d="M4 9.16699H12C12.1326 9.16699 12.2598 9.11431 12.3536 9.02055C12.4473 8.92678 12.5 8.7996 12.5 8.66699V2.16699C12.5 2.03438 12.4473 1.90721 12.3536 1.81344C12.2598 1.71967 12.1326 1.66699 12 1.66699H5C4.86739 1.66699 4.74021 1.71967 4.64645 1.81344C4.55268 1.90721 4.5 2.03438 4.5 2.16699V2.66699" stroke="#7C7D81" stroke-width="1.5" stroke-linecap="round" stroke-linejoin="round"/>
<path d="M5.5 7.66699L4 9.16699L5.5 10.667" fill="#7C7D81"/>
<path d="M5.5 7.66699L4 9.16699L5.5 10.667" stroke="#7C7D81" stroke-width="1.5" stroke-linecap="round" stroke-linejoin="round"/>
<path d="M10 5.16699H2C1.86739 5.16699 1.74021 5.21967 1.64645 5.31344C1.55268 5.40721 1.5 5.53438 1.5 5.66699V12.167C1.5 12.2996 1.55268 12.4268 1.64645 12.5205C1.74021 12.6143 1.86739 12.667 2 12.667H9C9.13261 12.667 9.25979 12.6143 9.35355 12.5205C9.44732 12.4268 9.5 12.2996 9.5 12.167V11.667" stroke="#7C7D81" stroke-width="1.5" stroke-linecap="round" stroke-linejoin="round"/>
<path d="M8.5 6.66699L10 5.16699L8.5 3.66699" fill="#7C7D81"/>
<path d="M8.5 6.66699L10 5.16699L8.5 3.66699" stroke="#7C7D81" stroke-width="1.5" stroke-linecap="round" stroke-linejoin="round"/>
</svg>
