<svg width="16" height="17" viewBox="0 0 16 17" fill="none" xmlns="http://www.w3.org/2000/svg">
<g clip-path="url(#clip0_10247_25661)">
<path opacity="0.2" d="M7.99988 2.5C6.78608 2.49993 5.60081 2.86799 4.60057 3.55559C3.60032 4.2432 2.83214 5.218 2.39746 6.35128C1.96278 7.48457 1.88204 8.72305 2.1659 9.90318C2.44976 11.0833 3.08487 12.1496 3.98738 12.9613C4.36379 12.2206 4.93792 11.5986 5.64614 11.1641C6.35437 10.7297 7.16903 10.4998 7.99988 10.5C7.50542 10.5 7.02207 10.3534 6.61095 10.0787C6.19983 9.80397 5.8794 9.41352 5.69018 8.95671C5.50096 8.49989 5.45145 7.99723 5.54791 7.51227C5.64438 7.02732 5.88248 6.58186 6.23211 6.23223C6.58174 5.8826 7.0272 5.6445 7.51215 5.54804C7.9971 5.45157 8.49977 5.50108 8.95659 5.6903C9.4134 5.87952 9.80385 6.19995 10.0786 6.61107C10.3533 7.0222 10.4999 7.50555 10.4999 8C10.4999 8.66304 10.2365 9.29893 9.76764 9.76777C9.2988 10.2366 8.66292 10.5 7.99988 10.5C8.83065 10.4998 9.64528 10.7296 10.3535 11.1639C11.0617 11.5982 11.6359 12.2201 12.0124 12.9606C12.9147 12.1489 13.5496 11.0827 13.8333 9.90267C14.117 8.72264 14.0362 7.48432 13.6016 6.35117C13.1669 5.21802 12.3988 4.24333 11.3987 3.55576C10.3986 2.86818 9.21353 2.50007 7.99988 2.5Z" fill="#636467"/>
<path d="M3.9873 12.9607C4.3635 12.2197 4.93753 11.5974 5.64577 11.1626C6.35401 10.7279 7.16879 10.4978 7.9998 10.4978C8.83082 10.4978 9.6456 10.7279 10.3538 11.1626C11.0621 11.5974 11.6361 12.2197 12.0123 12.9607" stroke="#636467" stroke-width="2" stroke-linecap="round" stroke-linejoin="round"/>
<path d="M8 14.5C11.3137 14.5 14 11.8137 14 8.5C14 5.18629 11.3137 2.5 8 2.5C4.68629 2.5 2 5.18629 2 8.5C2 11.8137 4.68629 14.5 8 14.5Z" stroke="#636467" stroke-width="2" stroke-linecap="round" stroke-linejoin="round"/>
<path d="M8 10.5C9.38071 10.5 10.5 9.38071 10.5 8C10.5 6.61929 9.38071 5.5 8 5.5C6.61929 5.5 5.5 6.61929 5.5 8C5.5 9.38071 6.61929 10.5 8 10.5Z" stroke="#636467" stroke-width="2" stroke-linecap="round" stroke-linejoin="round"/>
</g>
<defs>
<clipPath id="clip0_10247_25661">
<rect width="16" height="16" fill="white" transform="translate(0 0.5)"/>
</clipPath>
</defs>
</svg>
