<svg width="24" height="24" viewBox="0 0 24 24" fill="none" xmlns="http://www.w3.org/2000/svg">
<path d="M12 22C17.5228 22 22 17.5228 22 12C22 6.47715 17.5228 2 12 2C6.47715 2 2 6.47715 2 12C2 17.5228 6.47715 22 12 22Z" stroke="#19191A" stroke-width="2" stroke-linecap="round" stroke-linejoin="round"/>
<path d="M18 20V18.3333C18 17.4493 17.6839 16.6014 17.1213 15.9763C16.5587 15.3512 15.7956 15 15 15H9C8.20435 15 7.44129 15.3512 6.87868 15.9763C6.31607 16.6014 6 17.4493 6 18.3333V20" stroke="#19191A" stroke-width="2" stroke-linecap="round" stroke-linejoin="round"/>
<path d="M12 12C13.6569 12 15 10.6569 15 9C15 7.34315 13.6569 6 12 6C10.3431 6 9 7.34315 9 9C9 10.6569 10.3431 12 12 12Z" stroke="#19191A" stroke-width="2" stroke-linecap="round" stroke-linejoin="round"/>
</svg>
