<svg width="44" height="44" viewBox="0 0 44 44" fill="none" xmlns="http://www.w3.org/2000/svg">
<rect x="0.5" y="0.5" width="43" height="43" rx="7.5" fill="#E5E5E6" fill-opacity="0.5" stroke="#E5E5E6"/>
<path d="M6.6123 27.9998C6.6123 19.2259 13.7261 12.1121 22.5 12.1121C31.2739 12.1121 38.3877 19.2259 38.3877 27.9998" stroke="black" stroke-width="2" stroke-miterlimit="10"/>
<path d="M23.1113 15.7696V19.6709C23.1113 19.9009 23.2838 20.0917 23.5114 20.1211C25.1005 20.3217 26.5441 20.9909 27.6989 21.9855C27.88 22.1408 28.1479 22.1323 28.3167 21.9634L31.0595 19.2207C31.243 19.0372 31.2356 18.7362 31.0436 18.5625C29.0409 16.7483 26.4572 15.5616 23.6056 15.3157C23.3401 15.2925 23.1113 15.5029 23.1113 15.7696Z" fill="#4A4B4D"/>
<path d="M17.3506 21.9437C18.4968 20.9723 19.922 20.3203 21.4879 20.1221C21.7155 20.0928 21.888 19.9019 21.888 19.6719V15.7706C21.888 15.504 21.6592 15.2948 21.3937 15.3168C18.5666 15.5602 16.0036 16.7273 14.0083 18.5159C13.8138 18.6896 13.8065 18.9917 13.9912 19.1765L16.7364 21.9217C16.904 22.0893 17.1707 22.0991 17.3518 21.9461L17.3506 21.9437Z" fill="#96979A"/>
<path d="M15.936 22.8501L13.1737 20.0878C12.9816 19.8957 12.6636 19.9129 12.496 20.1257C10.8787 22.1773 9.87922 24.7378 9.77768 27.527C9.76789 27.7852 9.97464 27.9992 10.2328 27.9992H14.0839C14.3261 27.9992 14.5231 27.8084 14.5378 27.5662C14.6258 26.0321 15.1494 24.6142 15.985 23.4325C16.1122 23.2514 16.0926 23.0067 15.936 22.8501Z" fill="#CACBCC"/>
<path d="M31.8689 20.1418L29.1042 22.9065C28.9488 23.0619 28.928 23.3054 29.0528 23.4864C29.8663 24.6572 30.3752 26.0567 30.4621 27.57C30.4755 27.811 30.6737 27.9994 30.9147 27.9994H34.7671C35.0252 27.9994 35.232 27.7853 35.2222 27.5272C35.1218 24.7624 34.1383 22.2239 32.5479 20.1821C32.3803 19.9668 32.061 19.9497 31.8689 20.1418Z" fill="black"/>
<path d="M23.0993 26.0099L13.1074 24.0115C13.0595 24.0003 13.0126 23.993 12.9668 23.9892C12.1035 23.9166 11.6605 25.1142 12.4715 25.5948L12.5704 25.6534L12.6042 25.6562L21.7567 29.6241C21.8639 29.6814 21.9778 29.7137 22.0918 29.7232C22.4538 29.7536 22.8165 29.5528 22.9645 29.1883L22.9647 29.1884L22.9696 29.1751L23.7174 27.1724C23.9119 26.6846 23.6288 26.1405 23.1214 26.0149L23.1104 26.0122L23.0993 26.0099Z" fill="black" stroke="#F2F2F2"/>
<path d="M22.5 31.1462C24.5137 31.1462 26.1462 29.5137 26.1462 27.5C26.1462 25.4863 24.5137 23.8538 22.5 23.8538C20.4863 23.8538 18.8538 25.4863 18.8538 27.5C18.8538 29.5137 20.4863 31.1462 22.5 31.1462Z" fill="#313233" stroke="#F2F2F2" stroke-width="1.29239"/>
</svg>
