<svg width="35" height="21" viewBox="0 0 35 21" fill="none" xmlns="http://www.w3.org/2000/svg">
<path d="M1.6123 16.9998C1.6123 8.22587 8.72611 1.11206 17.5 1.11206C26.2739 1.11206 33.3877 8.22587 33.3877 16.9998" stroke="black" stroke-width="2" stroke-miterlimit="10"/>
<path d="M18.1113 4.76959V8.67087C18.1113 8.90086 18.2838 9.0917 18.5114 9.12106C20.1005 9.32169 21.5441 9.99087 22.6989 10.9855C22.88 11.1408 23.1479 11.1323 23.3167 10.9634L26.0595 8.22067C26.243 8.03717 26.2356 7.73622 26.0436 7.56251C24.0409 5.74827 21.4572 4.56162 18.6056 4.31572C18.3401 4.29248 18.1113 4.50289 18.1113 4.76959Z" fill="#4A4B4D"/>
<path d="M12.3506 10.9437C13.4968 9.97235 14.922 9.3203 16.4879 9.12212C16.7155 9.09276 16.888 8.90191 16.888 8.67192V4.77064C16.888 4.50395 16.6592 4.29476 16.3937 4.31678C13.5666 4.56023 11.0036 5.72731 9.00835 7.51585C8.81383 7.68957 8.80649 7.99174 8.99122 8.17646L11.7364 10.9217C11.904 11.0893 12.1707 11.0991 12.3518 10.9461L12.3506 10.9437Z" fill="#96979A"/>
<path d="M10.936 11.8501L8.17371 9.08781C7.98164 8.89574 7.66357 8.91287 7.49597 9.12574C5.8787 11.1773 4.87922 13.7378 4.77768 16.527C4.76789 16.7852 4.97464 16.9992 5.23277 16.9992H9.08389C9.32611 16.9992 9.52307 16.8084 9.53775 16.5662C9.62583 15.0321 10.1494 13.6142 10.985 12.4325C11.1122 12.2514 11.0926 12.0067 10.936 11.8501Z" fill="#CACBCC"/>
<path d="M26.8689 9.14176L24.1042 11.9065C23.9488 12.0619 23.928 12.3054 24.0528 12.4864C24.8663 13.6572 25.3752 15.0567 25.4621 16.57C25.4755 16.811 25.6737 16.9994 25.9147 16.9994H29.7671C30.0252 16.9994 30.232 16.7853 30.2222 16.5272C30.1218 13.7624 29.1383 11.2239 27.5479 9.18214C27.3803 8.96682 27.061 8.9497 26.8689 9.14176Z" fill="black"/>
<path d="M18.0993 15.0099L8.10745 13.0115C8.05948 13.0003 8.01256 12.993 7.96683 12.9892C7.10345 12.9166 6.66047 14.1142 7.47152 14.5948L7.57039 14.6534L7.60419 14.6562L16.7567 18.6241C16.8639 18.6814 16.9778 18.7137 17.0918 18.7232C17.4538 18.7536 17.8165 18.5528 17.9645 18.1883L17.9647 18.1884L17.9696 18.1751L18.7174 16.1724C18.9119 15.6846 18.6288 15.1405 18.1214 15.0149L18.1104 15.0122L18.0993 15.0099Z" fill="black" stroke="#F2F2F2"/>
<path d="M17.5 20.1462C19.5137 20.1462 21.1462 18.5137 21.1462 16.5C21.1462 14.4863 19.5137 12.8538 17.5 12.8538C15.4863 12.8538 13.8538 14.4863 13.8538 16.5C13.8538 18.5137 15.4863 20.1462 17.5 20.1462Z" fill="#313233" stroke="#F2F2F2" stroke-width="1.29239"/>
</svg>
