<svg width="44" height="44" viewBox="0 0 44 44" fill="none" xmlns="http://www.w3.org/2000/svg">
<rect x="0.5" y="0.5" width="43" height="43" rx="7.5" fill="#E5E5E6" fill-opacity="0.5" stroke="#E5E5E6"/>
<g clip-path="url(#clip0_3257_25255)">
<path d="M23.9019 8.5C23.8855 8.5 23.8709 8.5 23.8546 8.5C23.8382 8.5 23.8236 8.5 23.8072 8.5C23.7908 8.5 23.7763 8.5 23.7599 8.5C23.7435 8.5 23.7289 8.5 23.7125 8.5C23.6961 8.5 23.6816 8.5 23.6652 8.5C23.6488 8.5 23.6342 8.5 23.6178 8.5C23.6014 8.5 23.5869 8.5 23.5705 8.5C23.5541 8.5 23.5395 8.5 23.5231 8.5C23.5067 8.5 23.4922 8.5 23.4758 8.5C23.4594 8.5 23.4448 8.5 23.4284 8.5C23.412 8.5 23.3975 8.5 23.3811 8.5C23.3647 8.5 23.3501 8.5 23.3337 8.5C23.3173 8.5 23.3028 8.5 23.2864 8.5C23.27 8.5 23.2554 8.5 23.239 8.5C23.2226 8.5 23.2081 8.5 23.1917 8.5C23.1753 8.5 23.1607 8.5 23.1443 8.5C23.1279 8.5 23.1134 8.5 23.097 8.5C23.0806 8.5 23.066 8.5 23.0496 8.5C23.0333 8.5 23.0187 8.5 23.0023 8.5C22.9859 8.5 22.9713 8.5 22.9549 8.5C22.9386 8.5 22.924 8.5 22.9076 8.5C22.8912 8.5 22.8766 8.5 22.8602 8.5C22.8439 8.5 22.8293 8.5 22.8129 8.5C22.7965 8.5 22.7819 8.5 22.7656 8.5C22.7492 8.5 22.7346 8.5 22.7182 8.5C22.7018 8.5 22.6872 8.5 22.6709 8.5C22.6545 8.5 22.6399 8.5 22.6235 8.5C22.6071 8.5 22.5926 8.5 22.5762 8.5C22.5598 8.5 22.5452 8.5 22.5288 8.5C22.5124 8.5 22.4979 8.5 22.4815 8.5C22.4651 8.5 22.4505 8.5 22.4341 8.5C22.4177 8.5 22.4032 8.5 22.3868 8.5C22.3704 8.5 22.3558 8.5 22.3394 8.5C22.323 8.5 22.3085 8.5 22.2921 8.5C22.2757 8.5 22.2611 8.5 22.2447 8.5C22.2283 8.5 22.2138 8.5 22.1974 8.5C22.181 8.5 22.1664 8.5 22.15 8.5C22.1336 8.5 22.1191 8.5 22.1027 8.5C22.0863 8.5 22.0717 8.5 22.0553 8.5C22.0389 8.5 22.0244 8.5 22.008 8.5C21.9916 8.5 21.977 8.5 21.9606 8.5C21.9442 8.5 21.9297 8.5 21.9133 8.5C21.8969 8.5 21.8823 8.5 21.8659 8.5C21.8495 8.5 21.835 8.5 21.8186 8.5C21.8022 8.5 21.7876 8.5 21.7712 8.5C21.7549 8.5 21.7403 8.5 21.7239 8.5C21.7075 8.5 21.6929 8.5 21.6765 8.5C21.6602 8.5 21.6456 8.5 21.6292 8.5C21.6128 8.5 21.5982 8.5 21.5818 8.5C21.5655 8.5 21.5509 8.5 21.5345 8.5C21.5181 8.5 21.5035 8.5 21.4872 8.5C21.4708 8.5 21.4562 8.5 21.4398 8.5C21.4234 8.5 21.4088 8.5 21.3925 8.5C21.3761 8.5 21.3615 8.5 21.3451 8.5C21.3287 8.5 21.3142 8.5 21.2978 8.5C21.2814 8.5 21.2668 8.5 21.2504 8.5C21.234 8.5 21.2195 8.5 21.2031 8.5C21.1867 8.5 21.1721 8.5 21.1557 8.5C21.1393 8.5 21.1248 8.5 21.1084 8.5C21.092 8.5 21.0774 8.5 21.061 8.5C21.0446 8.5 21.0301 8.5 21.0137 8.5C20.9973 8.5 20.9827 8.5 20.9663 8.5C20.9499 8.5 20.9354 8.5 20.919 8.5C20.9026 8.5 20.888 8.5 20.8716 8.5C20.8552 8.5 20.8407 8.5 20.8243 8.5C20.8079 8.5 20.7933 8.5 20.7769 8.5C20.7605 8.5 20.746 8.5 20.7296 8.5C20.7132 8.5 20.6986 8.5 20.6822 8.5C20.6658 8.5 20.6513 8.5 20.6349 8.5C20.6185 8.5 20.6039 8.5 20.5875 8.5C20.5711 8.5 20.5566 8.5 20.5402 8.5C20.5238 8.5 20.5092 8.5 20.4928 8.5C20.4765 8.5 20.4619 8.5 20.4455 8.5C20.4291 8.5 20.4145 8.5 20.3981 8.5C20.3818 8.5 20.3672 8.5 20.3508 8.5C20.3344 8.5 20.3198 8.5 20.3035 8.5C20.2871 8.5 20.2725 8.5 20.2561 8.5C20.2397 8.5 20.2251 8.5 20.2088 8.5C20.1924 8.5 20.1778 8.5 20.1614 8.5C20.145 8.5 20.1304 8.5 20.1141 8.5C20.0977 8.5 20.0831 8.5 20.0667 8.5C20.0503 8.5 20.0358 8.5 20.0194 8.5C20.003 8.5 19.9884 8.5 19.972 8.5C19.9556 8.5 19.9411 8.5 19.9247 8.5C19.9083 8.5 19.8937 8.5 19.8773 8.5C19.8609 8.5 19.8464 8.5 19.83 8.5C19.8136 8.5 19.799 8.5 19.7826 8.5C19.7662 8.5 19.7517 8.5 19.7353 8.5C19.7189 8.5 19.7043 8.5 19.6879 8.5C19.6715 8.5 19.657 8.5 19.6406 8.5C19.6242 8.5 19.6096 8.5 19.5932 8.5C19.5768 8.5 19.5623 8.5 19.5459 8.5C19.5295 8.5 19.5149 8.5 19.4985 8.5C19.4821 8.5 19.4676 8.5 19.4512 8.5C19.4348 8.5 19.4202 8.5 19.4038 8.5C19.3874 8.5 19.3729 8.5 19.3565 8.5C19.3401 8.5 19.3255 8.5 19.3091 8.5C19.2928 8.5 19.2782 8.5 19.2618 8.5C19.2454 8.5 19.2308 8.5 19.2144 8.5C19.1981 8.5 19.1835 8.5 19.1671 8.5C19.1507 8.5 19.1361 8.5 19.1197 8.5C19.1034 8.5 19.0888 8.5 19.0724 8.5C19.056 8.5 19.0414 8.5 19.0251 8.5C19.0087 8.5 18.9941 8.5 18.9777 8.5C18.9613 8.5 18.9467 8.5 18.9304 8.5C18.914 8.5 18.8994 8.5 18.883 8.5C18.8666 8.5 18.852 8.5 18.8357 8.5C18.8193 8.5 18.8047 8.5 18.7883 8.5C18.7719 8.5 18.7574 8.5 18.741 8.5C18.7246 8.5 18.71 8.5 18.6936 8.5C18.6772 8.5 18.6627 8.5 18.6463 8.5C18.6299 8.5 18.6153 8.5 18.5989 8.5C18.5825 8.5 18.568 8.5 18.5516 8.5C18.5352 8.5 18.5206 8.5 18.5042 8.5C18.4878 8.5 18.4733 8.5 18.4569 8.5C18.4405 8.5 18.4259 8.5 18.4095 8.5C18.3931 8.5 18.3786 8.5 18.3622 8.5C18.3458 8.5 18.3312 8.5 18.3148 8.5C18.2984 8.5 18.2839 8.5 18.2675 8.5C18.2511 8.5 18.2365 8.5 18.2201 8.5C13.1229 8.5 9 14.6691 9 22.2778C9 29.8864 13.1229 36.0556 18.2092 36.0556C18.2256 36.0556 18.2402 36.0556 18.2566 36.0556C18.2729 36.0556 18.2875 36.0556 18.3039 36.0556C18.3203 36.0556 18.3349 36.0556 18.3513 36.0556C18.3676 36.0556 18.3822 36.0556 18.3986 36.0556C18.415 36.0556 18.4296 36.0556 18.4459 36.0556C18.4623 36.0556 18.4769 36.0556 18.4933 36.0556C18.5097 36.0556 18.5243 36.0556 18.5406 36.0556C18.557 36.0556 18.5716 36.0556 18.588 36.0556C18.6044 36.0556 18.619 36.0556 18.6353 36.0556C18.6517 36.0556 18.6663 36.0556 18.6827 36.0556C18.6991 36.0556 18.7136 36.0556 18.73 36.0556C18.7464 36.0556 18.761 36.0556 18.7774 36.0556C18.7938 36.0556 18.8083 36.0556 18.8247 36.0556C18.8411 36.0556 18.8557 36.0556 18.8721 36.0556C18.8885 36.0556 18.903 36.0556 18.9194 36.0556C18.9358 36.0556 18.9504 36.0556 18.9668 36.0556C18.9832 36.0556 18.9977 36.0556 19.0141 36.0556C19.0305 36.0556 19.0451 36.0556 19.0615 36.0556C19.0779 36.0556 19.0924 36.0556 19.1088 36.0556C19.1252 36.0556 19.1398 36.0556 19.1562 36.0556C19.1726 36.0556 19.1871 36.0556 19.2035 36.0556C19.2199 36.0556 19.2345 36.0556 19.2509 36.0556C19.2673 36.0556 19.2818 36.0556 19.2982 36.0556C19.3146 36.0556 19.3292 36.0556 19.3456 36.0556C19.362 36.0556 19.3765 36.0556 19.3929 36.0556C19.4093 36.0556 19.4239 36.0556 19.4403 36.0556C19.4566 36.0556 19.4712 36.0556 19.4876 36.0556C19.504 36.0556 19.5186 36.0556 19.535 36.0556C19.5513 36.0556 19.5659 36.0556 19.5823 36.0556C19.5987 36.0556 19.6133 36.0556 19.6297 36.0556C19.646 36.0556 19.6606 36.0556 19.677 36.0556C19.6934 36.0556 19.708 36.0556 19.7243 36.0556C19.7407 36.0556 19.7553 36.0556 19.7717 36.0556C19.7881 36.0556 19.8027 36.0556 19.819 36.0556C19.8354 36.0556 19.85 36.0556 19.8664 36.0556C19.8828 36.0556 19.8974 36.0556 19.9137 36.0556C19.9301 36.0556 19.9447 36.0556 19.9611 36.0556C19.9775 36.0556 19.992 36.0556 20.0084 36.0556C20.0248 36.0556 20.0394 36.0556 20.0558 36.0556C20.0722 36.0556 20.0867 36.0556 20.1031 36.0556C20.1195 36.0556 20.1341 36.0556 20.1505 36.0556C20.1669 36.0556 20.1814 36.0556 20.1978 36.0556C20.2142 36.0556 20.2288 36.0556 20.2452 36.0556C20.2616 36.0556 20.2761 36.0556 20.2925 36.0556C20.3089 36.0556 20.3235 36.0556 20.3399 36.0556C20.3563 36.0556 20.3708 36.0556 20.3872 36.0556C20.4036 36.0556 20.4182 36.0556 20.4346 36.0556C20.451 36.0556 20.4655 36.0556 20.4819 36.0556C20.4983 36.0556 20.5129 36.0556 20.5293 36.0556C20.5457 36.0556 20.5602 36.0556 20.5766 36.0556C20.593 36.0556 20.6076 36.0556 20.624 36.0556C20.6404 36.0556 20.6549 36.0556 20.6713 36.0556C20.6877 36.0556 20.7023 36.0556 20.7187 36.0556C20.735 36.0556 20.7496 36.0556 20.766 36.0556C20.7824 36.0556 20.797 36.0556 20.8134 36.0556C20.8297 36.0556 20.8443 36.0556 20.8607 36.0556C20.8771 36.0556 20.8917 36.0556 20.908 36.0556C20.9244 36.0556 20.939 36.0556 20.9554 36.0556C20.9718 36.0556 20.9864 36.0556 21.0027 36.0556C21.0191 36.0556 21.0337 36.0556 21.0501 36.0556C21.0665 36.0556 21.0811 36.0556 21.0974 36.0556C21.1138 36.0556 21.1284 36.0556 21.1448 36.0556C21.1612 36.0556 21.1757 36.0556 21.1921 36.0556C21.2085 36.0556 21.2231 36.0556 21.2395 36.0556C21.2559 36.0556 21.2704 36.0556 21.2868 36.0556C21.3032 36.0556 21.3178 36.0556 21.3342 36.0556C21.3506 36.0556 21.3651 36.0556 21.3815 36.0556C21.3979 36.0556 21.4125 36.0556 21.4289 36.0556C21.4453 36.0556 21.4598 36.0556 21.4762 36.0556C21.4926 36.0556 21.5072 36.0556 21.5236 36.0556C21.54 36.0556 21.5545 36.0556 21.5709 36.0556C21.5873 36.0556 21.6019 36.0556 21.6183 36.0556C21.6347 36.0556 21.6492 36.0556 21.6656 36.0556C21.682 36.0556 21.6966 36.0556 21.713 36.0556C21.7294 36.0556 21.7439 36.0556 21.7603 36.0556C21.7767 36.0556 21.7913 36.0556 21.8077 36.0556C21.8241 36.0556 21.8386 36.0556 21.855 36.0556C21.8714 36.0556 21.886 36.0556 21.9024 36.0556C21.9187 36.0556 21.9333 36.0556 21.9497 36.0556C21.9661 36.0556 21.9807 36.0556 21.9971 36.0556C22.0134 36.0556 22.028 36.0556 22.0444 36.0556C22.0608 36.0556 22.0754 36.0556 22.0918 36.0556C22.1081 36.0556 22.1227 36.0556 22.1391 36.0556C22.1555 36.0556 22.1701 36.0556 22.1865 36.0556C22.2028 36.0556 22.2174 36.0556 22.2338 36.0556C22.2502 36.0556 22.2648 36.0556 22.2811 36.0556C22.2975 36.0556 22.3121 36.0556 22.3285 36.0556C22.3449 36.0556 22.3595 36.0556 22.3758 36.0556C22.3922 36.0556 22.4068 36.0556 22.4232 36.0556C22.4396 36.0556 22.4541 36.0556 22.4705 36.0556C22.4869 36.0556 22.5015 36.0556 22.5179 36.0556C22.5343 36.0556 22.5488 36.0556 22.5652 36.0556C22.5816 36.0556 22.5962 36.0556 22.6126 36.0556C22.629 36.0556 22.6435 36.0556 22.6599 36.0556C22.6763 36.0556 22.6909 36.0556 22.7073 36.0556C22.7237 36.0556 22.7382 36.0556 22.7546 36.0556C22.771 36.0556 22.7856 36.0556 22.802 36.0556C22.8184 36.0556 22.8329 36.0556 22.8493 36.0556C22.8657 36.0556 22.8803 36.0556 22.8967 36.0556C22.9131 36.0556 22.9276 36.0556 22.944 36.0556C22.9604 36.0556 22.975 36.0556 22.9914 36.0556C23.0078 36.0556 23.0223 36.0556 23.0387 36.0556C23.0551 36.0556 23.0697 36.0556 23.0861 36.0556C23.1025 36.0556 23.117 36.0556 23.1334 36.0556C23.1498 36.0556 23.1644 36.0556 23.1808 36.0556C23.1971 36.0556 23.2117 36.0556 23.2281 36.0556C23.2445 36.0556 23.2591 36.0556 23.2755 36.0556C23.2918 36.0556 23.3064 36.0556 23.3228 36.0556C23.3392 36.0556 23.3538 36.0556 23.3702 36.0556C23.3865 36.0556 23.4011 36.0556 23.4175 36.0556C23.4339 36.0556 23.4485 36.0556 23.4648 36.0556C23.4812 36.0556 23.4958 36.0556 23.5122 36.0556C23.5286 36.0556 23.5432 36.0556 23.5595 36.0556C23.5759 36.0556 23.5905 36.0556 23.6069 36.0556C23.6233 36.0556 23.6379 36.0556 23.6542 36.0556C23.6706 36.0556 23.6852 36.0556 23.7016 36.0556C23.718 36.0556 23.7325 36.0556 23.7489 36.0556C23.7653 36.0556 23.7799 36.0556 23.7963 36.0556C23.8127 36.0556 23.8272 36.0556 23.8436 36.0556C23.86 36.0556 23.8746 36.0556 23.891 36.0556C28.9773 36.0556 33.1002 29.8864 33.1002 22.2778C33.1002 14.6691 28.9882 8.5 23.9019 8.5Z" fill="black"/>
<path d="M23.9019 35.7839C28.8371 35.7839 32.8379 29.737 32.8379 22.2778C32.8379 14.8185 28.8371 8.77161 23.9019 8.77161C18.9666 8.77161 14.9658 14.8185 14.9658 22.2778C14.9658 29.737 18.9666 35.7839 23.9019 35.7839Z" fill="#F2F2F2"/>
<path d="M23.9016 9.04322C28.6783 9.04322 32.5645 14.9806 32.5645 22.2778C32.5645 29.575 28.6783 35.5123 23.9016 35.5123C19.1249 35.5123 15.2387 29.575 15.2387 22.2778C15.2387 14.9806 19.1249 9.04322 23.9016 9.04322ZM23.9016 8.5C18.8153 8.5 14.6924 14.6691 14.6924 22.2778C14.6924 29.8864 18.8153 36.0556 23.9016 36.0556C28.9879 36.0556 33.1108 29.8864 33.1108 22.2778C33.1108 14.6691 28.9879 8.5 23.9016 8.5Z" fill="black"/>
<path d="M24.2406 32.3491C27.979 32.3491 31.0096 27.7533 31.0096 22.0841C31.0096 16.4149 27.979 11.8191 24.2406 11.8191C20.5022 11.8191 17.4717 16.4149 17.4717 22.0841C17.4717 27.7533 20.5022 32.3491 24.2406 32.3491Z" fill="black"/>
<path d="M24.2404 12.0907C27.8224 12.0907 30.7362 16.574 30.7362 22.0841C30.7362 27.5941 27.8224 32.0774 24.2404 32.0774C20.6583 32.0774 17.7446 27.5941 17.7446 22.0841C17.7446 16.574 20.6583 12.0907 24.2404 12.0907ZM24.2404 11.5475C20.3505 11.5475 17.1982 16.2644 17.1982 22.0841C17.1982 27.9037 20.3505 32.6207 24.2404 32.6207C28.1302 32.6207 31.2825 27.9037 31.2825 22.0841C31.2825 16.2644 28.1302 11.5475 24.2404 11.5475Z" fill="#F2F2F2"/>
<path d="M24.8766 16.4255H24.0098V17.5101C23.7676 17.5572 23.5454 17.6478 23.3469 17.7854C23.0428 17.9936 22.8079 18.2906 22.6403 18.6726C22.4728 19.0547 22.389 19.5037 22.389 20.0198C22.389 21.1171 22.8042 21.8559 23.6328 22.2379L25.0332 22.8789C25.3046 23.0057 25.4994 23.1632 25.6196 23.3461C25.7398 23.5308 25.7999 23.7716 25.7999 24.0668C25.7999 24.4814 25.6815 24.8236 25.4448 25.088C25.2081 25.356 24.9021 25.4882 24.527 25.4882C24.1518 25.4882 23.824 25.3325 23.5527 25.0228C23.2814 24.7132 23.1047 24.2949 23.0228 23.7698L22.165 23.9726C22.2288 24.5321 22.3654 25.0156 22.573 25.423C22.7806 25.8322 23.0483 26.1473 23.3742 26.3682C23.5691 26.5022 23.7803 26.5927 24.008 26.647V27.7425H24.8748V26.667C25.1498 26.6181 25.4011 26.5167 25.6251 26.3609C25.9511 26.1328 26.2042 25.8159 26.3863 25.4121C26.5666 25.0083 26.6576 24.5339 26.6576 23.9925C26.6576 23.3714 26.5466 22.8771 26.3226 22.5023C26.0986 22.1293 25.7362 21.8305 25.2317 21.6096L24.1336 21.1352C23.8295 20.9994 23.6073 20.8382 23.4653 20.6499C23.3251 20.4616 23.254 20.2317 23.254 19.96C23.254 19.7138 23.305 19.4929 23.4052 19.2973C23.5054 19.1036 23.6419 18.9515 23.8149 18.8428C23.9752 18.7414 24.1555 18.6907 24.3558 18.6907C24.3704 18.6907 24.3849 18.6907 24.4013 18.6907C24.6344 18.6962 24.8438 18.765 25.0296 18.9008C25.2153 19.0366 25.3701 19.2249 25.494 19.4657C25.616 19.7084 25.6979 19.9872 25.7362 20.3041L26.6194 20.0705C26.5411 19.5273 26.4027 19.0655 26.2024 18.6781C26.0021 18.2924 25.7507 17.9972 25.4484 17.7908C25.2736 17.6695 25.0806 17.5862 24.8748 17.5337V16.4237" fill="white"/>
<line x1="11.2959" y1="10.5463" x2="20.4811" y2="10.5463" stroke="#F2F2F2" stroke-width="0.5"/>
<line x1="13.5928" y1="9.39819" x2="23.9261" y2="9.39819" stroke="#F2F2F2" stroke-width="0.5"/>
<line x1="9" y1="13.4166" x2="18.1852" y2="13.4166" stroke="#F2F2F2" stroke-width="0.5"/>
<line x1="9" y1="16.8611" x2="18.1852" y2="16.8611" stroke="#F2F2F2" stroke-width="0.5"/>
<line x1="6.7041" y1="22.6018" x2="15.8893" y2="22.6018" stroke="#F2F2F2" stroke-width="0.5"/>
<line x1="7.85156" y1="28.3427" x2="17.0367" y2="28.3427" stroke="#F2F2F2" stroke-width="0.5"/>
<line x1="9" y1="31.787" x2="18.1852" y2="31.787" stroke="#F2F2F2" stroke-width="0.5"/>
<line x1="11.2959" y1="34.0834" x2="20.4811" y2="34.0834" stroke="#F2F2F2" stroke-width="0.5"/>
<line x1="12.4443" y1="35.2314" x2="23.9258" y2="35.2314" stroke="#F2F2F2" stroke-width="0.5"/>
</g>
<path d="M35.7154 31.3996L36.5184 31.9957L33.0378 36.6846C32.438 37.4925 31.2286 37.4925 30.6289 36.6846M35.7154 31.3996L30.6289 36.6846M35.7154 31.3996L36.5184 31.9957C37.2531 31.0059 36.5466 29.6016 35.3139 29.6016H28.3527C27.1201 29.6016 26.4136 31.0059 27.1483 31.9957L30.6289 36.6846M35.7154 31.3996L30.6289 36.6846" fill="#19191A"/>
<path d="M35.7154 31.3996L36.5184 31.9957L33.0378 36.6846C32.438 37.4925 31.2286 37.4925 30.6289 36.6846M35.7154 31.3996L30.6289 36.6846M35.7154 31.3996L36.5184 31.9957C37.2531 31.0059 36.5466 29.6016 35.3139 29.6016H28.3527C27.1201 29.6016 26.4136 31.0059 27.1483 31.9957L30.6289 36.6846M35.7154 31.3996L30.6289 36.6846" stroke="black" stroke-width="2"/>
<path d="M35.7154 31.3996L36.5184 31.9957L33.0378 36.6846C32.438 37.4925 31.2286 37.4925 30.6289 36.6846M35.7154 31.3996L30.6289 36.6846M35.7154 31.3996L36.5184 31.9957C37.2531 31.0059 36.5466 29.6016 35.3139 29.6016H28.3527C27.1201 29.6016 26.4136 31.0059 27.1483 31.9957L30.6289 36.6846M35.7154 31.3996L30.6289 36.6846" stroke="#F2F2F2" stroke-width="2"/>
<defs>
<clipPath id="clip0_3257_25255">
<rect width="24.1111" height="27.5556" fill="white" transform="translate(9 8.5)"/>
</clipPath>
</defs>
</svg>
