<svg width="29" height="31" viewBox="0 0 29 31" fill="none" xmlns="http://www.w3.org/2000/svg">
<g clip-path="url(#clip0_3257_25257)">
<path d="M14.9019 0.5C14.8855 0.5 14.8709 0.5 14.8546 0.5C14.8382 0.5 14.8236 0.5 14.8072 0.5C14.7908 0.5 14.7763 0.5 14.7599 0.5C14.7435 0.5 14.7289 0.5 14.7125 0.5C14.6961 0.5 14.6816 0.5 14.6652 0.5C14.6488 0.5 14.6342 0.5 14.6178 0.5C14.6014 0.5 14.5869 0.5 14.5705 0.5C14.5541 0.5 14.5395 0.5 14.5231 0.5C14.5067 0.5 14.4922 0.5 14.4758 0.5C14.4594 0.5 14.4448 0.5 14.4284 0.5C14.412 0.5 14.3975 0.5 14.3811 0.5C14.3647 0.5 14.3501 0.5 14.3337 0.5C14.3173 0.5 14.3028 0.5 14.2864 0.5C14.27 0.5 14.2554 0.5 14.239 0.5C14.2226 0.5 14.2081 0.5 14.1917 0.5C14.1753 0.5 14.1607 0.5 14.1443 0.5C14.1279 0.5 14.1134 0.5 14.097 0.5C14.0806 0.5 14.066 0.5 14.0496 0.5C14.0333 0.5 14.0187 0.5 14.0023 0.5C13.9859 0.5 13.9713 0.5 13.9549 0.5C13.9386 0.5 13.924 0.5 13.9076 0.5C13.8912 0.5 13.8766 0.5 13.8602 0.5C13.8439 0.5 13.8293 0.5 13.8129 0.5C13.7965 0.5 13.7819 0.5 13.7656 0.5C13.7492 0.5 13.7346 0.5 13.7182 0.5C13.7018 0.5 13.6872 0.5 13.6709 0.5C13.6545 0.5 13.6399 0.5 13.6235 0.5C13.6071 0.5 13.5926 0.5 13.5762 0.5C13.5598 0.5 13.5452 0.5 13.5288 0.5C13.5124 0.5 13.4979 0.5 13.4815 0.5C13.4651 0.5 13.4505 0.5 13.4341 0.5C13.4177 0.5 13.4032 0.5 13.3868 0.5C13.3704 0.5 13.3558 0.5 13.3394 0.5C13.323 0.5 13.3085 0.5 13.2921 0.5C13.2757 0.5 13.2611 0.5 13.2447 0.5C13.2283 0.5 13.2138 0.5 13.1974 0.5C13.181 0.5 13.1664 0.5 13.15 0.5C13.1336 0.5 13.1191 0.5 13.1027 0.5C13.0863 0.5 13.0717 0.5 13.0553 0.5C13.0389 0.5 13.0244 0.5 13.008 0.5C12.9916 0.5 12.977 0.5 12.9606 0.5C12.9442 0.5 12.9297 0.5 12.9133 0.5C12.8969 0.5 12.8823 0.5 12.8659 0.5C12.8495 0.5 12.835 0.5 12.8186 0.5C12.8022 0.5 12.7876 0.5 12.7712 0.5C12.7549 0.5 12.7403 0.5 12.7239 0.5C12.7075 0.5 12.6929 0.5 12.6765 0.5C12.6602 0.5 12.6456 0.5 12.6292 0.5C12.6128 0.5 12.5982 0.5 12.5818 0.5C12.5655 0.5 12.5509 0.5 12.5345 0.5C12.5181 0.5 12.5035 0.5 12.4872 0.5C12.4708 0.5 12.4562 0.5 12.4398 0.5C12.4234 0.5 12.4088 0.5 12.3925 0.5C12.3761 0.5 12.3615 0.5 12.3451 0.5C12.3287 0.5 12.3142 0.5 12.2978 0.5C12.2814 0.5 12.2668 0.5 12.2504 0.5C12.234 0.5 12.2195 0.5 12.2031 0.5C12.1867 0.5 12.1721 0.5 12.1557 0.5C12.1393 0.5 12.1248 0.5 12.1084 0.5C12.092 0.5 12.0774 0.5 12.061 0.5C12.0446 0.5 12.0301 0.5 12.0137 0.5C11.9973 0.5 11.9827 0.5 11.9663 0.5C11.9499 0.5 11.9354 0.5 11.919 0.5C11.9026 0.5 11.888 0.5 11.8716 0.5C11.8552 0.5 11.8407 0.5 11.8243 0.5C11.8079 0.5 11.7933 0.5 11.7769 0.5C11.7605 0.5 11.746 0.5 11.7296 0.5C11.7132 0.5 11.6986 0.5 11.6822 0.5C11.6658 0.5 11.6513 0.5 11.6349 0.5C11.6185 0.5 11.6039 0.5 11.5875 0.5C11.5711 0.5 11.5566 0.5 11.5402 0.5C11.5238 0.5 11.5092 0.5 11.4928 0.5C11.4765 0.5 11.4619 0.5 11.4455 0.5C11.4291 0.5 11.4145 0.5 11.3981 0.5C11.3818 0.5 11.3672 0.5 11.3508 0.5C11.3344 0.5 11.3198 0.5 11.3035 0.5C11.2871 0.5 11.2725 0.5 11.2561 0.5C11.2397 0.5 11.2251 0.5 11.2088 0.5C11.1924 0.5 11.1778 0.5 11.1614 0.5C11.145 0.5 11.1304 0.5 11.1141 0.5C11.0977 0.5 11.0831 0.5 11.0667 0.5C11.0503 0.5 11.0358 0.5 11.0194 0.5C11.003 0.5 10.9884 0.5 10.972 0.5C10.9556 0.5 10.9411 0.5 10.9247 0.5C10.9083 0.5 10.8937 0.5 10.8773 0.5C10.8609 0.5 10.8464 0.5 10.83 0.5C10.8136 0.5 10.799 0.5 10.7826 0.5C10.7662 0.5 10.7517 0.5 10.7353 0.5C10.7189 0.5 10.7043 0.5 10.6879 0.5C10.6715 0.5 10.657 0.5 10.6406 0.5C10.6242 0.5 10.6096 0.5 10.5932 0.5C10.5768 0.5 10.5623 0.5 10.5459 0.5C10.5295 0.5 10.5149 0.5 10.4985 0.5C10.4821 0.5 10.4676 0.5 10.4512 0.5C10.4348 0.5 10.4202 0.5 10.4038 0.5C10.3874 0.5 10.3729 0.5 10.3565 0.5C10.3401 0.5 10.3255 0.5 10.3091 0.5C10.2928 0.5 10.2782 0.5 10.2618 0.5C10.2454 0.5 10.2308 0.5 10.2144 0.5C10.1981 0.5 10.1835 0.5 10.1671 0.5C10.1507 0.5 10.1361 0.5 10.1197 0.5C10.1034 0.5 10.0888 0.5 10.0724 0.5C10.056 0.5 10.0414 0.5 10.0251 0.5C10.0087 0.5 9.99409 0.5 9.9777 0.5C9.96131 0.5 9.94674 0.5 9.93036 0.5C9.91397 0.5 9.8994 0.5 9.88301 0.5C9.86662 0.5 9.85205 0.5 9.83566 0.5C9.81927 0.5 9.8047 0.5 9.78831 0.5C9.77192 0.5 9.75735 0.5 9.74096 0.5C9.72457 0.5 9.71 0.5 9.69361 0.5C9.67723 0.5 9.66266 0.5 9.64627 0.5C9.62988 0.5 9.61531 0.5 9.59892 0.5C9.58253 0.5 9.56796 0.5 9.55157 0.5C9.53518 0.5 9.52061 0.5 9.50422 0.5C9.48783 0.5 9.47326 0.5 9.45687 0.5C9.44049 0.5 9.42592 0.5 9.40953 0.5C9.39314 0.5 9.37857 0.5 9.36218 0.5C9.34579 0.5 9.33122 0.5 9.31483 0.5C9.29844 0.5 9.28387 0.5 9.26748 0.5C9.25109 0.5 9.23652 0.5 9.22013 0.5C4.12293 0.5 0 6.66913 0 14.2778C0 21.8864 4.12293 28.0556 9.20921 28.0556C9.2256 28.0556 9.24017 28.0556 9.25656 28.0556C9.27295 28.0556 9.28751 28.0556 9.3039 28.0556C9.32029 28.0556 9.33486 28.0556 9.35125 28.0556C9.36764 28.0556 9.38221 28.0556 9.3986 28.0556C9.41499 28.0556 9.42956 28.0556 9.44595 28.0556C9.46234 28.0556 9.47691 28.0556 9.4933 28.0556C9.50969 28.0556 9.52425 28.0556 9.54064 28.0556C9.55703 28.0556 9.5716 28.0556 9.58799 28.0556C9.60438 28.0556 9.61895 28.0556 9.63534 28.0556C9.65173 28.0556 9.6663 28.0556 9.68269 28.0556C9.69908 28.0556 9.71365 28.0556 9.73004 28.0556C9.74643 28.0556 9.76099 28.0556 9.77738 28.0556C9.79377 28.0556 9.80834 28.0556 9.82473 28.0556C9.84112 28.0556 9.85569 28.0556 9.87208 28.0556C9.88847 28.0556 9.90304 28.0556 9.91943 28.0556C9.93582 28.0556 9.95039 28.0556 9.96678 28.0556C9.98317 28.0556 9.99774 28.0556 10.0141 28.0556C10.0305 28.0556 10.0451 28.0556 10.0615 28.0556C10.0779 28.0556 10.0924 28.0556 10.1088 28.0556C10.1252 28.0556 10.1398 28.0556 10.1562 28.0556C10.1726 28.0556 10.1871 28.0556 10.2035 28.0556C10.2199 28.0556 10.2345 28.0556 10.2509 28.0556C10.2673 28.0556 10.2818 28.0556 10.2982 28.0556C10.3146 28.0556 10.3292 28.0556 10.3456 28.0556C10.362 28.0556 10.3765 28.0556 10.3929 28.0556C10.4093 28.0556 10.4239 28.0556 10.4403 28.0556C10.4566 28.0556 10.4712 28.0556 10.4876 28.0556C10.504 28.0556 10.5186 28.0556 10.535 28.0556C10.5513 28.0556 10.5659 28.0556 10.5823 28.0556C10.5987 28.0556 10.6133 28.0556 10.6297 28.0556C10.646 28.0556 10.6606 28.0556 10.677 28.0556C10.6934 28.0556 10.708 28.0556 10.7243 28.0556C10.7407 28.0556 10.7553 28.0556 10.7717 28.0556C10.7881 28.0556 10.8027 28.0556 10.819 28.0556C10.8354 28.0556 10.85 28.0556 10.8664 28.0556C10.8828 28.0556 10.8974 28.0556 10.9137 28.0556C10.9301 28.0556 10.9447 28.0556 10.9611 28.0556C10.9775 28.0556 10.992 28.0556 11.0084 28.0556C11.0248 28.0556 11.0394 28.0556 11.0558 28.0556C11.0722 28.0556 11.0867 28.0556 11.1031 28.0556C11.1195 28.0556 11.1341 28.0556 11.1505 28.0556C11.1669 28.0556 11.1814 28.0556 11.1978 28.0556C11.2142 28.0556 11.2288 28.0556 11.2452 28.0556C11.2616 28.0556 11.2761 28.0556 11.2925 28.0556C11.3089 28.0556 11.3235 28.0556 11.3399 28.0556C11.3563 28.0556 11.3708 28.0556 11.3872 28.0556C11.4036 28.0556 11.4182 28.0556 11.4346 28.0556C11.451 28.0556 11.4655 28.0556 11.4819 28.0556C11.4983 28.0556 11.5129 28.0556 11.5293 28.0556C11.5457 28.0556 11.5602 28.0556 11.5766 28.0556C11.593 28.0556 11.6076 28.0556 11.624 28.0556C11.6404 28.0556 11.6549 28.0556 11.6713 28.0556C11.6877 28.0556 11.7023 28.0556 11.7187 28.0556C11.735 28.0556 11.7496 28.0556 11.766 28.0556C11.7824 28.0556 11.797 28.0556 11.8134 28.0556C11.8297 28.0556 11.8443 28.0556 11.8607 28.0556C11.8771 28.0556 11.8917 28.0556 11.908 28.0556C11.9244 28.0556 11.939 28.0556 11.9554 28.0556C11.9718 28.0556 11.9864 28.0556 12.0027 28.0556C12.0191 28.0556 12.0337 28.0556 12.0501 28.0556C12.0665 28.0556 12.0811 28.0556 12.0974 28.0556C12.1138 28.0556 12.1284 28.0556 12.1448 28.0556C12.1612 28.0556 12.1757 28.0556 12.1921 28.0556C12.2085 28.0556 12.2231 28.0556 12.2395 28.0556C12.2559 28.0556 12.2704 28.0556 12.2868 28.0556C12.3032 28.0556 12.3178 28.0556 12.3342 28.0556C12.3506 28.0556 12.3651 28.0556 12.3815 28.0556C12.3979 28.0556 12.4125 28.0556 12.4289 28.0556C12.4453 28.0556 12.4598 28.0556 12.4762 28.0556C12.4926 28.0556 12.5072 28.0556 12.5236 28.0556C12.54 28.0556 12.5545 28.0556 12.5709 28.0556C12.5873 28.0556 12.6019 28.0556 12.6183 28.0556C12.6347 28.0556 12.6492 28.0556 12.6656 28.0556C12.682 28.0556 12.6966 28.0556 12.713 28.0556C12.7294 28.0556 12.7439 28.0556 12.7603 28.0556C12.7767 28.0556 12.7913 28.0556 12.8077 28.0556C12.8241 28.0556 12.8386 28.0556 12.855 28.0556C12.8714 28.0556 12.886 28.0556 12.9024 28.0556C12.9187 28.0556 12.9333 28.0556 12.9497 28.0556C12.9661 28.0556 12.9807 28.0556 12.9971 28.0556C13.0134 28.0556 13.028 28.0556 13.0444 28.0556C13.0608 28.0556 13.0754 28.0556 13.0918 28.0556C13.1081 28.0556 13.1227 28.0556 13.1391 28.0556C13.1555 28.0556 13.1701 28.0556 13.1865 28.0556C13.2028 28.0556 13.2174 28.0556 13.2338 28.0556C13.2502 28.0556 13.2648 28.0556 13.2811 28.0556C13.2975 28.0556 13.3121 28.0556 13.3285 28.0556C13.3449 28.0556 13.3595 28.0556 13.3758 28.0556C13.3922 28.0556 13.4068 28.0556 13.4232 28.0556C13.4396 28.0556 13.4541 28.0556 13.4705 28.0556C13.4869 28.0556 13.5015 28.0556 13.5179 28.0556C13.5343 28.0556 13.5488 28.0556 13.5652 28.0556C13.5816 28.0556 13.5962 28.0556 13.6126 28.0556C13.629 28.0556 13.6435 28.0556 13.6599 28.0556C13.6763 28.0556 13.6909 28.0556 13.7073 28.0556C13.7237 28.0556 13.7382 28.0556 13.7546 28.0556C13.771 28.0556 13.7856 28.0556 13.802 28.0556C13.8184 28.0556 13.8329 28.0556 13.8493 28.0556C13.8657 28.0556 13.8803 28.0556 13.8967 28.0556C13.9131 28.0556 13.9276 28.0556 13.944 28.0556C13.9604 28.0556 13.975 28.0556 13.9914 28.0556C14.0078 28.0556 14.0223 28.0556 14.0387 28.0556C14.0551 28.0556 14.0697 28.0556 14.0861 28.0556C14.1025 28.0556 14.117 28.0556 14.1334 28.0556C14.1498 28.0556 14.1644 28.0556 14.1808 28.0556C14.1971 28.0556 14.2117 28.0556 14.2281 28.0556C14.2445 28.0556 14.2591 28.0556 14.2755 28.0556C14.2918 28.0556 14.3064 28.0556 14.3228 28.0556C14.3392 28.0556 14.3538 28.0556 14.3702 28.0556C14.3865 28.0556 14.4011 28.0556 14.4175 28.0556C14.4339 28.0556 14.4485 28.0556 14.4648 28.0556C14.4812 28.0556 14.4958 28.0556 14.5122 28.0556C14.5286 28.0556 14.5432 28.0556 14.5595 28.0556C14.5759 28.0556 14.5905 28.0556 14.6069 28.0556C14.6233 28.0556 14.6379 28.0556 14.6542 28.0556C14.6706 28.0556 14.6852 28.0556 14.7016 28.0556C14.718 28.0556 14.7325 28.0556 14.7489 28.0556C14.7653 28.0556 14.7799 28.0556 14.7963 28.0556C14.8127 28.0556 14.8272 28.0556 14.8436 28.0556C14.86 28.0556 14.8746 28.0556 14.891 28.0556C19.9773 28.0556 24.1002 21.8864 24.1002 14.2778C24.1002 6.66913 19.9882 0.5 14.9019 0.5Z" fill="black"/>
<path d="M14.9019 27.7839C19.8371 27.7839 23.8379 21.737 23.8379 14.2778C23.8379 6.81852 19.8371 0.771606 14.9019 0.771606C9.96662 0.771606 5.96582 6.81852 5.96582 14.2778C5.96582 21.737 9.96662 27.7839 14.9019 27.7839Z" fill="#F2F2F2"/>
<path d="M14.9016 1.04322C19.6783 1.04322 23.5645 6.98057 23.5645 14.2778C23.5645 21.575 19.6783 27.5123 14.9016 27.5123C10.1249 27.5123 6.23871 21.575 6.23871 14.2778C6.23871 6.98057 10.1249 1.04322 14.9016 1.04322ZM14.9016 0.5C9.81531 0.5 5.69238 6.66913 5.69238 14.2778C5.69238 21.8864 9.81531 28.0556 14.9016 28.0556C19.9879 28.0556 24.1108 21.8864 24.1108 14.2778C24.1108 6.66913 19.9879 0.5 14.9016 0.5Z" fill="black"/>
<path d="M15.2406 24.3491C18.979 24.3491 22.0096 19.7533 22.0096 14.0841C22.0096 8.41488 18.979 3.81909 15.2406 3.81909C11.5022 3.81909 8.47168 8.41488 8.47168 14.0841C8.47168 19.7533 11.5022 24.3491 15.2406 24.3491Z" fill="black"/>
<path d="M15.2404 4.0907C18.8224 4.0907 21.7362 8.57405 21.7362 14.0841C21.7362 19.5941 18.8224 24.0774 15.2404 24.0774C11.6583 24.0774 8.74457 19.5941 8.74457 14.0841C8.74457 8.57405 11.6583 4.0907 15.2404 4.0907ZM15.2404 3.54749C11.3505 3.54749 8.19824 8.26441 8.19824 14.0841C8.19824 19.9037 11.3505 24.6207 15.2404 24.6207C19.1302 24.6207 22.2825 19.9037 22.2825 14.0841C22.2825 8.26441 19.1302 3.54749 15.2404 3.54749Z" fill="#F2F2F2"/>
<path d="M15.8766 8.42552H15.0098V9.51014C14.7676 9.55722 14.5454 9.64775 14.3469 9.78537C14.0428 9.9936 13.8079 10.2906 13.6403 10.6726C13.4728 11.0547 13.389 11.5037 13.389 12.0198C13.389 13.1171 13.8042 13.8559 14.6328 14.2379L16.0332 14.8789C16.3046 15.0057 16.4994 15.1632 16.6196 15.3461C16.7398 15.5308 16.7999 15.7716 16.7999 16.0668C16.7999 16.4814 16.6815 16.8236 16.4448 17.088C16.2081 17.356 15.9021 17.4882 15.527 17.4882C15.1518 17.4882 14.824 17.3325 14.5527 17.0228C14.2814 16.7132 14.1047 16.2949 14.0228 15.7698L13.165 15.9726C13.2288 16.5321 13.3654 17.0156 13.573 17.423C13.7806 17.8322 14.0483 18.1473 14.3742 18.3682C14.5691 18.5022 14.7803 18.5927 15.008 18.647V19.7425H15.8748V18.667C16.1498 18.6181 16.4011 18.5167 16.6251 18.3609C16.9511 18.1328 17.2042 17.8159 17.3863 17.4121C17.5666 17.0083 17.6576 16.5339 17.6576 15.9925C17.6576 15.3714 17.5466 14.8771 17.3226 14.5023C17.0986 14.1293 16.7362 13.8305 16.2317 13.6096L15.1336 13.1352C14.8295 12.9994 14.6073 12.8382 14.4653 12.6499C14.3251 12.4616 14.254 12.2317 14.254 11.96C14.254 11.7138 14.305 11.4929 14.4052 11.2973C14.5054 11.1036 14.6419 10.9515 14.8149 10.8428C14.9752 10.7414 15.1555 10.6907 15.3558 10.6907C15.3704 10.6907 15.3849 10.6907 15.4013 10.6907C15.6344 10.6962 15.8438 10.765 16.0296 10.9008C16.2153 11.0366 16.3701 11.2249 16.494 11.4657C16.616 11.7084 16.6979 11.9872 16.7362 12.3041L17.6194 12.0705C17.5411 11.5273 17.4027 11.0655 17.2024 10.6781C17.0021 10.2924 16.7507 9.99722 16.4484 9.7908C16.2736 9.66948 16.0806 9.58619 15.8748 9.53368V8.42371" fill="white"/>
<line x1="2.2959" y1="2.54626" x2="11.4811" y2="2.54626" stroke="#F2F2F2" stroke-width="0.5"/>
<line x1="4.59277" y1="1.39819" x2="14.9261" y2="1.39819" stroke="#F2F2F2" stroke-width="0.5"/>
<line y1="5.41663" x2="9.18519" y2="5.41663" stroke="#F2F2F2" stroke-width="0.5"/>
<line y1="8.86108" x2="9.18519" y2="8.86108" stroke="#F2F2F2" stroke-width="0.5"/>
<line x1="-2.2959" y1="14.6018" x2="6.88929" y2="14.6018" stroke="#F2F2F2" stroke-width="0.5"/>
<line x1="-1.14844" y1="20.3427" x2="8.03675" y2="20.3427" stroke="#F2F2F2" stroke-width="0.5"/>
<line y1="23.787" x2="9.18519" y2="23.787" stroke="#F2F2F2" stroke-width="0.5"/>
<line x1="2.2959" y1="26.0834" x2="11.4811" y2="26.0834" stroke="#F2F2F2" stroke-width="0.5"/>
<line x1="3.44434" y1="27.2314" x2="14.9258" y2="27.2314" stroke="#F2F2F2" stroke-width="0.5"/>
</g>
<path d="M26.7154 23.3996L27.5184 23.9957L24.0378 28.6846C23.438 29.4925 22.2286 29.4925 21.6289 28.6846M26.7154 23.3996L21.6289 28.6846M26.7154 23.3996L27.5184 23.9957C28.2531 23.0059 27.5466 21.6016 26.3139 21.6016H19.3527C18.1201 21.6016 17.4136 23.0059 18.1483 23.9957L21.6289 28.6846M26.7154 23.3996L21.6289 28.6846" fill="#19191A"/>
<path d="M26.7154 23.3996L27.5184 23.9957L24.0378 28.6846C23.438 29.4925 22.2286 29.4925 21.6289 28.6846M26.7154 23.3996L21.6289 28.6846M26.7154 23.3996L27.5184 23.9957C28.2531 23.0059 27.5466 21.6016 26.3139 21.6016H19.3527C18.1201 21.6016 17.4136 23.0059 18.1483 23.9957L21.6289 28.6846M26.7154 23.3996L21.6289 28.6846" stroke="black" stroke-width="2"/>
<path d="M26.7154 23.3996L27.5184 23.9957L24.0378 28.6846C23.438 29.4925 22.2286 29.4925 21.6289 28.6846M26.7154 23.3996L21.6289 28.6846M26.7154 23.3996L27.5184 23.9957C28.2531 23.0059 27.5466 21.6016 26.3139 21.6016H19.3527C18.1201 21.6016 17.4136 23.0059 18.1483 23.9957L21.6289 28.6846M26.7154 23.3996L21.6289 28.6846" stroke="#F2F2F2" stroke-width="2"/>
<defs>
<clipPath id="clip0_3257_25257">
<rect width="24.1111" height="27.5556" fill="white" transform="translate(0 0.5)"/>
</clipPath>
</defs>
</svg>
