<svg width="28" height="29" viewBox="0 0 28 29" fill="none" xmlns="http://www.w3.org/2000/svg">
<path d="M1.16602 5.16699V12.167H8.16602" stroke="#B0B1B3" stroke-width="3" stroke-linecap="round" stroke-linejoin="round"/>
<path d="M26.834 23.833V16.833H19.834" stroke="#B0B1B3" stroke-width="3" stroke-linecap="round" stroke-linejoin="round"/>
<path d="M23.9044 11.0002C23.3127 9.32809 22.307 7.83314 20.9813 6.65482C19.6556 5.47651 18.053 4.65323 16.323 4.2618C14.5931 3.87038 12.7921 3.92357 11.0883 4.41641C9.38445 4.90924 7.83322 5.82567 6.57935 7.08017L1.16602 12.1668M26.8327 16.8335L21.4194 21.9202C20.1655 23.1747 18.6142 24.0911 16.9104 24.5839C15.2066 25.0768 13.4056 25.13 11.6757 24.7385C9.94573 24.3471 8.34312 23.5238 7.01739 22.3455C5.69167 21.1672 4.68604 19.6723 4.09435 18.0002" stroke="#B0B1B3" stroke-width="3" stroke-linecap="round" stroke-linejoin="round"/>
</svg>
