<svg width="24" height="24" viewBox="0 0 24 24" fill="none" xmlns="http://www.w3.org/2000/svg">
<g clip-path="url(#clip0_10654_85578)">
<path opacity="0.2" d="M5.25037 10.5C5.25037 8.70979 5.96153 6.9929 7.2274 5.72703C8.49327 4.46116 10.2102 3.75 12.0004 3.75C13.7906 3.75 15.5075 4.46116 16.7733 5.72703C18.0392 6.9929 18.7504 8.70979 18.7504 10.5C18.7504 13.8581 19.5285 15.8062 20.1472 16.875C20.213 16.9888 20.2476 17.1179 20.2477 17.2493C20.2478 17.3808 20.2134 17.5099 20.1479 17.6239C20.0824 17.7378 19.9881 17.8325 19.8744 17.8985C19.7608 17.9645 19.6318 17.9995 19.5004 18H4.50037C4.3691 17.9992 4.24034 17.964 4.12695 17.8978C4.01357 17.8317 3.91953 17.7369 3.85423 17.6231C3.78894 17.5092 3.75468 17.3801 3.75488 17.2489C3.75508 17.1176 3.78973 16.9887 3.85537 16.875C4.47318 15.8062 5.25037 13.8572 5.25037 10.5Z" fill="black"/>
<path d="M9 18C9 18.7956 9.31607 19.5587 9.87868 20.1213C10.4413 20.6839 11.2044 21 12 21C12.7956 21 13.5587 20.6839 14.1213 20.1213C14.6839 19.5587 15 18.7956 15 18" stroke="black" stroke-width="1.5" stroke-linecap="round" stroke-linejoin="round"/>
<path d="M17.25 2.25C18.6983 3.17411 19.873 4.46888 20.6522 6" stroke="black" stroke-width="1.5" stroke-linecap="round" stroke-linejoin="round"/>
<path d="M3.34766 6C4.12688 4.46888 5.30155 3.17411 6.74984 2.25" stroke="black" stroke-width="1.5" stroke-linecap="round" stroke-linejoin="round"/>
<path d="M5.25037 10.5C5.25037 8.70979 5.96153 6.9929 7.2274 5.72703C8.49327 4.46116 10.2102 3.75 12.0004 3.75C13.7906 3.75 15.5075 4.46116 16.7733 5.72703C18.0392 6.9929 18.7504 8.70979 18.7504 10.5C18.7504 13.8581 19.5285 15.8063 20.1472 16.875C20.213 16.9888 20.2476 17.1179 20.2477 17.2493C20.2478 17.3808 20.2134 17.5099 20.1479 17.6239C20.0824 17.7378 19.9881 17.8325 19.8744 17.8985C19.7608 17.9645 19.6318 17.9995 19.5004 18H4.50037C4.3691 17.9992 4.24034 17.964 4.12695 17.8978C4.01357 17.8317 3.91953 17.7369 3.85423 17.6231C3.78894 17.5092 3.75468 17.3801 3.75488 17.2489C3.75508 17.1176 3.78973 16.9887 3.85537 16.875C4.47318 15.8063 5.25037 13.8572 5.25037 10.5Z" stroke="black" stroke-width="1.5" stroke-linecap="round" stroke-linejoin="round"/>
</g>
<defs>
<clipPath id="clip0_10654_85578">
<rect width="24" height="24" fill="white"/>
</clipPath>
</defs>
</svg>
