<svg width="31" height="30" viewBox="0 0 31 30" fill="none" xmlns="http://www.w3.org/2000/svg">
<path opacity="0.2" d="M15.5 28.5C22.9559 28.5 29 22.4558 29 15C29 7.54416 22.9559 1.5 15.5 1.5C8.04417 1.5 2.00002 7.54416 2.00002 15C2.00002 22.4558 8.04417 28.5 15.5 28.5Z" fill="black"/>
<path d="M9.87502 16.125L13.25 19.5L21.125 11.625" stroke="black" stroke-width="2.25" stroke-linecap="round" stroke-linejoin="round"/>
<path d="M15.5 28.5C22.9559 28.5 29 22.4558 29 15C29 7.54416 22.9559 1.5 15.5 1.5C8.04417 1.5 2.00002 7.54416 2.00002 15C2.00002 22.4558 8.04417 28.5 15.5 28.5Z" stroke="black" stroke-width="2.25" stroke-linecap="round" stroke-linejoin="round"/>
</svg>
