<svg width="26" height="26" viewBox="0 0 26 26" fill="none" xmlns="http://www.w3.org/2000/svg">
<rect width="26" height="26" rx="6" fill="#0D0D0D"/>
<path d="M19.0312 7.74109H7.15625C6.99878 7.74109 6.84776 7.66889 6.73641 7.54038C6.62506 7.41186 6.5625 7.23756 6.5625 7.05582C6.5625 6.87407 6.62506 6.69977 6.73641 6.57126C6.84776 6.44274 6.99878 6.37054 7.15625 6.37054H17.25C17.4075 6.37054 17.5585 6.29835 17.6698 6.16983C17.7812 6.04132 17.8438 5.86702 17.8438 5.68527C17.8438 5.50353 17.7812 5.32923 17.6698 5.20071C17.5585 5.0722 17.4075 5 17.25 5H7.15625C6.68443 5.00225 6.2325 5.21957 5.89887 5.60463C5.56525 5.98968 5.37695 6.51127 5.375 7.05582V18.0202C5.37695 18.5647 5.56525 19.0863 5.89887 19.4714C6.2325 19.8564 6.68443 20.0737 7.15625 20.076H19.0312C19.3462 20.076 19.6482 19.9316 19.8709 19.6746C20.0936 19.4175 20.2188 19.0689 20.2188 18.7054V9.11163C20.2188 8.74814 20.0936 8.39954 19.8709 8.14251C19.6482 7.88549 19.3462 7.74109 19.0312 7.74109ZM16.3594 14.9364C16.1832 14.9364 16.011 14.8762 15.8646 14.7632C15.7181 14.6503 15.604 14.4897 15.5365 14.3019C15.4691 14.1141 15.4515 13.9074 15.4859 13.708C15.5202 13.5086 15.6051 13.3255 15.7296 13.1817C15.8542 13.0379 16.0129 12.94 16.1856 12.9004C16.3584 12.8607 16.5375 12.8811 16.7002 12.9589C16.8629 13.0367 17.002 13.1684 17.0999 13.3375C17.1978 13.5065 17.25 13.7052 17.25 13.9085C17.25 14.1812 17.1562 14.4426 16.9891 14.6354C16.8221 14.8281 16.5956 14.9364 16.3594 14.9364Z" fill="white"/>
</svg>
