<svg width="26" height="26" viewBox="0 0 26 26" fill="none" xmlns="http://www.w3.org/2000/svg">
<rect width="26" height="26" rx="6" fill="#0D0D0D"/>
<path d="M9.3982 10.8001L10.031 6.6001H6.7398L5.3646 10.2001C5.3222 10.3281 5.2998 10.4609 5.2998 10.6001C5.2998 11.4833 6.2198 12.2001 7.3566 12.2001C8.4046 12.2001 9.271 11.5889 9.3982 10.8001ZM12.4998 12.2001C13.6358 12.2001 14.5566 11.4833 14.5566 10.6001C14.5566 10.5673 14.5542 10.5345 14.5526 10.5033L14.1454 6.6001H10.8542L10.4462 10.5001C10.4443 10.5334 10.4432 10.5667 10.443 10.6001C10.443 11.4833 11.3638 12.2001 12.4998 12.2001ZM16.4998 13.0369V16.2001H8.4998V13.0417C8.1494 13.1681 7.7638 13.2401 7.3566 13.2401C7.2006 13.2401 7.0494 13.2217 6.8998 13.2009V18.2801C6.8998 18.8961 7.403 19.4001 8.0182 19.4001H16.9798C17.5958 19.4001 18.0998 18.8953 18.0998 18.2801V13.2017C17.9486 13.2249 17.796 13.238 17.643 13.2409C17.2529 13.2405 16.8659 13.1715 16.4998 13.0369ZM19.6358 10.2001L18.259 6.6001H14.9686L15.6006 10.7937C15.7238 11.5857 16.5902 12.2001 17.643 12.2001C18.779 12.2001 19.6998 11.4833 19.6998 10.6001C19.6998 10.4609 19.6774 10.3281 19.6358 10.2001Z" fill="white"/>
</svg>
