<svg width="14" height="13" viewBox="0 0 14 13" fill="none" xmlns="http://www.w3.org/2000/svg">
<path opacity="0.2" d="M12 1H2C1.86739 1 1.74021 1.05268 1.64645 1.14645C1.55268 1.24021 1.5 1.36739 1.5 1.5V11.5C1.5 11.6326 1.55268 11.7598 1.64645 11.8536C1.74021 11.9473 1.86739 12 2 12H2.54312L9.39625 5.14625C9.44269 5.09976 9.49783 5.06288 9.55853 5.03772C9.61923 5.01256 9.68429 4.99961 9.75 4.99961C9.81571 4.99961 9.88077 5.01256 9.94147 5.03772C10.0022 5.06288 10.0573 5.09976 10.1038 5.14625L12.5 7.54313V1.5C12.5 1.36739 12.4473 1.24021 12.3536 1.14645C12.2598 1.05268 12.1326 1 12 1ZM5 5.5C4.80222 5.5 4.60888 5.44135 4.44443 5.33147C4.27998 5.22159 4.15181 5.06541 4.07612 4.88268C4.00043 4.69996 3.98063 4.49889 4.01921 4.30491C4.0578 4.11093 4.15304 3.93275 4.29289 3.79289C4.43275 3.65304 4.61093 3.5578 4.80491 3.51921C4.99889 3.48063 5.19996 3.50043 5.38268 3.57612C5.56541 3.65181 5.72159 3.77998 5.83147 3.94443C5.94135 4.10888 6 4.30222 6 4.5C6 4.76522 5.89464 5.01957 5.70711 5.20711C5.51957 5.39464 5.26522 5.5 5 5.5Z" fill="#636467"/>
<path d="M12 1H2C1.72386 1 1.5 1.22386 1.5 1.5V11.5C1.5 11.7761 1.72386 12 2 12H12C12.2761 12 12.5 11.7761 12.5 11.5V1.5C12.5 1.22386 12.2761 1 12 1Z" stroke="#636467" stroke-width="1.5" stroke-linecap="round" stroke-linejoin="round"/>
<path d="M5 5.5C5.55228 5.5 6 5.05228 6 4.5C6 3.94772 5.55228 3.5 5 3.5C4.44772 3.5 4 3.94772 4 4.5C4 5.05228 4.44772 5.5 5 5.5Z" stroke="#636467" stroke-width="1.5" stroke-linecap="round" stroke-linejoin="round"/>
<path d="M2.54315 12L9.39628 5.14625C9.44271 5.09976 9.49786 5.06288 9.55856 5.03772C9.61926 5.01255 9.68432 4.9996 9.75003 4.9996C9.81573 4.9996 9.8808 5.01255 9.9415 5.03772C10.0022 5.06288 10.0573 5.09976 10.1038 5.14625L12.5 7.54312" stroke="#636467" stroke-width="1.5" stroke-linecap="round" stroke-linejoin="round"/>
</svg>
