<svg width="25" height="25" viewBox="0 0 25 25" fill="none" xmlns="http://www.w3.org/2000/svg">
<g clip-path="url(#clip0_8703_27842)">
<path opacity="0.2" d="M12.0693 21.2104C17.0399 21.2104 21.0693 17.181 21.0693 12.2104C21.0693 7.23989 17.0399 3.21045 12.0693 3.21045C7.09877 3.21045 3.06934 7.23989 3.06934 12.2104C3.06934 17.181 7.09877 21.2104 12.0693 21.2104Z" fill="black"/>
<path d="M12.0693 18.2104C12.6907 18.2104 13.1943 17.7068 13.1943 17.0854C13.1943 16.4641 12.6907 15.9604 12.0693 15.9604C11.448 15.9604 10.9443 16.4641 10.9443 17.0854C10.9443 17.7068 11.448 18.2104 12.0693 18.2104Z" fill="black"/>
<path d="M12.0693 13.7104V12.9604C13.7259 12.9604 15.0693 11.7848 15.0693 10.3354C15.0693 8.88607 13.7259 7.71045 12.0693 7.71045C10.4128 7.71045 9.06934 8.88607 9.06934 10.3354V10.7104" stroke="black" stroke-width="1.5" stroke-linecap="round" stroke-linejoin="round"/>
<path d="M12.0693 21.2104C17.0399 21.2104 21.0693 17.181 21.0693 12.2104C21.0693 7.23989 17.0399 3.21045 12.0693 3.21045C7.09877 3.21045 3.06934 7.23989 3.06934 12.2104C3.06934 17.181 7.09877 21.2104 12.0693 21.2104Z" stroke="black" stroke-width="1.5" stroke-linecap="round" stroke-linejoin="round"/>
</g>
<defs>
<clipPath id="clip0_8703_27842">
<rect width="24" height="24" fill="white" transform="translate(0.0693359 0.210449)"/>
</clipPath>
</defs>
</svg>
