<svg width="26" height="26" viewBox="0 0 26 26" fill="none" xmlns="http://www.w3.org/2000/svg">
<g clip-path="url(#clip0_1140_17371)">
<rect width="26" height="26" fill="#C6F8D8"/>
<g clip-path="url(#clip1_1140_17371)">
<path d="M6.41913 16.8655C6.53827 16.7464 6.70008 16.6792 6.86875 16.6792H22.4315C22.7149 16.6792 22.8571 17.0219 22.6565 17.2225L19.5813 20.2953C19.4621 20.4145 19.3003 20.4816 19.1316 20.4816H3.5689C3.2855 20.4816 3.1433 20.1389 3.34384 19.9384L6.41913 16.8655Z" fill="#70ED9D"/>
<path d="M6.419 5.38627C6.53815 5.26712 6.69996 5.19995 6.86863 5.19995H22.4314C22.7148 5.19995 22.857 5.54268 22.6564 5.74322L19.5811 8.81606C19.462 8.9352 19.3002 9.00238 19.1315 9.00238H3.56878C3.28537 9.00238 3.14318 8.65964 3.34372 8.4591L6.419 5.38627Z" fill="#70ED9D"/>
<path d="M19.5813 11.0894C19.4621 10.9703 19.3003 10.9031 19.1316 10.9031H3.5689C3.2855 10.9031 3.1433 11.2458 3.34384 11.4464L6.41913 14.5192C6.53827 14.6383 6.70008 14.7055 6.86875 14.7055H22.4315C22.7149 14.7055 22.8571 14.3628 22.6565 14.1622L19.5813 11.0894Z" fill="#70ED9D"/>
</g>
</g>
<path d="M0.5 6C0.5 2.96243 2.96243 0.5 6 0.5H25.5V25.5H6C2.96243 25.5 0.5 23.0376 0.5 20V6Z" stroke="black" style="mix-blend-mode:soft-light"/>
<defs>
<clipPath id="clip0_1140_17371">
<path d="M0 6C0 2.68629 2.68629 0 6 0H26V26H6C2.68629 26 0 23.3137 0 20V6Z" fill="white"/>
</clipPath>
<clipPath id="clip1_1140_17371">
<rect width="19.5" height="15.2813" fill="white" transform="translate(3.25 5.19995)"/>
</clipPath>
</defs>
</svg>
