<svg width="24" height="24" viewBox="0 0 24 24" fill="none" xmlns="http://www.w3.org/2000/svg">
<path opacity="0.2" d="M17.2621 13.847C17.1593 13.9373 17.0829 14.0538 17.041 14.184C16.999 14.3142 16.9932 14.4534 17.024 14.5867L18.2915 20.0748C18.325 20.2182 18.3156 20.3682 18.2644 20.5062C18.2132 20.6442 18.1226 20.7641 18.0037 20.851C17.8849 20.9379 17.7431 20.9878 17.596 20.9947C17.449 21.0015 17.3032 20.965 17.1768 20.8895L12.3862 17.9833C12.2698 17.9125 12.1362 17.875 11.9999 17.875C11.8637 17.875 11.7301 17.9125 11.6137 17.9833L6.82305 20.8895C6.69664 20.965 6.55084 21.0015 6.4038 20.9947C6.25675 20.9878 6.11498 20.9379 5.99613 20.851C5.87729 20.7641 5.78663 20.6442 5.73546 20.5062C5.68429 20.3682 5.67486 20.2182 5.70836 20.0748L6.97586 14.5867C7.00667 14.4534 7.0008 14.3142 6.95887 14.184C6.91694 14.0538 6.84053 13.9373 6.73773 13.847L2.50867 10.1579C2.39561 10.0619 2.31359 9.93438 2.273 9.79166C2.2324 9.64893 2.23506 9.49738 2.28062 9.35616C2.32619 9.21495 2.41262 9.09043 2.52898 8.99835C2.64533 8.90627 2.78639 8.85077 2.9343 8.83889L8.50867 8.35701C8.64467 8.3449 8.77479 8.29589 8.88498 8.21526C8.99518 8.13464 9.08127 8.02547 9.13398 7.89951L11.3118 2.70951C11.37 2.57533 11.4661 2.46108 11.5884 2.38083C11.7106 2.30057 11.8537 2.25781 11.9999 2.25781C12.1462 2.25781 12.2892 2.30057 12.4115 2.38083C12.5337 2.46108 12.6299 2.57533 12.688 2.70951L14.8659 7.89951C14.9186 8.02547 15.0047 8.13464 15.1149 8.21526C15.2251 8.29589 15.3552 8.3449 15.4912 8.35701L21.0655 8.83889C21.2135 8.85077 21.3545 8.90627 21.4709 8.99835C21.5872 9.09043 21.6737 9.21495 21.7192 9.35616C21.7648 9.49738 21.7674 9.64893 21.7268 9.79166C21.6863 9.93438 21.6042 10.0619 21.4912 10.1579L17.2621 13.847Z" fill="black"/>
<path d="M22.4251 9.12075C22.3342 8.8408 22.1631 8.59375 21.9328 8.41038C21.7026 8.22701 21.4236 8.11542 21.1304 8.0895L15.5626 7.6095L13.3801 2.4195C13.2664 2.14717 13.0748 1.91455 12.8292 1.75093C12.5836 1.58731 12.2952 1.5 12.0001 1.5C11.705 1.5 11.4165 1.58731 11.1709 1.75093C10.9254 1.91455 10.7337 2.14717 10.6201 2.4195L8.44413 7.6095L2.86976 8.09231C2.57542 8.11705 2.29493 8.22813 2.06347 8.41164C1.83201 8.59515 1.65988 8.84291 1.56867 9.12385C1.47746 9.4048 1.47122 9.70642 1.55075 9.99089C1.63027 10.2754 1.79202 10.53 2.01569 10.7229L6.24476 14.4186L4.97726 19.9067C4.91023 20.1939 4.92936 20.4945 5.03224 20.7709C5.13512 21.0472 5.31719 21.2872 5.55569 21.4606C5.79419 21.6341 6.07853 21.7334 6.37317 21.7462C6.66781 21.7589 6.95967 21.6845 7.21226 21.5323L11.9935 18.6261L16.7851 21.5323C17.0377 21.6845 17.3295 21.7589 17.6242 21.7462C17.9188 21.7334 18.2031 21.6341 18.4416 21.4606C18.6801 21.2872 18.8622 21.0472 18.9651 20.7709C19.068 20.4945 19.0871 20.1939 19.0201 19.9067L17.7535 14.4129L21.9816 10.7229C22.2053 10.5294 22.3667 10.274 22.4456 9.98889C22.5245 9.70382 22.5174 9.40178 22.4251 9.12075ZM20.9982 9.5895L16.7701 13.2795C16.5643 13.4585 16.4112 13.6902 16.3273 13.9497C16.2434 14.2092 16.2318 14.4867 16.2938 14.7523L17.5641 20.2498L12.7763 17.3436C12.5427 17.2013 12.2745 17.1261 12.001 17.1261C11.7275 17.1261 11.4593 17.2013 11.2257 17.3436L6.44444 20.2498L7.70632 14.7561C7.76834 14.4905 7.75676 14.213 7.67285 13.9535C7.58893 13.694 7.43585 13.4623 7.23007 13.2833L3.00007 9.59513C2.99973 9.59232 2.99973 9.58949 3.00007 9.58669L8.57257 9.10481C8.84464 9.08083 9.10499 8.98303 9.32555 8.82194C9.54611 8.66086 9.7185 8.44262 9.82413 8.19075L12.0001 3.00731L14.1751 8.19075C14.2807 8.44262 14.4531 8.66086 14.6737 8.82194C14.8942 8.98303 15.1546 9.08083 15.4266 9.10481L21.0001 9.58669C21.0001 9.58669 21.0001 9.59231 21.0001 9.59325L20.9982 9.5895Z" fill="black"/>
</svg>
