<?xml version="1.0" encoding="UTF-8"?>
<svg width="30px" height="30px" viewBox="0 0 30 30" version="1.1" xmlns="http://www.w3.org/2000/svg" xmlns:xlink="http://www.w3.org/1999/xlink">
    <!-- Generator: Sketch 53.2 (72643) - https://sketchapp.com -->
    <title>success-icon</title>
    <desc>Created with Sketch.</desc>
    <g id="Page-1" stroke="none" stroke-width="1" fill="none" fill-rule="evenodd">
        <g id="3.1.success-modal" transform="translate(-503.000000, -450.000000)" fill="#5CB85C">
            <g id="Group-4" transform="translate(478.000000, 420.000000)">
                <path d="M32.4746657,32.0100503 C34.777784,30.6700168 37.2860892,30 39.9995813,30 C42.7139108,30 45.2213785,30.6700168 47.5253343,32.0100503 C49.8276151,33.3500838 51.6500098,35.1716918 52.9891684,37.4748744 C54.3291645,39.778057 55,42.2864322 55,45 C55,47.7135678 54.3291645,50.221943 52.9891684,52.5251256 C51.6500098,54.8283082 49.8276151,56.6499162 47.5253343,57.9899497 C45.2213785,59.3299832 42.7139108,60 39.9995813,60 C37.2860892,60 34.777784,59.3299832 32.4746657,57.9899497 C30.1715474,56.6499162 28.3499902,54.8283082 27.0108316,52.5251256 C25.669998,50.221943 25,47.7135678 25,45 C25,42.2864322 25.669998,39.778057 27.0108316,37.4748744 C28.3499902,35.1716918 30.1715474,33.3500838 32.4746657,32.0100503 C32.4746657,32.0100503 30.1715474,33.3500838 32.4746657,32.0100503 L32.4746657,32.0100503 L32.4746657,32.0100503 Z M37.6244541,48.4880871 L33.351771,43.7229408 L32,45.3430905 L37.6244541,51 L46,42.6065351 L44.8995633,41 L37.6244541,48.4880871 Z" id="success-icon"></path>
            </g>
        </g>
    </g>
</svg>