<svg width="46" height="46" viewBox="0 0 46 46" fill="none" xmlns="http://www.w3.org/2000/svg">
<g filter="url(#filter0_dd_5507_42081)">
<g clip-path="url(#clip0_5507_42081)">
<rect x="10" y="6" width="26" height="26" fill="#7B44DA"/>
<g clip-path="url(#clip1_5507_42081)">
<path d="M27.8744 19.3236C27.8854 19.3257 27.8853 19.3459 27.9011 19.3402V19.3552C26.3582 20.2734 24.8153 21.1916 23.2721 22.1094C23.2536 22.1204 23.2374 22.1386 23.2126 22.1359C23.2126 20.5286 23.2126 18.9214 23.2125 17.314C23.2125 17.2815 23.2095 17.2492 23.208 17.2167H23.2092C23.2349 17.2253 23.2616 17.2316 23.2863 17.2428C23.4062 17.2969 23.5254 17.3527 23.645 17.4073C24.1258 17.627 24.6069 17.8463 25.0876 18.0663C25.3742 18.1975 25.6604 18.3298 25.947 18.4609C26.4796 18.7045 27.0118 18.9493 27.5461 19.1896C27.6536 19.2381 27.7538 19.3069 27.8744 19.3236Z" fill="#D5B5F7"/>
<path d="M23.2084 17.2167C23.21 17.2492 23.2129 17.2815 23.2129 17.314C23.213 18.9214 23.213 20.5286 23.213 22.1359C23.0569 22.0651 22.9159 21.9676 22.7691 21.8804C21.3539 21.0395 19.9393 20.1973 18.5244 19.3553C18.5244 19.3504 18.5244 19.3453 18.5244 19.3403L18.5388 19.3399C18.5552 19.3347 18.5722 19.3313 18.5877 19.3242C19.0309 19.1217 19.4741 18.9187 19.9171 18.716C20.8326 18.297 21.7481 17.8778 22.6641 17.46C22.8448 17.3776 23.0221 17.2873 23.2082 17.217L23.2084 17.2167Z" fill="#DFC8F9"/>
<path d="M18.5537 20.273C18.7533 20.3742 18.9407 20.4964 19.1328 20.6104C20.4782 21.4095 21.8228 22.21 23.1676 23.0099C23.1826 23.0188 23.1972 23.0284 23.2118 23.0378C23.2118 24.1901 23.212 25.3422 23.2123 26.4945C23.2123 26.6248 23.2135 26.755 23.2141 26.8852C23.1493 26.8332 23.1128 26.7586 23.0664 26.6927C21.8886 25.0237 20.7121 23.3538 19.5355 21.6841C19.2205 21.237 18.9055 20.79 18.5912 20.3425C18.5763 20.3211 18.5507 20.3037 18.5548 20.2718L18.5537 20.273Z" fill="white"/>
<path d="M23.2142 26.8852C23.2136 26.755 23.2124 26.6247 23.2124 26.4945C23.2121 25.3422 23.2121 24.19 23.2119 23.0377C24.3901 22.3368 25.5681 21.6358 26.7462 20.9351C27.1055 20.7214 27.465 20.5081 27.8243 20.2949C27.8391 20.2862 27.855 20.279 27.8703 20.2712L27.8693 20.2693C27.8821 20.3 27.8542 20.3139 27.8414 20.3321C26.3135 22.5 24.7851 24.6676 23.2566 26.835C23.244 26.8529 23.2283 26.8685 23.2142 26.8852Z" fill="#EADAFB"/>
<path d="M18.5552 20.2717L18.5469 20.2664C18.5484 20.2664 18.5507 20.2661 18.5513 20.2669C18.5526 20.2685 18.5533 20.2708 18.5542 20.2729L18.5552 20.2717Z" fill="#8B8B8B"/>
<path d="M27.8701 20.2718L27.8814 20.2649L27.8809 20.2719C27.877 20.2713 27.8731 20.2708 27.8691 20.27L27.8703 20.2718H27.8701Z" fill="#3C3C3B"/>
<path d="M23.2085 17.2168C23.0224 17.2872 22.8451 17.3774 22.6644 17.4598C21.7484 17.8775 20.833 18.2969 19.9174 18.7157C19.4742 18.9184 19.0312 19.1214 18.5881 19.324C18.5725 19.3311 18.5553 19.3345 18.5391 19.3396C18.6721 19.1139 18.804 18.8875 18.9385 18.6625C20.0158 16.8616 21.0937 15.0606 22.1715 13.2597C22.5064 12.7002 22.8416 12.1406 23.177 11.5814C23.1864 11.5656 23.189 11.5414 23.2153 11.541C23.2144 11.5784 23.2127 11.616 23.2127 11.6534C23.2127 13.473 23.2127 15.2925 23.2124 17.1118C23.2124 17.1469 23.2106 17.1818 23.2097 17.2168H23.2085Z" fill="white"/>
<path d="M23.21 17.217C23.2109 17.1819 23.2126 17.1471 23.2126 17.112C23.2126 15.2925 23.2126 13.473 23.2129 11.6536C23.2129 11.6162 23.2146 11.5786 23.2155 11.5411C23.3047 11.6611 23.3738 11.7936 23.4503 11.9214C24.9134 14.3644 26.3757 16.808 27.8379 19.2514C27.8518 19.2747 27.8629 19.2997 27.8753 19.3239C27.7546 19.3072 27.6545 19.2383 27.547 19.1899C27.0128 18.9496 26.4807 18.7049 25.9479 18.4612C25.6613 18.3301 25.3751 18.1977 25.0885 18.0666C24.6077 17.8466 24.1267 17.6272 23.6459 17.4075C23.5263 17.3528 23.4071 17.2971 23.2872 17.243C23.2625 17.2319 23.2359 17.2256 23.2101 17.2171L23.21 17.217Z" fill="#EADAFB"/>
</g>
</g>
<rect x="10.5" y="6.5" width="25" height="25" rx="5.5" stroke="black" style="mix-blend-mode:soft-light" shape-rendering="crispEdges"/>
</g>
<defs>
<filter id="filter0_dd_5507_42081" x="0" y="0" width="46" height="46" filterUnits="userSpaceOnUse" color-interpolation-filters="sRGB">
<feFlood flood-opacity="0" result="BackgroundImageFix"/>
<feColorMatrix in="SourceAlpha" type="matrix" values="0 0 0 0 0 0 0 0 0 0 0 0 0 0 0 0 0 0 127 0" result="hardAlpha"/>
<feOffset dy="1"/>
<feGaussianBlur stdDeviation="0.5"/>
<feComposite in2="hardAlpha" operator="out"/>
<feColorMatrix type="matrix" values="0 0 0 0 0 0 0 0 0 0 0 0 0 0 0 0 0 0 0.04 0"/>
<feBlend mode="normal" in2="BackgroundImageFix" result="effect1_dropShadow_5507_42081"/>
<feColorMatrix in="SourceAlpha" type="matrix" values="0 0 0 0 0 0 0 0 0 0 0 0 0 0 0 0 0 0 127 0" result="hardAlpha"/>
<feOffset dy="4"/>
<feGaussianBlur stdDeviation="5"/>
<feComposite in2="hardAlpha" operator="out"/>
<feColorMatrix type="matrix" values="0 0 0 0 0 0 0 0 0 0 0 0 0 0 0 0 0 0 0.04 0"/>
<feBlend mode="normal" in2="effect1_dropShadow_5507_42081" result="effect2_dropShadow_5507_42081"/>
<feBlend mode="normal" in="SourceGraphic" in2="effect2_dropShadow_5507_42081" result="shape"/>
</filter>
<clipPath id="clip0_5507_42081">
<rect x="10" y="6" width="26" height="26" rx="6" fill="white"/>
</clipPath>
<clipPath id="clip1_5507_42081">
<rect width="9.37705" height="15.3443" fill="white" transform="translate(18.5244 11.541)"/>
</clipPath>
</defs>
</svg>
