<svg width="107" height="26" viewBox="0 0 107 26" fill="none" xmlns="http://www.w3.org/2000/svg">
<rect x="0.5" y="0.5" width="106" height="25" rx="5.5" fill="#E5E5E6" fill-opacity="0.5"/>
<g clip-path="url(#clip0_7119_63628)">
<rect width="26" height="26" fill="#E84042"/>
<g clip-path="url(#clip1_7119_63628)">
<path d="M21.3094 13.0069C21.301 17.3672 17.7689 20.905 13.3891 20.8849C8.97729 20.8648 5.50641 17.2523 5.5409 12.9355C5.57573 8.65027 9.06335 5.10539 13.4447 5.11476C17.7923 5.12414 21.3134 8.65865 21.3094 13.0069ZM10.3338 16.5049V16.5025C10.6801 16.5025 11.0267 16.5096 11.3726 16.5009C11.9231 16.4871 12.3514 16.2484 12.6471 15.7799C12.6883 15.7149 12.7288 15.6493 12.767 15.5827C13.3831 14.5054 13.9989 13.4278 14.6141 12.3499C14.7407 12.1282 14.8709 11.9089 14.9844 11.6801C15.0893 11.4695 15.1388 11.2465 15.1375 11.0117C15.1361 10.7542 15.0678 10.5145 14.9439 10.2901C14.6057 9.67798 14.2564 9.07221 13.9035 8.46878C13.87 8.41152 13.8298 8.35827 13.7927 8.30335C13.6085 8.03278 13.1876 8.04417 13.0111 8.30268C12.9321 8.41821 12.8581 8.53676 12.7887 8.65831C12.1562 9.76672 11.5239 10.8751 10.8921 11.9839C10.2133 13.1746 9.53518 14.3654 8.85708 15.5565C8.80182 15.6537 8.75293 15.7541 8.71208 15.8586C8.6133 16.1107 8.79915 16.4526 9.09651 16.4858C9.18357 16.4955 9.26997 16.5056 9.3577 16.5052C9.68286 16.5049 10.0083 16.5052 10.3335 16.5052L10.3338 16.5049ZM16.4977 16.5049V16.5056C16.8895 16.5056 17.2813 16.5056 17.6731 16.5056C17.7956 16.5056 17.9172 16.4999 18.0394 16.4861C18.3425 16.452 18.531 16.094 18.4205 15.8499C18.393 15.7896 18.3693 15.727 18.3371 15.6691C18.2457 15.504 18.1519 15.3399 18.0568 15.1768C17.7273 14.6119 17.3975 14.0473 17.0666 13.4834C17.0013 13.3719 16.9357 13.2597 16.8473 13.1639C16.6608 12.9623 16.3309 12.966 16.1474 13.1703C16.0815 13.2436 16.0279 13.3257 15.9787 13.4104C15.5541 14.1381 15.1298 14.8664 14.7065 15.5951C14.6556 15.6828 14.6084 15.7729 14.5773 15.87C14.4899 16.1419 14.674 16.4392 14.9563 16.4834C15.0497 16.4982 15.1438 16.5052 15.2386 16.5049C15.6585 16.5042 16.0781 16.5049 16.498 16.5049H16.4977Z" fill="white"/>
</g>
</g>
<path d="M0.5 6C0.5 2.96243 2.96243 0.5 6 0.5H25.5V25.5H6C2.96243 25.5 0.5 23.0376 0.5 20V6Z" stroke="black" style="mix-blend-mode:soft-light"/>
<path d="M35.8374 18H34.3232L37.7255 8.54545H39.3736L42.7759 18H41.2617L38.5888 10.2628H38.5149L35.8374 18ZM36.0913 14.2976H41.0032V15.4979H36.0913V14.2976ZM49.2078 10.9091L46.6365 18H45.1592L42.5832 10.9091H44.0651L45.8609 16.3658H45.9347L47.7259 10.9091H49.2078ZM52.3655 18.157C51.9162 18.157 51.5099 18.0739 51.1468 17.9077C50.7836 17.7384 50.4958 17.4937 50.2835 17.1737C50.0742 16.8536 49.9695 16.4612 49.9695 15.9964C49.9695 15.5964 50.0465 15.267 50.2004 15.0085C50.3543 14.75 50.562 14.5453 50.8236 14.3945C51.0852 14.2437 51.3776 14.1299 51.7007 14.0529C52.0239 13.976 52.3532 13.9175 52.6887 13.8775C53.1134 13.8282 53.4581 13.7882 53.7227 13.7575C53.9874 13.7236 54.1798 13.6697 54.2998 13.5959C54.4198 13.522 54.4798 13.402 54.4798 13.2358V13.2035C54.4798 12.8003 54.366 12.4879 54.1382 12.2663C53.9136 12.0447 53.5781 11.9339 53.1318 11.9339C52.6671 11.9339 52.3009 12.037 52.0331 12.2433C51.7684 12.4464 51.5853 12.6726 51.4838 12.9219L50.1865 12.6264C50.3404 12.1955 50.5651 11.8478 50.8605 11.5831C51.1591 11.3153 51.5022 11.1214 51.89 11.0014C52.2778 10.8783 52.6856 10.8168 53.1134 10.8168C53.3965 10.8168 53.6966 10.8506 54.0136 10.9183C54.3337 10.983 54.6322 11.103 54.9092 11.2784C55.1892 11.4538 55.4185 11.7047 55.597 12.0309C55.7755 12.354 55.8648 12.7741 55.8648 13.2912V18H54.5168V17.0305H54.4614C54.3721 17.209 54.2383 17.3845 54.0597 17.5568C53.8812 17.7292 53.652 17.8723 53.3719 17.9862C53.0918 18.1 52.7564 18.157 52.3655 18.157ZM52.6656 17.049C53.0472 17.049 53.3734 16.9736 53.6443 16.8228C53.9182 16.672 54.1259 16.475 54.2675 16.2319C54.4121 15.9857 54.4845 15.7225 54.4845 15.4425V14.5284C54.4352 14.5777 54.3398 14.6238 54.1982 14.6669C54.0597 14.7069 53.9012 14.7423 53.7227 14.7731C53.5442 14.8008 53.3704 14.8269 53.2011 14.8516C53.0318 14.8731 52.8902 14.8916 52.7764 14.907C52.5086 14.9408 52.2639 14.9978 52.0423 15.0778C51.8238 15.1578 51.6484 15.2732 51.5161 15.424C51.3868 15.5717 51.3222 15.7687 51.3222 16.0149C51.3222 16.3565 51.4484 16.6151 51.7007 16.7905C51.9531 16.9628 52.2747 17.049 52.6656 17.049ZM59.0836 8.54545V18H57.7033V8.54545H59.0836ZM63.0042 18.157C62.5548 18.157 62.1486 18.0739 61.7854 17.9077C61.4223 17.7384 61.1345 17.4937 60.9221 17.1737C60.7129 16.8536 60.6082 16.4612 60.6082 15.9964C60.6082 15.5964 60.6852 15.267 60.839 15.0085C60.9929 14.75 61.2007 14.5453 61.4623 14.3945C61.7239 14.2437 62.0162 14.1299 62.3394 14.0529C62.6626 13.976 62.9919 13.9175 63.3273 13.8775C63.752 13.8282 64.0967 13.7882 64.3614 13.7575C64.6261 13.7236 64.8184 13.6697 64.9385 13.5959C65.0585 13.522 65.1185 13.402 65.1185 13.2358V13.2035C65.1185 12.8003 65.0046 12.4879 64.7769 12.2663C64.5522 12.0447 64.2168 11.9339 63.7705 11.9339C63.3058 11.9339 62.9395 12.037 62.6718 12.2433C62.4071 12.4464 62.224 12.6726 62.1224 12.9219L60.8252 12.6264C60.9791 12.1955 61.2037 11.8478 61.4992 11.5831C61.7977 11.3153 62.1409 11.1214 62.5287 11.0014C62.9165 10.8783 63.3242 10.8168 63.752 10.8168C64.0352 10.8168 64.3353 10.8506 64.6523 10.9183C64.9723 10.983 65.2709 11.103 65.5479 11.2784C65.8279 11.4538 66.0572 11.7047 66.2357 12.0309C66.4142 12.354 66.5035 12.7741 66.5035 13.2912V18H65.1555V17.0305H65.1001C65.0108 17.209 64.8769 17.3845 64.6984 17.5568C64.5199 17.7292 64.2906 17.8723 64.0106 17.9862C63.7305 18.1 63.395 18.157 63.0042 18.157ZM63.3042 17.049C63.6859 17.049 64.0121 16.9736 64.2829 16.8228C64.5568 16.672 64.7646 16.475 64.9062 16.2319C65.0508 15.9857 65.1231 15.7225 65.1231 15.4425V14.5284C65.0739 14.5777 64.9785 14.6238 64.8369 14.6669C64.6984 14.7069 64.5399 14.7423 64.3614 14.7731C64.1829 14.8008 64.009 14.8269 63.8398 14.8516C63.6705 14.8731 63.5289 14.8916 63.415 14.907C63.1473 14.9408 62.9026 14.9978 62.681 15.0778C62.4625 15.1578 62.2871 15.2732 62.1547 15.424C62.0255 15.5717 61.9608 15.7687 61.9608 16.0149C61.9608 16.3565 62.087 16.6151 62.3394 16.7905C62.5918 16.9628 62.9134 17.049 63.3042 17.049ZM69.7223 13.7898V18H68.342V10.9091H69.6669V12.0632H69.7546C69.9177 11.6877 70.1732 11.3861 70.521 11.1584C70.8718 10.9306 71.3134 10.8168 71.8459 10.8168C72.3291 10.8168 72.7522 10.9183 73.1154 11.1214C73.4786 11.3215 73.7602 11.62 73.9602 12.017C74.1603 12.4141 74.2603 12.9049 74.2603 13.4897V18H72.88V13.6559C72.88 13.1419 72.7461 12.7403 72.4783 12.451C72.2106 12.1586 71.8428 12.0124 71.375 12.0124C71.0549 12.0124 70.7702 12.0817 70.521 12.2202C70.2747 12.3587 70.0793 12.5618 69.9347 12.8295C69.7931 13.0942 69.7223 13.4143 69.7223 13.7898ZM79.0984 18.1431C78.4121 18.1431 77.8211 17.9877 77.3256 17.6768C76.8332 17.3629 76.4547 16.9305 76.19 16.3796C75.9253 15.8287 75.793 15.1978 75.793 14.4869C75.793 13.7667 75.9284 13.1312 76.1992 12.5803C76.4701 12.0263 76.8517 11.5939 77.3441 11.283C77.8365 10.9722 78.4167 10.8168 79.0845 10.8168C79.6231 10.8168 80.1032 10.9168 80.5249 11.1168C80.9465 11.3138 81.2866 11.5908 81.5451 11.9478C81.8067 12.3048 81.9621 12.7218 82.0114 13.1989H80.668C80.5941 12.8665 80.4248 12.5803 80.1602 12.3402C79.8986 12.1001 79.5477 11.9801 79.1076 11.9801C78.7229 11.9801 78.3859 12.0817 78.0966 12.2848C77.8104 12.4848 77.5872 12.7711 77.4272 13.1435C77.2672 13.5128 77.1871 13.9498 77.1871 14.4545C77.1871 14.9716 77.2656 15.4179 77.4226 15.7933C77.5795 16.1688 77.8011 16.4596 78.0874 16.6658C78.3767 16.872 78.7167 16.9751 79.1076 16.9751C79.3692 16.9751 79.6062 16.9274 79.8185 16.832C80.034 16.7335 80.214 16.5935 80.3587 16.4119C80.5064 16.2304 80.6095 16.0118 80.668 15.7564H82.0114C81.9621 16.215 81.8129 16.6243 81.5636 16.9844C81.3143 17.3445 80.9804 17.6276 80.5618 17.8338C80.1463 18.04 79.6585 18.1431 79.0984 18.1431ZM84.8678 13.7898V18H83.4875V8.54545H84.8493V12.0632H84.9371C85.1032 11.6816 85.3572 11.3784 85.6988 11.1538C86.0404 10.9291 86.4867 10.8168 87.0376 10.8168C87.5238 10.8168 87.9485 10.9168 88.3117 11.1168C88.6779 11.3169 88.9611 11.6154 89.1611 12.0124C89.3643 12.4064 89.4658 12.8988 89.4658 13.4897V18H88.0855V13.6559C88.0855 13.1358 87.9516 12.7326 87.6839 12.4464C87.4161 12.1571 87.0437 12.0124 86.5667 12.0124C86.2404 12.0124 85.9481 12.0817 85.6895 12.2202C85.4341 12.3587 85.2325 12.5618 85.0848 12.8295C84.9401 13.0942 84.8678 13.4143 84.8678 13.7898ZM94.3639 18.1431C93.6653 18.1431 93.0636 17.9938 92.5589 17.6953C92.0572 17.3937 91.6694 16.9705 91.3955 16.4258C91.1247 15.878 90.9893 15.2363 90.9893 14.5007C90.9893 13.7744 91.1247 13.1342 91.3955 12.5803C91.6694 12.0263 92.051 11.5939 92.5404 11.283C93.0328 10.9722 93.6083 10.8168 94.267 10.8168C94.6671 10.8168 95.0548 10.8829 95.4303 11.0153C95.8058 11.1476 96.1428 11.3554 96.4413 11.6385C96.7398 11.9216 96.9753 12.2894 97.1476 12.7418C97.32 13.1912 97.4062 13.7375 97.4062 14.3807V14.87H91.7694V13.8359H96.0535C96.0535 13.4728 95.9797 13.1512 95.8319 12.8711C95.6842 12.5879 95.4765 12.3648 95.2087 12.2017C94.944 12.0386 94.6332 11.957 94.2762 11.957C93.8884 11.957 93.5499 12.0524 93.2606 12.2433C92.9743 12.431 92.7528 12.6772 92.5958 12.9819C92.4419 13.2835 92.365 13.6113 92.365 13.9652V14.7731C92.365 15.247 92.4481 15.6502 92.6143 15.9826C92.7835 16.315 93.019 16.5689 93.3206 16.7443C93.6222 16.9167 93.9746 17.0028 94.3778 17.0028C94.6394 17.0028 94.8779 16.9659 95.0933 16.892C95.3087 16.8151 95.4949 16.7012 95.6519 16.5504C95.8089 16.3996 95.9289 16.2134 96.012 15.9918L97.3184 16.2273C97.2138 16.612 97.0261 16.949 96.7552 17.2383C96.4875 17.5245 96.1505 17.7476 95.7442 17.9077C95.3411 18.0646 94.8809 18.1431 94.3639 18.1431Z" fill="#313233"/>
<rect x="0.5" y="0.5" width="106" height="25" rx="5.5" stroke="#CACBCC"/>
<defs>
<clipPath id="clip0_7119_63628">
<path d="M0 6C0 2.68629 2.68629 0 6 0H26V26H6C2.68629 26 0 23.3137 0 20V6Z" fill="white"/>
</clipPath>
<clipPath id="clip1_7119_63628">
<rect width="15.7685" height="15.7705" fill="white" transform="translate(5.54102 5.11475)"/>
</clipPath>
</defs>
</svg>
