<svg width="40" height="41" viewBox="0 0 40 41" fill="none" xmlns="http://www.w3.org/2000/svg">
<circle cx="20" cy="20.5" r="20" fill="#FFC12E" fill-opacity="0.2"/>
<path d="M18.86 14.5733L13.2133 24C13.0969 24.2016 13.0353 24.4302 13.0347 24.663C13.034 24.8958 13.0943 25.1248 13.2096 25.327C13.3249 25.5293 13.4912 25.6978 13.6918 25.8159C13.8925 25.934 14.1205 25.9975 14.3533 26H25.6467C25.8795 25.9975 26.1076 25.934 26.3082 25.8159C26.5089 25.6978 26.6751 25.5293 26.7904 25.327C26.9057 25.1248 26.966 24.8958 26.9654 24.663C26.9647 24.4302 26.9031 24.2016 26.7867 24L21.14 14.5733C21.0212 14.3774 20.8538 14.2154 20.6541 14.103C20.4545 13.9906 20.2292 13.9315 20 13.9315C19.7709 13.9315 19.5456 13.9906 19.3459 14.103C19.1462 14.2154 18.9789 14.3774 18.86 14.5733Z" stroke="#FFC12E" stroke-width="2" stroke-linecap="round" stroke-linejoin="round"/>
<path d="M20 18V20.6667" stroke="#FFC12E" stroke-width="2" stroke-linecap="round" stroke-linejoin="round"/>
<path d="M20 23.3334H20.0067" stroke="#FFC12E" stroke-width="2" stroke-linecap="round" stroke-linejoin="round"/>
</svg>
