<svg width="40" height="40" viewBox="0 0 40 40" fill="none" xmlns="http://www.w3.org/2000/svg">
<g clip-path="url(#clip0_11022_35565)">
<path d="M18.36 13.5735L12.7133 23.0001C12.5969 23.2018 12.5353 23.4303 12.5347 23.6631C12.534 23.896 12.5943 24.1249 12.7096 24.3272C12.8249 24.5294 12.9912 24.698 13.1918 24.816C13.3925 24.9341 13.6205 24.9976 13.8533 25.0001H25.1467C25.3795 24.9976 25.6076 24.9341 25.8082 24.816C26.0089 24.698 26.1751 24.5294 26.2904 24.3272C26.4057 24.1249 26.466 23.896 26.4654 23.6631C26.4647 23.4303 26.4031 23.2018 26.2867 23.0001L20.64 13.5735C20.5212 13.3775 20.3538 13.2155 20.1541 13.1031C19.9545 12.9907 19.7292 12.9316 19.5 12.9316C19.2709 12.9316 19.0456 12.9907 18.8459 13.1031C18.6462 13.2155 18.4789 13.3775 18.36 13.5735Z" stroke="#FFC12E" stroke-width="2" stroke-linecap="round" stroke-linejoin="round"/>
<path d="M19.5 17V19.6667" stroke="#FFC12E" stroke-width="2" stroke-linecap="round" stroke-linejoin="round"/>
<path d="M19.5 22.333H19.5067" stroke="#FFC12E" stroke-width="2" stroke-linecap="round" stroke-linejoin="round"/>
</g>
<circle cx="20" cy="20" r="20" fill="#FFC12E" fill-opacity="0.2"/>
<defs>
<clipPath id="clip0_11022_35565">
<rect width="16" height="16" fill="white" transform="translate(11.5 11)"/>
</clipPath>
</defs>
</svg>
