<svg width="40" height="40" viewBox="0 0 40 40" fill="none" xmlns="http://www.w3.org/2000/svg">
<rect width="40" height="40" rx="12" fill="#19191A"/>
<path d="M29.2104 23.8891C28.5742 25.3936 27.5792 26.7193 26.3123 27.7504C25.0454 28.7815 23.5452 29.4865 21.9428 29.8039C20.3405 30.1212 18.6848 30.0412 17.1205 29.5709C15.5563 29.1006 14.131 28.2542 12.9694 27.1058C11.8078 25.9573 10.9452 24.5419 10.457 22.9831C9.96886 21.4242 9.86996 19.7696 10.169 18.1637C10.468 16.5579 11.1559 15.0497 12.1724 13.7711C13.189 12.4925 14.5033 11.4824 16.0004 10.8291" stroke="white" stroke-width="2" stroke-linecap="round" stroke-linejoin="round"/>
<path d="M30 20C30 18.6868 29.7413 17.3864 29.2388 16.1732C28.7362 14.9599 27.9997 13.8575 27.0711 12.9289C26.1425 12.0003 25.0401 11.2638 23.8268 10.7612C22.6136 10.2587 21.3132 10 20 10V20H30Z" stroke="white" stroke-width="2" stroke-linecap="round" stroke-linejoin="round"/>
</svg>
