<svg width="14" height="10" viewBox="0 0 14 10" fill="none" xmlns="http://www.w3.org/2000/svg">
<path opacity="0.2" d="M13 0.5H1C0.723858 0.5 0.5 0.723858 0.5 1V9C0.5 9.27614 0.723858 9.5 1 9.5H13C13.2761 9.5 13.5 9.27614 13.5 9V1C13.5 0.723858 13.2761 0.5 13 0.5Z" fill="#5F33FF"/>
<path d="M13 0.5H1C0.723858 0.5 0.5 0.723858 0.5 1V9C0.5 9.27614 0.723858 9.5 1 9.5H13C13.2761 9.5 13.5 9.27614 13.5 9V1C13.5 0.723858 13.2761 0.5 13 0.5Z" stroke="#5F33FF" stroke-linecap="round" stroke-linejoin="round"/>
<path d="M2.5 5.5H3.5" stroke="#5F33FF" stroke-linecap="round" stroke-linejoin="round"/>
<path d="M5.5 5.5H11.5" stroke="#5F33FF" stroke-linecap="round" stroke-linejoin="round"/>
<path d="M2.5 7.5H8.5" stroke="#5F33FF" stroke-linecap="round" stroke-linejoin="round"/>
<path d="M11.5 7.5H10.5" stroke="#5F33FF" stroke-linecap="round" stroke-linejoin="round"/>
</svg>
