<svg width="20" height="20" viewBox="0 0 20 20" fill="none" xmlns="http://www.w3.org/2000/svg">
<path d="M2.5 5H4.16667H17.5" stroke="#B0B1B3" stroke-width="1.5" stroke-linecap="round" stroke-linejoin="round"/>
<path d="M6.66666 5.00033V3.33366C6.66666 2.89163 6.84225 2.46771 7.15481 2.15515C7.46737 1.84259 7.8913 1.66699 8.33332 1.66699H11.6667C12.1087 1.66699 12.5326 1.84259 12.8452 2.15515C13.1577 2.46771 13.3333 2.89163 13.3333 3.33366V5.00033M15.8333 5.00033V16.667C15.8333 17.109 15.6577 17.5329 15.3452 17.8455C15.0326 18.1581 14.6087 18.3337 14.1667 18.3337H5.83332C5.3913 18.3337 4.96737 18.1581 4.65481 17.8455C4.34225 17.5329 4.16666 17.109 4.16666 16.667V5.00033H15.8333Z" stroke="#B0B1B3" stroke-width="1.5" stroke-linecap="round" stroke-linejoin="round"/>
<path d="M8.33334 9.16699V14.167" stroke="#B0B1B3" stroke-width="1.5" stroke-linecap="round" stroke-linejoin="round"/>
<path d="M11.6667 9.16699V14.167" stroke="#B0B1B3" stroke-width="1.5" stroke-linecap="round" stroke-linejoin="round"/>
</svg>
