<svg width="19" height="19" viewBox="0 0 19 19" fill="none" xmlns="http://www.w3.org/2000/svg">
<path d="M14.1667 5.41663V3.33329C14.1667 2.41282 13.4206 1.66663 12.5001 1.66663H3.33341C2.41294 1.66663 1.66675 2.41282 1.66675 3.33329V15.8333C1.66675 16.7538 2.41294 17.5 3.33341 17.5H16.2501C17.1706 17.5 17.9167 16.7538 17.9167 15.8333V6.66663C17.9167 5.74615 17.1706 4.99996 16.2501 4.99996H5.41675" stroke="#19191A" stroke-width="1.66667"/>
<path d="M6.66675 4.99996H3.33341C2.41294 4.99996 1.66675 4.25377 1.66675 3.33329V3.33329C1.66675 2.41282 2.41294 1.66663 3.33341 1.66663H12.5001C13.4206 1.66663 14.1667 2.41282 14.1667 3.33329V4.99996" stroke="#19191A" stroke-width="1.66667"/>
<path d="M17.5001 9.58325H15.8334C14.9129 9.58325 14.1667 10.3294 14.1667 11.2499V11.2499C14.1667 12.1704 14.9129 12.9166 15.8334 12.9166H17.5001" stroke="#19191A" stroke-width="1.66667"/>
</svg>
