<svg width="18" height="22" viewBox="0 0 18 22" fill="none" xmlns="http://www.w3.org/2000/svg">
<path opacity="0.2" d="M7.5 8.01172L9.96281 1.26172C11.9869 2.94172 16.5 7.27578 16.5 12.5117C16.5 14.5008 15.7098 16.4085 14.3033 17.815C12.8968 19.2215 10.9891 20.0117 9 20.0117C7.01088 20.0117 5.10322 19.2215 3.6967 17.815C2.29018 16.4085 1.5 14.5008 1.5 12.5117C1.5 9.64578 2.85188 7.04984 4.40625 5.01172L7.5 8.01172Z" fill="black"/>
<path d="M7.5 8.01172L9.96281 1.26172C11.9869 2.94172 16.5 7.27578 16.5 12.5117C16.5 14.5008 15.7098 16.4085 14.3033 17.815C12.8968 19.2215 10.9891 20.0117 9 20.0117C7.01088 20.0117 5.10322 19.2215 3.6967 17.815C2.29018 16.4085 1.5 14.5008 1.5 12.5117C1.5 9.64578 2.85188 7.04984 4.40625 5.01172L7.5 8.01172Z" stroke="black" stroke-width="2" stroke-linecap="round" stroke-linejoin="round"/>
</svg>
