<svg width="16" height="15" viewBox="0 0 16 15" fill="none" xmlns="http://www.w3.org/2000/svg">
<path d="M15.3327 1.49999C14.6943 1.95031 13.9874 2.29473 13.2393 2.51999C12.8378 2.05833 12.3042 1.73112 11.7107 1.58261C11.1172 1.4341 10.4923 1.47145 9.92074 1.68963C9.34913 1.9078 8.85831 2.29626 8.51467 2.80247C8.17103 3.30868 7.99115 3.90821 7.99935 4.51999V5.18666C6.82777 5.21703 5.66687 4.9572 4.62002 4.43029C3.57318 3.90338 2.67289 3.12575 1.99935 2.16666C1.99935 2.16666 -0.667318 8.16666 5.33268 10.8333C3.9597 11.7653 2.32412 12.2326 0.666016 12.1667C6.66602 15.5 13.9993 12.1667 13.9993 4.49999C13.9987 4.31429 13.9809 4.12905 13.946 3.94666C14.6264 3.27565 15.1066 2.42847 15.3327 1.49999Z" stroke="#636467" stroke-width="1.5" stroke-linecap="round" stroke-linejoin="round"/>
</svg>
