<svg width="24" height="24" viewBox="0 0 24 24" fill="none" xmlns="http://www.w3.org/2000/svg">
<g clip-path="url(#clip0_8145_31033)">
<path d="M8.23165 14.3483C10.8535 14.3483 12.9789 12.2229 12.9789 9.60103C12.9789 6.97919 10.8535 4.85376 8.23165 4.85376C5.6098 4.85376 3.48438 6.97919 3.48438 9.60103C3.48438 12.2229 5.6098 14.3483 8.23165 14.3483Z" stroke="#B0B1B3" stroke-width="2.0575" stroke-linecap="round" stroke-linejoin="round"/>
<path d="M1.49707 18C2.22659 16.8783 3.22471 15.9566 4.40082 15.3186C5.57693 14.6805 6.89378 14.3463 8.23181 14.3463C9.56985 14.3463 10.8867 14.6805 12.0628 15.3186C13.2389 15.9566 14.237 16.8783 14.9666 18" stroke="#B0B1B3" stroke-width="2.0575" stroke-linecap="round" stroke-linejoin="round"/>
<path d="M16.2646 14.3481C17.6026 14.3474 18.9196 14.681 20.0958 15.3188C21.2719 15.9565 22.2701 16.8782 22.9994 17.9999" stroke="#B0B1B3" stroke-width="2.0575" stroke-linecap="round" stroke-linejoin="round"/>
<path d="M14.501 5.19155C15.1504 4.93254 15.8489 4.82017 16.5468 4.86245C17.2446 4.90474 17.9245 5.10064 18.5379 5.43615C19.1513 5.77167 19.683 6.23852 20.095 6.80335C20.507 7.36817 20.7892 8.01703 20.9213 8.70356C21.0535 9.39008 21.0324 10.0973 20.8596 10.7748C20.6867 11.4522 20.3664 12.0831 19.9214 12.6223C19.4765 13.1616 18.9179 13.5959 18.2856 13.8943C17.6534 14.1927 16.963 14.3477 16.2639 14.3483" stroke="#B0B1B3" stroke-width="2.0575" stroke-linecap="round" stroke-linejoin="round"/>
</g>
<defs>
<clipPath id="clip0_8145_31033">
<rect width="24" height="24" fill="white"/>
</clipPath>
</defs>
</svg>
