<svg width="43" height="43" viewBox="0 0 43 43" fill="none" xmlns="http://www.w3.org/2000/svg">
<rect width="43" height="43" fill="white"/>
<rect width="43" height="43" rx="8" fill="#E5E5E6" fill-opacity="0.5"/>
<path d="M27 15.5V13C27 11.8954 26.1046 11 25 11H14C12.8954 11 12 11.8954 12 13V28C12 29.1046 12.8954 30 14 30H29.5C30.6046 30 31.5 29.1046 31.5 28V17C31.5 15.8954 30.6046 15 29.5 15H16.5" stroke="#96979A" stroke-width="2"/>
<path d="M18 15H14C12.8954 15 12 14.1046 12 13V13C12 11.8954 12.8954 11 14 11H25C26.1046 11 27 11.8954 27 13V15" stroke="#96979A" stroke-width="2"/>
<path d="M31 20.5H29C27.8954 20.5 27 21.3954 27 22.5V22.5C27 23.6046 27.8954 24.5 29 24.5H31" stroke="#96979A" stroke-width="2"/>
</svg>
