<svg width="26" height="26" viewBox="0 0 26 26" fill="none" xmlns="http://www.w3.org/2000/svg">
<path d="M26 13L22.9048 9.88L13.1032 0L10.0079 3.12L0 13L4.02381 17.056L12.8968 26L16.9206 21.944L26 13ZM11.0397 15.912L15.9921 10.92L17.9524 12.896L13 17.888L11.0397 15.912ZM10.1111 14.976L8.15079 13L13.1032 8.008L15.0635 9.984L10.1111 14.976ZM16.0952 21.008L13.9286 18.824L21.9762 10.712L24.1429 12.896L16.0952 21.008ZM13 1.768L20.9444 9.776L18.7778 11.96L10.8333 3.952L13 1.768ZM9.90476 4.888L12.0714 7.072L7.11905 12.064L4.02381 15.184L1.85714 13L9.90476 4.888ZM13 24.232L4.95238 16.12L7.11905 13.936L15.1667 22.048L13 24.232Z" fill="#B0B1B3"/>
</svg>
