<svg width="18" height="18" viewBox="0 0 18 18" fill="none" xmlns="http://www.w3.org/2000/svg">
<mask id="path-1-outside-1_5509_53294" maskUnits="userSpaceOnUse" x="0" y="0.719849" width="18" height="14" fill="black">
<rect fill="white" y="0.719849" width="18" height="14"/>
<path d="M4.86426 7.58566H2C2 10.5656 4.85453 12.1569 7.51847 11.9625C9.95353 11.7826 11.7909 10.3713 11.7909 7.60725V5.23913C11.7909 3.84993 12.7891 2.71985 14.0162 2.71985H15.3641V2.79903C15.3641 3.9435 14.6901 4.87203 13.6792 4.87203H11.81"/>
</mask>
<path d="M2 7.58566V5.58566H0V7.58566H2ZM7.51847 11.9625L7.66399 13.9572L7.66586 13.9571L7.51847 11.9625ZM15.3641 2.71985H17.3641V0.719849H15.3641V2.71985ZM4.86426 5.58566H2V9.58566H4.86426V5.58566ZM0 7.58566C0 9.79502 1.08843 11.5161 2.5994 12.5931C4.06331 13.6365 5.91568 14.0848 7.66399 13.9572L7.37295 9.96782C6.45731 10.0346 5.55045 9.78441 4.92111 9.33582C4.33883 8.92079 4 8.35625 4 7.58566H0ZM7.66586 13.9571C9.21263 13.8428 10.7592 13.3234 11.9406 12.2084C13.1567 11.0607 13.7909 9.46395 13.7909 7.60725H9.79095C9.79095 8.51456 9.50652 9.0055 9.19509 9.29942C8.849 9.62607 8.25936 9.90232 7.37107 9.96796L7.66586 13.9571ZM13.7909 7.60725V5.23913H9.79095V7.60725H13.7909ZM13.7909 5.23913C13.7909 5.02169 13.8692 4.86544 13.9424 4.78257C14.0126 4.70314 14.0433 4.71985 14.0162 4.71985V0.719849C11.4585 0.719849 9.79095 2.98584 9.79095 5.23913H13.7909ZM14.0162 4.71985H15.3641V0.719849H14.0162V4.71985ZM13.3641 2.71985V2.79903H17.3641V2.71985H13.3641ZM13.3641 2.79903C13.3641 2.89033 13.3505 2.95744 13.3373 2.99886C13.3239 3.04097 13.3143 3.04668 13.3282 3.02893C13.3434 3.00955 13.3843 2.96624 13.4589 2.92813C13.5373 2.88807 13.6177 2.87203 13.6792 2.87203V6.87203C16.2169 6.87203 17.3641 4.57223 17.3641 2.79903H13.3641ZM13.6792 2.87203H11.81V6.87203H13.6792V2.87203Z" fill="#96979A" mask="url(#path-1-outside-1_5509_53294)"/>
<mask id="path-3-outside-2_5509_53294" maskUnits="userSpaceOnUse" x="4" y="0.719849" width="8" height="7" fill="black">
<rect fill="white" x="4" y="0.719849" width="8" height="7"/>
<path d="M12 4.87203H7.78656C6.77566 4.87203 6 3.9435 6 2.79903V2.71985H7.34787C8.57493 2.71985 9.58484 3.48283 9.58484 4.87203"/>
</mask>
<path d="M6 2.71985V0.719849H4V2.71985H6ZM12 2.87203H7.78656V6.87203H12V2.87203ZM7.78656 2.87203C7.84592 2.87203 7.90733 2.88689 7.95856 2.91191C8.0068 2.93547 8.0299 2.95983 8.03534 2.9662C8.04318 2.97538 8 2.92542 8 2.79903H4C4 4.73951 5.38593 6.87203 7.78656 6.87203V2.87203ZM8 2.79903V2.71985H4V2.79903H8ZM6 4.71985H7.34787V0.719849H6V4.71985ZM7.34787 4.71985C7.55753 4.71985 7.61301 4.78352 7.59036 4.76318C7.58603 4.75929 7.58064 4.75353 7.57559 4.74649C7.5732 4.74317 7.57136 4.7402 7.57003 4.73784C7.5687 4.73548 7.56818 4.73424 7.56827 4.73445C7.56836 4.73467 7.56928 4.73685 7.57066 4.74137C7.57205 4.7459 7.57402 4.75323 7.57607 4.76371C7.58012 4.78447 7.58484 4.81975 7.58484 4.87203H11.5848C11.5848 3.6583 11.1259 2.56188 10.2627 1.7868C9.42828 1.03767 8.36527 0.719849 7.34787 0.719849V4.71985Z" fill="#96979A" mask="url(#path-3-outside-2_5509_53294)"/>
<path d="M8 10V17V17C8.55228 17 9 16.5523 9 16V10" stroke="white" stroke-width="2" stroke-miterlimit="10"/>
<path d="M7 10V17V17C8.65685 17 10 15.6569 10 14V10" stroke="#96979A" stroke-width="2" stroke-miterlimit="10"/>
</svg>
