<svg width="25" height="25" viewBox="0 0 25 25" fill="none" xmlns="http://www.w3.org/2000/svg">
<path d="M10.2192 13.0625C10.6487 13.6366 11.1966 14.1116 11.8258 14.4554C12.455 14.7992 13.1507 15.0036 13.8659 15.0548C14.581 15.106 15.2988 15.0028 15.9706 14.7522C16.6423 14.5017 17.2524 14.1095 17.7592 13.6025L20.7592 10.6025C21.67 9.65945 22.174 8.39644 22.1626 7.08546C22.1512 5.77448 21.6254 4.52041 20.6983 3.59337C19.7713 2.66633 18.5172 2.14049 17.2062 2.1291C15.8953 2.1177 14.6322 2.62168 13.6892 3.53247L11.9692 5.24247" stroke="black" stroke-width="2" stroke-linecap="round" stroke-linejoin="round"/>
<path d="M14.2192 11.0625C13.7897 10.4884 13.2418 10.0133 12.6126 9.66954C11.9835 9.32578 11.2877 9.12136 10.5725 9.07015C9.8574 9.01893 9.13961 9.12211 8.46785 9.3727C7.79609 9.62329 7.18608 10.0154 6.67919 10.5225L3.67919 13.5225C2.7684 14.4655 2.26443 15.7285 2.27582 17.0395C2.28722 18.3505 2.81306 19.6045 3.7401 20.5316C4.66714 21.4586 5.9212 21.9845 7.23219 21.9959C8.54317 22.0072 9.80618 21.5033 10.7492 20.5925L12.4592 18.8825" stroke="black" stroke-width="2" stroke-linecap="round" stroke-linejoin="round"/>
</svg>
