<svg width="24" height="25" viewBox="0 0 24 25" fill="none" xmlns="http://www.w3.org/2000/svg">
<g clip-path="url(#clip0_10859_8642)">
<path opacity="0.2" d="M3.75 18.5721C3.75 18.97 3.90804 19.3515 4.18934 19.6328C4.47064 19.9141 4.85218 20.0721 5.25 20.0721H20.25C20.4489 20.0721 20.6397 19.9931 20.7803 19.8525C20.921 19.7118 21 19.5211 21 19.3221V8.82214C21 8.62323 20.921 8.43247 20.7803 8.29181C20.6397 8.15116 20.4489 8.07214 20.25 8.07214H5.25C4.85218 8.07214 4.47064 7.91411 4.18934 7.6328C3.90804 7.3515 3.75 6.96997 3.75 6.57214V18.5721Z" fill="black"/>
<path d="M3.75 6.57214V18.5721C3.75 18.97 3.90804 19.3515 4.18934 19.6328C4.47064 19.9141 4.85218 20.0721 5.25 20.0721H20.25C20.4489 20.0721 20.6397 19.9931 20.7803 19.8525C20.921 19.7118 21 19.5211 21 19.3221V8.82214C21 8.62323 20.921 8.43247 20.7803 8.29181C20.6397 8.15116 20.4489 8.07214 20.25 8.07214H5.25C4.85218 8.07214 4.47064 7.91411 4.18934 7.6328C3.90804 7.3515 3.75 6.96997 3.75 6.57214ZM3.75 6.57214C3.75 6.17432 3.90804 5.79279 4.18934 5.51148C4.47064 5.23018 4.85218 5.07214 5.25 5.07214H18" stroke="black" stroke-width="1.5" stroke-linecap="round" stroke-linejoin="round"/>
<path d="M16.875 14.8221C17.4963 14.8221 18 14.3185 18 13.6971C18 13.0758 17.4963 12.5721 16.875 12.5721C16.2537 12.5721 15.75 13.0758 15.75 13.6971C15.75 14.3185 16.2537 14.8221 16.875 14.8221Z" fill="black"/>
</g>
<defs>
<clipPath id="clip0_10859_8642">
<rect width="24" height="24" fill="white" transform="translate(0 0.572144)"/>
</clipPath>
</defs>
</svg>
