<svg width="22" height="21" viewBox="0 0 22 21" fill="none" xmlns="http://www.w3.org/2000/svg">
<path d="M16 5.5V3C16 1.89543 15.1046 1 14 1H3C1.89543 1 1 1.89543 1 3V18C1 19.1046 1.89543 20 3 20H18.5C19.6046 20 20.5 19.1046 20.5 18V7C20.5 5.89543 19.6046 5 18.5 5H5.5" stroke="#19191A" stroke-width="2"/>
<path d="M7 5H3C1.89543 5 1 4.10457 1 3V3C1 1.89543 1.89543 1 3 1H14C15.1046 1 16 1.89543 16 3V5" stroke="#19191A" stroke-width="2"/>
<path d="M20 10.5H18C16.8954 10.5 16 11.3954 16 12.5V12.5C16 13.6046 16.8954 14.5 18 14.5H20" stroke="#19191A" stroke-width="2"/>
</svg>
