<svg width="28" height="28" viewBox="0 0 28 28" fill="none" xmlns="http://www.w3.org/2000/svg">
<g clip-path="url(#clip0_10858_8342)">
<path opacity="0.2" d="M13.9999 3.5C11.8758 3.49987 9.80154 4.14398 8.05111 5.34729C6.30068 6.55059 4.95637 8.2565 4.19567 10.2397C3.43498 12.223 3.29368 14.3903 3.79044 16.4556C4.2872 18.5208 5.39865 20.3868 6.97803 21.8072C7.63676 20.511 8.64148 19.4225 9.88087 18.6622C11.1203 17.902 12.5459 17.4997 13.9999 17.5C13.1346 17.5 12.2887 17.2434 11.5693 16.7627C10.8498 16.2819 10.2891 15.5987 9.95793 14.7992C9.6268 13.9998 9.54016 13.1201 9.70897 12.2715C9.87778 11.4228 10.2945 10.6433 10.9063 10.0314C11.5182 9.41955 12.2977 9.00287 13.1464 8.83406C13.9951 8.66525 14.8747 8.75189 15.6741 9.08303C16.4736 9.41416 17.1569 9.97492 17.6376 10.6944C18.1183 11.4138 18.3749 12.2597 18.3749 13.125C18.3749 14.2853 17.914 15.3981 17.0935 16.2186C16.273 17.0391 15.1602 17.5 13.9999 17.5C15.4538 17.4996 16.8794 17.9017 18.1187 18.6618C19.3581 19.4218 20.3629 20.5101 21.0218 21.8061C22.6008 20.3856 23.7118 18.5197 24.2084 16.4547C24.7049 14.3896 24.5635 12.2226 23.8028 10.2396C23.0422 8.25654 21.6981 6.55082 19.9479 5.34757C18.1977 4.14432 16.1238 3.50012 13.9999 3.5Z" fill="black"/>
<path d="M6.97803 21.8061C7.63637 20.5094 8.64092 19.4203 9.88034 18.6595C11.1198 17.8988 12.5456 17.4961 13.9999 17.4961C15.4542 17.4961 16.88 17.8988 18.1195 18.6595C19.3589 19.4203 20.3634 20.5094 21.0218 21.8061" stroke="black" stroke-width="2" stroke-linecap="round" stroke-linejoin="round"/>
<path d="M14 24.5C19.799 24.5 24.5 19.799 24.5 14C24.5 8.20101 19.799 3.5 14 3.5C8.20101 3.5 3.5 8.20101 3.5 14C3.5 19.799 8.20101 24.5 14 24.5Z" stroke="black" stroke-width="2" stroke-linecap="round" stroke-linejoin="round"/>
<path d="M14 17.5C16.4162 17.5 18.375 15.5412 18.375 13.125C18.375 10.7088 16.4162 8.75 14 8.75C11.5838 8.75 9.625 10.7088 9.625 13.125C9.625 15.5412 11.5838 17.5 14 17.5Z" stroke="black" stroke-width="2" stroke-linecap="round" stroke-linejoin="round"/>
</g>
<defs>
<clipPath id="clip0_10858_8342">
<rect width="28" height="28" fill="white"/>
</clipPath>
</defs>
</svg>
