<svg width="24" height="24" viewBox="0 0 24 24" fill="none" xmlns="http://www.w3.org/2000/svg">
<path opacity="0.2" d="M17.2622 13.8468C17.1594 13.9371 17.083 14.0535 17.0411 14.1837C16.9992 14.314 16.9933 14.4531 17.0241 14.5865L18.2916 20.0746C18.3251 20.2179 18.3157 20.3679 18.2645 20.506C18.2133 20.644 18.1227 20.7639 18.0038 20.8508C17.885 20.9376 17.7432 20.9876 17.5962 20.9944C17.4491 21.0013 17.3033 20.9647 17.1769 20.8893L12.3863 17.983C12.2699 17.9122 12.1363 17.8748 12 17.8748C11.8638 17.8748 11.7302 17.9122 11.6138 17.983L6.82317 20.8893C6.69677 20.9647 6.55096 21.0013 6.40392 20.9944C6.25688 20.9876 6.1151 20.9376 5.99625 20.8508C5.87741 20.7639 5.78675 20.644 5.73558 20.506C5.68441 20.3679 5.67498 20.2179 5.70848 20.0746L6.97598 14.5865C7.00679 14.4531 7.00092 14.314 6.95899 14.1837C6.91707 14.0535 6.84065 13.9371 6.73786 13.8468L2.50879 10.1577C2.39573 10.0616 2.31371 9.93413 2.27312 9.79141C2.23252 9.64869 2.23518 9.49713 2.28074 9.35592C2.32631 9.21471 2.41274 9.09018 2.5291 8.9981C2.64546 8.90602 2.78651 8.85053 2.93442 8.83864L8.50879 8.35677C8.64479 8.34465 8.77491 8.29564 8.8851 8.21502C8.9953 8.1344 9.08139 8.02522 9.13411 7.89927L11.3119 2.70927C11.3701 2.57508 11.4662 2.46084 11.5885 2.38058C11.7107 2.30033 11.8538 2.25757 12 2.25757C12.1463 2.25757 12.2893 2.30033 12.4116 2.38058C12.5339 2.46084 12.63 2.57508 12.6882 2.70927L14.866 7.89927C14.9187 8.02522 15.0048 8.1344 15.115 8.21502C15.2252 8.29564 15.3553 8.34465 15.4913 8.35677L21.0657 8.83864C21.2136 8.85053 21.3546 8.90602 21.471 8.9981C21.5873 9.09018 21.6738 9.21471 21.7193 9.35592C21.7649 9.49713 21.7676 9.64869 21.727 9.79141C21.6864 9.93413 21.6044 10.0616 21.4913 10.1577L17.2622 13.8468Z" fill="#F19938"/>
<path d="M22.4249 9.121C22.3341 8.84104 22.1629 8.594 21.9327 8.41063C21.7025 8.22726 21.4234 8.11566 21.1303 8.08975L15.5624 7.60974L13.3799 2.41974C13.2663 2.14742 13.0747 1.9148 12.8291 1.75117C12.5835 1.58755 12.295 1.50024 11.9999 1.50024C11.7049 1.50024 11.4164 1.58755 11.1708 1.75117C10.9252 1.9148 10.7336 2.14742 10.6199 2.41974L8.44401 7.60974L2.86964 8.09256C2.57529 8.11729 2.29481 8.22838 2.06335 8.41188C1.83189 8.59539 1.65976 8.84315 1.56855 9.1241C1.47733 9.40504 1.4711 9.70666 1.55063 9.99113C1.63015 10.2756 1.79189 10.5303 2.01557 10.7232L6.24464 14.4188L4.97714 19.9069C4.91011 20.1941 4.92924 20.4947 5.03212 20.7711C5.135 21.0475 5.31707 21.2874 5.55557 21.4609C5.79407 21.6344 6.07841 21.7337 6.37305 21.7464C6.66769 21.7592 6.95955 21.6848 7.21214 21.5326L11.9934 18.6263L16.7849 21.5326C17.0375 21.6848 17.3294 21.7592 17.624 21.7464C17.9187 21.7337 18.203 21.6344 18.4415 21.4609C18.68 21.2874 18.8621 21.0475 18.965 20.7711C19.0678 20.4947 19.087 20.1941 19.0199 19.9069L17.7534 14.4132L21.9815 10.7232C22.2052 10.5296 22.3666 10.2742 22.4455 9.98914C22.5244 9.70406 22.5172 9.40202 22.4249 9.121ZM20.9981 9.58974L16.7699 13.2797C16.5642 13.4587 16.4111 13.6905 16.3272 13.95C16.2433 14.2095 16.2317 14.487 16.2937 14.7526L17.564 20.2501L12.7762 17.3438C12.5426 17.2016 12.2744 17.1263 12.0009 17.1263C11.7274 17.1263 11.4592 17.2016 11.2256 17.3438L6.44432 20.2501L7.7062 14.7563C7.76821 14.4907 7.75664 14.2132 7.67273 13.9537C7.58881 13.6942 7.43573 13.4625 7.22995 13.2835L2.99995 9.59537C2.9996 9.59257 2.9996 9.58974 2.99995 9.58693L8.57245 9.10506C8.84451 9.08108 9.10487 8.98327 9.32543 8.82219C9.54599 8.6611 9.71838 8.44286 9.82401 8.191L11.9999 3.00756L14.1749 8.191C14.2806 8.44286 14.453 8.6611 14.6735 8.82219C14.8941 8.98327 15.1544 9.08108 15.4265 9.10506L20.9999 9.58693C20.9999 9.58693 20.9999 9.59256 20.9999 9.59349L20.9981 9.58974Z" fill="#F19938"/>
</svg>
