<svg width="24" height="24" viewBox="0 0 24 24" xmlns="http://www.w3.org/2000/svg">
    <g fill="#FFF" fill-rule="nonzero">
        <path d="M16.31 4.964h-2.688A1.918 1.918 0 0 0 11.95 4c-.71 0-1.344.38-1.648.964H7.587a.898.898 0 0 0-.887.887c0 .482.406.887.887.887h2.714c.33.584.938.964 1.648.964s1.344-.38 1.673-.964h2.713a.898.898 0 0 0 .888-.887c0-.482-.431-.887-.913-.887zM12.228 8.26h-.558c-1.8 0-3.246 1.42-3.246 3.17v4.412c0 .76.533 1.369 1.268 1.546v-1.191c0-1.141 1.014-2.08 2.257-2.08 1.242 0 2.282.939 2.282 2.08v1.191c.71-.177 1.268-.786 1.268-1.546V11.43c-.026-1.75-1.497-3.17-3.272-3.17z"/>
        <path d="M11.949 15.157c-.685 0-1.268.482-1.268 1.065v2.713c0 .583.558 1.065 1.268 1.065.684 0 1.268-.482 1.268-1.065v-2.738c0-.584-.584-1.04-1.268-1.04z"/>
    </g>
</svg>
