<svg width="141" height="43" viewBox="0 0 141 43" fill="none" xmlns="http://www.w3.org/2000/svg">
<path d="M113.427 20.4268L116.824 23.8232C116.921 23.9209 117.08 23.9209 117.177 23.8232L120.574 20.4268C120.731 20.2693 120.62 20 120.397 20H113.604C113.381 20 113.27 20.2693 113.427 20.4268Z" fill="#828282"/>
<g clip-path="url(#clip0_3599_38849)">
<path d="M23.333 16.3232H18.6663C18.3127 16.3232 17.9736 16.4637 17.7235 16.7138C17.4735 16.9638 17.333 17.303 17.333 17.6566V26.9899C17.333 27.3435 17.4735 27.6827 17.7235 27.9327C17.9736 28.1828 18.3127 28.3232 18.6663 28.3232H27.9997C28.3533 28.3232 28.6924 28.1828 28.9425 27.9327C29.1925 27.6827 29.333 27.3435 29.333 26.9899V22.3232" stroke="#19191A" stroke-width="1.5" stroke-linecap="round" stroke-linejoin="round"/>
<path d="M28.333 15.3234C28.5982 15.0582 28.9579 14.9092 29.333 14.9092C29.7081 14.9092 30.0678 15.0582 30.333 15.3234C30.5982 15.5886 30.7472 15.9483 30.7472 16.3234C30.7472 16.6985 30.5982 17.0582 30.333 17.3234L23.9997 23.6567L21.333 24.3234L21.9997 21.6567L28.333 15.3234Z" stroke="#19191A" stroke-width="1.5" stroke-linecap="round" stroke-linejoin="round"/>
</g>
<path d="M41.8651 17.5455L44.4964 25.2457H44.6026L47.234 17.5455H48.7759L45.3736 27H43.7255L40.3232 17.5455H41.8651ZM50.0305 27V19.9091H51.4108V27H50.0305ZM50.7275 18.815C50.4875 18.815 50.2813 18.735 50.1089 18.5749C49.9397 18.4118 49.855 18.2179 49.855 17.9933C49.855 17.7655 49.9397 17.5716 50.1089 17.4116C50.2813 17.2485 50.4875 17.1669 50.7275 17.1669C50.9676 17.1669 51.1723 17.2485 51.3415 17.4116C51.5139 17.5716 51.6001 17.7655 51.6001 17.9933C51.6001 18.2179 51.5139 18.4118 51.3415 18.5749C51.1723 18.735 50.9676 18.815 50.7275 18.815ZM56.3239 27.1431C55.6252 27.1431 55.0236 26.9938 54.5188 26.6953C54.0172 26.3937 53.6294 25.9705 53.3555 25.4258C53.0846 24.878 52.9492 24.2363 52.9492 23.5007C52.9492 22.7744 53.0846 22.1342 53.3555 21.5803C53.6294 21.0263 54.011 20.5939 54.5004 20.283C54.9928 19.9722 55.5683 19.8168 56.2269 19.8168C56.627 19.8168 57.0148 19.8829 57.3903 20.0153C57.7657 20.1476 58.1027 20.3554 58.4013 20.6385C58.6998 20.9216 58.9353 21.2894 59.1076 21.7418C59.2799 22.1912 59.3661 22.7375 59.3661 23.3807V23.87H53.7294V22.8359H58.0135C58.0135 22.4728 57.9396 22.1512 57.7919 21.8711C57.6442 21.5879 57.4364 21.3648 57.1687 21.2017C56.904 21.0386 56.5932 20.957 56.2362 20.957C55.8484 20.957 55.5098 21.0524 55.2205 21.2433C54.9343 21.431 54.7127 21.6772 54.5558 21.9819C54.4019 22.2835 54.3249 22.6113 54.3249 22.9652V23.7731C54.3249 24.247 54.408 24.6502 54.5742 24.9826C54.7435 25.315 54.9789 25.5689 55.2805 25.7443C55.5821 25.9167 55.9345 26.0028 56.3377 26.0028C56.5993 26.0028 56.8378 25.9659 57.0533 25.892C57.2687 25.8151 57.4549 25.7012 57.6119 25.5504C57.7688 25.3996 57.8888 25.2134 57.9719 24.9918L59.2784 25.2273C59.1738 25.612 58.986 25.949 58.7152 26.2383C58.4474 26.5245 58.1104 26.7476 57.7042 26.9077C57.301 27.0646 56.8409 27.1431 56.3239 27.1431ZM62.4222 27L60.3356 19.9091H61.7621L63.1516 25.1165H63.2209L64.6151 19.9091H66.0415L67.4265 25.0934H67.4957L68.8761 19.9091H70.3026L68.2205 27H66.8125L65.3722 21.8803H65.266L63.8256 27H62.4222ZM78.0398 27.1431C77.375 27.1431 76.7949 26.9908 76.2994 26.6861C75.8039 26.3814 75.4192 25.9551 75.1452 25.4073C74.8713 24.8595 74.7344 24.2193 74.7344 23.4869C74.7344 22.7513 74.8713 22.1081 75.1452 21.5572C75.4192 21.0063 75.8039 20.5785 76.2994 20.2738C76.7949 19.9691 77.375 19.8168 78.0398 19.8168C78.7045 19.8168 79.2847 19.9691 79.7802 20.2738C80.2757 20.5785 80.6604 21.0063 80.9343 21.5572C81.2082 22.1081 81.3452 22.7513 81.3452 23.4869C81.3452 24.2193 81.2082 24.8595 80.9343 25.4073C80.6604 25.9551 80.2757 26.3814 79.7802 26.6861C79.2847 26.9908 78.7045 27.1431 78.0398 27.1431ZM78.0444 25.9844C78.4753 25.9844 78.8323 25.8705 79.1154 25.6428C79.3986 25.415 79.6078 25.1119 79.7433 24.7333C79.8817 24.3548 79.951 23.9377 79.951 23.4822C79.951 23.0298 79.8817 22.6143 79.7433 22.2358C79.6078 21.8542 79.3986 21.5479 79.1154 21.3171C78.8323 21.0863 78.4753 20.9709 78.0444 20.9709C77.6104 20.9709 77.2504 21.0863 76.9641 21.3171C76.681 21.5479 76.4702 21.8542 76.3317 22.2358C76.1963 22.6143 76.1286 23.0298 76.1286 23.4822C76.1286 23.9377 76.1963 24.3548 76.3317 24.7333C76.4702 25.1119 76.681 25.415 76.9641 25.6428C77.2504 25.8705 77.6104 25.9844 78.0444 25.9844ZM84.2662 22.7898V27H82.8859V19.9091H84.2108V21.0632H84.2986C84.4617 20.6877 84.7171 20.3861 85.0649 20.1584C85.4157 19.9306 85.8574 19.8168 86.3898 19.8168C86.873 19.8168 87.2962 19.9183 87.6594 20.1214C88.0225 20.3215 88.3041 20.62 88.5042 21.017C88.7042 21.4141 88.8042 21.9049 88.8042 22.4897V27H87.4239V22.6559C87.4239 22.1419 87.29 21.7403 87.0223 21.451C86.7545 21.1586 86.3867 21.0124 85.9189 21.0124C85.5989 21.0124 85.3142 21.0817 85.0649 21.2202C84.8187 21.3587 84.6233 21.5618 84.4786 21.8295C84.337 22.0942 84.2662 22.4143 84.2662 22.7898ZM92.0358 17.5455V27H90.6555V17.5455H92.0358ZM94.7653 29.6591C94.5591 29.6591 94.3713 29.6422 94.2021 29.6083C94.0328 29.5775 93.9066 29.5437 93.8235 29.5067L94.1559 28.3757C94.4083 28.4434 94.6329 28.4727 94.8299 28.4634C95.0269 28.4542 95.2008 28.3803 95.3516 28.2418C95.5054 28.1033 95.6409 27.8771 95.7578 27.5632L95.9286 27.0923L93.3342 19.9091H94.8114L96.6072 25.4119H96.6811L98.4769 19.9091H99.9588L97.0366 27.9464C96.9012 28.3157 96.7288 28.6281 96.5195 28.8835C96.3103 29.142 96.061 29.3359 95.7717 29.4652C95.4824 29.5945 95.1469 29.6591 94.7653 29.6591Z" fill="#19191A"/>
<rect x="0.5" y="0.5" width="140" height="42" rx="7.5" stroke="#CACBCC"/>
<defs>
<clipPath id="clip0_3599_38849">
<rect width="16" height="16" fill="white" transform="translate(16 13.6562)"/>
</clipPath>
</defs>
</svg>
