<svg width="14" height="14" viewBox="0 0 14 14" fill="none" xmlns="http://www.w3.org/2000/svg">
<path d="M10 3.84211V3C10 1.89543 9.10457 1 8 1H3C1.89543 1 1 1.89543 1 3V11C1 12.1046 1.89543 13 3 13H11C12.1046 13 13 12.1046 13 11V5.52631C13 4.42175 12.1046 3.52632 11 3.52632H3.7" stroke="white" stroke-width="1.5"/>
<path d="M4.6 3.52632H2.26316C1.56553 3.52632 1 2.96078 1 2.26316V2.26316C1 1.56554 1.56553 1 2.26316 1H8C9.10457 1 10 1.89543 10 3V3.52632" stroke="white" stroke-width="1.5"/>
<path d="M13.0001 7H11.8633C11.1656 7 10.6001 7.56554 10.6001 8.26316V8.26316C10.6001 8.96078 11.1656 9.52632 11.8633 9.52632H13.0001" stroke="white" stroke-width="1.5"/>
</svg>
