<svg xmlns="http://www.w3.org/2000/svg" fill="none" viewBox="84 66 60 60">
<g filter="url(#filter0_dd_696_18855)">
<rect x="84" y="66" width="60" height="60" rx="20" fill="white"/>
</g>
<path d="M119 91.5V89C119 87.8954 118.105 87 117 87H106C104.895 87 104 87.8954 104 89V104C104 105.105 104.895 106 106 106H122C123.105 106 124 105.105 124 104V93C124 91.8954 123.105 91 122 91H108.5" stroke="#19191A" stroke-width="2"/>
<path d="M110 91H106C104.895 91 104 90.1046 104 89V89C104 87.8954 104.895 87 106 87H117C118.105 87 119 87.8954 119 89V91" stroke="#19191A" stroke-width="2"/>
<path d="M124 96.5H122C120.895 96.5 120 97.3954 120 98.5V98.5C120 99.6046 120.895 100.5 122 100.5H124" stroke="#19191A" stroke-width="2"/>
<defs>
<filter id="filter0_dd_696_18855" x="0" y="0" width="228" height="228" filterUnits="userSpaceOnUse" color-interpolation-filters="sRGB">
<feFlood flood-opacity="0" result="BackgroundImageFix"/>
<feColorMatrix in="SourceAlpha" type="matrix" values="0 0 0 0 0 0 0 0 0 0 0 0 0 0 0 0 0 0 127 0" result="hardAlpha"/>
<feMorphology radius="4" operator="erode" in="SourceAlpha" result="effect1_dropShadow_696_18855"/>
<feOffset dy="18"/>
<feGaussianBlur stdDeviation="44"/>
<feColorMatrix type="matrix" values="0 0 0 0 0.0941176 0 0 0 0 0.152941 0 0 0 0 0.294118 0 0 0 0.14 0"/>
<feBlend mode="normal" in2="BackgroundImageFix" result="effect1_dropShadow_696_18855"/>
<feColorMatrix in="SourceAlpha" type="matrix" values="0 0 0 0 0 0 0 0 0 0 0 0 0 0 0 0 0 0 127 0" result="hardAlpha"/>
<feMorphology radius="6" operator="erode" in="SourceAlpha" result="effect2_dropShadow_696_18855"/>
<feOffset dy="8"/>
<feGaussianBlur stdDeviation="14"/>
<feColorMatrix type="matrix" values="0 0 0 0 0.0941176 0 0 0 0 0.152941 0 0 0 0 0.294118 0 0 0 0.12 0"/>
<feBlend mode="normal" in2="effect1_dropShadow_696_18855" result="effect2_dropShadow_696_18855"/>
<feBlend mode="normal" in="SourceGraphic" in2="effect2_dropShadow_696_18855" result="shape"/>
</filter>
</defs>
</svg>