<svg width="16" height="17" viewBox="0 0 16 17" fill="none" xmlns="http://www.w3.org/2000/svg">
<path opacity="0.2" d="M14.9312 8.5C14.9281 8.50658 14.9243 8.51441 14.92 8.52342C14.9044 8.55578 14.8808 8.60349 14.8489 8.66436C14.7852 8.7861 14.6883 8.96043 14.5565 9.16982C14.2927 9.5887 13.8893 10.1473 13.3308 10.7058C12.2142 11.8224 10.4792 12.9375 8 12.9375C5.52079 12.9375 3.78583 11.8224 2.66919 10.7058C2.1107 10.1473 1.70725 9.5887 1.44351 9.16982C1.31168 8.96043 1.21484 8.7861 1.15107 8.66436C1.11918 8.60349 1.09557 8.55578 1.07999 8.52342C1.07565 8.51441 1.07194 8.50658 1.06884 8.5C1.07194 8.49342 1.07565 8.48559 1.07999 8.47658C1.09557 8.44422 1.11918 8.39651 1.15107 8.33564C1.21484 8.2139 1.31168 8.03957 1.44351 7.83018C1.70725 7.4113 2.1107 6.85269 2.66919 6.29419C3.78583 5.17756 5.52079 4.0625 8 4.0625C10.4792 4.0625 12.2142 5.17756 13.3308 6.29419C13.8893 6.85269 14.2927 7.4113 14.5565 7.83018C14.6883 8.03957 14.7852 8.2139 14.8489 8.33564C14.8808 8.39651 14.9044 8.44422 14.92 8.47658C14.9243 8.48559 14.9281 8.49342 14.9312 8.5ZM6.57635 10.6306C6.99775 10.9122 7.49319 11.0625 8 11.0625C8.67962 11.0625 9.3314 10.7925 9.81196 10.312C10.2925 9.8314 10.5625 9.17962 10.5625 8.5C10.5625 7.99319 10.4122 7.49775 10.1306 7.07635C9.84907 6.65495 9.44886 6.32651 8.98063 6.13256C8.51239 5.93861 7.99716 5.88786 7.50008 5.98674C7.00301 6.08561 6.54641 6.32967 6.18804 6.68804C5.82967 7.04641 5.58561 7.503 5.48674 8.00008C5.38786 8.49716 5.43861 9.01239 5.63256 9.48063C5.82651 9.94886 6.15495 10.3491 6.57635 10.6306Z" fill="black" stroke="#636467" stroke-width="0.125"/>
<path d="M8 4C3 4 1 8.5 1 8.5C1 8.5 3 13 8 13C13 13 15 8.5 15 8.5C15 8.5 13 4 8 4Z" stroke="#636467" stroke-width="1.5" stroke-linecap="round" stroke-linejoin="round"/>
<path d="M8 11C9.38071 11 10.5 9.88071 10.5 8.5C10.5 7.11929 9.38071 6 8 6C6.61929 6 5.5 7.11929 5.5 8.5C5.5 9.88071 6.61929 11 8 11Z" stroke="#636467" stroke-width="1.5" stroke-linecap="round" stroke-linejoin="round"/>
</svg>
