<svg width="18" height="20" viewBox="0 0 18 20" fill="none" xmlns="http://www.w3.org/2000/svg">
<path d="M1.5 5H3.16667H16.5" stroke="#B0B1B3" stroke-width="1.5" stroke-linecap="round" stroke-linejoin="round"/>
<path d="M5.66669 5.00008V3.33341C5.66669 2.89139 5.84228 2.46746 6.15484 2.1549C6.4674 1.84234 6.89133 1.66675 7.33335 1.66675H10.6667C11.1087 1.66675 11.5326 1.84234 11.8452 2.1549C12.1578 2.46746 12.3334 2.89139 12.3334 3.33341V5.00008M14.8334 5.00008V16.6667C14.8334 17.1088 14.6578 17.5327 14.3452 17.8453C14.0326 18.1578 13.6087 18.3334 13.1667 18.3334H4.83335C4.39133 18.3334 3.9674 18.1578 3.65484 17.8453C3.34228 17.5327 3.16669 17.1088 3.16669 16.6667V5.00008H14.8334Z" stroke="#B0B1B3" stroke-width="1.5" stroke-linecap="round" stroke-linejoin="round"/>
<path d="M7.33331 9.16675V14.1667" stroke="#B0B1B3" stroke-width="1.5" stroke-linecap="round" stroke-linejoin="round"/>
<path d="M10.6667 9.16675V14.1667" stroke="#B0B1B3" stroke-width="1.5" stroke-linecap="round" stroke-linejoin="round"/>
</svg>
